<svg xmlns="http://www.w3.org/2000/svg" xmlns:xlink="http://www.w3.org/1999/xlink" width="166.558" height="180.896" viewBox="0 0 166.558 180.896"><defs><clipPath id="a"><rect width="166.558" height="180.896" fill="none"/></clipPath></defs><g clip-path="url(#a)"><path d="M6.219,86.243A3.11,3.11,0,1,1,3.11,83.134a3.109,3.109,0,0,1,3.109,3.109" transform="translate(0 15.514)" fill="#fff"/><path d="M28.739,86.243a3.11,3.11,0,1,1-3.109-3.109,3.109,3.109,0,0,1,3.109,3.109" transform="translate(4.203 15.514)" fill="#fff"/><path d="M51.26,86.243a3.11,3.11,0,1,1-3.109-3.109,3.109,3.109,0,0,1,3.109,3.109" transform="translate(8.405 15.514)" fill="#fff"/><path d="M73.78,86.243a3.11,3.11,0,1,1-3.109-3.109,3.109,3.109,0,0,1,3.109,3.109" transform="translate(12.608 15.514)" fill="#fff"/><path d="M6.219,107.6a3.11,3.11,0,1,1-3.109-3.109A3.109,3.109,0,0,1,6.219,107.6" transform="translate(0 19.5)" fill="#fff"/><path d="M28.739,107.6a3.11,3.11,0,1,1-3.109-3.109,3.109,3.109,0,0,1,3.109,3.109" transform="translate(4.203 19.5)" fill="#fff"/><path d="M51.26,107.6a3.11,3.11,0,1,1-3.109-3.109A3.109,3.109,0,0,1,51.26,107.6" transform="translate(8.405 19.5)" fill="#fff"/><path d="M73.78,107.6a3.11,3.11,0,1,1-3.109-3.109A3.109,3.109,0,0,1,73.78,107.6" transform="translate(12.608 19.5)" fill="#fff"/><path d="M6.219,128.958a3.11,3.11,0,1,1-3.109-3.109,3.109,3.109,0,0,1,3.109,3.109" transform="translate(0 23.485)" fill="#fff"/><path d="M28.739,128.958a3.11,3.11,0,1,1-3.109-3.109,3.109,3.109,0,0,1,3.109,3.109" transform="translate(4.203 23.485)" fill="#fff"/><path d="M51.26,128.958a3.11,3.11,0,1,1-3.109-3.109,3.109,3.109,0,0,1,3.109,3.109" transform="translate(8.405 23.485)" fill="#fff"/><path d="M73.78,128.958a3.11,3.11,0,1,1-3.109-3.109,3.109,3.109,0,0,1,3.109,3.109" transform="translate(12.608 23.485)" fill="#fff"/><path d="M6.219,150.316a3.11,3.11,0,1,1-3.109-3.109,3.109,3.109,0,0,1,3.109,3.109" transform="translate(0 27.471)" fill="#fff"/><path d="M28.739,150.316a3.11,3.11,0,1,1-3.109-3.109,3.109,3.109,0,0,1,3.109,3.109" transform="translate(4.203 27.471)" fill="#fff"/><path d="M51.26,150.316a3.11,3.11,0,1,1-3.109-3.109,3.109,3.109,0,0,1,3.109,3.109" transform="translate(8.405 27.471)" fill="#fff"/><path d="M73.78,150.316a3.11,3.11,0,1,1-3.109-3.109,3.109,3.109,0,0,1,3.109,3.109" transform="translate(12.608 27.471)" fill="#fff"/><path d="M6.219,3.109A3.11,3.11,0,1,1,3.11,0,3.109,3.109,0,0,1,6.219,3.109" fill="#fff"/><path d="M28.739,3.109A3.11,3.11,0,1,1,25.63,0a3.109,3.109,0,0,1,3.109,3.109" transform="translate(4.203)" fill="#fff"/><path d="M51.26,3.109A3.11,3.11,0,1,1,48.151,0,3.109,3.109,0,0,1,51.26,3.109" transform="translate(8.405)" fill="#fff"/><path d="M73.78,3.109A3.11,3.11,0,1,1,70.671,0,3.109,3.109,0,0,1,73.78,3.109" transform="translate(12.608)" fill="#fff"/><path d="M6.219,24.467A3.11,3.11,0,1,1,3.11,21.358a3.109,3.109,0,0,1,3.109,3.109" transform="translate(0 3.986)" fill="#fff"/><path d="M28.739,24.467a3.11,3.11,0,1,1-3.109-3.109,3.109,3.109,0,0,1,3.109,3.109" transform="translate(4.203 3.986)" fill="#fff"/><path d="M51.26,24.467a3.11,3.11,0,1,1-3.109-3.109,3.109,3.109,0,0,1,3.109,3.109" transform="translate(8.405 3.986)" fill="#fff"/><path d="M73.78,24.467a3.11,3.11,0,1,1-3.109-3.109,3.109,3.109,0,0,1,3.109,3.109" transform="translate(12.608 3.986)" fill="#fff"/><path d="M6.219,45.824A3.11,3.11,0,1,1,3.11,42.715a3.109,3.109,0,0,1,3.109,3.109" transform="translate(0 7.971)" fill="#fff"/><path d="M28.739,45.824a3.11,3.11,0,1,1-3.109-3.109,3.109,3.109,0,0,1,3.109,3.109" transform="translate(4.203 7.971)" fill="#fff"/><path d="M51.26,45.824a3.11,3.11,0,1,1-3.109-3.109,3.109,3.109,0,0,1,3.109,3.109" transform="translate(8.405 7.971)" fill="#fff"/><path d="M73.78,45.824a3.11,3.11,0,1,1-3.109-3.109,3.109,3.109,0,0,1,3.109,3.109" transform="translate(12.608 7.971)" fill="#fff"/><path d="M6.219,67.182A3.11,3.11,0,1,1,3.11,64.073a3.109,3.109,0,0,1,3.109,3.109" transform="translate(0 11.957)" fill="#fff"/><path d="M28.739,67.182a3.11,3.11,0,1,1-3.109-3.109,3.109,3.109,0,0,1,3.109,3.109" transform="translate(4.203 11.957)" fill="#fff"/><path d="M51.26,67.182a3.11,3.11,0,1,1-3.109-3.109,3.109,3.109,0,0,1,3.109,3.109" transform="translate(8.405 11.957)" fill="#fff"/><path d="M73.78,67.182a3.11,3.11,0,1,1-3.109-3.109,3.109,3.109,0,0,1,3.109,3.109" transform="translate(12.608 11.957)" fill="#fff"/><path d="M73.78,86.243a3.11,3.11,0,1,1-3.109-3.109,3.109,3.109,0,0,1,3.109,3.109" transform="translate(12.608 15.514)" fill="#fff"/><path d="M96.3,86.243a3.11,3.11,0,1,1-3.109-3.109A3.109,3.109,0,0,1,96.3,86.243" transform="translate(16.81 15.514)" fill="#fff"/><path d="M118.821,86.243a3.11,3.11,0,1,1-3.11-3.109,3.109,3.109,0,0,1,3.11,3.109" transform="translate(21.013 15.514)" fill="#fff"/><path d="M141.342,86.243a3.11,3.11,0,1,1-3.109-3.109,3.109,3.109,0,0,1,3.109,3.109" transform="translate(25.216 15.514)" fill="#fff"/><path d="M73.78,107.6a3.11,3.11,0,1,1-3.109-3.109A3.109,3.109,0,0,1,73.78,107.6" transform="translate(12.608 19.5)" fill="#fff"/><path d="M96.3,107.6a3.11,3.11,0,1,1-3.109-3.109A3.109,3.109,0,0,1,96.3,107.6" transform="translate(16.81 19.5)" fill="#fff"/><path d="M118.821,107.6a3.11,3.11,0,1,1-3.11-3.109,3.109,3.109,0,0,1,3.11,3.109" transform="translate(21.013 19.5)" fill="#fff"/><path d="M141.342,107.6a3.11,3.11,0,1,1-3.109-3.109,3.109,3.109,0,0,1,3.109,3.109" transform="translate(25.216 19.5)" fill="#fff"/><path d="M73.78,128.958a3.11,3.11,0,1,1-3.109-3.109,3.109,3.109,0,0,1,3.109,3.109" transform="translate(12.608 23.485)" fill="#fff"/><path d="M96.3,128.958a3.11,3.11,0,1,1-3.109-3.109,3.109,3.109,0,0,1,3.109,3.109" transform="translate(16.81 23.485)" fill="#fff"/><path d="M118.821,128.958a3.11,3.11,0,1,1-3.11-3.109,3.109,3.109,0,0,1,3.11,3.109" transform="translate(21.013 23.485)" fill="#fff"/><path d="M141.342,128.958a3.11,3.11,0,1,1-3.109-3.109,3.109,3.109,0,0,1,3.109,3.109" transform="translate(25.216 23.485)" fill="#fff"/><path d="M73.78,150.316a3.11,3.11,0,1,1-3.109-3.109,3.109,3.109,0,0,1,3.109,3.109" transform="translate(12.608 27.471)" fill="#fff"/><path d="M96.3,150.316a3.11,3.11,0,1,1-3.109-3.109,3.109,3.109,0,0,1,3.109,3.109" transform="translate(16.81 27.471)" fill="#fff"/><path d="M118.821,150.316a3.11,3.11,0,1,1-3.11-3.109,3.109,3.109,0,0,1,3.11,3.109" transform="translate(21.013 27.471)" fill="#fff"/><path d="M141.342,150.316a3.11,3.11,0,1,1-3.109-3.109,3.109,3.109,0,0,1,3.109,3.109" transform="translate(25.216 27.471)" fill="#fff"/><path d="M73.78,3.109A3.11,3.11,0,1,1,70.671,0,3.109,3.109,0,0,1,73.78,3.109" transform="translate(12.608)" fill="#fff"/><path d="M96.3,3.109A3.11,3.11,0,1,1,93.192,0,3.109,3.109,0,0,1,96.3,3.109" transform="translate(16.81)" fill="#fff"/><path d="M118.821,3.109A3.11,3.11,0,1,1,115.711,0a3.109,3.109,0,0,1,3.11,3.109" transform="translate(21.013)" fill="#fff"/><path d="M141.342,3.109A3.11,3.11,0,1,1,138.233,0a3.109,3.109,0,0,1,3.109,3.109" transform="translate(25.216)" fill="#fff"/><path d="M73.78,24.467a3.11,3.11,0,1,1-3.109-3.109,3.109,3.109,0,0,1,3.109,3.109" transform="translate(12.608 3.986)" fill="#fff"/><path d="M96.3,24.467a3.11,3.11,0,1,1-3.109-3.109A3.109,3.109,0,0,1,96.3,24.467" transform="translate(16.81 3.986)" fill="#fff"/><path d="M118.821,24.467a3.11,3.11,0,1,1-3.11-3.109,3.109,3.109,0,0,1,3.11,3.109" transform="translate(21.013 3.986)" fill="#fff"/><path d="M141.342,24.467a3.11,3.11,0,1,1-3.109-3.109,3.109,3.109,0,0,1,3.109,3.109" transform="translate(25.216 3.986)" fill="#fff"/><path d="M73.78,45.824a3.11,3.11,0,1,1-3.109-3.109,3.109,3.109,0,0,1,3.109,3.109" transform="translate(12.608 7.971)" fill="#fff"/><path d="M96.3,45.824a3.11,3.11,0,1,1-3.109-3.109A3.109,3.109,0,0,1,96.3,45.824" transform="translate(16.81 7.971)" fill="#fff"/><path d="M118.821,45.824a3.11,3.11,0,1,1-3.11-3.109,3.109,3.109,0,0,1,3.11,3.109" transform="translate(21.013 7.971)" fill="#fff"/><path d="M141.342,45.824a3.11,3.11,0,1,1-3.109-3.109,3.109,3.109,0,0,1,3.109,3.109" transform="translate(25.216 7.971)" fill="#fff"/><path d="M73.78,67.182a3.11,3.11,0,1,1-3.109-3.109,3.109,3.109,0,0,1,3.109,3.109" transform="translate(12.608 11.957)" fill="#fff"/><path d="M96.3,67.182a3.11,3.11,0,1,1-3.109-3.109A3.109,3.109,0,0,1,96.3,67.182" transform="translate(16.81 11.957)" fill="#fff"/><path d="M118.821,67.182a3.11,3.11,0,1,1-3.11-3.109,3.109,3.109,0,0,1,3.11,3.109" transform="translate(21.013 11.957)" fill="#fff"/><path d="M141.342,67.182a3.11,3.11,0,1,1-3.109-3.109,3.109,3.109,0,0,1,3.109,3.109" transform="translate(25.216 11.957)" fill="#fff"/></g></svg>