<svg xmlns="http://www.w3.org/2000/svg" xmlns:xlink="http://www.w3.org/1999/xlink" width="184.85" height="102.658" viewBox="0 0 184.85 102.658"><defs><clipPath id="a"><rect width="184.85" height="102.658" fill="#47b5ab"/></clipPath></defs><g transform="translate(-199.732 -109.308)"><g transform="translate(199.732 109.308)"><g transform="translate(0 0)" clip-path="url(#a)"><path d="M67.767,7.39A3.7,3.7,0,1,1,71.462,3.7,3.694,3.694,0,0,1,67.767,7.39" transform="translate(26.276 0)" fill="#47b5ab"/><path d="M67.767,29.91a3.7,3.7,0,1,1,3.694-3.694,3.694,3.694,0,0,1-3.694,3.694" transform="translate(26.276 9.235)" fill="#47b5ab"/><path d="M67.767,52.431a3.7,3.7,0,1,1,3.694-3.694,3.694,3.694,0,0,1-3.694,3.694" transform="translate(26.276 18.471)" fill="#47b5ab"/><path d="M67.767,74.951a3.7,3.7,0,1,1,3.694-3.694,3.694,3.694,0,0,1-3.694,3.694" transform="translate(26.276 27.706)" fill="#47b5ab"/><path d="M46.409,7.39A3.7,3.7,0,1,1,50.1,3.7,3.694,3.694,0,0,1,46.409,7.39" transform="translate(17.517 0)" fill="#47b5ab"/><path d="M46.409,29.91A3.7,3.7,0,1,1,50.1,26.216a3.694,3.694,0,0,1-3.694,3.694" transform="translate(17.517 9.235)" fill="#47b5ab"/><path d="M46.409,52.431A3.7,3.7,0,1,1,50.1,48.737a3.694,3.694,0,0,1-3.694,3.694" transform="translate(17.517 18.471)" fill="#47b5ab"/><path d="M46.409,74.951A3.7,3.7,0,1,1,50.1,71.257a3.694,3.694,0,0,1-3.694,3.694" transform="translate(17.517 27.706)" fill="#47b5ab"/><path d="M25.052,7.39A3.7,3.7,0,1,1,28.747,3.7,3.694,3.694,0,0,1,25.052,7.39" transform="translate(8.759 0)" fill="#47b5ab"/><path d="M25.052,29.91a3.7,3.7,0,1,1,3.694-3.694,3.694,3.694,0,0,1-3.694,3.694" transform="translate(8.759 9.235)" fill="#47b5ab"/><path d="M25.052,52.431a3.7,3.7,0,1,1,3.694-3.694,3.694,3.694,0,0,1-3.694,3.694" transform="translate(8.759 18.471)" fill="#47b5ab"/><path d="M25.052,74.951a3.7,3.7,0,1,1,3.694-3.694,3.694,3.694,0,0,1-3.694,3.694" transform="translate(8.759 27.706)" fill="#47b5ab"/><path d="M3.694,7.39A3.7,3.7,0,1,1,7.389,3.7,3.694,3.694,0,0,1,3.694,7.39" transform="translate(0 0)" fill="#47b5ab"/><path d="M3.694,29.91a3.7,3.7,0,1,1,3.694-3.694A3.694,3.694,0,0,1,3.694,29.91" transform="translate(0 9.235)" fill="#47b5ab"/><path d="M3.694,52.431a3.7,3.7,0,1,1,3.694-3.694,3.694,3.694,0,0,1-3.694,3.694" transform="translate(0 18.471)" fill="#47b5ab"/><path d="M3.694,74.951a3.7,3.7,0,1,1,3.694-3.694,3.694,3.694,0,0,1-3.694,3.694" transform="translate(0 27.706)" fill="#47b5ab"/><path d="M129.543,7.39A3.7,3.7,0,1,1,133.238,3.7a3.694,3.694,0,0,1-3.694,3.694" transform="translate(51.61 0)" fill="#47b5ab"/><path d="M129.543,29.91a3.7,3.7,0,1,1,3.694-3.694,3.694,3.694,0,0,1-3.694,3.694" transform="translate(51.61 9.235)" fill="#47b5ab"/><path d="M129.543,52.431a3.7,3.7,0,1,1,3.694-3.694,3.694,3.694,0,0,1-3.694,3.694" transform="translate(51.61 18.471)" fill="#47b5ab"/><path d="M129.543,74.951a3.7,3.7,0,1,1,3.694-3.694,3.694,3.694,0,0,1-3.694,3.694" transform="translate(51.61 27.706)" fill="#47b5ab"/><path d="M108.186,7.39A3.7,3.7,0,1,1,111.881,3.7a3.694,3.694,0,0,1-3.694,3.694" transform="translate(42.852 0)" fill="#47b5ab"/><path d="M108.186,29.91a3.7,3.7,0,1,1,3.694-3.694,3.694,3.694,0,0,1-3.694,3.694" transform="translate(42.852 9.235)" fill="#47b5ab"/><path d="M108.186,52.431a3.7,3.7,0,1,1,3.694-3.694,3.694,3.694,0,0,1-3.694,3.694" transform="translate(42.852 18.471)" fill="#47b5ab"/><path d="M108.186,74.951a3.7,3.7,0,1,1,3.694-3.694,3.694,3.694,0,0,1-3.694,3.694" transform="translate(42.852 27.706)" fill="#47b5ab"/><path d="M86.828,7.39A3.7,3.7,0,1,1,90.523,3.7,3.694,3.694,0,0,1,86.828,7.39" transform="translate(34.093 0)" fill="#47b5ab"/><path d="M86.828,29.91a3.7,3.7,0,1,1,3.694-3.694,3.694,3.694,0,0,1-3.694,3.694" transform="translate(34.093 9.235)" fill="#47b5ab"/><path d="M86.828,52.431a3.7,3.7,0,1,1,3.694-3.694,3.694,3.694,0,0,1-3.694,3.694" transform="translate(34.093 18.471)" fill="#47b5ab"/><path d="M86.828,74.951a3.7,3.7,0,1,1,3.694-3.694,3.694,3.694,0,0,1-3.694,3.694" transform="translate(34.093 27.706)" fill="#47b5ab"/></g></g></g></svg>