<svg xmlns="http://www.w3.org/2000/svg" xmlns:xlink="http://www.w3.org/1999/xlink" width="61.638" height="63.158" viewBox="0 0 61.638 63.158">
  <defs>
    <filter id="Elipse_6701" x="0" y="1.519" width="61.638" height="61.639" filterUnits="userSpaceOnUse">
      <feOffset dy="3" input="SourceAlpha"/>
      <feGaussianBlur stdDeviation="3" result="blur"/>
      <feFlood flood-opacity="0.059"/>
      <feComposite operator="in" in2="blur"/>
      <feComposite in="SourceGraphic"/>
    </filter>
  </defs>
  <g id="Grupo_841564" data-name="Grupo 841564" transform="translate(-670.519 -1100)">
    <ellipse id="Elipse_6702" data-name="Elipse 6702" cx="29.5" cy="29.5" rx="29.5" ry="29.5" transform="translate(672 1100)" fill="#47b5ab"/>
    <g transform="matrix(1, 0, 0, 1, 670.52, 1100)" filter="url(#Elipse_6701)">
      <ellipse id="Elipse_6701-2" data-name="Elipse 6701" cx="21.819" cy="21.819" rx="21.819" ry="21.819" transform="translate(9 7.52)" fill="#fff"/>
    </g>
    <path id="Trazado_565714" data-name="Trazado 565714" d="M28.786,19H19.04V17.066l4.6-4.9a11.347,11.347,0,0,0,1.4-1.807,2.9,2.9,0,0,0,.454-1.465A2.172,2.172,0,0,0,25.016,7.4a1.727,1.727,0,0,0-1.367-.542,1.863,1.863,0,0,0-1.509.659,2.611,2.611,0,0,0-.552,1.733H18.757a4.661,4.661,0,0,1,.62-2.373A4.371,4.371,0,0,1,21.13,5.2a5.328,5.328,0,0,1,2.568-.61,5.045,5.045,0,0,1,3.413,1.055,3.731,3.731,0,0,1,1.216,2.979,4.781,4.781,0,0,1-.547,2.148,11.939,11.939,0,0,1-1.875,2.549l-3.232,3.408h6.113Z" transform="translate(678.266 1116.291)" fill="#12263f"/>
  </g>
</svg>
