<svg xmlns="http://www.w3.org/2000/svg" xmlns:xlink="http://www.w3.org/1999/xlink" width="78" height="78" viewBox="0 0 78 78"><defs><clipPath id="a"><rect width="78" height="78" transform="translate(1148 915)" fill="none" stroke="#707070" stroke-width="1"/></clipPath></defs><g transform="translate(-1148 -915)" clip-path="url(#a)"><g transform="translate(-2003.4 809.124)"><path d="M3184.148,204.605q.007-1.044.014-2.089c-.167-.4.2-.5.4-.682a1.886,1.886,0,0,0,.546-.472,1.318,1.318,0,0,0,.222-.581c.046-14.309,0-28.612.026-42.916a3.748,3.748,0,0,1,.278-2.176,3.2,3.2,0,0,1,2.153-.331q17.376-.017,34.751-.009c.568,0,1.136.015,1.7-.023a.885.885,0,0,0,.5-.33,4.766,4.766,0,0,1,1.039-.93,2.446,2.446,0,0,1,2.337.029,1.207,1.207,0,0,1,.218.4,12.065,12.065,0,0,1-.052,3.884c-.286.535-.731.449-1.094.174-1.852-1.4-3.543-1.022-5.172.393a1.434,1.434,0,0,1-.7.33,4.33,4.33,0,0,0-1.718.107,3.363,3.363,0,0,1-1.034.1,2.863,2.863,0,0,0-3.11,2.06,4.279,4.279,0,0,1-2.709,2.766,3.369,3.369,0,0,0-2.334,3.4,2.182,2.182,0,0,1-.235.459c-.1.168-.25.353-.054.559-.149-.245-.043-.375.2-.442a1.505,1.505,0,0,1-.022,2.231c-1.937,2.18-1.955,4.213.05,6.364a1.619,1.619,0,0,1,.028,2.272c-.3.028-.354-.125-.271-.376-.215.4.238.6.285.93a3.57,3.57,0,0,0,2.783,3.616,2.988,2.988,0,0,1,1.963,1.946c.294.918,1.02,1.614,1.23,2.565-.012.22-.035.437-.038.658.01,5.631-.05,11.26.035,16.884a.992.992,0,0,0,.387.449c.329.572,1.439.375,1.349,1.363-.559.606-1.3.418-1.975.419q-14.073.021-28.146.011a9.721,9.721,0,0,0-1.826.071,2.319,2.319,0,0,1-.662.179c-.619-.136-.64-.664-.625-1.115A3.686,3.686,0,0,0,3184.148,204.605Z" transform="translate(-18.936 -31.374)" fill="#dbdde6"/><path d="M3226.135,123a.276.276,0,0,0-.028-.239c-.258-.376-.062-.667.175-.951.605-.729,1.734-.073,2.311-.878a39.8,39.8,0,0,0-.159-6.984c-.818-.523-1.724-.168-2.585-.262q-20.015,0-40.026.006a3.962,3.962,0,0,0-1.807.17c-.434.365-.347.871-.351,1.342-.011,1.53-.015,3.061,0,4.591.013,1.415.139,1.544,1.609,1.545,9.443.008,18.885-.01,28.328.012,3.146.007,6.293-.121,9.438.082.764.265,1.135.73.789,1.558-.136.476-.594.562-.942.782-.508.516-1.16.3-1.746.3q-17.8.021-35.6.014a5.531,5.531,0,0,0-1.7.1c-.52.508-.29,1.16-.291,1.743q-.022,21.244-.015,42.489a3.6,3.6,0,0,1-.25,1.924l-.522.3c-.816-.048-1.145-.527-1.16-1.3-.007-.351-.016-.7-.016-1.051q0-27.2,0-54.4a13.062,13.062,0,0,1,.067-1.7.981.981,0,0,0-.142-.459c.2-.5.642-.523,1.089-.523l46.67.04c.7.757,1.449,1.4,1.427,2.644-.076,4.152-.011,8.306-.042,12.459a4.248,4.248,0,0,0,.738,2.706,4.961,4.961,0,0,1,.69,1.263,4.122,4.122,0,0,0,3.411,3.04,1.43,1.43,0,0,1,1.1,1.013,5.257,5.257,0,0,1,.382,2.178c-.028,1.562-.135,3.054,1.225,4.33a2.2,2.2,0,0,1-.061,3.121c-1.334,1.249-1.182,2.686-1.155,4.191a2.954,2.954,0,0,1-2.341,3.325,3.7,3.7,0,0,0-2.445,2.582,1.6,1.6,0,0,1-.206.48c-1.4,1.727-1.357,3.754-1.334,5.826.055,5.114.018,10.229.018,15.344a2.681,2.681,0,0,1-1.408,2.7c-3.588.014-7.175.04-10.763.042q-17.594.008-35.187-.01c-.535,0-1.148.236-1.6-.292.005-.436.266-.877-.03-1.308a10.386,10.386,0,0,1-.028-2.535c.055-.257,0-.522.052-.78l.512-.338c.841.169,1.051.723,1.074,1.522.016.552-.338,1.193.234,1.676a2.681,2.681,0,0,1,1.775-.292c6.653-.008,13.306-.038,19.959,0,6.827.043,13.651-.189,20.475-.125a15.633,15.633,0,0,0,2.667-.075.588.588,0,0,0,.077-.961c-.82-.557-1.69-1.027-2.533-1.542-2.921-1.953-2.909-1.932-5.9-.162a19.971,19.971,0,0,1-3.743,2.081l-.184-.009a1.241,1.241,0,0,1-1.528-.877c-.5-.457-.3-1.061-.3-1.6-.026-5.481.012-10.963-.026-16.444a2.214,2.214,0,0,1-.136-.219,8.624,8.624,0,0,0-4.814-4.914c-1.164-.432-1.085-1.872-1.085-3.022-.122-.161-.177-.313.056-.428a2.393,2.393,0,0,0-.581-2.721c-1.712-1.888-1.715-3.636-.01-5.533a2.393,2.393,0,0,0,.594-2.717c-.237-.114-.18-.266-.056-.427a3.492,3.492,0,0,1,2.783-3.988,2.345,2.345,0,0,0,1.8-1.553c.687-2.517,2.3-3.583,4.882-3.122.522-.073,1.049.013,1.57-.056.662-.137,1.022-.724,1.539-1.076a3.352,3.352,0,0,1,4.312.1c.3.254.543.556.982.525.262.061.466.247.72.325a2.187,2.187,0,0,0,1.185-.093c.1-.024.2-.043.3-.063a.4.4,0,0,0,.34-.409,18.345,18.345,0,0,0-.053-2.481,1.178,1.178,0,0,0-.2-.255c-.406-.232-.886-.126-1.308-.285A1.226,1.226,0,0,1,3226.135,123Z" transform="translate(-17.019)"/><path d="M3180.868,113.2c.051,0,.1.01.152.016.3.39.156.845.156,1.267q.013,28-.014,55.992c0,.433.4,1.072-.364,1.335a2.794,2.794,0,0,1-.133-1.418q-.01-27.766,0-55.531A2.745,2.745,0,0,1,3180.868,113.2Z" transform="translate(-16.368 -1.464)"/><path d="M3363.112,279.18a5.619,5.619,0,0,0,1.075-3.907c-.066-5.323,0-10.648-.047-15.971a5.024,5.024,0,0,1,.691-3.057,24.369,24.369,0,0,0,1.636-3.236c.313-.623,1.139-.754,1.764-1.026,2.08-.9,2.228-1.088,2.237-3.249.3-.2-.1-.817.494-.849.29.221.048.6.26.849.357,2.29-.114,3.259-2.272,4.073a3.511,3.511,0,0,0-2.457,2.464,1.768,1.768,0,0,1-.461.927c-1.372,1.054-1.081,2.534-1.083,3.938q-.01,8.663,0,17.327C3364.946,279.1,3364.787,279.24,3363.112,279.18Z" transform="translate(-150.855 -100.727)" fill="#070707"/><path d="M3370.478,136.789a6.6,6.6,0,0,0-.053-1.3c-.2-.83-.23-1.642-1.527-1.794a3.337,3.337,0,0,1-3.075-2.819,4.655,4.655,0,0,0-.75-1.258,5.375,5.375,0,0,1-.937-2.974c.087-3.752-.019-7.509.058-11.261a5.659,5.659,0,0,0-1.072-4.042c1.671-.06,1.831.082,1.833,1.717q.007,6.947-.005,13.893a4.017,4.017,0,0,0,.58,1.739,9.586,9.586,0,0,0,4.657,4.862,3.976,3.976,0,0,1,.844.866.475.475,0,0,1,.207.54,4.693,4.693,0,0,0-.109,1.524.624.624,0,0,1-.1.373A.448.448,0,0,1,3370.478,136.789Z" transform="translate(-150.863 -0.081)" fill="#070707"/><path d="M3181.253,171.857c.358-.3.254-.722.254-1.1q0-28.549,0-57.1c0-.131-.018-.262-.029-.392.232.021.377.064.376.381q-.05,28.2-.078,56.4c0,.8-.17,1.676.8,2.114.03.382-.388.287-.524.492C3181.646,172.525,3181.294,172.347,3181.253,171.857Z" transform="translate(-16.823 -1.509)" fill="#0d0d0d"/><path d="M3391.064,208.144l.523,0c.328.673-.049,1.421.223,2.1,2.39,2.756,2.961,3.771,0,7.105-.264.4.139.946-.277,1.317l-.466.779c.042-.87.088-1.741.125-2.612a1.437,1.437,0,0,1,.606-1.114,2.24,2.24,0,0,0,.093-3.752,2.855,2.855,0,0,1-.822-2.376C3391.039,209.108,3391.063,208.625,3391.064,208.144Z" transform="translate(-171.448 -71.436)" fill="#0b0b0b"/><path d="M3181.122,351.93c.954.588-.1.689-.245,1.011a5.542,5.542,0,0,1-.005-4.623l.25.458A7.5,7.5,0,0,0,3181.122,351.93Z" transform="translate(-16.172 -174.748)" fill="#0a0a0a"/><path d="M3393.213,209.252c-.467-.658-.133-1.4-.223-2.1,0-.087,0-.173,0-.26q.123-.185.252,0Q3393.228,208.07,3393.213,209.252Z" transform="translate(-172.852 -70.446)" fill="#111"/><path d="M3392.864,244.462c.122-.433-.114-.94.277-1.317q.005,1.048.011,2.1C3392.877,245.047,3392.932,244.731,3392.864,244.462Z" transform="translate(-172.783 -97.234)" fill="#121212"/><path d="M3393.3,202.74l-.252,0c.077-.525-.191-1.1.234-1.574A2.552,2.552,0,0,1,3393.3,202.74Z" transform="translate(-172.906 -66.298)"/><path d="M3390.827,196.688a1.461,1.461,0,0,1-.844-.866C3390.558,195.824,3390.692,196.257,3390.827,196.688Z" transform="translate(-170.659 -62.356)"/><path d="M3232.021,128.487l-.28.771c-.763.053-1.557-.213-2.28.23a1.257,1.257,0,0,0-.6-1.26,1.3,1.3,0,0,0-.687-.259c-12.238-.039-24.476-.005-36.713-.017-.437,0-.874-.006-1.311-.008a.841.841,0,0,1-.957-.968c.042-2.181-.142-4.366.1-6.543,1.214-.685,2.494-.325,3.756-.237a1,1,0,0,1,.4.5c.111.444-.23.6-.508.812-2.135,1.635-2.1,3.3.083,4.8a1.476,1.476,0,0,1,.393.339c.152.524.628.2.937.318.276.107-.138-.18.033-.251.208-.378.627-.454.946-.671a2.581,2.581,0,0,0,.015-4.3c-.361-.255-.973-.278-.951-.934a1.641,1.641,0,0,1,.6-.605,27.583,27.583,0,0,1,5.965.018,1.014,1.014,0,0,1,.375.5c.1.445-.248.595-.524.8-2.127,1.619-2.093,3.29.094,4.789a1.475,1.475,0,0,1,.392.338c.152.524.628.2.936.318.276.107-.138-.18.033-.251.208-.378.627-.454.946-.671a2.581,2.581,0,0,0,.015-4.3c-.361-.255-.974-.278-.952-.934a1.644,1.644,0,0,1,.6-.605,27.583,27.583,0,0,1,5.965.018,1.014,1.014,0,0,1,.375.5c.1.445-.248.595-.524.8-2.127,1.619-2.093,3.29.1,4.79a1.472,1.472,0,0,1,.391.338c.154.523.631.2.94.319.263.1-.138-.18.03-.255.179-.335.54-.415.825-.6a2.569,2.569,0,0,0,.07-4.412c-.351-.242-.986-.265-.854-.955a1.632,1.632,0,0,1,.677-.59c3.178-.176,6.357-.05,9.536-.073,3.267-.024,6.534-.01,9.8,0a3.284,3.284,0,0,1,1.543.154,1.107,1.107,0,0,1,.369.815A48.206,48.206,0,0,1,3232.021,128.487Z" transform="translate(-22.654 -6.492)" fill="#6c91c5"/><path d="M3218.411,233.385a3.51,3.51,0,0,1-1.462.412c-4.855-.028-9.711-.021-14.567-.012-.775,0-1.428-.083-1.344-1.108.073-.893.737-.847,1.35-.848q5.184-.011,10.367,0c1.312,0,2.626.03,3.936-.013a3.039,3.039,0,0,1,1.719.425A2.483,2.483,0,0,1,3218.411,233.385Z" transform="translate(-31.399 -88.881)" fill="#060606"/><path d="M3201.467,319.263c-.8-.507-.822-1.053-.083-1.638a6.672,6.672,0,0,1,1.955-.089q8.661-.015,17.323,0a4.643,4.643,0,0,1,1.434.083c.638.6.775,1.172-.123,1.662l-.244.037c-6.672.046-13.345.064-20.017-.008Z" transform="translate(-31.263 -152.041)" fill="#080808"/><path d="M3218.369,202.123c.449,1.042.2,1.486-.941,1.524-1.268.041-2.538.011-3.808.011q-5.646,0-11.293,0c-.561,0-1.092-.084-1.281-.682-.153-.488-.079-.965.536-1.136a5.086,5.086,0,0,1,1.687-.134q6.543,0,13.086,0A3.383,3.383,0,0,1,3218.369,202.123Z" transform="translate(-31.361 -66.69)" fill="#0e0e0f"/><path d="M3188.1,205.588q-.008-22.824,0-45.649c0-.3-.223-.714.244-.91.429.338.93.163,1.392.164q18.442.017,36.885.015a2.947,2.947,0,0,1,1.42.118c-.431.457-.991.258-1.491.259q-18.964.017-37.928.009a2.69,2.69,0,0,0-.128,1.414q-.012,21.449-.012,42.9a2.882,2.882,0,0,1-.12,1.418Z" transform="translate(-21.824 -35.239)" fill="#d6d8e1"/><path d="M3218.15,217.026a.864.864,0,0,1,.468,1.2c-.26.638-.858.641-1.445.641q-6.812-.008-13.623,0c-.437,0-.873,0-1.31,0a1.063,1.063,0,0,1-1.159-.665.873.873,0,0,1,.511-1.184l.211.048a2.49,2.49,0,0,0,.427.112q7.639.07,15.274,0a3.361,3.361,0,0,0,.429-.1Z" transform="translate(-31.387 -77.974)" fill="#050505"/><path d="M3201.59,248.055a.874.874,0,0,1-.509-1.185,1.068,1.068,0,0,1,1.16-.664q7.6,0,15.193,0a1.115,1.115,0,0,1,1.184.638.869.869,0,0,1-.469,1.2l-.212-.045a2.557,2.557,0,0,0-.43-.1c-5.093-.037-10.185-.046-15.274.008a3.216,3.216,0,0,0-.426.111Z" transform="translate(-31.386 -99.488)" fill="#050505"/><path d="M3211.3,260.764a.919.919,0,0,1,.508,1.2,1.049,1.049,0,0,1-1.146.671q-4.24-.006-8.48,0a1.033,1.033,0,0,1-1.134-.686.916.916,0,0,1,.528-1.186l.228-.043q4.634-.108,9.268,0Z" transform="translate(-31.373 -110.144)" fill="#0d0d0e"/><path d="M3209.978,186.8a.919.919,0,0,1,.535,1.28c-.2.527-.679.608-1.185.607q-3.516-.006-7.033,0c-.5,0-.985-.06-1.208-.574a.92.92,0,0,1,.48-1.3l.224-.042c2.654-.078,5.308-.063,7.962-.009Z" transform="translate(-31.361 -55.645)" fill="#0d0d0d"/><path d="M3189.14,206.9q0-22.118.008-44.235c0-.5-.194-1.06.253-1.5q0,22.052-.01,44.1C3189.39,205.819,3189.606,206.421,3189.14,206.9Z" transform="translate(-22.61 -36.819)" fill="#dee0e9"/><path d="M3190.234,355.85c.439-.438,1-.246,1.5-.246q14.7-.018,29.406-.024c.493,0,1.2.347,1.42-.505h0c2.687.174,5.377.066,8.066.1a2.877,2.877,0,0,1,1.88.356.283.283,0,0,1-.125.42c-9.039.076-18.077.015-27.115.031q-6.877.012-13.754,0A2.26,2.26,0,0,1,3190.234,355.85Z" transform="translate(-23.442 -179.726)" fill="#d6d8e1"/><path d="M3189.471,358.026l42.312,0,.092.083a.175.175,0,0,1-.09.215c-.3.026-.606.074-.908.074q-20.384.006-40.769,0c-.3,0-.605-.047-.908-.072Z" transform="translate(-22.679 -181.903)" fill="#edf0f9"/><path d="M3228.865,159.12q-19.177,0-38.354,0c-.456,0-.979.181-1.342-.293.3-.024.607-.07.91-.07q18.832-.005,37.664,0c.26,0,.521.038.781.059Z" transform="translate(-22.657 -35.035)" fill="#edf0f9"/><path d="M3351.613,160.808a.474.474,0,0,1-.535-.5q.012-2.135.024-4.27a1.953,1.953,0,0,0,1.12.776c-.139.233-.067.333.205.313.945-.084,1.381.34,1.283,1.278-.083.793.236,1.631-.259,2.379l-.263.016C3352.663,160.529,3352.138,160.934,3351.613,160.808Z" transform="translate(-141.986 -33.038)" fill="#c9cbd6"/><path d="M3223.716,325.016c-.343.4-.808.257-1.227.257q-9.022.012-18.045,0c-.419,0-.884.138-1.227-.258a2.157,2.157,0,0,1,1.613-.373q8.636-.01,17.273,0A2.155,2.155,0,0,1,3223.716,325.016Z" transform="translate(-33.012 -157.295)" fill="#d7d9e2"/><path d="M3223.716,324.6h-20.5l.015-.311a2.09,2.09,0,0,1,1.27-.211q8.972-.007,17.944,0a1.947,1.947,0,0,1,1.262.232Z" transform="translate(-33.012 -156.877)" fill="#e9ebf5"/><path d="M3223.608,323.927l-20.476-.02c0-.063-.01-.125-.018-.187l-.033-.068.049-.057c6.825-.044,13.651-.065,20.476.011l.046.061-.033.069C3223.619,323.8,3223.615,323.863,3223.608,323.927Z" transform="translate(-32.911 -156.497)" fill="#626367"/><path d="M3223.6,317.269l-20.711.008c.318-.335.734-.223,1.113-.223q9.239-.01,18.478,0C3222.865,317.054,3223.278,316.951,3223.6,317.269Z" transform="translate(-32.771 -151.693)" fill="#131313"/><path d="M3205.439,315.22h19.255v.13h-19.3Z" transform="translate(-34.612 -150.354)" fill="#dddfe8"/><path d="M3305.4,283.123c.441.153.387.531.385.873q-.024,8.586-.056,17.172l-.306.347a2.647,2.647,0,0,1-.129-1.411c-.011-5.107,0-10.215-.013-15.322a2.731,2.731,0,0,0-.125-1.413Z" transform="translate(-108.141 -126.698)" fill="#edf0f9"/><path d="M3305.075,284.061c.443.436.25.993.251,1.495q.025,8.326.017,16.651c-.436-.383-.262-.9-.263-1.357Q3305.064,292.455,3305.075,284.061Z" transform="translate(-108.06 -127.39)" fill="#d6d8e1"/><path d="M3219.979,201.391q-7.709-.02-15.418-.047c-.46,0-.969.169-1.368-.232l-.03-.041a2.268,2.268,0,0,1,1.62-.357q6.671-.01,13.342,0a2.2,2.2,0,0,1,1.615.366Z" transform="translate(-32.97 -65.959)" fill="#010101"/><path d="M3203.216,214.374c.3-.359.716-.257,1.1-.257q7.182-.008,14.365,0c.38,0,.8-.1,1.1.258a2.152,2.152,0,0,1-1.611.374q-6.667.011-13.335,0A2.149,2.149,0,0,1,3203.216,214.374Z" transform="translate(-33.01 -75.83)" fill="#d8dae3"/><path d="M3203.216,215.131h16.557l-.021.325a2.4,2.4,0,0,1-1.638.312q-6.625.012-13.251,0a2.314,2.314,0,0,1-1.632-.329Z" transform="translate(-33.01 -76.587)" fill="#e5e7f1"/><path d="M3219.773,254.058c-.3.36-.716.258-1.1.258q-7.183.008-14.365,0c-.38,0-.8.1-1.1-.257a2.149,2.149,0,0,1,1.611-.375q6.668-.011,13.335,0A2.154,2.154,0,0,1,3219.773,254.058Z" transform="translate(-33.01 -104.997)" fill="#d8dae3"/><path d="M3219.773,253.322h-16.557l.014-.308a2.116,2.116,0,0,1,1.5-.33q6.756-.011,13.513,0a2.19,2.19,0,0,1,1.507.311Z" transform="translate(-33.01 -104.262)" fill="#e5e7f1"/><path d="M3203.081,216.3l16.521.017q.014.091.022.184l.054.064-.046.07a2.093,2.093,0,0,1-.9.144q-7.393.008-14.786,0a1.973,1.973,0,0,1-.894-.154l-.043-.072.053-.065C3203.069,216.427,3203.074,216.365,3203.081,216.3Z" transform="translate(-32.86 -77.451)" fill="#56575a"/><path d="M3203.22,199.387c.3-.365.714-.261,1.093-.262q7.185-.008,14.369,0c.379,0,.8-.1,1.093.264a1.811,1.811,0,0,1-1.256.255q-7.022.007-14.043,0A1.8,1.8,0,0,1,3203.22,199.387Z" transform="translate(-33.013 -64.781)" fill="#d7d9e2"/><path d="M3203.22,200.158l16.555,0q-.011.164-.021.327c-5.507.087-11.013.123-16.52-.019Z" transform="translate(-33.013 -65.552)" fill="#eaecf6"/><path d="M3203.191,201.337l16.52.019a1.876,1.876,0,0,1,.028.188l-16.578-.01C3203.173,201.468,3203.182,201.4,3203.191,201.337Z" transform="translate(-32.97 -66.421)" fill="#66676b"/><path d="M3219.6,252.582l-16.521.018q-.011-.093-.017-.187l-.051-.065.043-.071a1.976,1.976,0,0,1,.894-.155q7.393-.009,14.785,0a2.1,2.1,0,0,1,.9.143l.046.07-.055.064C3219.619,252.46,3219.612,252.521,3219.6,252.582Z" transform="translate(-32.86 -103.846)" fill="#56575a"/><path d="M3204.153,229.389c-.092-.286.123-.262.281-.262q7.735,0,15.469,0a.412.412,0,0,1,.241.051c.043.034.029.139.04.212a2.412,2.412,0,0,1-1.281.123q-6.734.013-13.469,0A2.412,2.412,0,0,1,3204.153,229.389Z" transform="translate(-33.685 -86.901)" fill="#d8dae3"/><path d="M3220.247,240.709a.809.809,0,0,1-.7.261q-7.523,0-15.047,0a.41.41,0,0,1-.24-.051c-.043-.034-.029-.139-.04-.212a2.414,2.414,0,0,1,1.281-.123q6.734-.013,13.469,0A2.418,2.418,0,0,1,3220.247,240.709Z" transform="translate(-33.747 -95.329)" fill="#d8dae3"/><path d="M3204.215,230.131h16.032c-.265.312-.63.244-.971.244q-7.044,0-14.09,0C3204.845,230.375,3204.48,230.443,3204.215,230.131Z" transform="translate(-33.746 -87.643)" fill="#e7e9f2"/><path d="M3205.438,210.282h15.312v.131h-15.364Z" transform="translate(-34.611 -73.014)" fill="#dddfe8"/><path d="M3220.247,240.406h-16.031c.262-.317.627-.251.968-.251q7.047,0,14.1,0C3219.62,240.155,3219.985,240.089,3220.247,240.406Z" transform="translate(-33.747 -95.026)" fill="#e4e6ef"/><path d="M3212.819,259.446q.014.087.019.175l.037.063-.049.054c-3.234.044-6.468.05-9.7,0l-.047-.054.037-.062c.005-.059.011-.118.017-.178a1.084,1.084,0,0,1,.946-.323q3.9-.013,7.8,0A1.057,1.057,0,0,1,3212.819,259.446Z" transform="translate(-32.908 -109.001)" fill="#76767b"/><path d="M3212.922,259c-3.229-.127-6.459-.11-9.688-.006q-.008-.161-.017-.322a70.876,70.876,0,0,1,9.724,0Z" transform="translate(-33.011 -108.553)" fill="#eceff7"/><path d="M3212.941,258.389h-9.724a.787.787,0,0,1,.7-.267h8.331A.786.786,0,0,1,3212.941,258.389Z" transform="translate(-33.011 -108.271)" fill="#d7d9e1"/><path d="M3205.439,269.251h8.479l0,.13h-8.532Z" transform="translate(-34.611 -116.474)" fill="#dfe1ea"/><path d="M3211.507,185.283a1.342,1.342,0,0,0,.012.188l.039.062-.045.058c-2.8.075-5.6.055-8.395.01l-.048-.055.038-.062q.007-.089.017-.178c.031-.03.06-.082.095-.086A25.672,25.672,0,0,1,3211.507,185.283Z" transform="translate(-32.902 -54.317)" fill="#77787d"/><path d="M3211.616,185.012l-8.382.023q-.008-.161-.017-.322a53.793,53.793,0,0,1,8.41,0Z" transform="translate(-33.011 -54.046)" fill="#ebedf7"/><path d="M3211.627,184.378l-8.41,0c.337-.4.8-.259,1.216-.262q2.988-.019,5.977,0C3210.826,184.121,3211.288,183.982,3211.627,184.378Z" transform="translate(-33.011 -53.715)" fill="#d7d9e1"/><path d="M3212.584,195.507h-7.227v-.13h7.271Z" transform="translate(-34.589 -62.028)" fill="#dfe1eb"/><path d="M3320.7,173.293a1.592,1.592,0,0,1-1.57.056A1.252,1.252,0,0,1,3320.7,173.293Z" transform="translate(-118.438 -45.569)" fill="#e8eaf4"/><path d="M3266.714,234.581a1.215,1.215,0,0,1,0-1.147A.666.666,0,0,1,3266.714,234.581Z" transform="translate(-79.702 -90.077)" fill="#0a0a0a"/><path d="M3312.446,172.207a1.7,1.7,0,0,1-1.245.1C3311.52,171.974,3311.861,172.164,3312.446,172.207Z" transform="translate(-112.596 -44.884)" fill="#e2e4ed"/><path d="M3282.421,207.149l.057.427-.151.812C3282.14,207.815,3282.051,207.463,3282.421,207.149Z" transform="translate(-91.197 -70.704)" fill="#e4e6ef"/><path d="M3282.456,248.765l-.056.428a.882.882,0,0,1-.173-1.042C3282.514,248.3,3282.354,248.581,3282.456,248.765Z" transform="translate(-91.177 -100.923)" fill="#e4e6ef"/><path d="M3292.568,176.553a5.216,5.216,0,0,0,4.676-1.5,1.33,1.33,0,0,1,2.076,0,5.327,5.327,0,0,0,4.806,1.486c.444.19.885-.063,1.329-.007.554.166.637.691.774,1.118a4.818,4.818,0,0,0,3.317,3.377c1.208.375,1.771,1.148,1.193,2.438-.187-.074-.1-.286-.21-.412.106.283-.067.609.165.859a4.692,4.692,0,0,0,1.427,3.884,1.573,1.573,0,0,1-.011,2.481,4.685,4.685,0,0,0-1.415,3.888c-.236.25-.058.579-.163.854.1-.119.017-.336.208-.41.51,1.193.2,2.024-1.085,2.391a4.8,4.8,0,0,0-3.43,3.419c-.134.426-.221.951-.776,1.113-.44.072-.879-.176-1.319-.006a5.436,5.436,0,0,0-4.913,1.555,1.212,1.212,0,0,1-1.862,0,5.537,5.537,0,0,0-5.045-1.543,6.26,6.26,0,0,0-1.308-.067c-.1-.081-.249-.144-.281-.245a6.237,6.237,0,0,0-4.457-4.537c-.684-.186-.716-.84-.584-1.423a5.39,5.39,0,0,0-1.443-5.3,1.217,1.217,0,0,1,0-1.867,5.394,5.394,0,0,0,1.442-5.306c-.131-.583-.1-1.241.582-1.425a6.214,6.214,0,0,0,4.457-4.535c.031-.1.186-.161.283-.24C3291.52,176.472,3292.052,176.817,3292.568,176.553Z" transform="translate(-92.401 -46.684)" fill="#f2d462"/><path d="M3331.344,291.146a4.3,4.3,0,0,0,2.906-.023c.654.1.5.627.5,1.016,0,3.274.056,6.548-.023,9.821a.994.994,0,0,1-.226.447,2.532,2.532,0,0,0-3.372.033c-.555.046-.41-.323-.374-.629.179-3.383-.032-6.771.109-10.155A.727.727,0,0,1,3331.344,291.146Z" transform="translate(-126.976 -132.594)" fill="#83d3e4"/><path d="M3323.139,344.309c-2.824,0-5.648-.007-8.471.007-.579,0-1.133.015-1.508-.528,2.068-1.275,4.143-2.538,6.2-3.835a.931.931,0,0,1,1.171.033c.86.58,1.746,1.121,2.621,1.678A2.28,2.28,0,0,1,3323.139,344.309Z" transform="translate(-114.04 -168.441)" fill="#dbdde6"/><path d="M3230.916,119.613q-9.766,0-19.531.008c-.5,0-1.059-.194-1.492.255a1.771,1.771,0,0,1-1.839,0,14.354,14.354,0,0,0-6.045,0,1.771,1.771,0,0,1-1.839,0,14.354,14.354,0,0,0-6.045,0,1.771,1.771,0,0,1-1.839,0c-1.193-.552-2.456-.131-3.679-.262-.306,2.262-.047,4.535-.136,6.8-.02.509.208.718.7.694.305-.015.613,0,.919,0q18.125,0,36.251.006a2.845,2.845,0,0,1,1.419.121l.26.275c-12.829,0-25.657-.02-38.485.027-1.216,0-1.556-.32-1.494-1.512.1-1.921.011-3.852.04-5.778.006-.4-.237-.881.239-1.2.427.344.928.164,1.389.164,13.65.021,27.3-.008,40.951.023A.316.316,0,0,1,3230.916,119.613Z" transform="translate(-21.816 -5.773)" fill="#6a8fc1"/><path d="M3356.557,299.915a2.2,2.2,0,0,1-1.621-2.544c.108-3.836.037-7.678.038-11.518,0-1.806.145-1.892,1.878-1.117-.35.634-.019,1.281-.03,1.921-.068,4.255.137,8.513-.135,12.766A.937.937,0,0,1,3356.557,299.915Z" transform="translate(-144.827 -127.546)" fill="#db4b2c"/><path d="M3316.905,299.375a5.682,5.682,0,0,1-1.524,1.074c-.459-.231-.3-.578-.3-.849-.011-4.535.007-9.07-.023-13.605-.005-.807.155-1.275,1.071-1.1a2.157,2.157,0,0,1,.349.341,3.449,3.449,0,0,1,.284,1.911c.032,3.923-.044,7.847.042,11.77Q3316.842,299.146,3316.905,299.375Z" transform="translate(-115.435 -127.976)" fill="#dc4b2c"/><path d="M3351.007,120.211c0-.088,0-.175,0-.262l.206-.089a3.27,3.27,0,0,0,.445.077c1.973.039,1.968.039,1.977,2.072.008,1.749-.033,3.5.024,5.248.058.211.075.442.275.587-.8.605-1.854-.058-2.661.522-.5-.99-.226-2.05-.254-3.076C3350.975,123.6,3351.007,121.9,3351.007,120.211Z" transform="translate(-141.907 -6.371)" fill="#6286b9"/><path d="M3189.441,361.192h45.273v.132h-45.327Z" transform="translate(-22.818 -184.236)" fill="#0c0c0c"/><path d="M3189.445,116.336h45.273v.131h-45.325Z" transform="translate(-22.822 -3.774)" fill="#07090a"/><path d="M3231.745,119.167q-20.494,0-40.988-.011c-.539,0-1.151.23-1.607-.291.3-.022.608-.063.912-.063q20.388,0,40.777,0c.3,0,.607.043.911.066q.2.153-.006.3Z" transform="translate(-22.643 -5.59)" fill="#759dd5"/><path d="M3319.132,284.857c0-.1,0-.194,0-.291.43-.168.941-.352.931.374-.068,4.7.238,9.41-.151,14.109h-.252a10.252,10.252,0,0,1-.12-2.847c-.024-3.309,0-6.62-.017-9.929C3319.52,285.778,3319.725,285.2,3319.132,284.857Z" transform="translate(-118.441 -127.649)" fill="#da502e"/><path d="M3361.021,301.213c0-4.569-.006-9.139.009-13.708,0-.5-.2-1.058.286-1.471.263,4.962.1,9.926.082,14.889C3361.4,301.178,3361.328,301.352,3361.021,301.213Z" transform="translate(-149.291 -128.844)" fill="#dc512f"/><path d="M3351.106,349.639l.01-2.646a12.619,12.619,0,0,1,2.618,1.6c0,.067.008.134.012.2.059.821-.353,1.145-1.141,1.11a4.261,4.261,0,0,0-1.131.054.306.306,0,0,1-.366-.055l0,0C3351.109,349.813,3351.107,349.726,3351.106,349.639Z" transform="translate(-142.007 -173.771)" fill="#c8cad5"/><path d="M3309.637,285.319v17.42h-.129V285.273Z" transform="translate(-111.349 -128.283)" fill="#0c0c0c"/><path d="M3364.246,301.526V286.474h.128v15.1Z" transform="translate(-151.691 -129.167)" fill="#0b0602"/><path d="M3324.483,285.329v14.065h-.131V285.288Z" transform="translate(-122.289 -128.294)" fill="#0b0602"/><path d="M3330.375,300.642a.555.555,0,0,0,.306.551c-.683.608-.569-.026-.571-.384-.011-1.965-.006-3.931-.006-5.9v-5.482c.433.025.435.522.791.468l-.26.233a44.07,44.07,0,0,0-.135,5.449A41.937,41.937,0,0,1,3330.375,300.642Z" transform="translate(-126.527 -131.347)" fill="#82d2e3"/><path d="M3349.609,289.323v11.9h-.129V289.276Z" transform="translate(-140.808 -131.233)" fill="#080b0c"/><path d="M3345.118,301.206q0-.126,0-.252a31.048,31.048,0,0,0,.131-4.683c.083-2.217-.137-4.439.117-6.653.449-.336.377.094.377.286.01,3.661.007,7.321.01,10.981C3345.753,301.433,3345.62,301.673,3345.118,301.206Z" transform="translate(-137.592 -131.393)" fill="#8de3f5"/><path d="M3344.665,289.967q.007,5.118.01,10.237c0,.38.111.8-.258,1.1,0-3.223.007-6.446-.007-9.669,0-.459.165-.968-.243-1.363Z" transform="translate(-136.893 -131.742)" fill="#7fcddc"/><path d="M3364.362,127.332v-8.049h.132v8.061Z" transform="translate(-151.776 -5.946)" fill="#07090a"/><path d="M3361,127.861l-.3-.276c-.284-2.427-.04-4.864-.135-7.3a.435.435,0,0,1,.214-.407c.3.138.284.413.283.67Q3361.033,124.207,3361,127.861Z" transform="translate(-148.969 -6.388)" fill="#6890c8"/><path d="M3355.688,163.423a8.62,8.62,0,0,1,.008-1.168c.179-1.293.027-2.348-1.584-2.49a4.433,4.433,0,0,1,1.934-.08l-.02-.016c.207,1.165-.17,2.366.217,3.52C3356.179,163.557,3355.914,163.444,3355.688,163.423Z" transform="translate(-144.222 -35.673)" fill="#c5c7d1"/><path d="M3364.521,159.343v3.593l-.132,0V159.4Z" transform="translate(-151.797 -35.471)" fill="#0a0a0b"/><path d="M3182.409,353.214c-.008.043,0,.1-.027.124a.851.851,0,0,1-.166.107c-.019-1.133-.309-2.282.193-3.385Q3182.408,351.638,3182.409,353.214Z" transform="translate(-17.458 -176.032)" fill="#0d0d0d"/><path d="M3361.287,163.339c-.58-1.142-.222-2.341-.217-3.519C3361.676,160.96,3361.3,162.161,3361.287,163.339Z" transform="translate(-149.267 -35.822)" fill="#dadbe8"/><path d="M3351.112,357.541l.269-.008c.732-.27,1.505-.013,2.246-.176a.886.886,0,0,1,.412.182c-.9.807-1.944.24-2.922.3Z" transform="translate(-142.011 -181.41)" fill="#dadbe8"/><path d="M3351.11,119.057c0-.1,0-.2.006-.3.9.012,1.84-.362,2.7.216l-.082.088a4.766,4.766,0,0,1-2.357,0Z" transform="translate(-142.009 -5.481)" fill="#6890c8"/><path d="M3353.112,173.332a1.2,1.2,0,0,1,1.575,0A1.761,1.761,0,0,1,3353.112,173.332Z" transform="translate(-143.485 -45.563)" fill="#d6d7e4"/><path d="M3355.3,156.312h1.665l.009.13h-1.723Z" transform="translate(-145.064 -33.237)" fill="#0b0b0b"/><path d="M3362.417,181.55a.866.866,0,0,1-1.329.007C3361.53,181.408,3361.972,181.214,3362.417,181.55Z" transform="translate(-149.363 -51.701)" fill="#f6e167"/><path d="M3354.955,176.451a2.21,2.21,0,0,1-1.718,0Z" transform="translate(-143.577 -48.08)" fill="#080808"/><path d="M3361.1,276.292a.881.881,0,0,1,1.319.006A1.382,1.382,0,0,1,3361.1,276.292Z" transform="translate(-149.375 -121.447)" fill="#f6e268"/><path d="M3312.745,181.571a1.245,1.245,0,0,1-1.568.04C3311.689,181.165,3312.218,181.434,3312.745,181.571Z" transform="translate(-112.578 -51.701)" fill="#f6e167"/><path d="M3355.944,158.944l-1.934.08c-.161-.41.261-.175.347-.312C3354.9,158.723,3355.489,158.361,3355.944,158.944Z" transform="translate(-144.121 -34.931)" fill="#d8dae6"/><path d="M3311.089,279.306a2.614,2.614,0,0,1,1.788,0Z" transform="translate(-112.514 -123.771)" fill="#0a0905"/><path d="M3318.374,176.284a2.345,2.345,0,0,1,1.587.015A2.5,2.5,0,0,1,3318.374,176.284Z" transform="translate(-117.883 -47.86)" fill="#080808"/><path d="M3311.183,276.245a.925.925,0,0,1,1.308.067A1.191,1.191,0,0,1,3311.183,276.245Z" transform="translate(-112.583 -121.454)" fill="#f7e368"/><path d="M3360.225,279.306h1.466l.015.115h-1.432Z" transform="translate(-148.728 -123.885)" fill="#0a0a06"/><path d="M3364.295,355.048v-1.333C3364.667,354.237,3364.41,354.667,3364.295,355.048Z" transform="translate(-151.727 -178.725)" fill="#09090a"/><path d="M3285.359,251.413a1.658,1.658,0,0,1-.116-1.261C3285.577,250.48,3285.388,250.818,3285.359,251.413Z" transform="translate(-93.41 -102.398)" fill="#070707"/><path d="M3358.941,179.277a1.213,1.213,0,0,1,1.138-.029A1.207,1.207,0,0,1,3358.941,179.277Z" transform="translate(-147.781 -50.047)" fill="#090905"/><path d="M3358.081,282.217a1.212,1.212,0,0,1-1.137-.029A1.212,1.212,0,0,1,3358.081,282.217Z" transform="translate(-146.309 -125.915)" fill="#090201"/><path d="M3360.984,354.386l-.3,0a1.471,1.471,0,0,1-.017-1.262l.014-.048C3361.368,353.38,3360.993,353.926,3360.984,354.386Z" transform="translate(-148.957 -178.257)" fill="#d4d6e2"/><path d="M3285.28,204.425a1.757,1.757,0,0,1,.014,1.266C3285.048,205.324,3285.12,204.982,3285.28,204.425Z" transform="translate(-93.385 -68.697)" fill="#070707"/><path d="M3385.353,206.72c-.335-.288-.289-.643-.134-1.219l.179.772C3385.383,206.423,3385.368,206.571,3385.353,206.72Z" transform="translate(-167.061 -69.49)" fill="#f4dc65"/><path d="M3315.179,179.355h.746C3315.725,179.7,3315.462,179.56,3315.179,179.355Z" transform="translate(-115.528 -50.22)" fill="#0a0906"/><path d="M3288.282,204.021c-.14-.414-.18-.66-.016-.922C3288.511,203.358,3288.443,203.62,3288.282,204.021Z" transform="translate(-95.614 -67.72)" fill="#0a0903"/><path d="M3316.938,282.173c.282-.2.708-.2.747-.064.1.34-.249.14-.4.176C3317.2,282.308,3317.08,282.223,3316.938,282.173Z" transform="translate(-116.824 -125.882)" fill="#090201"/><path d="M3385.394,249.57c-.03.2-.06.4-.128.85-.206-.625-.284-.979.083-1.294Z" transform="translate(-167.055 -101.642)" fill="#f5dd66"/><path d="M3289.255,243.924c.2.282.2.708.064.747-.34.1-.141-.249-.177-.4C3289.121,244.183,3289.206,244.065,3289.255,243.924Z" transform="translate(-96.32 -97.808)" fill="#0a0903"/><path d="M3287.983,252.549c.452.4.222.676.348,1.092C3287.887,253.241,3288.115,252.965,3287.983,252.549Z" transform="translate(-95.484 -104.165)" fill="#0a0803"/><path d="M3368.238,306.976v-19.52h.131v19.576Z" transform="translate(-154.633 -129.891)"/><path d="M3368.586,116.414v14.263h-.13V116.356Z" transform="translate(-154.794 -3.789)"/><path d="M3228.7,128.777c-1.415-.533-2.439-1.4-2.406-3.047.031-1.578,1.047-2.4,2.41-2.914a.683.683,0,0,1,.93-.017c1.919.784,2.648,1.757,2.491,3.322-.153,1.523-1.189,2.221-2.491,2.674A.687.687,0,0,1,3228.7,128.777Z" transform="translate(-50.018 -8.409)" fill="#010202"/><path d="M3259.613,122.8c1.919.784,2.648,1.757,2.491,3.322-.153,1.523-1.189,2.221-2.49,2.674a.688.688,0,0,1-.935-.018c-1.415-.533-2.439-1.4-2.406-3.047.031-1.578,1.048-2.4,2.41-2.914A.684.684,0,0,1,3259.613,122.8Z" transform="translate(-72.113 -8.409)" fill="#010202"/><path d="M3199.656,122.8c1.919.783,2.648,1.756,2.491,3.322-.153,1.523-1.189,2.221-2.49,2.674a.686.686,0,0,1-.934-.018c-1.415-.533-2.439-1.4-2.406-3.047.031-1.578,1.047-2.4,2.41-2.914A.682.682,0,0,1,3199.656,122.8Z" transform="translate(-27.924 -8.409)" fill="#010102"/><path d="M3228.54,128.817c-12.6,0-25.2-.024-37.8.035-1.382.007-1.73-.4-1.641-1.7.108-1.568.017-3.149.031-4.724,0-.421-.14-.887.256-1.232,0,1.969.066,3.941-.025,5.906-.053,1.15.285,1.484,1.458,1.48q18.114-.065,36.229-.018C3227.547,128.564,3228.1,128.37,3228.54,128.817Z" transform="translate(-22.593 -7.356)" fill="#6d93c8"/><path d="M3235.222,146.019l.934.018c.1.07.43.154.233.217a3.616,3.616,0,0,1-1.233-.018.209.209,0,0,1-.01-.115A.382.382,0,0,1,3235.222,146.019Z" transform="translate(-56.54 -25.651)" fill="#7098cf"/><path d="M3265.437,122.48l-.931.017-.332-.305,1.839,0C3265.886,122.42,3265.658,122.442,3265.437,122.48Z" transform="translate(-77.937 -8.09)" fill="#7098cf"/><path d="M3235.458,122.48l-.93.017-.333-.305,1.839,0C3235.907,122.42,3235.679,122.442,3235.458,122.48Z" transform="translate(-55.842 -8.09)" fill="#7098cf"/><path d="M3265.2,146.02l.935.018c.1.07.43.154.232.217a3.607,3.607,0,0,1-1.233-.018.206.206,0,0,1-.01-.115A.377.377,0,0,1,3265.2,146.02Z" transform="translate(-78.634 -25.652)" fill="#7098cf"/><path d="M3205.244,146.019l.934.018c.1.07.43.154.232.217a3.621,3.621,0,0,1-1.233-.018.207.207,0,0,1-.01-.115A.381.381,0,0,1,3205.244,146.019Z" transform="translate(-34.445 -25.651)" fill="#7098cf"/><path d="M3205.479,122.48l-.93.017-.333-.305,1.839,0C3205.928,122.42,3205.7,122.442,3205.479,122.48Z" transform="translate(-33.747 -8.09)" fill="#7098cf"/><path d="M3346.1,153.406h-1.049C3345.409,153.05,3345.746,153.236,3346.1,153.406Z" transform="translate(-137.547 -30.946)" fill="#668dc2"/><path d="M3279.479,132.144v1.192C3279.222,132.956,3279.239,132.708,3279.479,132.144Z" transform="translate(-89.079 -15.425)" fill="#729ad1"/><path d="M3249.488,133.372v.783C3249.135,133.869,3249.389,133.593,3249.488,133.372Z" transform="translate(-66.979 -16.33)" fill="#729ad1"/><path d="M3219.321,134.256c-.188-.283-.184-.71-.062-.744.334-.093.132.247.169.393C3219.451,134,3219.368,134.114,3219.321,134.256Z" transform="translate(-44.77 -16.421)" fill="#729ad1"/><path d="M3223.745,323.238c-4.508.029-9.016.073-13.523.081-2.318,0-4.635-.059-6.953-.092a1.585,1.585,0,0,1,1.012-.163q9.228,0,18.456,0A1.509,1.509,0,0,1,3223.745,323.238Z" transform="translate(-33.049 -156.129)"/><path d="M3204.5,221.387h15.931v.131h-15.941Z" transform="translate(-33.951 -81.198)" fill="#060606"/><path d="M3219.774,217.715c-.292.374-.71.268-1.089.269q-7.186.008-14.372,0c-.379,0-.8.1-1.092-.265a2.542,2.542,0,0,1,1.283-.117q6.992-.013,13.984,0A2.627,2.627,0,0,1,3219.774,217.715Z" transform="translate(-33.014 -78.391)" fill="#0b0b0b"/><path d="M3219.741,217.291l-16.552,0a1.222,1.222,0,0,0-.012-.152c4.047-.239,8.1-.063,12.145-.093a24.976,24.976,0,0,1,4.431.1A1.179,1.179,0,0,0,3219.741,217.291Z" transform="translate(-32.981 -77.966)" fill="#000001"/><path d="M3219.753,251.905a52.566,52.566,0,0,1-6.522.1c-3.351-.011-6.7.149-10.053-.091a1.066,1.066,0,0,0,.011-.153,1,1,0,0,1,.625-.134h15.305a.961.961,0,0,1,.623.138A.826.826,0,0,0,3219.753,251.905Z" transform="translate(-32.981 -103.488)" fill="#010101"/><path d="M3219.772,251.365l-16.553,0c.3-.369.713-.264,1.092-.265q7.187-.008,14.373,0C3219.062,251.1,3219.481,250.988,3219.772,251.365Z" transform="translate(-33.012 -103.084)" fill="#0b0b0b"/><path d="M3220.288,248.566h-15.836v-.131H3220.4Z" transform="translate(-33.921 -101.133)" fill="#060606"/><path d="M3203.256,261.137a94.376,94.376,0,0,1,9.7,0A57.456,57.456,0,0,1,3203.256,261.137Z" transform="translate(-33.04 -110.404)" fill="#010101"/><path d="M3203.253,187.182a75.123,75.123,0,0,1,8.395-.01A41.23,41.23,0,0,1,3203.253,187.182Z" transform="translate(-33.037 -55.898)" fill="#020202"/><path d="M3318.236,210.8l-1.849,1.09a9.853,9.853,0,0,0-3.125.135,9.456,9.456,0,0,1-10.7-9.186,9.568,9.568,0,0,1,8.867-9.88,9.6,9.6,0,0,1,8.367,15.3A9.048,9.048,0,0,0,3318.236,210.8Z" transform="translate(-106.222 -60.225)" fill="#dd4c2c"/><path d="M3313.582,206.381c-.432-.854.12-1.365.626-1.934a9.243,9.243,0,0,0-5.354-15.422,9.246,9.246,0,0,0-3.037,18.24,9.429,9.429,0,0,0,4.021-.2c.7-.179,1.389-.314,1.893.408.128.97-.5,1.285-1.274,1.513a11.263,11.263,0,1,1,5.135-3.111C3315.015,206.474,3314.457,207.017,3313.582,206.381Z" transform="translate(-101.568 -55.805)"/><path d="M3292.4,244.788v-1.509h.124v1.509Z" transform="translate(-98.74 -97.333)" fill="#f6e167"/><path d="M3292.616,210.177v1.51l-.108,0v-1.51Z" transform="translate(-98.819 -72.936)" fill="#f6e167"/><path d="M3354.415,275.147a1.686,1.686,0,0,1-1.243.1C3353.49,274.914,3353.832,275.1,3354.415,275.147Z" transform="translate(-143.529 -120.751)" fill="#f5dd66"/><path d="M3318.972,274.992l1.587.1A1.546,1.546,0,0,1,3318.972,274.992Z" transform="translate(-118.324 -120.706)" fill="#f5dd66"/><path d="M3321.722,183.264c-.384.285-.654.164-1.023.125C3321.077,183.1,3321.347,183.23,3321.722,183.264Z" transform="translate(-119.597 -53.058)" fill="#f5dc65"/><path d="M3331.063,302.605c0-3.051-.008-6.1.006-9.152,0-.459-.168-.97.255-1.358,0,3.051.007,6.1-.007,9.152C3331.313,301.705,3331.484,302.216,3331.063,302.605Z" transform="translate(-127.215 -133.311)" fill="#85d6e7"/><path d="M3319.136,286.1c.792.17.512.812.514,1.274.02,4.306.012,8.611.013,12.917-.428-.388-.255-.9-.256-1.363-.014-3.722-.008-7.445-.008-11.168A2.95,2.95,0,0,0,3319.136,286.1Z" transform="translate(-118.444 -128.892)" fill="#d84a2c"/><path d="M3352.122,120.206l2.357,0q0,3.808,0,7.615c-.556-1.064-.135-2.2-.254-3.3a10.177,10.177,0,0,1-.006-1.04,12.508,12.508,0,0,0-.046-2.464C3353.934,119.861,3352.649,120.908,3352.122,120.206Z" transform="translate(-142.756 -6.626)" fill="#5f82b5"/><path d="M3354.478,353.261q.009.631.017,1.262l-2.36-.008a.75.75,0,0,1,.8-.245C3353.822,354.473,3354.205,353.964,3354.478,353.261Z" transform="translate(-142.765 -178.391)" fill="#c5c7d1"/><path d="M3235.593,131.957c-.1.584-.191,1.054-.831,1.021a.859.859,0,0,1-.89-.906.874.874,0,0,1,.938-.986C3235.472,131.071,3235.459,131.614,3235.593,131.957Z" transform="translate(-55.603 -14.644)" fill="#e9cc5e"/><path d="M3235.379,125.359a1.065,1.065,0,0,1,1.015-.06C3236.044,125.616,3235.691,125.364,3235.379,125.359Z" transform="translate(-56.714 -10.305)" fill="#060709"/><path d="M3235.364,143.367h1.19A.994.994,0,0,1,3235.364,143.367Z" transform="translate(-56.703 -23.696)" fill="#060709"/><path d="M3265.547,132.1c-.091.467-.194.935-.834.887a.947.947,0,0,1,.089-1.89C3265.43,131.106,3265.494,131.6,3265.547,132.1Z" transform="translate(-77.691 -14.65)" fill="#7ecbdb"/><path d="M3264.01,143.069l1.583.1A1.512,1.512,0,0,1,3264.01,143.069Z" transform="translate(-77.816 -23.477)" fill="#060709"/><path d="M3266.113,125.329c-.378.1-.713.223-1.031-.018A1.11,1.11,0,0,1,3266.113,125.329Z" transform="translate(-78.606 -10.299)" fill="#060709"/><path d="M3204.971,133.009c-.582-.009-.946-.265-1-.83a.854.854,0,0,1,.863-1.051.877.877,0,0,1,.99.819A.915.915,0,0,1,3204.971,133.009Z" transform="translate(-33.564 -14.675)" fill="#d54a2b"/><path d="M3206.188,125.31a1.215,1.215,0,0,1-1.138-.028A1.213,1.213,0,0,1,3206.188,125.31Z" transform="translate(-34.361 -10.273)" fill="#060709"/><path d="M3204.447,143.433a2.281,2.281,0,0,1,1.446-.18A2.277,2.277,0,0,1,3204.447,143.433Z" transform="translate(-33.917 -23.589)" fill="#060709"/><path d="M3298.4,226.706v-3.329l.114,0v3.33Z" transform="translate(-103.16 -82.663)" fill="#070502"/><path d="M3336.441,266.544h-3.057l0-.107h3.057Z" transform="translate(-128.942 -114.4)" fill="#090301"/><path d="M3301.4,227.209v-2.018h.132v2.025Z" transform="translate(-105.374 -84.002)" fill="#090201"/><path d="M3379.262,228.321a1.648,1.648,0,0,1-.071-1.282C3379.517,227.5,3379.26,227.925,3379.262,228.321Z" transform="translate(-162.635 -85.364)" fill="#090803"/><path d="M3333.192,192.217a1.008,1.008,0,0,1-.98.108C3332.517,191.929,3332.876,192.279,3333.192,192.217Z" transform="translate(-128.082 -59.638)" fill="#080201"/><path d="M3340.3,192.352a1.648,1.648,0,0,1,1.258-.115C3341.231,192.57,3340.893,192.383,3340.3,192.352Z" transform="translate(-134.043 -59.659)" fill="#080201"/></g></g></svg>