<svg xmlns="http://www.w3.org/2000/svg" xmlns:xlink="http://www.w3.org/1999/xlink" width="78" height="78" viewBox="0 0 78 78">
  <defs>
    <clipPath id="clip-path">
      <rect id="Rectángulo_279032" data-name="Rectángulo 279032" width="78" height="78" transform="translate(516 876)" fill="none" stroke="#707070" stroke-width="1"/>
    </clipPath>
  </defs>
  <g id="Enmascarar_grupo_700022" data-name="Enmascarar grupo 700022" transform="translate(-516 -876)" clip-path="url(#clip-path)">
    <g id="Grupo_841421" data-name="Grupo 841421" transform="translate(-1775.064 746.917)">
      <path id="Trazado_563464" data-name="Trazado 563464" d="M2298.3,172.173c.154-.3.809-.218.563-.839s.172-1.207.143-1.824a1.219,1.219,0,0,1,.722-1.1c.163-.045.3-.118.326-.318-.023-2.1-.042-4.2,0-6.3.024-1.256.316-1.513,1.566-1.575a35.452,35.452,0,0,0,4.311-.121,1.233,1.233,0,0,1,.653-.123c.71.432.491,1.151.517,1.775.071,1.695.516,2.145,2.225,2.163.524.006,1.048.007,1.572,0,1.6-.023,1.946-.385,2.055-2.022.045-.665-.194-1.43.537-1.911a1.314,1.314,0,0,1,.668.122,15.136,15.136,0,0,0,3.138.1c4.548.018,9.1,0,13.643.009.966,0,1.8.139,1.614,1.418.19-.543-.282-1.231.409-1.631.917.705.358,1.709.526,2.564a1.042,1.042,0,0,0,.7,1.165,8.034,8.034,0,0,0,4.422-.1c.382-.247.508-.726.88-.981.207-.042.4-.1.382-.382.057-1.877.223-2.055,2.121-2.038.709.006,1.482-.2,2.084.409a4.328,4.328,0,0,1,.281,2.2q.011,10.483.005,20.967a6.62,6.62,0,0,0,.131,1.831c.363.864-.155,1.518-.549,2.192-3.17,5.414-6.261,10.875-9.421,16.3a3.826,3.826,0,0,0-.174,4.329,1.433,1.433,0,0,1-.1,1.6,9.816,9.816,0,0,0-.883,1.762.62.62,0,0,0,.242.808.484.484,0,0,0,.682-.216c.815-1.936,2.4-2.642,4.339-3.044.823-.171,1.354-1.046,1.777-1.851.776-1.475,1.633-2.909,2.53-4.312.247-.386.639-1.359,1.293-.248.271,3.9.118,7.8.085,11.695a1.459,1.459,0,0,1-.232.745.8.8,0,0,1-.687.305c-2.566-.028-5.134.142-7.695-.087,2.251.241,4.505.031,6.755.112.5.018,1.056-.171,1.463.312-.243.746-.894.562-1.41.57-2.426.036-4.853,0-7.277.022-.447-.044-.826.3-1.278.23-.34-.063-.594.26-1.046.026a1.141,1.141,0,0,0-1.608.681c-.438-.359-.65-1.054-1.409-.938-5.759-.016-11.514.009-17.269-.02-.606,0-1.362.24-1.7-.594.246-.335.61-.295.958-.294,5.834,0,11.667-.017,17.5.01a1.353,1.353,0,0,1,.38.077c-2.1-.2-4.2-.068-6.3-.083-3.59-.026-7.18,0-10.77-.012-1.324,0-1.538-.2-1.56-1.512-.041-2.407-.012-4.816-.015-7.217.023-.28-.163-.388-.4-.457a17.189,17.189,0,0,0-1.4-1.476c.127-.4-.117-.369-.386-.316-2.332.039-4.657.027-6.981.012-1.668-.011-1.9-.243-1.906-1.919q-.021-13.683-.007-27.365c0-.614.016-1.228-.023-1.836a.824.824,0,0,0-.308-.468C2299.326,172.7,2298.707,172.591,2298.3,172.173Z" transform="translate(-1.488 -17.583)" fill="#edebed"/>
      <path id="Trazado_563465" data-name="Trazado 563465" d="M2342.446,185.822c-1.515,1.669-2.293,3.793-3.493,5.657a3.55,3.55,0,0,1-3.21,2,1.583,1.583,0,0,0-1.775,1.124,10.53,10.53,0,0,1-.79,1.366.946.946,0,0,1-1.339.449c-.641-.345-.63-.884-.346-1.467a2.728,2.728,0,0,1,.194-.344c.793-1.163,1.43-2.213.423-3.726-.678-1.018-.128-2.27.5-3.351q5.122-8.823,10.193-17.676c.109-.188.185-.395.276-.593a3.682,3.682,0,0,1,.847-2.16,5.209,5.209,0,0,0,.755-2.744q-.013-9.463-.008-18.927a2.227,2.227,0,0,0-.256-1.39c-.6-.527-1.369-.142-2.022-.375-1.171,0-2.343-.062-3.511.037-.508.231-.342.7-.384,1.093s.123.853-.308,1.147c-.248.378-.175.956-.717,1.151a.519.519,0,0,1-.436.061c-1.18.065-2.362.032-3.543.028-1,0-1.585-.377-1.462-1.5.066-.606-.017-1.224.028-1.836-.043.42.033.85-.038,1.259s.332.975-.367,1.184c-.344-.922.145-1.927-.281-2.841a1.1,1.1,0,0,1-.471.2c-5.7.013-11.409,0-17.114,0a2.845,2.845,0,0,1-1.662-.266c-.56.633-.208,1.388-.247,2.079-.085,1.511-.579,2.069-2.061,2.1-.7.015-1.4,0-2.1,0-1.935-.006-2.39-.483-2.446-2.381-.017-.6.3-1.275-.261-1.8-.982.506-2.036.192-3.056.266a21.261,21.261,0,0,0-2.964.106c-.454.363-.3.875-.3,1.332-.018,1.777,0,3.555-.014,5.332,0,.458.143.969-.3,1.335a1.978,1.978,0,0,1-.833,1.086c-.358-.091-.787-.043-.965-.49-.062-.383.188-.307.382-.235.38.14.684.146.8-.33.035-2.543-.053-5.086.048-7.627,0-.035.052-.068-.04.044-.037,2.461.015,5.072-.026,7.681-.491.7-.925.007-1.385-.057q-.024-4.4-.049-8.8a1,1,0,0,1,.332-.937c2.6-.307,5.19-.063,7.685-.15-1.957,0-4.02.018-6.082-.018-.373-.006-.9.32-1.127-.3a.16.16,0,0,1,.219-.084,61.022,61.022,0,0,1,6.292-.111c2.061-.045,1.752.208,1.8-1.713.008-.35-.19-.777.332-1.122a5.3,5.3,0,0,1,.134,2.288,10.017,10.017,0,0,0,.075-1.9,1.209,1.209,0,0,1,.722-1.145,4.821,4.821,0,0,1,3.826.023,1.146,1.146,0,0,1,.67,1.172,10.881,10.881,0,0,1,.008,1.7c.212-.506-.161-1.331.286-2.373a4.914,4.914,0,0,1,.252,2.22c.017.488.058.85.694.848,6.315-.017,12.63.016,18.945-.019.177,0,.194-.134.248-.245a9.041,9.041,0,0,1,.044-2.775c.6-.014.4.421.391.728-.017.547.026,1.1-.026,1.62a9.4,9.4,0,0,0-.125-2.914.6.6,0,0,1,.548-.482c1.582-.018,3.163,0,4.745-.01,1.189.5.993,1.576.9,2.477-.136,1.3.324,1.626,1.57,1.54,1.7-.117,3.409-.037,5.115-.024.469,0,.972-.118,1.378.253-.016.428-.333.5-.644.469-2.317-.239-4.644,0-6.258-.091,1.227-.011,3.158-.011,5.089,0,.956.007,1.869.14,2.2,1.265.03,6.185,0,12.37.021,18.555q0-9.155,0-18.306a.41.41,0,0,1,.162-.388c.65.24.341.8.343,1.2.024,5.477.016,10.955.016,16.433,0,.307,0,.614,0,.92,0,.264-.017.586.24.705.364.169.569-.174.722-.411a36.833,36.833,0,0,0,2.195-3.736,1.463,1.463,0,0,1,2.094-.323c1.185.651,2.448,1.2,3.593,1.868,2.237,1.3,4.406,2.741,6.639,4.067.865.513.826,1.215-.081,1.692a13,13,0,0,1-3.219,1.208c.378-.013.807-.2.87.394a.614.614,0,0,1-.228.048c-.58.125-.9.365-.764,1.073.146.77.26,1.555.331,2.338.1,1.082-.694,1.761-1.636,1.261-1.555-.825-3.136-1.606-4.655-2.507-.658-.39-1.552-.8-2.1.3a50.226,50.226,0,0,0-4.178,6.954,2.968,2.968,0,0,0-.1,1.435q.013,9.93,0,19.852a5.464,5.464,0,0,1-.145,1.825c-.264,1.034-1,1.314-1.981,1.315-3.3,0-6.591.026-9.885-.019-.638-.009-1.467.1-1.508-.946,3.74-.135,7.477-.018,10.625-.058-3.1-.037-6.79.02-10.48-.024a.242.242,0,0,1-.187-.363c2.436-.3,4.882-.045,7.322-.134.65-.024,1.3-.068,1.948-.1l.114-.157c.575-.514,1.549.167,2.009-.678.188-3.586.039-7.17.072-10.752.015-1.612.055-3.225-.043-5.013C2343.585,183.66,2343.449,185.066,2342.446,185.822Z" transform="translate(-0.014 -0.914)"/>
      <path id="Trazado_563466" data-name="Trazado 563466" d="M2309.536,249.893c.389.3.841.14,1.258.141,5.591.014,11.182.007,16.773.013.476,0,.951.061,1.427.093a.253.253,0,0,1-.149.393c-6.213-.035-12.427.176-18.638-.108l0,.136q9.237,0,18.47,0c.623.165.338.483.08.708a2.13,2.13,0,0,1-1.511.307c-5.7.008-11.409-.012-17.113.018a3.518,3.518,0,0,1-2.665-1.175c-3.028-3.053-6.078-6.085-9.115-9.13a5.226,5.226,0,0,0-2.015-1.415q-.023-14.54-.046-29.079c0-1.1.021-2.194-.006-3.29a1.573,1.573,0,0,1,.532-1.407,1.225,1.225,0,0,1,1.536.892c.516.51.3,1.162.3,1.75q.022,14.023.019,28.046c0,.549-.186,1.15.267,1.634,2.464.307,4.939.047,7.407.143.5.02,1.056-.161,1.475.3a2.234,2.234,0,0,1,1.625,1.606c.421.383.285.894.288,1.358q.017,3.8,0,7.61A1.1,1.1,0,0,1,2309.536,249.893Z" transform="translate(0 -51.509)" fill="#010101"/>
      <path id="Trazado_563467" data-name="Trazado 563467" d="M2296.449,333.8c.732-.373,1.182.022,1.678.523,3.3,3.332,6.636,6.628,9.928,9.968a2.642,2.642,0,0,0,2.07.87c5.829-.035,11.658-.016,17.487-.022.551,0,1.174.153,1.494-.526-.1-.058-.132-.116-.1-.174s.066-.087.1-.087v-.287a1.027,1.027,0,0,1,.819,1.344l-.306.205c-5.941.125-11.883.02-17.823.056-1.267.008-2.534-.032-3.8.028-2.555-2.185-4.791-4.7-7.188-7.044-1.425-1.395-2.772-2.87-4.175-4.288A.576.576,0,0,1,2296.449,333.8Z" transform="translate(-0.114 -145.434)" fill="#0a0a0a"/>
      <path id="Trazado_563468" data-name="Trazado 563468" d="M2510.824,221.418c-.281-.363-.752-.134-1.192-.357a25.4,25.4,0,0,1,3.29-1.454c.284-.137.674-.173.666-.681-.007-.444-.345-.463-.585-.6-1.249-.724-2.749-1.207-3.686-2.216-.761-.82-2.274-.408-2.5-1.789-1.787-.136-3-1.485-4.54-2.149-.516-.223-.756.414-1.21.315-.237-1.2.558-1.323,1.429-1.362,3.725,2.125,7.47,4.215,11.164,6.392a1.582,1.582,0,0,1-.161,2.92A7.985,7.985,0,0,1,2510.824,221.418Z" transform="translate(-150.717 -55.239)" fill="#070707"/>
      <path id="Trazado_563469" data-name="Trazado 563469" d="M2334.469,141.142c-.315.662-.923.38-1.4.382-5.615.02-11.231.013-16.846.013-1.75,0-1.75,0-1.765-1.788a1.094,1.094,0,0,0-.228-.789v2.294c-.511-.96.083-2.136-.742-2.944a2.759,2.759,0,0,0-2.125-.478c-.87.022-1.9-.092-2.256.87-.291.777-.2,1.7-.44,2.55v-2.444c-.164.182-.246.23-.248.281-.124,2.448-.123,2.45-2.573,2.447-1.886,0-3.772-.012-5.658-.018,1.759-.516,3.556-.161,5.334-.211,2.492-.07,2.5-.017,2.617-2.42a1.516,1.516,0,0,1,.795-1.522c1.663-.089,3.327-.077,4.991-.007,1.171.625.819,1.75.768,2.683-.058,1.062.3,1.279,1.3,1.27,5.727-.048,11.455-.022,17.183-.026A2.6,2.6,0,0,0,2334.469,141.142Z" transform="translate(-2.877 -0.898)" fill="#090909"/>
      <path id="Trazado_563470" data-name="Trazado 563470" d="M2485.873,310.934q0-11.208,0-22.416a.238.238,0,0,1,.374.174c.033,7.225.01,14.45.02,21.675q.009-10.777,0-21.554c.01-.251-.017-.525.346-.556q-.022,10.771-.052,21.543c0,.467.149.964-.156,1.4-.123.175-.29.366-.5.258S2485.711,311.124,2485.873,310.934Z" transform="translate(-139.476 -112.017)" fill="#0d0d0d"/>
      <path id="Trazado_563471" data-name="Trazado 563471" d="M2503.189,252.6c.882-1.246,1.517-1.245,2.59-.087.422.455,1.137.093,1.682.508a27.354,27.354,0,0,0,2.677,1.608.85.85,0,0,0,1.064-.075c.376-.275.291-.525.219-.891-.151-.763-.215-1.544-.318-2.317-.11-.833.2-1.255,1.085-1.108-.877.354-.11,1-.262,1.481.223.446-.05.967.212,1.407.016,1.02.458,2.208-1.037,2.635a1.587,1.587,0,0,0-1.047-.047c-1.77-.991-3.533-1.994-5.316-2.963-.332-.18-.8-.792-1.068.106C2503.411,252.95,2503.276,252.818,2503.189,252.6Z" transform="translate(-152.307 -84.008)" fill="#090909"/>
      <path id="Trazado_563472" data-name="Trazado 563472" d="M2492.694,171.419c-.613.311-1.342.5-1.429,1.362a8.186,8.186,0,0,1-3.406,4.877q-.042-9.942-.085-19.885a.478.478,0,0,1,.076-.587,2.825,2.825,0,0,1,.152,1.547c.011,5.928.007,11.857.218,17.882.9-1.548,1.816-3.091,2.709-4.646C2491.356,171.224,2491.845,170.77,2492.694,171.419Z" transform="translate(-140.91 -15.534)" fill="#0b0b0b"/>
      <path id="Trazado_563473" data-name="Trazado 563473" d="M2340.241,378.462c.284-.385.7-.289,1.085-.29q9.772-.006,19.543,0c.343,0,.707-.068,1,.207-.265.412-.69.317-1.071.317q-9.858.007-19.717,0C2340.785,378.695,2340.453,378.777,2340.241,378.462Z" transform="translate(-32.359 -178.198)" fill="#010101"/>
      <path id="Trazado_563474" data-name="Trazado 563474" d="M2490.682,259.262l.48.257c-1.256,2.551-2.748,4.966-4.219,7.394l-.28.293q-.126.139-.2-.032h-.263c-.052-1.356.923-2.273,1.476-3.36.625-1.228,1.378-2.391,2.094-3.572C2490,259.858,2490.137,259.363,2490.682,259.262Z" transform="translate(-139.8 -90.674)" fill="#0b0b0b"/>
      <path id="Trazado_563475" data-name="Trazado 563475" d="M2448.431,377.941c-.262.322-.634.249-.971.25q-5.634.009-11.268,0c-.332,0-.713.105-.948-.268.032-.54.423-.439.765-.43,3.791.1,7.583.019,11.374.048C2447.77,377.544,2448.287,377.275,2448.431,377.941Z" transform="translate(-102.292 -177.696)"/>
      <path id="Trazado_563476" data-name="Trazado 563476" d="M2447.077,374.821c-.253-.329-.618-.272-.961-.273q-5.627,0-11.255,0c-.343,0-.708-.063-.97.254-.465-.167-.389-.607-.485-.96.256-.191.308-.635.746-.6q0,.123,0,.246.232.135,0,.269a1.566,1.566,0,0,0,1.282.527q5.105,0,10.212,0a1.792,1.792,0,0,0,1.692-.788c-.008.466.252.4.539.267A.99.99,0,0,1,2447.077,374.821Z" transform="translate(-100.938 -174.575)" fill="#090909"/>
      <path id="Trazado_563477" data-name="Trazado 563477" d="M2463.98,154.406q-.038.294-.076.587a.97.97,0,0,0-.2-.023c-.146-.118-.125-.287-.134-.446-.006.16.015.328-.132.446a3.9,3.9,0,0,0-3.219-1.075,24,24,0,0,1-4.939-.245c2.172,0,4.344.009,6.517-.007.462,0,.97.161,1.372-.233A1.019,1.019,0,0,1,2463.98,154.406Z" transform="translate(-117.041 -12.755)" fill="#090909"/>
      <path id="Trazado_563478" data-name="Trazado 563478" d="M2298.036,153.6c1.683.42,3.394.1,5.09.185a11.719,11.719,0,0,1,2.744.27c-1.75,0-3.5-.023-5.25.009a4.7,4.7,0,0,0-2.686.322c-.041.026-.246-.2-.374-.314A.649.649,0,0,1,2298.036,153.6Z" transform="translate(-0.942 -12.891)" fill="#0c0c0c"/>
      <path id="Trazado_563479" data-name="Trazado 563479" d="M2437.986,136.42a8.915,8.915,0,0,1-4.744.01A8.708,8.708,0,0,1,2437.986,136.42Z" transform="translate(-100.818 -0.009)"/>
      <path id="Trazado_563480" data-name="Trazado 563480" d="M2338.326,136.461a12,12,0,0,1-4.991.007A8.347,8.347,0,0,1,2338.326,136.461Z" transform="translate(-27.275)"/>
      <path id="Trazado_563481" data-name="Trazado 563481" d="M2430.453,139.19c.844,1.049-.016,2.212.263,3.3-.558-.851.126-1.9-.5-2.736A.46.46,0,0,1,2430.453,139.19Z" transform="translate(-98.578 -2.287)" fill="#0c0c0c"/>
      <path id="Trazado_563482" data-name="Trazado 563482" d="M2296.432,192.289l1.272.267h0c-.243.526-.75-.03-1.051.257C2296.4,192.711,2296.385,192.514,2296.432,192.289Z" transform="translate(-0.095 -41.374)" fill="#0d0d0d"/>
      <path id="Trazado_563483" data-name="Trazado 563483" d="M2536.354,257.333c-.4-.419-.234-.924-.212-1.407A2.494,2.494,0,0,1,2536.354,257.333Z" transform="translate(-176.525 -88.218)" fill="#151515"/>
      <path id="Trazado_563484" data-name="Trazado 563484" d="M2529.2,270.437a.677.677,0,0,1,1.047.047A.917.917,0,0,1,2529.2,270.437Z" transform="translate(-171.455 -98.735)"/>
      <path id="Trazado_563485" data-name="Trazado 563485" d="M2473.34,160.284c.512.225.265.682.266,1.02q.026,10.28.013,20.559c0,1.754-1.272,2.907-2.033,4.3-.306.055-.632.156-.621-.356.009-.438,0-.877,0-1.315q0-11.836,0-23.671l-.085-.183a.336.336,0,0,1,.314-.205A6.92,6.92,0,0,0,2473.34,160.284Z" transform="translate(-128.523 -17.815)" fill="#e0dee2"/>
      <path id="Trazado_563486" data-name="Trazado 563486" d="M2471,309c.453-1.616,1.525-2.884,2.262-4.34l.347.069v17.492a7.951,7.951,0,0,1-2.18.125,1.242,1.242,0,0,1-.4-.049.226.226,0,0,1-.026-.344Q2471.008,315.48,2471,309Z" transform="translate(-128.572 -124.095)" fill="#e0dee2"/>
      <path id="Trazado_563487" data-name="Trazado 563487" d="M2364.041,263.408c.8.813.251,1.231-.484,1.54a2.15,2.15,0,0,1-.783.03q-14,0-28.007,0c-.622,0-1.287.058-1.568-.657a.864.864,0,0,1,.489-1.195l.222.05a2.73,2.73,0,0,0,.452.11c8.894.061,17.786.006,26.678.027a26.193,26.193,0,0,1,2.757.062Z" transform="translate(-27.115 -93.521)" fill="#060606"/>
      <path id="Trazado_563488" data-name="Trazado 563488" d="M2364.041,216.435c.8.813.251,1.231-.484,1.54a2.15,2.15,0,0,1-.783.03q-14,0-28.007,0c-.622,0-1.287.058-1.568-.657a.864.864,0,0,1,.489-1.195l.222.05a2.732,2.732,0,0,0,.452.11c8.894.061,17.786.006,26.678.027a26.189,26.189,0,0,1,2.757.062Z" transform="translate(-27.115 -58.943)" fill="#060606"/>
      <path id="Trazado_563489" data-name="Trazado 563489" d="M2348.114,311.566c-.269.53-.762.51-1.248.51q-6.177,0-12.353,0c-.56,0-1.094-.072-1.306-.653a.79.79,0,0,1,.49-1.157c.156.024.31.055.463.092,3.743.118,7.486.015,11.229.052a10.2,10.2,0,0,1,1.953.081C2347.906,310.631,2348.031,311.084,2348.114,311.566Z" transform="translate(-27.118 -128.221)" fill="#070707"/>
      <path id="Trazado_563490" data-name="Trazado 563490" d="M2304.909,208.3c.457.433.258.993.259,1.495q.018,14.207.009,28.414c0,1.736,0,1.736,1.68,1.737,2.1,0,4.21-.007,6.314.006.422,0,.889-.139,1.236.255a74.1,74.1,0,0,1-9.531.015,2.063,2.063,0,0,1-.09-.908q0-14.994,0-29.987A1.811,1.811,0,0,1,2304.909,208.3Z" transform="translate(-6.25 -53.158)" fill="#e8e6e8"/>
      <path id="Trazado_563491" data-name="Trazado 563491" d="M2304.266,208.3l0,31.914q.224.138,0,.278c-.4.011-.372-.282-.371-.539q.028-15.654.059-31.309Z" transform="translate(-5.607 -53.158)" fill="#fefefe"/>
      <path id="Trazado_563492" data-name="Trazado 563492" d="M2335.435,214.439c-.1-.529.321-.274.477-.275q14.365-.021,28.73-.007c.372,0,.817-.133,1.027.361a2.668,2.668,0,0,1-1.656.271q-13.411.01-26.823,0C2336.59,214.787,2335.949,214.912,2335.435,214.439Z" transform="translate(-28.81 -57.432)" fill="#f5f4f6"/>
      <path id="Trazado_563493" data-name="Trazado 563493" d="M2335.435,261.412c-.1-.529.321-.274.477-.275q14.365-.021,28.73-.007c.372,0,.817-.133,1.027.361a2.669,2.669,0,0,1-1.656.271q-13.411.01-26.823,0C2336.59,261.76,2335.949,261.885,2335.435,261.412Z" transform="translate(-28.81 -92.01)" fill="#f5f4f6"/>
      <path id="Trazado_563494" data-name="Trazado 563494" d="M2335.184,262.3q14.727-.011,29.454-.018a6.1,6.1,0,0,1,.779.1.386.386,0,0,1-.017.191,2.063,2.063,0,0,1-1.394.228q-13.794.01-27.589,0a2.886,2.886,0,0,1-1.292-.154l-.047-.073.053-.068A1.048,1.048,0,0,1,2335.184,262.3Z" transform="translate(-28.558 -92.895)" fill="#545454"/>
      <path id="Trazado_563495" data-name="Trazado 563495" d="M2335.184,215.324q14.727-.011,29.454-.018a6.093,6.093,0,0,1,.779.1.386.386,0,0,1-.017.191,2.061,2.061,0,0,1-1.394.228q-13.794.01-27.589,0a2.886,2.886,0,0,1-1.292-.154l-.047-.073.053-.068A1.047,1.047,0,0,1,2335.184,215.324Z" transform="translate(-28.558 -58.317)" fill="#545454"/>
      <path id="Trazado_563496" data-name="Trazado 563496" d="M2335.256,263.382a5.921,5.921,0,0,1,.779-.1q14.748.007,29.5.024a.4.4,0,0,1,.084.215l-.043.032a1.544,1.544,0,0,1-.9.112q-14.194,0-28.387,0a1.652,1.652,0,0,1-1.022-.132A1.066,1.066,0,0,0,2335.256,263.382Z" transform="translate(-28.689 -93.632)"/>
      <path id="Trazado_563497" data-name="Trazado 563497" d="M2335.256,216.409a5.923,5.923,0,0,1,.779-.1q14.748.007,29.5.024a.4.4,0,0,1,.084.215l-.043.032a1.544,1.544,0,0,1-.9.112q-14.194,0-28.387,0a1.652,1.652,0,0,1-1.022-.132A1.066,1.066,0,0,0,2335.256,216.409Z" transform="translate(-28.689 -59.055)"/>
      <path id="Trazado_563498" data-name="Trazado 563498" d="M2346.83,334.228c.434.386.258.9.261,1.361.018,2.322.047,4.644-.01,6.965-.023.942.322,1.187,1.216,1.182,5.52-.032,11.04-.022,16.559-.007.5,0,1.061-.2,1.493.258a1.246,1.246,0,0,1-.762.123q-9.051,0-18.1,0a1.8,1.8,0,0,1-.647-.076A75.778,75.778,0,0,1,2346.83,334.228Z" transform="translate(-37.096 -145.858)" fill="#e9e7e9"/>
      <path id="Trazado_563499" data-name="Trazado 563499" d="M2376,163.577c-.542-.3-.263-.814-.24-1.2.055-.928-.3-1.2-1.212-1.193-5.258.036-10.516.023-15.774.008-.5,0-1.061.193-1.5-.25a.861.861,0,0,1,.5-.132c6.053.022,12.107-.048,18.16.036A4.869,4.869,0,0,1,2376,163.577Z" transform="translate(-44.9 -18.2)" fill="#eae8ea"/>
      <path id="Trazado_563500" data-name="Trazado 563500" d="M2346.431,370.926l19.515,0c-.454.4-1,.214-1.508.216q-9.105.035-18.21.038a.975.975,0,0,1-.1-.158c-.01-.026.017-.066.027-.1C2346.249,370.792,2346.34,370.8,2346.431,370.926Z" transform="translate(-36.693 -172.799)" fill="#fefefe"/>
      <path id="Trazado_563501" data-name="Trazado 563501" d="M2375.261,160.326l-18.724,0-.265-.273q9.494-.175,18.989,0,.114.09.076.18T2375.261,160.326Z" transform="translate(-44.159 -17.584)" fill="#f7f6f8"/>
      <path id="Trazado_563502" data-name="Trazado 563502" d="M2349.644,310.8l-.447-.781a7.348,7.348,0,0,0-2.463-.124c-3.409-.023-6.819-.005-10.228-.016a2.347,2.347,0,0,1-1.283-.126c0-.084,0-.167,0-.251l-.028-.034a1.788,1.788,0,0,1,1.131-.236q5.889-.006,11.78,0a1.985,1.985,0,0,1,1.139.219A.864.864,0,0,1,2349.644,310.8Z" transform="translate(-28.648 -127.458)" fill="#030303"/>
      <path id="Trazado_563503" data-name="Trazado 563503" d="M2310.937,160.876c-1.388.55-2.841.256-4.25.22-1.3-.033-1.627.4-1.579,1.638.085,2.178,0,4.363-.02,6.545,0,.023-.057.062-.091.066a.348.348,0,0,1-.125-.034,67.655,67.655,0,0,1-.046-8.443A29.333,29.333,0,0,1,2310.937,160.876Z" transform="translate(-6.209 -18.13)" fill="#e9e7e9"/>
      <path id="Trazado_563504" data-name="Trazado 563504" d="M2335.316,308.531c-.1-.133-.06-.273.084-.274q6.851-.015,13.7-.008c.037,0,.1.025.106.048a1.16,1.16,0,0,1,.011.222,26.74,26.74,0,0,1-4.582.1C2341.531,308.6,2338.421,308.767,2335.316,308.531Z" transform="translate(-28.692 -126.733)" fill="#f5f4f6"/>
      <path id="Trazado_563505" data-name="Trazado 563505" d="M2335.272,309.286l13.9-.012a.689.689,0,0,1,.074.211l-14.05.018A2.173,2.173,0,0,1,2335.272,309.286Z" transform="translate(-28.648 -127.489)" fill="#545454"/>
      <path id="Trazado_563506" data-name="Trazado 563506" d="M2430.276,163.438c.558-.882.044-1.889.515-2.82,0,.68.038,1.362-.009,2.038-.067.957.311,1.316,1.29,1.337,1.247.027,2.528-.312,3.744.235-1.562.55-3.169.161-4.754.227A1.043,1.043,0,0,1,2430.276,163.438Z" transform="translate(-98.635 -18.061)" fill="#0b0b0b"/>
      <path id="Trazado_563507" data-name="Trazado 563507" d="M2346.457,343.984h-.274l-.021-9.169.29-.587Q2346.454,339.106,2346.457,343.984Z" transform="translate(-36.717 -145.858)" fill="#faf9fb"/>
      <path id="Trazado_563508" data-name="Trazado 563508" d="M2305.3,329.495c0-.093,0-.185,0-.278l9.495-.006c.166.409-.254.171-.337.3C2311.406,329.591,2308.354,329.629,2305.3,329.495Z" transform="translate(-6.639 -142.164)" fill="#fcfbfd"/>
      <path id="Trazado_563509" data-name="Trazado 563509" d="M2433.256,174.436c1.564-.508,3.172-.087,4.754-.227l.278.014a1.249,1.249,0,0,1-1.319.484C2435.737,174.555,2434.462,174.979,2433.256,174.436Z" transform="translate(-100.829 -28.041)" fill="#020202"/>
      <path id="Trazado_563510" data-name="Trazado 563510" d="M2445.456,370.129c0,.088,0,.175,0,.263a66.406,66.406,0,0,1-9.232,0c.389-.424.9-.253,1.362-.256C2440.211,370.122,2442.833,370.129,2445.456,370.129Z" transform="translate(-103.016 -172.268)" fill="#e8e6e8"/>
      <path id="Trazado_563511" data-name="Trazado 563511" d="M2436.227,371.192l9.232,0,0,.007q.133.087.1.191c-.022.071-.046.107-.073.107l.016,0c-2.63-.026-5.26-.044-7.889-.084C2437.145,371.406,2436.636,371.578,2436.227,371.192Z" transform="translate(-103.016 -173.066)" fill="#fefefe"/>
      <path id="Trazado_563512" data-name="Trazado 563512" d="M2304.267,160.563q0,4.22,0,8.439l-.309-.338q-.033-3.919-.062-7.838c0-.256-.027-.547.371-.533q.141.09.094.18C2304.33,160.533,2304.3,160.563,2304.267,160.563Z" transform="translate(-5.604 -17.822)" fill="#fefefe"/>
      <path id="Trazado_563513" data-name="Trazado 563513" d="M2459.749,160.894c0,.088,0,.176,0,.264-.306,0-.611-.008-.916,0a6.149,6.149,0,0,0-2.445.142c-.756.388-.146,1.449-.378,2.177a1.263,1.263,0,0,1-.222.312,7.636,7.636,0,0,1,0-2.938A15.015,15.015,0,0,1,2459.749,160.894Z" transform="translate(-117.306 -18.152)" fill="#e9e7e9"/>
      <path id="Trazado_563514" data-name="Trazado 563514" d="M2305.3,160.329v-.269a59.952,59.952,0,0,1,6.33,0l-.266.275Z" transform="translate(-6.641 -17.588)" fill="#f7f6f8"/>
      <path id="Trazado_563515" data-name="Trazado 563515" d="M2455.045,160.564q0,1.449-.008,2.9l-.3-.609c.062-.858-.446-1.785.31-2.559q.141.09.094.18C2455.108,160.534,2455.077,160.564,2455.045,160.564Z" transform="translate(-116.559 -17.822)" fill="#fdfdfd"/>
      <path id="Trazado_563516" data-name="Trazado 563516" d="M2428.232,160.564v-.27l.258.064c-.176.939.252,1.932-.257,2.841Q2428.233,161.881,2428.232,160.564Z" transform="translate(-97.13 -17.822)" fill="#fdfcfd"/>
      <path id="Trazado_563517" data-name="Trazado 563517" d="M2461.477,242.592c-.981-.607-1.892-1.127-2.746-1.728-.237-.167.075-.472.2-.686q5.817-10.089,11.631-20.179c.31-.539.579-.647,1.126-.311,2.794,1.717,2.542.952,1.049,3.565-3.5,6.131-7.052,12.237-10.587,18.351C2461.96,241.927,2461.728,242.224,2461.477,242.592Z" transform="translate(-119.517 -61.402)" fill="#5b65c7"/>
      <path id="Trazado_563518" data-name="Trazado 563518" d="M2519.459,232.513c-4.573,2.019-3.954,1.182-3.468,5.99-1.649-.958-3.167-1.831-4.673-2.724a.533.533,0,0,1-.181-.8q1.445-2.5,2.885-5c.189-.33.379-.394.729-.187C2516.246,230.678,2517.757,231.534,2519.459,232.513Z" transform="translate(-158.082 -68.895)" fill="#c773a1"/>
      <path id="Trazado_563519" data-name="Trazado 563519" d="M2439.244,314.814c1.04-2.36,2.527-4.47,3.742-6.732.041-.076.091-.2.151-.207,1.008-.161,1.569.719,2.373,1.043.428.173.735.521.445,1.023q-1.9,3.287-3.843,6.551a.813.813,0,0,1-.765.426,2.061,2.061,0,0,0-1.054,0,1.146,1.146,0,0,1-1.051-1.054A2.127,2.127,0,0,0,2439.244,314.814Z" transform="translate(-105.235 -126.444)" fill="#f0ce6a"/>
      <path id="Trazado_563520" data-name="Trazado 563520" d="M2340.209,150.2a6.161,6.161,0,0,1-2.359-.012,30.179,30.179,0,0,1-.007-6.287h0a4.825,4.825,0,0,1,2.381-.009l0,0A31.764,31.764,0,0,1,2340.209,150.2Z" transform="translate(-30.475 -5.645)" fill="#5b65c7"/>
      <path id="Trazado_563521" data-name="Trazado 563521" d="M2437.258,143.7a1.468,1.468,0,0,1,.361-.127c2.057-.155,2.123-.15,2.035,1.916-.064,1.521.377,3.077-.252,4.566-1.974-.328-1.973-.328-1.974-2.538,0-.937,0-1.875-.058-2.81-.1-.167-.314.061-.158-.022.066-.035.112-.017.117.056a25.707,25.707,0,0,1-.036,5.307c-.583-.92-.227-1.936-.229-2.9,0-1.148-.3-2.33.191-3.455.5.362,1.093.019,1.376.13C2438.342,143.778,2437.764,144.01,2437.258,143.7Z" transform="translate(-103.554 -5.473)" fill="#5b65c6"/>
      <path id="Trazado_563522" data-name="Trazado 563522" d="M2483.55,164.542v20.44h-.132V164.5Z" transform="translate(-137.754 -20.917)" fill="#060606"/>
      <path id="Trazado_563523" data-name="Trazado 563523" d="M2355.5,154.462h19.324v.13h-19.373Z" transform="translate(-43.555 -13.529)" fill="#090909"/>
      <path id="Trazado_563524" data-name="Trazado 563524" d="M2486.2,158.379l.133-.338.133.338V177.3h-.265Z" transform="translate(-139.798 -16.164)" fill="#0d0d0d"/>
      <ellipse id="Elipse_6656" data-name="Elipse 6656" cx="13.522" cy="0.068" rx="13.522" ry="0.068" transform="translate(2308.243 141.761)" fill="#0b0b0b"/>
      <ellipse id="Elipse_6657" data-name="Elipse 6657" cx="0.067" cy="11.655" rx="0.067" ry="11.655" transform="translate(2345.662 177.662)" fill="#060606"/>
      <path id="Trazado_563525" data-name="Trazado 563525" d="M2436.229,374.448c0-.09,0-.179,0-.269h11.534l0,.269Z" transform="translate(-103.017 -175.266)" fill="#0b0b0b"/>
      <path id="Trazado_563526" data-name="Trazado 563526" d="M2301.307,169.855V161.45c.074,2.8.617,5.612,0,8.4Z" transform="translate(-3.698 -18.673)" fill="#0c0c0c"/>
      <path id="Trazado_563527" data-name="Trazado 563527" d="M2438.228,152.932v-5.5h.263c0,1.209.039,2.419-.012,3.626-.043,1.033.013,1.878,1.413,1.651.132-.021.3.15.444.232Z" transform="translate(-104.489 -8.353)" fill="#5e68cb"/>
      <path id="Trazado_563528" data-name="Trazado 563528" d="M2304.564,157.58h6.5v.132h-6.508Z" transform="translate(-6.089 -15.824)" fill="#0b0b0b"/>
      <path id="Trazado_563529" data-name="Trazado 563529" d="M2455.442,157.46h6.4l0,.131H2455.4Z" transform="translate(-117.125 -15.736)" fill="#0b0b0b"/>
      <ellipse id="Elipse_6658" data-name="Elipse 6658" cx="0.088" cy="4.04" rx="0.088" ry="4.04" transform="translate(2310.301 137.391)" fill="#06060a"/>
      <path id="Trazado_563530" data-name="Trazado 563530" d="M2347.258,150.6q.007-3.155.013-6.311A20.555,20.555,0,0,1,2347.258,150.6Z" transform="translate(-37.524 -6.044)" fill="#4f58ab"/>
      <ellipse id="Elipse_6659" data-name="Elipse 6659" cx="0.089" cy="4.041" rx="0.089" ry="4.041" transform="translate(2306.608 137.391)" fill="#06060a"/>
      <path id="Trazado_563531" data-name="Trazado 563531" d="M2337.669,144.336q0,3.144.007,6.287A21.952,21.952,0,0,1,2337.669,144.336Z" transform="translate(-30.302 -6.075)" fill="#4f58ab"/>
      <path id="Trazado_563532" data-name="Trazado 563532" d="M2335.571,173.56h3.859v.132h-3.868Z" transform="translate(-28.915 -27.588)" fill="#090909"/>
      <path id="Trazado_563533" data-name="Trazado 563533" d="M2456.216,160.332v-.27a23.633,23.633,0,0,1,3.956,0q.133.091.088.18c-.029.06-.059.09-.089.09h-3.956Z" transform="translate(-117.73 -17.59)" fill="#f7f6f8"/>
      <path id="Trazado_563534" data-name="Trazado 563534" d="M2452.663,160.51v2.71h-.132V160.4Z" transform="translate(-115.017 -17.9)" fill="#0b0b0b"/>
      <path id="Trazado_563535" data-name="Trazado 563535" d="M2452.458,144.215V141.4h.132v2.807Z" transform="translate(-114.963 -3.915)" fill="#0d0d0d"/>
      <path id="Trazado_563536" data-name="Trazado 563536" d="M2440.342,170.707h-2.033v-.132h2.013Z" transform="translate(-104.547 -25.39)" fill="#060609"/>
      <path id="Trazado_563537" data-name="Trazado 563537" d="M2471.223,371.51c-.009-.1-.019-.2-.028-.3h2.6C2473.018,371.991,2472.09,371.483,2471.223,371.51Z" transform="translate(-128.756 -173.081)" fill="#f1eff3"/>
      <path id="Trazado_563538" data-name="Trazado 563538" d="M2438.7,141.515h1.93A2.474,2.474,0,0,1,2438.7,141.515Z" transform="translate(-104.839 -3.999)" fill="#06060a"/>
      <path id="Trazado_563539" data-name="Trazado 563539" d="M2339.414,170.525h1.776l0,.132h-1.722Z" transform="translate(-31.75 -25.353)" fill="#060609"/>
      <path id="Trazado_563540" data-name="Trazado 563540" d="M2471.206,160.329v-.27a8.575,8.575,0,0,1,2.375,0C2472.842,160.6,2471.995,160.211,2471.206,160.329Z" transform="translate(-128.764 -17.587)" fill="#eae8eb"/>
      <path id="Trazado_563541" data-name="Trazado 563541" d="M2340.675,143.638l-2.38.009A3.052,3.052,0,0,1,2340.675,143.638Z" transform="translate(-30.926 -5.387)" fill="#4f58ab"/>
      <path id="Trazado_563542" data-name="Trazado 563542" d="M2341.264,141.828h-1.673l-.008-.132h1.729Z" transform="translate(-31.875 -4.132)" fill="#06060a"/>
      <path id="Trazado_563543" data-name="Trazado 563543" d="M2438.764,334.224a.647.647,0,0,1,0,1.052A.888.888,0,0,1,2438.764,334.224Z" transform="translate(-104.755 -145.855)" fill="#f4db70"/>
      <path id="Trazado_563544" data-name="Trazado 563544" d="M2442.6,344.349a1.684,1.684,0,0,1,1.275-.014A1.533,1.533,0,0,1,2442.6,344.349Z" transform="translate(-107.706 -153.21)" fill="#090905"/>
      <path id="Trazado_563545" data-name="Trazado 563545" d="M2332.489,165.612a1.661,1.661,0,0,1-.115-1.263C2332.708,164.678,2332.52,165.017,2332.489,165.612Z" transform="translate(-26.512 -20.807)" fill="#060606"/>
      <path id="Trazado_563546" data-name="Trazado 563546" d="M2530.408,249.525v1.1A.847.847,0,0,1,2530.408,249.525Z" transform="translate(-172.196 -83.506)" fill="#080506"/>
      <path id="Trazado_563547" data-name="Trazado 563547" d="M2436.459,334.287v1.054C2436.1,334.986,2436.288,334.647,2436.459,334.287Z" transform="translate(-103.035 -145.901)" fill="#090804"/>
      <path id="Trazado_563548" data-name="Trazado 563548" d="M2443.225,341.443a.645.645,0,0,1,1.053,0A.9.9,0,0,1,2443.225,341.443Z" transform="translate(-108.167 -150.967)" fill="#f5db70"/>
      <path id="Trazado_563549" data-name="Trazado 563549" d="M2310.9,338.112c2.1,0,4.2.03,6.3-.016.739-.017.979.188.958.945-.052,1.924-.014,3.85-.023,5.775,0,.2,0,.513-.123.592-.365.24-.341-.213-.509-.352-2.006-1.666-3.556-3.781-5.468-5.543C2311.615,339.124,2310.806,338.978,2310.9,338.112Z" transform="translate(-10.756 -148.704)" fill="#d0cdd3"/>
      <path id="Trazado_563550" data-name="Trazado 563550" d="M2301.45,241.12V209.663h.129v31.5Z" transform="translate(-3.804 -54.163)" fill="#0c0c0c"/>
      <path id="Trazado_563551" data-name="Trazado 563551" d="M2366.721,374.2v.262h-19.184V374.2Z" transform="translate(-37.729 -175.281)" fill="#0b0b0b"/>
      <path id="Trazado_563552" data-name="Trazado 563552" d="M2343.421,345.616v-9.039l.131,0v9.092Z" transform="translate(-34.7 -147.585)" fill="#0b0b0b"/>
      <path id="Trazado_563553" data-name="Trazado 563553" d="M2314.7,332.714h-9.04l0-.132h9.094Z" transform="translate(-6.903 -144.646)" fill="#0b0b0b"/>
      <path id="Trazado_563554" data-name="Trazado 563554" d="M2317.409,335.593h-7.023v-.132h7.033Z" transform="translate(-10.382 -146.765)" fill="#060606"/>
      <ellipse id="Elipse_6660" data-name="Elipse 6660" cx="0.082" cy="3.854" rx="0.082" ry="3.854" transform="translate(2307.954 189.371)" fill="#060606"/>
      <path id="Trazado_563555" data-name="Trazado 563555" d="M2487.2,289.246a.7.7,0,0,1,.2.032q0,11.045,0,22.089h-.2Z" transform="translate(-140.54 -112.746)"/>
      <path id="Trazado_563556" data-name="Trazado 563556" d="M2335.289,264.233l30.307.021c-.017.185-.071.345-.3.344q-14.457-.047-28.913-.1C2336.006,264.5,2335.586,264.605,2335.289,264.233Z" transform="translate(-28.714 -94.333)" fill="#0c0c0c"/>
      <path id="Trazado_563557" data-name="Trazado 563557" d="M2335.289,217.26l30.307.021c-.017.185-.071.345-.3.344q-14.457-.046-28.913-.1C2336.006,217.525,2335.586,217.632,2335.289,217.26Z" transform="translate(-28.714 -59.756)" fill="#0c0c0c"/>
      <path id="Trazado_563558" data-name="Trazado 563558" d="M2335.289,311.158c4.2,0,8.406,0,12.609.011.461,0,.974-.171,1.365.254-4.2,0-8.408.006-12.612-.006C2336.191,311.415,2335.676,311.588,2335.289,311.158Z" transform="translate(-28.714 -128.859)" fill="#0b0b0b"/>
      <path id="Trazado_563559" data-name="Trazado 563559" d="M2349.37,314.721H2336.64v-.131h12.787Z" transform="translate(-29.707 -131.402)" fill="#090909"/>
      <path id="Trazado_563560" data-name="Trazado 563560" d="M2438.087,144.219h1.81c-.613.21-1.238.521-1.812,0Z" transform="translate(-104.383 -5.988)" fill="#616cd5"/>
    </g>
  </g>
</svg>
