<svg xmlns="http://www.w3.org/2000/svg" xmlns:xlink="http://www.w3.org/1999/xlink" width="61.638" height="63.157" viewBox="0 0 61.638 63.157">
  <defs>
    <filter id="Elipse_6701" x="0" y="1.519" width="61.638" height="61.639" filterUnits="userSpaceOnUse">
      <feOffset dy="3" input="SourceAlpha"/>
      <feGaussianBlur stdDeviation="3" result="blur"/>
      <feFlood flood-opacity="0.059"/>
      <feComposite operator="in" in2="blur"/>
      <feComposite in="SourceGraphic"/>
    </filter>
  </defs>
  <g id="Grupo_841695" data-name="Grupo 841695" transform="translate(-670.519 -1100)">
    <ellipse id="Elipse_6702" data-name="Elipse 6702" cx="29.5" cy="29.5" rx="29.5" ry="29.5" transform="translate(672 1100)" fill="#47b5ab"/>
    <g transform="matrix(1, 0, 0, 1, 670.52, 1100)" filter="url(#Elipse_6701)">
      <ellipse id="Elipse_6701-2" data-name="Elipse 6701" cx="21.819" cy="21.819" rx="21.819" ry="21.819" transform="translate(9 7.52)" fill="#fff"/>
    </g>
    <path id="Trazado_565712" data-name="Trazado 565712" d="M19.46,12.008l.82-7.227h7.969V7.135H22.594l-.352,3.057a4.474,4.474,0,0,1,2.139-.537,4.1,4.1,0,0,1,3.184,1.26,5.032,5.032,0,0,1,1.152,3.525,5.155,5.155,0,0,1-.581,2.466,4.1,4.1,0,0,1-1.665,1.689,5.2,5.2,0,0,1-2.559.6,5.52,5.52,0,0,1-2.393-.522,4.244,4.244,0,0,1-1.743-1.47,4.006,4.006,0,0,1-.679-2.158h2.793a2.086,2.086,0,0,0,.62,1.382,1.966,1.966,0,0,0,1.392.493,1.735,1.735,0,0,0,1.475-.688,3.189,3.189,0,0,0,.518-1.948,2.637,2.637,0,0,0-.6-1.855,2.186,2.186,0,0,0-1.689-.645,2.443,2.443,0,0,0-1.631.527l-.273.254Z" transform="translate(678.266 1116.291)" fill="#12263f"/>
  </g>
</svg>
