<svg id="Grupo_841532" data-name="Grupo 841532" xmlns="http://www.w3.org/2000/svg" xmlns:xlink="http://www.w3.org/1999/xlink" width="286.632" height="284.318" viewBox="0 0 286.632 284.318">
  <defs>
    <clipPath id="clip-path">
      <rect id="Rectángulo_279085" data-name="Rectángulo 279085" width="286.632" height="284.318" fill="none"/>
    </clipPath>
    <clipPath id="clip-path-3">
      <rect id="Rectángulo_279073" data-name="Rectángulo 279073" width="45.514" height="26.277" transform="translate(239.875 213.095)" fill="none"/>
    </clipPath>
    <clipPath id="clip-path-4">
      <rect id="Rectángulo_279075" data-name="Rectángulo 279075" width="15.832" height="109.793" transform="translate(251.123 66.683)" fill="none"/>
    </clipPath>
    <clipPath id="clip-path-5">
      <rect id="Rectángulo_279076" data-name="Rectángulo 279076" width="3.662" height="16.74" transform="translate(260.448 67.239)" fill="#2ea297"/>
    </clipPath>
    <clipPath id="clip-path-6">
      <rect id="Rectángulo_279077" data-name="Rectángulo 279077" width="3.709" height="15.601" transform="translate(275.526 78.44)" fill="none"/>
    </clipPath>
    <clipPath id="clip-path-7">
      <rect id="Rectángulo_279078" data-name="Rectángulo 279078" width="168.621" height="97.354" transform="translate(19.176 123.849)" fill="none"/>
    </clipPath>
    <clipPath id="clip-path-8">
      <rect id="Rectángulo_279079" data-name="Rectángulo 279079" width="46.943" height="27.102" transform="translate(61.629 255.56)" fill="none"/>
    </clipPath>
    <clipPath id="clip-path-9">
      <rect id="Rectángulo_279081" data-name="Rectángulo 279081" width="8.654" height="89.817" transform="translate(63.833 180.415)" fill="none"/>
    </clipPath>
    <clipPath id="clip-path-10">
      <rect id="Rectángulo_279083" data-name="Rectángulo 279083" width="4.034" height="12.659" transform="translate(63.24 137.496)" fill="none"/>
    </clipPath>
  </defs>
  <g id="Grupo_841531" data-name="Grupo 841531" clip-path="url(#clip-path)">
    <g id="Grupo_841530" data-name="Grupo 841530">
      <g id="Grupo_841529" data-name="Grupo 841529" clip-path="url(#clip-path)">
        <path id="Trazado_565296" data-name="Trazado 565296" d="M252.378,125.732c.01-.049.039-.2.068-.447a1.416,1.416,0,0,0-.068.447" fill="#3a3c55"/>
        <path id="Trazado_565297" data-name="Trazado 565297" d="M252.378,125.732v.019h.01c-.01-.009-.01-.009-.01-.019" fill="#3a3c55"/>
        <path id="Trazado_565298" data-name="Trazado 565298" d="M253.756,71.928c-.511.1-2.553,6.489-3.064,8.219s.351,13.758-.01,17.806c0,0-6.628,10.743-14.123,15.059l.83,5.5c.264-1.281,17.7-11.723,18.935-14.13,1.664-3.234-2.568-32.45-2.568-32.45" fill="#fab39b"/>
        <g id="Grupo_841498" data-name="Grupo 841498" opacity="0.1" style="mix-blend-mode: multiply;isolation: isolate">
          <g id="Grupo_841497" data-name="Grupo 841497">
            <g id="Grupo_841496" data-name="Grupo 841496" clip-path="url(#clip-path-3)">
              <path id="Trazado_565299" data-name="Trazado 565299" d="M246.54,216.943c-8.887,5.131-8.887,13.45,0,18.581s23.3,5.131,32.183,0,8.887-13.45,0-18.581-23.3-5.131-32.183,0" fill="#7f87de"/>
            </g>
          </g>
        </g>
        <path id="Trazado_565300" data-name="Trazado 565300" d="M250.671,80.116a2.935,2.935,0,0,0,1.447,1.612,8.251,8.251,0,0,0,6.771.311,4.158,4.158,0,0,0,.631-.311,3.086,3.086,0,0,0,1.4-1.476,1.778,1.778,0,0,0,.126-.661c.223-1.087.447-2.175.68-3.263a9.523,9.523,0,0,0,.262-1.758,7.739,7.739,0,0,0-.767-3.138c.01-.01.01-.01,0-.01a11.911,11.911,0,0,0-3-4.021,5.622,5.622,0,0,0-2.594,1c-2.934,1.933-4.624,6.188-4.818,9.073-.049.6-.088,1.136-.107,1.564a7.493,7.493,0,0,0-.029,1.078" fill="#2ea297"/>
        <path id="Trazado_565302" data-name="Trazado 565302" d="M255.246,224.468a6.015,6.015,0,0,0,5.372-1.727c2.122-2.967,3.111-8.324,3.7-9.564a18.453,18.453,0,0,0,1.141-3.484,45.742,45.742,0,0,1,1.4-12.2c1.605-5.409,2.108-14,2.108-17.6s-2.6-12.12-2.6-12.12-.631-9.175-.441-9.442c-.35.16-11.5,1.94-11.5,1.94l.457,3.1.449,6.711a18.1,18.1,0,0,0,1.438,4.184c.722,1.005,1.118,5.478,1.354,8.293s1.908,25.69.746,29.566c-.238.79-1.53,3.02-2.564,6.17a11.586,11.586,0,0,1-3.31,4.991c-.586.616,1.887,1.119,2.252,1.187" fill="#fab39b"/>
        <path id="Trazado_565303" data-name="Trazado 565303" d="M264.228,225.491l-3.194-1.3,2-4.752.975.571Z" fill="#1e222e"/>
        <path id="Trazado_565304" data-name="Trazado 565304" d="M275.607,231.257l-2.756-.975-.2-4.205,2.735-.3Z" fill="#1e222e"/>
        <path id="Trazado_565305" data-name="Trazado 565305" d="M279.1,221.264a9.623,9.623,0,0,0-1.911,3.993,19.7,19.7,0,0,0,0,4.94l-1.577,1.06-.223-5.486s3.094-4.5,3.711-4.507" fill="#1e222e"/>
        <path id="Trazado_565306" data-name="Trazado 565306" d="M267.366,215.208a9.406,9.406,0,0,1-1.561,4.284c-1.121,1.888,0,4.939,0,4.939l-1.577,1.06-.223-5.485s2.468-4.4,3.361-4.8" fill="#1e222e"/>
        <path id="Trazado_565307" data-name="Trazado 565307" d="M263.561,229.562s-2.53,2.361-1.852,4.581c0,0-.057.74,1.852.863s9.8-.863,10.417-1.788.863-6.1,2.157-8.015,2.96-3.939,2.96-3.939,1.651-2.522-.87-5.765l-10.609,13.1Z" fill="#1e222e"/>
        <path id="Trazado_565308" data-name="Trazado 565308" d="M278.225,215.5a45.8,45.8,0,0,1,1.4-12.2c1.6-5.411,2.109-14,2.109-17.6s-2.6-12.12-2.6-12.12-.649-9.522-.433-9.45-13.02,1.275-13.02,1.275l.694,3.561,1.721,6.923a17.851,17.851,0,0,0,1.443,4.184c.721,1.01,1.113,5.483,1.35,8.3s1.755,24.1.12,28.806c-.481,1.384-2.853,4.748-3.562,6.369a60.981,60.981,0,0,1-3.89,6.025s3.831,2.051,7.573.841,5.2-9.8,5.95-11.418a18.332,18.332,0,0,0,1.141-3.486" fill="#ffd4c6"/>
        <path id="Trazado_565309" data-name="Trazado 565309" d="M265.453,209.691a54.26,54.26,0,0,1-4.95,11.7c-2.958,4.708-7.509,1.889-7.509,1.889s-4.862,3.68-4.916,4.218,1.668,2.1,9.037.807c0,0,3.012-.538,3.388-1.13s1.725-5.65,4.371-7.961c3.006-2.625,2.574-4.9,2.5-6.088a5.948,5.948,0,0,0-1.921-3.436" fill="#1e222e"/>
        <path id="Trazado_565310" data-name="Trazado 565310" d="M285.408,76.141l-.34.8s-.8.438-1.167,2.626c-.024.194-.049.438-.073.681-.073.583-.122,1.215-.2,1.872-.073.705-.17,1.41-.243,2.139-.705,6.175-1.7,13.736-2.625,16.046a22.667,22.667,0,0,0-1.216,4.085,27.843,27.843,0,0,0-.584,4.789,10.771,10.771,0,0,0,.122,2.48,4.87,4.87,0,0,0,.851,1.726c.024.024.049.049.049.073.291.389.583.778.923,1.191.122.146.268.292.389.438a19.427,19.427,0,0,1,2.991,6.71,21.17,21.17,0,0,1,.51,3.963c.073,2.066.073,4.959,0,8.193,0,.754-.024,1.507-.024,2.261-.024.608-.049,1.216-.049,1.848-.194,8.485.025,17.966.1,20.713.048,0,.073.025.073.049,0,.729-.487,10.941-.487,10.989,0,2.407-1.6,4.838-4.789,6.662a17.177,17.177,0,0,1-3.793,1.628,6.266,6.266,0,0,1-.729.219c-6.054,1.678-13.566,1.07-18.6-1.847-3.306-1.9-4.887-4.425-4.765-6.929v-.025c0-.17-.778-30.754,0-43.081v-.048c.073-1.118.146-2.188.219-3.234.024-.024.024-.024,0-.024.34-2.577.9-5.154,1.507-8.655.292-1.653.584-3.5.875-5.64v-.073c1.07-8.218-2.285-16.849-3.014-20.52s.632-5.178,2.6-8.752a22.9,22.9,0,0,0,1.751-5.543,46.422,46.422,0,0,1,1.312-5.349c.171-.389.535-.778.7-1.142l3.89-.778H266.3l8.144.753.511.316s9.384,7.732,10.454,8.388" fill="#47b5ab"/>
        <path id="Trazado_565311" data-name="Trazado 565311" d="M255.514,51.143a10.278,10.278,0,0,1,1.408-3.118,3.275,3.275,0,0,1,1.205-1.059,1.838,1.838,0,0,1,.6-.155,3.47,3.47,0,0,0,.738.923,3.611,3.611,0,0,0,.855.369,2.338,2.338,0,0,1,1.1.165c1.3.019,2.428-.476,3.429.136,1.564.971,2.351,1.729,3.574,4.361.5,1.059,3.07.029,3.954.874-.127-1.146.485-6.673.485-6.673l-13.288-1.651s-3.759,1.447-3.963,3.283c-.048.5-.087,1.418-.1,2.545" fill="#ffd4c6"/>
        <path id="Trazado_565312" data-name="Trazado 565312" d="M259.254,46.573a1.06,1.06,0,0,0,.125.966,1.818,1.818,0,0,0,1.108.551,2.909,2.909,0,0,1,2.367,1.792,2.649,2.649,0,0,0-2.431-1.254,2.484,2.484,0,0,1-1.62-.515,1.99,1.99,0,0,1-.6-1.808Z" fill="#ffc249"/>
        <g id="Grupo_841504" data-name="Grupo 841504" opacity="0.184" style="mix-blend-mode: color-burn;isolation: isolate">
          <g id="Grupo_841503" data-name="Grupo 841503">
            <g id="Grupo_841502" data-name="Grupo 841502" clip-path="url(#clip-path-4)">
              <path id="Trazado_565313" data-name="Trazado 565313" d="M255.018,95.226s1.848,7.78,1.7,12.229c-.17,4.23-1.653,48.259-.219,69.022-3.306-1.9-4.887-4.425-4.765-6.929v-.025c0-.17-.778-30.754,0-43.081v-.048c.073-1.118.146-2.188.219-3.234.024-.024.024-.024,0-.024.34-2.577.9-5.154,1.507-8.655.292-1.653.584-3.5.875-5.64v-.073c1.07-8.218-2.285-16.849-3.014-20.52s.632-5.178,2.6-8.752a22.86,22.86,0,0,0,1.75-5.543,46.608,46.608,0,0,1,1.313-5.349c.17-.389.535-.778.7-1.142l3.89-.778h2.966l-.267,1.6c-.122,0-.316.025-.559.049-.608.073-1.483.243-2.407.437-1.8.365-3.72.827-3.72.827s-2.018,9.141-4.473,14.368a6.377,6.377,0,0,0,3.6,9.142c2.115.632,10.235,2.115,10.235,2.115Z" fill="#888cb3"/>
            </g>
          </g>
        </g>
        <path id="Trazado_565314" data-name="Trazado 565314" d="M276.3,58.882c-.054.179-1.308,1.058-1.38,1.273a18.854,18.854,0,0,0-.2,4.391c.054,1.04.125,2.079.215,3.011a7.008,7.008,0,0,1-.323,2.8A6.22,6.22,0,0,1,273.6,72.2l.017.017s-.125.144-.34.377a2.366,2.366,0,0,1-.287.305,33.911,33.911,0,0,1-9.3,7.08,27.469,27.469,0,0,1-.018-8.227v-.036a11.816,11.816,0,0,1,.681-2.438l.054-.108-.287-1.935a9.429,9.429,0,0,1-3.28.089c-1.649-.286-3.478-4.534-4.446-6.847-.7-1.685-.9-6.255-.878-9.32v-.018a10.425,10.425,0,0,1,1.416-3.119,3.359,3.359,0,0,1,1.2-1.057,1.773,1.773,0,0,1,.609-.144,3.319,3.319,0,0,0,.735.914,3.854,3.854,0,0,0,.843.377,2.338,2.338,0,0,1,1.111.161c1.291.018,2.42-.484,3.424.125,1.559.986,2.348,1.739,3.567,4.374.5,1.057,3.082.018,3.961.878.036.179.071.251.143.162.484-.664.753-1.632,2.635-1.058s2.223,3.029,1.147,6.13" fill="#ffcdc0"/>
        <path id="Trazado_565315" data-name="Trazado 565315" d="M274.829,66.217a11.646,11.646,0,0,1,2.391,3.4s-.438,4.466-5.649,9.21l-1.962-.5.776,1.652-6.57,4.872-.137-4.872s8.468-5.38,9.946-8.587a11.349,11.349,0,0,0,1.205-5.171" fill="#2ea297"/>
        <g id="Grupo_841507" data-name="Grupo 841507" style="isolation: isolate">
          <g id="Grupo_841506" data-name="Grupo 841506">
            <g id="Grupo_841505" data-name="Grupo 841505" clip-path="url(#clip-path-5)">
              <path id="Trazado_565317" data-name="Trazado 565317" d="M263.678,79.975s-1.705-7.762.432-12.736l-2.473.179s-1.524,5.966-1.121,9.4l1.763.173L260.516,78.2a19.154,19.154,0,0,0,.592,5.775Z" fill="#2ea297"/>
            </g>
          </g>
        </g>
        <path id="Trazado_565318" data-name="Trazado 565318" d="M255.514,42.76c2.3-4.177,7.615-5.168,9.956-5.4.486-.048.845-.058,1.02-.068a15.4,15.4,0,0,1,1.992-.446,9.512,9.512,0,0,1,2.923.038,12.3,12.3,0,0,1,8.8,6.6,11.628,11.628,0,0,1,.622,6.877,3.831,3.831,0,0,0,.369,2.5l.8,1.506c.913,2.506-.631,6.071-3.351,7.858v.01a6.234,6.234,0,0,1-3.791,4.286c-.057-.35-.161-1.316-.207-1.863a19.5,19.5,0,0,1,.287-4.492c.059-.223,1.312-1.088,1.38-1.282,1.059-3.1.728-5.547-1.146-6.12a1.96,1.96,0,0,0-2.6,1.064.547.547,0,0,1-.174.244c-.884-.845-3.477-.239-3.973-1.3-1.223-2.632-2.01-3.39-3.574-4.361-1-.612-2.127-.117-3.429-.136a4.067,4.067,0,0,1-1.1-.166,3.531,3.531,0,0,1-.855-.369,3.459,3.459,0,0,1-.738-.922,1.838,1.838,0,0,0-.6.155,3.275,3.275,0,0,0-1.205,1.059,10.278,10.278,0,0,0-1.408,3.118,6.611,6.611,0,0,1-1.214-3.711,8.8,8.8,0,0,1,1.214-4.672" fill="#2a2f3b"/>
        <path id="Trazado_565319" data-name="Trazado 565319" d="M264.11,67.239S270.4,66.08,271,65.872l-.4.194a30.252,30.252,0,0,1-6.329,2.213Z" fill="#e9b099"/>
        <path id="Trazado_565320" data-name="Trazado 565320" d="M285.408,92.792c-.5-.131-8.5-2.085-8.5-2.085s-2.085,11.134-4.176,14.62c0,0-10.676,7.6-19.3,8.22l-1.624,4.479c.8-1.038,23.439-4.583,25.6-6.209,2.908-2.185,8-19.025,8-19.025" fill="#fab39b"/>
        <path id="Trazado_565321" data-name="Trazado 565321" d="M285.937,93.264a2.914,2.914,0,0,1-1.445,1.615,8.208,8.208,0,0,1-7.406,0,3.567,3.567,0,0,1-1.007-.838,2.124,2.124,0,0,1-.389-.643,1.812,1.812,0,0,1-.133-.656c-.219-1.093.813-7.612.813-8a10.119,10.119,0,0,1,2.865-6.3l.012-.012a9.914,9.914,0,0,1,2.307-1.882,6.808,6.808,0,0,1,1.251-.558,5.921,5.921,0,0,1,1.02-.231,2.942,2.942,0,0,1,1.566.267,2.533,2.533,0,0,1,1.238,1.639c.049.085-.558,15.152-.692,15.6" fill="#47b5ab"/>
        <g id="Grupo_841510" data-name="Grupo 841510" opacity="0.184" style="mix-blend-mode: color-burn;isolation: isolate">
          <g id="Grupo_841509" data-name="Grupo 841509">
            <g id="Grupo_841508" data-name="Grupo 841508" clip-path="url(#clip-path-6)">
              <path id="Trazado_565322" data-name="Trazado 565322" d="M279.235,78.44c-.17.3-2.865,5-3.157,15.6a2.124,2.124,0,0,1-.388-.644,1.8,1.8,0,0,1-.134-.655c-.218-1.093.814-7.612.814-8a10.111,10.111,0,0,1,2.865-6.3" fill="#888cb3"/>
            </g>
          </g>
        </g>
        <g id="Grupo_841513" data-name="Grupo 841513" opacity="0.1" style="mix-blend-mode: multiply;isolation: isolate">
          <g id="Grupo_841512" data-name="Grupo 841512">
            <g id="Grupo_841511" data-name="Grupo 841511" clip-path="url(#clip-path-7)">
              <path id="Trazado_565323" data-name="Trazado 565323" d="M184.559,196.646l-39.295,22.687a17.28,17.28,0,0,1-15.633,0l-107.218-61.9c-4.317-2.493-4.317-6.534,0-9.026l39.3-22.687a17.273,17.273,0,0,1,15.633,0l107.218,61.9c4.317,2.493,4.317,6.534,0,9.026" fill="#7f87de"/>
            </g>
          </g>
        </g>
        <path id="Trazado_565324" data-name="Trazado 565324" d="M211.286,77.621c.26-.624,4.614-8.152,13.611-8.242s1.371,7.733-.628,8.633-6.514.948-9.342,4.725-3.641-5.116-3.641-5.116" fill="#bcb8cf"/>
        <path id="Trazado_565325" data-name="Trazado 565325" d="M224.389,46.5a33.345,33.345,0,0,1-6.622,28.935l-12.879-1.087s12.183-9.779,14.138-14.427S224.389,46.5,224.389,46.5" fill="#2a2f3b"/>
        <path id="Trazado_565326" data-name="Trazado 565326" d="M244.823,119.792a8.426,8.426,0,0,1-.971,3.29c-1.056,1.275-.826,3.582-2.938,4.869-1.736,1.056-4.3,3.1-8.535,3.46a16.88,16.88,0,0,1-1.943.036c-.255-.012-.522-.024-.8-.061a1.339,1.339,0,0,1-.219-.012,9.385,9.385,0,0,1-3.35-.959,14.452,14.452,0,0,1-2.246-1.432c-2.332-1.773-4.092-3.776-6.787-3.4a72.344,72.344,0,0,1-12.8,1.481h-.546c-.255-.012-.51-.012-.777-.024-.218,0-.437-.012-.656-.024-.157,0-.3-.012-.461-.012-.267-.012-.546-.037-.825-.061-.826-.049-1.652-.134-2.5-.255-.242-.024-.473-.061-.716-.1l-.23-.037c-.438-.073-.887-.145-1.348-.23-.024,0-.049-.012-.073-.012-.279-.061-.534-.11-.8-.17-.182-.037-.364-.085-.534-.122-.195-.036-.377-.085-.571-.133-.061-.012-.121-.037-.182-.049-.158-.036-.316-.073-.474-.121-.23-.061-.461-.122-.679-.195-.28-.072-.559-.157-.826-.242-.51-.158-1.008-.328-1.518-.51-.194-.073-.4-.146-.607-.231s-.4-.158-.619-.243a1.661,1.661,0,0,1-.279-.109c-.146-.061-.316-.134-.474-.206a6.382,6.382,0,0,1-.667-.292c-.267-.109-.535-.243-.8-.364-.242-.109-.473-.231-.716-.352s-.473-.243-.7-.376-.486-.255-.717-.389-.485-.279-.716-.413-.449-.267-.68-.413c-.255-.157-.509-.315-.764-.485-.231-.146-.45-.3-.68-.462-.547-.376-1.081-.764-1.627-1.177-.109-.085-.219-.17-.328-.267-.219-.158-.413-.316-.631-.486-5.67-4.626-7.151-11.012-6.763-17.264.012-.122.012-.231.025-.352,0-.073.012-.158.012-.231l.072-.692c.013-.231.049-.473.073-.716.049-.352.1-.716.158-1.081.158-1.056.364-2.1.607-3.12a.546.546,0,0,1,.012-.061,58.146,58.146,0,0,1,6.119-15.1l18.515-4.091L207.7,73.73l.461-.1,4.176-2.258a.042.042,0,0,0,.025.012,20.14,20.14,0,0,1,2.221,1.044h.013A26.427,26.427,0,0,1,222.35,79c0,.024.013.036.025.036a25.747,25.747,0,0,1,2.659,4.128c.085.146.145.292.23.437,0,0,.547,1.057,1.542,6.2s13.561,19.656,13.561,19.656,3.715,1.8,4.675,3.424a1.575,1.575,0,0,1,.218.583,31.127,31.127,0,0,1-.437,6.325" fill="#dfddeb"/>
        <path id="Trazado_565327" data-name="Trazado 565327" d="M244.823,119.792a8.426,8.426,0,0,1-.971,3.29c-1.056,1.275-.826,3.582-2.938,4.869-1.736,1.056-4.3,3.1-8.535,3.46a16.88,16.88,0,0,1-1.943.036c-.255-.012-.522-.024-.8-.061l-1.6-5.2,10.223-4.625Z" fill="#1e222e"/>
        <path id="Trazado_565328" data-name="Trazado 565328" d="M189.981,105.955c-1.264,5.3-3.014,9.449-5.181,10.908s-9.221,9.02-8.88,17.353-.1,15.643-1.275,18.75-.666,10.843-.669,14.877,1.473,6.294,1.3,9.22c-.172,2.784.5,4.515,1.435,7.691a11.092,11.092,0,0,1,2.695,4.426c.214.367,1.916,3.6-7.2,5.369a5.838,5.838,0,0,1-2.059.033c-.646-.106-1.325-.25-1.72-.353a10.544,10.544,0,0,1-3.984-1.986,3.3,3.3,0,0,1-1.261-1.22c-1.02-2.148.027-4.012-.117-5.852a10.363,10.363,0,0,1,.074-1.64c-.589-1.8-1.622-2.551-2.207-3.927-1.068-2.513.462-15.185,1.149-24.31.4-5.422-.383-8.2-1.093-9.564a9.874,9.874,0,0,1-1.106-3.557,63.83,63.83,0,0,0-1.29-7.547c-.386-1.688-.874-3.552-1.5-5.561a100.114,100.114,0,0,1-3.666-18.15c-4-7.274,37.817-10.263,36.554-4.96" fill="#dfddeb"/>
        <path id="Trazado_565329" data-name="Trazado 565329" d="M167.542,183.006c1.2,3.412,1.2,8.2.885,11.223a10.552,10.552,0,0,1-3.984-1.986,3.3,3.3,0,0,1-1.261-1.22c-1.02-2.148.027-4.012-.117-5.852a10.6,10.6,0,0,1,.074-1.639c-.589-1.8-1.622-2.551-2.207-3.928-1.068-2.513.463-15.185,1.15-24.311.4-5.421-.383-8.2-1.093-9.563a9.9,9.9,0,0,1-1.107-3.557,63.786,63.786,0,0,0-1.289-7.547c3.706-3.233,9.879-6.481,10.485-.5.874,8.631-2.623,32.307-3.683,37.705s.358,6.066,2.147,11.171" fill="#bcb8cf"/>
        <path id="Trazado_565330" data-name="Trazado 565330" d="M52.118,4.026S40.963-3.139,33.527,1.646s-8.614,18.427-8.048,24.935,6.278,31.311,6.278,31.311L46.448,39.2S33.828,23.951,33.729,19.027s1.235-10.745,8.7-6.984S53.382,3.421,53.382,3.421Z" fill="#2a2f3b"/>
        <path id="Trazado_565331" data-name="Trazado 565331" d="M22.631,69.725S24.038,91.9,12.08,103.1c0,0-11.451-.014-12,9.012s1.935,11.412,1.935,11.412l.189-2.683s2.524,4.334,2.578,7.014a13.45,13.45,0,0,0,.608-6.1s1.7-.277.546,2.913c0,0,2.177-.775,2.552-6.386,0,0,1.661-2.226.848,5.83,0,0,5.419-9.173,4.082-15.09,0,0,13.073-17.658,12.939-35.2-.031-4.179,4.407-11.053,4.407-11.053l-5-6.478Z" fill="#2a2f3b"/>
        <path id="Trazado_565332" data-name="Trazado 565332" d="M52.118,4.026S40.963-3.139,33.527,1.646s-8.614,18.427-8.048,24.935,6.278,31.311,6.278,31.311L46.448,39.2S33.828,23.951,33.729,19.027s1.235-10.745,8.7-6.984S53.382,3.421,53.382,3.421Z" fill="#1e222e"/>
        <path id="Trazado_565333" data-name="Trazado 565333" d="M30.764,62.772s-4.44,6.873-4.406,11.052c.134,17.539-12.939,35.2-12.939,35.2s-4.077-4.112-6.671,3.155c-2.294,6.41-2.072,13.723-1.986,15.35-.232-2.69-2.557-6.683-2.557-6.683l-.191,2.687S-.47,121.141.08,112.117s12-9.013,12-9.013C24.039,91.9,22.63,69.727,22.63,69.727L25.761,56.3Z" fill="#1e222e"/>
        <path id="Trazado_565334" data-name="Trazado 565334" d="M76.269,134.3a4.9,4.9,0,0,1-2.662,2.762c-4.9,2.611-8.906,1.174-11.211-.726a4.4,4.4,0,0,1-1.322-1.856,3.447,3.447,0,0,1-.135-.488,9.49,9.49,0,0,1-.12-3.327c.054-.4.111-.886.168-1.422a27.09,27.09,0,0,0,.058-6.2c-.569-3.893-.715-9.851-.047-12.574s2.976-9.609-.1-17.285a11.973,11.973,0,0,1-.885-3.869,131.127,131.127,0,0,0,9.975,19.435c.273,3.385.732,6.924,1.112,10.272a23.791,23.791,0,0,0,2.883,8.916,20.058,20.058,0,0,0,1.529,2.361,4.482,4.482,0,0,1,.754,4" fill="#bcb8cf"/>
        <path id="Trazado_565335" data-name="Trazado 565335" d="M45.734,87.885c-.1.449,1.787,16.626,15.15,19.378s22.512-3.829,21.721-4.25-6.891-20.2-6.891-20.2L62.359,80.466l-11.29.227Z" fill="#ffb5b5"/>
        <path id="Trazado_565336" data-name="Trazado 565336" d="M53.6,100.811s-2.342,11.454.227,11.29,4.73-9.488,4.39-9.7-4.617-1.585-4.617-1.585" fill="#ffb5b5"/>
        <path id="Trazado_565337" data-name="Trazado 565337" d="M63.817,104.1s-.378,11.684,2.126,11.09,3.063-10.15,2.692-10.306-4.818-.784-4.818-.784" fill="#ffb5b5"/>
        <path id="Trazado_565338" data-name="Trazado 565338" d="M217.767,75.433l-3.062,3.533-5.547,6.4-23.233,34.389a21.189,21.189,0,0,0-2.422,1.6,33.836,33.836,0,0,0-4.425,4.122c-7.077,7.764-12.631,19.2-16.037,22.469a7.43,7.43,0,0,1-.918.75c-4.383,3.064-10.4.057-15.885-1.725a25.384,25.384,0,0,0-2.856-.7c-6.676-1.321-18.788-2.292-22-2.531l-.8-.06C96,141.866,79.735,124.231,69.991,108.751a131.127,131.127,0,0,1-9.975-19.435c-1.041-2.522-1.622-4.117-1.774-4.351-.005-.009-.014-.013-.018-.022-.728-.7-9.129,1.853-11.037,7.482-.047.139-.1.283-.157.436a70.133,70.133,0,0,0-6.083,13.487s0,.009-.009.013c-2.216,4.748-9,9.463-9.619,12.1a32.207,32.207,0,0,0-.512,8.506c.188,4.244.812,8.909,1.305,13.258a23.776,23.776,0,0,0,3.087,9.269,21.546,21.546,0,0,0,1.325,2.008,4.491,4.491,0,0,1,.754,4,4.363,4.363,0,0,1-2.662,2.762c-3.044,1.293-5.138,1.67-6.73,1.514a7.791,7.791,0,0,1-4.48-2.239,4.437,4.437,0,0,1-1.327-1.857,4.084,4.084,0,0,1-.135-.488,9.581,9.581,0,0,1-.12-3.326c.1-.716.211-1.682.289-2.737a23.632,23.632,0,0,0-.058-4.885c-.569-3.893-.716-9.852-.047-12.574s2.975-9.609-.1-17.285,2.855-11.588,1.325-18.916-.817-26.726.159-37.242,2.467-19.8,6.012-27.492c1.886-4.094,2.459-9.983,3.5-15.1C33.829,11.144,44,5.71,46.871,4.162c2.384-1.284,5.769-1.807,9.291-1.945a101.266,101.266,0,0,1,14.171.809c7.271.725,13.589,2.048,14.775,2.645,2.213,1.111,8.667,6.519,11.963,9.795,1.394,1.387,4.315,4.425,7.25,7.459,4,4.132,8.033,8.272,8.3,8.267,0,0,16.063,11.753,23.149,15.06.892.415,1.851.847,2.851,1.291h0c5.024,2.207,11.156,4.694,15.806,7.363a27.429,27.429,0,0,1,4.548,3.14c4.97,4.425,22.495,11.811,31.447,12.939a60.217,60.217,0,0,0,6.385.425c3.964.072,7.761-.147,10.7-.228a20.7,20.7,0,0,1,4.819.2c.009,0,.013,0,.022.008a7.518,7.518,0,0,1,2.221,1.04s.009,0,.014.009a14.43,14.43,0,0,1,3.179,3" fill="#dfddeb"/>
        <path id="Trazado_565339" data-name="Trazado 565339" d="M231.378,118.182c-1.124,4.039-3.649,8.284-5.31,12.231-3.624-1.8-5.542-5.324-9.04-4.83-4.436.62-21.972,5.6-37.518-7.079-7.581-6.18-7.692-15.517-5.821-23.458a23.946,23.946,0,0,1,18.13-17.807,11.727,11.727,0,0,1,2.288-.273,11.5,11.5,0,0,1,9.886,5.206c.318.488.631.982.94,1.471a18.984,18.984,0,0,1,1.869,3.778,25.232,25.232,0,0,0,9.122,12.057,86.153,86.153,0,0,1,10.022,7.943c2.7,2.685,6.551,6.731,5.432,10.761" fill="#2a2f3b"/>
        <path id="Trazado_565340" data-name="Trazado 565340" d="M245.038,112.887a52.65,52.65,0,0,1-6.949-1.827c-3.256-1.247-15.806-19.591-17.1-23.959-.756-2.537-3.065-5.334-6.281-8.134a66.669,66.669,0,0,0-7-5.241l-.011-.007a1.471,1.471,0,0,1-.5-1.9l.326-.636a20.7,20.7,0,0,1,4.819.2c.009,0,.013,0,.022.007a7.52,7.52,0,0,1,2.221,1.041.029.029,0,0,1,.014.008,25.963,25.963,0,0,1,7.757,6.57.267.267,0,0,0,.028.034,28.607,28.607,0,0,1,2.662,4.123c.079.147.149.293.223.438,0,0,.557,1.06,1.548,6.2s13.562,19.657,13.562,19.657,3.718,1.8,4.67,3.431" fill="#2a2f3b"/>
        <path id="Trazado_565341" data-name="Trazado 565341" d="M56.163,2.218C38.842,5,36.7,25.7,36.766,28.922c.013.682-.072,2-.223,3.8-.557,6.71-2.015,20.1-2.585,32-.591,12.333,1.3,22.058,1.131,29a20.86,20.86,0,0,1-.464,4.226c-1.6,6.967-7.946,14.988-8.169,18.977s-1.424,20.658-.189,28.84c.319,2.117.6,4.289.837,6.346.345,2.961.609,5.686.783,7.664a7.8,7.8,0,0,1-4.481-2.239,4.461,4.461,0,0,1-1.327-1.857,4.1,4.1,0,0,1-.134-.488,9.586,9.586,0,0,1-.121-3.327c.074-.537.155-1.216.224-1.963.019-.188.037-.385.051-.581,0-.063.011-.13.014-.192a23.563,23.563,0,0,0-.058-4.885c-.569-3.893-.715-9.852-.047-12.574s2.976-9.609-.1-17.286,2.856-11.588,1.326-18.915-.818-26.727.158-37.242,2.468-19.8,6.013-27.492c1.886-4.094,2.459-9.983,3.5-15.095C33.83,11.144,44,5.711,46.871,4.163c2.384-1.284,5.77-1.807,9.292-1.945" fill="#bcb8cf"/>
        <path id="Trazado_565342" data-name="Trazado 565342" d="M163.041,147.951l-.918.75c-4.383,3.064-10.4.057-15.884-1.725a25.63,25.63,0,0,0-2.857-.7,17.819,17.819,0,0,0-1.714,7.991c.018.428.035.856.044,1.279l-17.106.344c-.42-2-.988-4.278-1.765-6.779-.563-1.823-1.05-3.634-1.46-5.366l-.8-.059C96,141.866,79.735,124.232,69.991,108.751a131.273,131.273,0,0,1-9.975-19.434c-1.041-2.523-1.622-4.118-1.774-4.351l-2.263-8.032s4.217-.45,7.966,6.244c11.955,21.362,30.64,21.661,42.848,18.944a55.366,55.366,0,0,0,10.714-3.548c.916-.416,1.419-.685,1.419-.685,11.674,3.6,18.886,33.656,21.388,34.244,3.784.892,12.088-6.227,16.461-8.706,2.228-1.263,5.573-4.9,5.675-4.96-.115.279-7.256,16.031-6.576,21.676.7,5.733,7.167,7.808,7.167,7.808" fill="#bcb8cf"/>
        <path id="Trazado_565343" data-name="Trazado 565343" d="M156.393,106.152c-.178.669.6,14.549-.664,19.848-.091.377-.181.745-.277,1.108-1.238,4.769-2.891,8.443-4.908,9.8a25.848,25.848,0,0,0-7.161,9.367,17.808,17.808,0,0,0-1.714,7.991c.017.428.035.856.043,1.28.255,7.795-.208,14.524-1.318,17.469-1.17,3.107-.671,10.84-.675,14.874s1.479,6.3,1.3,9.22c-.171,2.788.5,4.519,1.44,7.7a11.034,11.034,0,0,1,2.695,4.422c.222.384-1.021,4.719-7.051,5.326a3.64,3.64,0,0,1-1.793.045,10.7,10.7,0,0,1-2.714-.49,10.587,10.587,0,0,1-3.4-1.814,3.335,3.335,0,0,1-1.261-1.225c-1.02-2.143.027-4.007-.117-5.848a10.463,10.463,0,0,1,.074-1.63v-.009c-.589-1.8-1.622-2.555-2.207-3.931-1.068-2.514.463-15.182,1.15-24.312.4-5.421-.388-8.2-1.093-9.559a9.872,9.872,0,0,1-1.107-3.561,62.323,62.323,0,0,0-1.024-6.329c-.419-2-.987-4.277-1.765-6.779-.563-1.822-1.05-3.633-1.459-5.365-.843-3.52-1.4-6.716-1.736-9.032a40,40,0,0,0-1.4-5.95c-.071-.227-.134-.455-.191-.686-1.709-6.86,2.125-15.072,2.792-19.159-1.558-5.168-2.545-9.454-1.925-11.028,1.656-4.192,16.524-15.767,22.27-14.959s15.852,20.754,15.2,23.221" fill="#dfddeb"/>
        <path id="Trazado_565344" data-name="Trazado 565344" d="M129.76,119.658c-.188,25.783,2.426,39.519,2.6,48.163s-2.766,26.7-1.133,31.577,3.457,7.708,2.365,14.709a10.567,10.567,0,0,1-3.4-1.815,3.344,3.344,0,0,1-1.26-1.224c-1.02-2.144.027-4.008-.118-5.848a10.486,10.486,0,0,1,.075-1.639c-.59-1.8-1.622-2.556-2.208-3.932-1.068-2.513.463-15.181,1.15-24.311.4-5.421-.387-8.2-1.093-9.559a9.9,9.9,0,0,1-1.107-3.561,62.222,62.222,0,0,0-1.023-6.329c-.42-2-.988-4.278-1.765-6.779-.563-1.823-1.05-3.634-1.46-5.366-.3-1.257-.567-2.474-.8-3.625-.42-2.1-.729-3.969-.949-5.468a39.364,39.364,0,0,0-1.387-5.89q-.1-.341-.19-.684a25.187,25.187,0,0,1-.558-4.242c-.564-9,.9-24.619,1.425-25.946.675-1.7,3.535-4.631,7.075-7.451,5.165-4.106,11.785-7.987,15.195-7.507,0,0-8.193,7.969-10.707,26.333a79.877,79.877,0,0,0-.729,10.394" fill="#bcb8cf"/>
        <path id="Trazado_565345" data-name="Trazado 565345" d="M115.985,57.163c-1,2.22.4,4.7,1.038,7.052,1.461,5.419-1.31,10.99-4,15.917q-3.583,6.585-7.166,13.16c-2.023,3.713-2.074,2.924-5.455,5.455s-8.4,3.4-11.777.865c-5.26-3.946-5.978-8.835-11.68-12.107q-2.5-9.462-5-18.919A29.23,29.23,0,0,1,70.545,59.4c.212-3.445,1.633-6.717,1.961-10.151s-3.761-4.378-4.15-8.663c2.111-7.329,8.795-12.466,14.967-14.865,6.407-2.49,13.948-3.85,20.76-2.831l.238.035c4,4.133,8.033,8.273,8.3,8.268,0,0,16.064,11.753,23.149,15.06.892.415,1.851.846,2.851,1.29a58.758,58.758,0,0,0-19.529,6.813,6.826,6.826,0,0,0-3.1,2.807" fill="#2a2f3b"/>
        <path id="Trazado_565346" data-name="Trazado 565346" d="M37.279,155.5a4.365,4.365,0,0,1-2.662,2.762c-3.044,1.293-5.139,1.669-6.73,1.514-.174-1.978-.438-4.7-.783-7.664,3.078.416,7.68-.846,8.1-2.621a21.66,21.66,0,0,0,1.326,2.008,4.5,4.5,0,0,1,.754,4" fill="#363a44"/>
        <path id="Trazado_565347" data-name="Trazado 565347" d="M27.886,159.775a7.794,7.794,0,0,1-4.48-2.239,4.443,4.443,0,0,1-1.327-1.857,4.085,4.085,0,0,1-.135-.488,9.561,9.561,0,0,1-.12-3.327c.074-.537.154-1.216.223-1.963.019-.192.037-.385.051-.581,0-.063.011-.13.014-.192a8.285,8.285,0,0,0,4.991,2.983c.345,2.961.609,5.686.783,7.664" fill="#2a2f3b"/>
        <path id="Trazado_565348" data-name="Trazado 565348" d="M35.682,157.673s-1.378-4.143-2.254-3.391S32.4,159.1,32.4,159.1a14.061,14.061,0,0,0,3.279-1.424" fill="#2a2f3b"/>
        <path id="Trazado_565349" data-name="Trazado 565349" d="M76.269,134.3a4.9,4.9,0,0,1-2.662,2.762c-4.9,2.611-8.906,1.174-11.211-.726a4.4,4.4,0,0,1-1.322-1.856,3.447,3.447,0,0,1-.135-.488,9.49,9.49,0,0,1-.12-3.327c.054-.4.111-.886.168-1.422.33.007,1.213,2.211,6.039,1.423s6.96-2.728,6.96-2.728a20.058,20.058,0,0,0,1.529,2.361,4.482,4.482,0,0,1,.754,4" fill="#2a2f3b"/>
        <path id="Trazado_565350" data-name="Trazado 565350" d="M143.885,212.477a6.365,6.365,0,0,1-2.949,2.054,10.016,10.016,0,0,1-4.486.358,12.663,12.663,0,0,1-2.262-.4c-.349-.091-.668-.179-.928-.254-3.4-.989-4.125-2.733-4.33-3.166-1.02-2.144.027-4.008-.117-5.848a10.335,10.335,0,0,1,.074-1.63c0,.134.132,1.684,4.649,2.843,4.728,1.217,8.751-2.192,8.751-2.192a13.755,13.755,0,0,1,2.863,4.984,5.017,5.017,0,0,1-1.265,3.252" fill="#363a44"/>
        <path id="Trazado_565351" data-name="Trazado 565351" d="M178.751,192.781a7.976,7.976,0,0,1-3.362,2.125,10.005,10.005,0,0,1-4.486.357,12.538,12.538,0,0,1-2.262-.4l-.09-.025c-.314-.083-.6-.162-.839-.229-3.4-.989-4.432-2.932-4.637-3.365-1.02-2.144.134-4.233-.01-6.073a10.534,10.534,0,0,1,.06-1.679c0,.133.347,2.157,4.864,3.316.134.033.269.066.4.09,4.552.935,8.348-2.283,8.348-2.283A13.767,13.767,0,0,1,179.6,189.6a3.69,3.69,0,0,1-.851,3.181" fill="#363a44"/>
        <path id="Trazado_565352" data-name="Trazado 565352" d="M134.188,214.488c-.35-.091-.668-.178-.929-.253-3.4-.99-4.124-2.733-4.329-3.167-1.021-2.143.026-4.007-.118-5.848a10.368,10.368,0,0,1,.075-1.63c0,.134.132,1.684,4.649,2.843,0,0,1,5.4.652,8.055" fill="#2a2f3b"/>
        <path id="Trazado_565353" data-name="Trazado 565353" d="M143.885,212.477a6.365,6.365,0,0,1-2.949,2.054c.045-.684.4-5.582.94-5.891.582-.333,2.009,3.837,2.009,3.837" fill="#2a2f3b"/>
        <path id="Trazado_565354" data-name="Trazado 565354" d="M168.392,186.9l.159,7.94c-.314-.083-.6-.162-.839-.229-3.4-.989-4.432-2.932-4.637-3.365-1.02-2.144.134-4.233-.01-6.073a11.121,11.121,0,0,1,.019-1.8c0,.134.293,1.967,4.633,3.306.132.041.541.2.675.222" fill="#2a2f3b"/>
        <path id="Trazado_565355" data-name="Trazado 565355" d="M179.2,192.1s-1.4-3.931-2.142-3.449-.337,5.677-.337,5.677A6.188,6.188,0,0,0,179.2,192.1" fill="#2a2f3b"/>
        <path id="Trazado_565356" data-name="Trazado 565356" d="M39.227,91.6q-2.286,1.15-4.139,2.127c.169-6.943-1.722-16.668-1.13-29,.569-11.894,2.027-25.288,2.584-32,1.3.389,2.643,1.843,3.324,5.765,1.574,9.067-.584,26.933.694,34.587s5.665,15.01-1.333,18.519" fill="#2a2f3b"/>
        <path id="Trazado_565357" data-name="Trazado 565357" d="M35.089,93.721c-4.438,2.339-7.066,3.9-8.243,4.383-1.505.619,1.739-12.752-1.238-20.564s4.011-39.386,7.582-44a4.127,4.127,0,0,1,3.353-.817c-.557,6.709-2.016,20.1-2.585,32-.591,12.332,1.3,22.059,1.131,29" fill="#1e222e"/>
        <path id="Trazado_565358" data-name="Trazado 565358" d="M45.776,23.616s2.117,13.909,8.249,11.913S61.2,29.5,66.473,26.983,80.316,24.565,84.794,21s4.927-7.859-.2-9.9S74.088,5.154,66.082,7.456s-9.893,3.41-12.475,7.208-7.4,3.555-7.831,8.952" fill="#2a2f3b"/>
        <path id="Trazado_565359" data-name="Trazado 565359" d="M48.592,43.934c.054,7.5.831,23.533,3.231,25.358s8.549,1.588,10.032-4.54,1.191-7.315,2.374-15.038-1.452-11.952-5.356-10-10.311-.056-10.281,4.22" fill="#2a2f3b"/>
        <path id="Trazado_565360" data-name="Trazado 565360" d="M122.2,58.246s-4.057,11.213,1.067,13.171,9.274-8.249,15.649-8.8,11.886-.4,13.25-1.9-7.705-9.878-13.02-9.772-15.952,3.733-16.946,7.3" fill="#2a2f3b"/>
        <path id="Trazado_565361" data-name="Trazado 565361" d="M145.638,92.583c-5.267,4.153-7.151,16.985-11.689,17.679a4.36,4.36,0,0,1-3.461-1C133,90.9,141.2,82.932,141.2,82.932c-3.41-.481-10.03,3.4-15.195,7.507-.609-6.552-2.409-11.313-3.123-11.981-6.822-6.4,19.213-2.532,24.284-3.357s7.043-5.024,14.506,4.42c7.481,9.468-10.763,8.909-16.03,13.062" fill="#2a2f3b"/>
        <path id="Trazado_565362" data-name="Trazado 565362" d="M141.2,82.931S133,90.9,130.489,109.264c-2.666-2.124-4.381-7.311-4.289-13.828a48.242,48.242,0,0,0-.2-5c5.165-4.106,11.785-7.987,15.2-7.507" fill="#1e222e"/>
        <path id="Trazado_565363" data-name="Trazado 565363" d="M230.44,131.449c-.33-.011-.67-.036-1.019-.069a9.492,9.492,0,0,1-3.353-.968,14.1,14.1,0,0,1-2.246-1.432l1-4.616.343-1.1s4.876-1.191,4.723-1.032.138,5.312.138,5.312-1.3,3.007.413,3.91" fill="#2a2f3b"/>
        <path id="Trazado_565364" data-name="Trazado 565364" d="M232.384,131.406a15.825,15.825,0,0,1-1.945.044c-.33-.012-.67-.036-1.019-.069a9.5,9.5,0,0,1-3.352-.968,14.139,14.139,0,0,1-2.247-1.432c-2.333-1.765-4.092-3.778-6.793-3.4a71.713,71.713,0,0,1-12.79,1.479c-.179,0-.362,0-.545,0-.259,0-.518-.008-.781-.016-.219,0-.442-.013-.661-.022-.152-.006-.3-.012-.456-.022q-.408-.02-.831-.051c-.817-.059-1.649-.141-2.5-.257-.237-.031-.474-.062-.712-.1l-.228-.035c-.443-.072-.895-.152-1.348-.237-.027,0-.054-.012-.08-.016-.269-.052-.534-.105-.8-.167-.174-.036-.354-.077-.528-.118-.189-.041-.377-.091-.57-.136a1.643,1.643,0,0,1-.184-.05c-.152-.037-.309-.074-.466-.116-.234-.062-.462-.124-.691-.2-.274-.074-.552-.158-.826-.246q-.755-.232-1.51-.51c-.2-.072-.4-.144-.607-.224s-.409-.157-.616-.242a2.946,2.946,0,0,1-.279-.111c-.158-.063-.32-.132-.482-.2-.225-.089-.445-.188-.666-.29-.27-.12-.536-.244-.8-.372-.238-.112-.477-.232-.712-.352s-.478-.245-.712-.374-.478-.258-.713-.392-.479-.271-.714-.414-.451-.268-.677-.41c-.258-.156-.515-.32-.769-.489q-.339-.22-.678-.455-.814-.56-1.626-1.177c-.113-.087-.222-.174-.335-.265-.209-.157-.413-.322-.621-.492-5.671-4.625-7.16-11.012-6.768-17.263.007-.116.013-.232.024-.353,0-.076.011-.152.018-.228.018-.232.04-.46.062-.693s.048-.474.079-.711c.047-.362.1-.725.153-1.083.161-1.061.368-2.1.611-3.127l.012-.058a23.787,23.787,0,0,1,10.061-14.334c-.21.473-2.967,11.831,3.707,14.21,4.962,1.765,13.444.837,19.536,3.994s22.108,16.067,22.108,16.067,1.253-.458,2.265,3.257c-.816,2.935-3.3,10.14,1.006,13.224" fill="#1e222e"/>
        <path id="Trazado_565365" data-name="Trazado 565365" d="M169.726,78.313s5.989,5.008,11.384,5.924,9.965-.968,11.854,3.859-3.444,6.981-5.5,6.766-15.244-6.878-17.742-16.549" fill="#2a2f3b"/>
        <path id="Trazado_565366" data-name="Trazado 565366" d="M184.708,93.81s-6.179-.89-8.6.173-6.644,3.745-7.626,6.38a11.474,11.474,0,0,0-.814,5.74c.85,2.8,7.584,2.6,10.47.448s9.329-11.689,9.329-11.689Z" fill="#bcb8cf"/>
        <path id="Trazado_565367" data-name="Trazado 565367" d="M185.545,94.922s-9.067-2.958-13.472,4.112.383,8.114,3.555,6.91,8.538-8.334,9.917-11.022" fill="#ffb5b5"/>
        <path id="Trazado_565368" data-name="Trazado 565368" d="M202.157,102.963s.726-3.173,7.531,1.428c0,0,1.745,1.545-.712,3.831s-7.169-3.015-6.819-5.259" fill="#2a2f3b"/>
        <path id="Trazado_565369" data-name="Trazado 565369" d="M243.846,123.086c-3.095-1.223-5.343.6-7.669,2.751s-6.151,1.7-6.151,1.7-3.711-1.242-4.075-6.3,3.162-6.311,3.162-6.311c8.11-2.532,11.256-5.469,11.256-5.469s3.717,1.8,4.669,3.432a1.459,1.459,0,0,1,.217.585c.209,1.754-.368,8.347-1.409,9.613" fill="#2a2f3b"/>
        <path id="Trazado_565370" data-name="Trazado 565370" d="M196.807,71.409c-.348.23-.705.447-1.053.655-4.534,2.692-9.289,5.456-14.547,5.825a28.761,28.761,0,0,1-7.685-.743,93.145,93.145,0,0,1-20.033-6.488,2.491,2.491,0,0,1-1.191-.868c-.646-1.09.534-2.3,1.422-3.2a9.338,9.338,0,0,0,2.563-7.731,11.009,11.009,0,0,0-1.856-3.957,27.429,27.429,0,0,1,4.548,3.14c4.971,4.425,22.495,11.811,31.447,12.939a60.234,60.234,0,0,0,6.385.425" fill="#2a2f3b"/>
        <path id="Trazado_565371" data-name="Trazado 565371" d="M117.507,98.574a55.3,55.3,0,0,1-10.714,3.548c1.565-1.829,3.338-3.556,4.775-5.3,1.35-1.643,2.961-3.424,5.093-3.516q.42,2.635.846,5.271" fill="#2a2f3b"/>
        <path id="Trazado_565372" data-name="Trazado 565372" d="M119.419,120.437a5.41,5.41,0,0,1-4.548,2.648,7.632,7.632,0,0,1-1.623-.19,13.655,13.655,0,0,1-10.154-11.015c-.657-3.811,1.267-6.906,3.7-9.757a55.341,55.341,0,0,0,10.715-3.549q1.192,7.406,2.381,14.8c.387,2.38.729,4.974-.47,7.06" fill="#1e222e"/>
        <path id="Trazado_565373" data-name="Trazado 565373" d="M124.673,141.661c-1.009.627-2.278-.133-3.217-.864l-.87-.678c-.421-2.1-.73-3.97-.949-5.468a39.624,39.624,0,0,0-1.387-5.891c-.07-.226-.133-.454-.191-.684a25.263,25.263,0,0,1-.558-4.241,4.726,4.726,0,0,1,3.794,1.347,10.346,10.346,0,0,1,2.07,4.863q.96,4.145,1.919,8.279c.274,1.182.42,2.7-.611,3.337" fill="#1e222e"/>
        <path id="Trazado_565374" data-name="Trazado 565374" d="M207.85,105.271a.492.492,0,0,0,.36-.526c-.03-.385-.734-1.092-1-.533-.185.388.154,1.147.639,1.059" fill="#fff"/>
        <path id="Trazado_565375" data-name="Trazado 565375" d="M72.989,113.406l1.268-.669-1.211,3.578-.806.723s-.25-1.512-.232-1.541.981-2.091.981-2.091" fill="#d9d7d7"/>
        <g id="Grupo_841516" data-name="Grupo 841516" opacity="0.1" style="mix-blend-mode: multiply;isolation: isolate">
          <g id="Grupo_841515" data-name="Grupo 841515">
            <g id="Grupo_841514" data-name="Grupo 841514" clip-path="url(#clip-path-8)">
              <path id="Trazado_565376" data-name="Trazado 565376" d="M101.7,259.529c9.166,5.292,9.166,13.872,0,19.164s-24.027,5.292-33.193,0-9.166-13.872,0-19.164,24.027-5.292,33.193,0" fill="#7f87de"/>
            </g>
          </g>
        </g>
        <path id="Trazado_565377" data-name="Trazado 565377" d="M61.625,197.823c-.3-.085,1.961,2.061,2.451,3.635a24.689,24.689,0,0,1,.625,6.751l-.349,1.887a2.057,2.057,0,0,1-2.107-2.185,4.437,4.437,0,0,0-1.883-3.392,9.091,9.091,0,0,0-.712,3.849c.115,2.051,2.009,3.572,1.568,4.506a13.848,13.848,0,0,1-4.033-.746,12.945,12.945,0,0,1-5.06-7.258s.463-5.036,1.177-6.364a33.921,33.921,0,0,0,1.608-4.068l5.051.141Z" fill="#ffd7c9"/>
        <path id="Trazado_565378" data-name="Trazado 565378" d="M71.678,107.279s1.985,4.221,1.812,5.671a23.335,23.335,0,0,0,1.347-3.207,31.831,31.831,0,0,1-3.159-2.464" fill="#2a2f3b"/>
        <path id="Trazado_565379" data-name="Trazado 565379" d="M93.529,98.1l-.31,5.428L92.189,97.6Z" fill="#2a2f3b"/>
        <path id="Trazado_565380" data-name="Trazado 565380" d="M82.081,282.687c-.086.173,0-2.463-3.282-8.4s-3.109-7.837-3.541-8.01-10.277,0-10.277,0a46.656,46.656,0,0,0,0,4.923v1.187l1.784,2.7H67.4A12.136,12.136,0,0,1,68,278.2c.26,3.541,7.428,6.909,10.8,5.959s3.368-1.641,3.282-1.468" fill="#2a2f3b"/>
        <path id="Trazado_565381" data-name="Trazado 565381" d="M109.836,176.812c-.556-1.686-1.447-4.831-1.1-4.909l-.514-1.062-4.042.9a13.523,13.523,0,0,1-.89,4.908,9.78,9.78,0,0,0-.825,5.645c.27,1.6.376,5.308.376,5.308l.787.685.356,1.592a12.977,12.977,0,0,1,2.915.07c.226.216,2.406-1.36,3.15-2.06s1.185-6.419,1.185-6.419-.844-2.977-1.4-4.663m-3.586,9.4-1.629.81a3.335,3.335,0,0,0,.575-2.295,17.311,17.311,0,0,1,.04-3.047c2.79.751,1.014,4.532,1.014,4.532" fill="#f2b8a1"/>
        <path id="Trazado_565382" data-name="Trazado 565382" d="M83.162,253.662S81.5,227.634,79.8,221.88s5.142-44.445,5.439-44.743,14.285-.023,14.285-.023-1.368,31.77-2.37,36.928-2.47,18.921,0,39.62Z" fill="#ff854e"/>
        <path id="Trazado_565384" data-name="Trazado 565384" d="M91.4,181.884c-1.47.842-2.742,7.277-2.742,7.277a19.316,19.316,0,0,0-3.065,6.166c-.968,3.567-1.954,17.8-3.5,26.528-1.505,8.729-3.853,13.963-3.853,44.236v.018l-9.769.359-4.158.161H64.3s-1.542-24.233,1-34.665q.079-.35.161-.753c1.9-8.962.609-25.721.663-38.913.018-2.6.09-5.073.233-7.295.108-1.7.269-3.227.43-4.589,1.273-9.75,3.89-11.1,3.89-11.1s1.864-.053,4.553-.125a26.674,26.674,0,0,1,15.45-.359c3.047-.036,5.18-.053,5.072.018a13.447,13.447,0,0,0-.734,1.846c6.058,3.621,2.581,7.618-3.621,11.185" fill="#ff854e"/>
        <path id="Trazado_565385" data-name="Trazado 565385" d="M76.229,269.373a11.058,11.058,0,0,1-7.7.862,8.241,8.241,0,0,1-2.187-.862,3.466,3.466,0,0,1-2.033-2.752,3.378,3.378,0,0,1,2.033-2.957,8.385,8.385,0,0,1,2.157-.852,10.978,10.978,0,0,1,7.731.852,3.7,3.7,0,0,1,2.012,2.423c.216,1.171-.462,2.393-2.012,3.286" fill="#ff854e"/>
        <g id="Grupo_841522" data-name="Grupo 841522" opacity="0.184" style="mix-blend-mode: color-burn;isolation: isolate">
          <g id="Grupo_841521" data-name="Grupo 841521">
            <g id="Grupo_841520" data-name="Grupo 841520" clip-path="url(#clip-path-9)">
              <path id="Trazado_565386" data-name="Trazado 565386" d="M72.469,183.247l-.95-.2s.323,35.615-1.631,45.975c-1.111,5.879-1.309,21.419-1.4,33.751v.036c0,1.255,0,2.473-.018,3.639v.017l.054,3.765a8.434,8.434,0,0,1-2.187-.861,3.4,3.4,0,0,1-2.025-2.742H64.3s-1.542-24.234,1-34.665q.081-.35.162-.753c1.9-8.962.609-25.721.663-38.913.018-2.6.089-5.073.233-7.295.107-1.7.269-3.227.43-4.589a33.3,33.3,0,0,1,3.621,1.577c.018,0,.018,0,.036.018a17.94,17.94,0,0,0,2.043,1c0,.072-.018.161-.018.233" fill="#9b9ebf"/>
            </g>
          </g>
        </g>
        <path id="Trazado_565387" data-name="Trazado 565387" d="M84.326,259.973a33.4,33.4,0,0,0,5.959,1.641l.432-.82a6.255,6.255,0,0,1,5.1,1.77c2.245,2.246,5.527,5.7,13.473,3.368,0,0,3.541-.692.863-2.591S95.985,253.5,95.9,253.755s-10.277-.006-10.277-.006-1.814,1.388-1.3,6.224" fill="#2a2f3b"/>
        <path id="Trazado_565388" data-name="Trazado 565388" d="M95.1,250.806c2.731,1.577,2.731,4.134,0,5.711a10.933,10.933,0,0,1-9.892,0c-2.731-1.577-2.731-4.134,0-5.711a10.933,10.933,0,0,1,9.892,0" fill="#ff854e"/>
        <path id="Trazado_565390" data-name="Trazado 565390" d="M109.246,172.223c1.844,1.064,1.844,2.79,0,3.855a7.38,7.38,0,0,1-6.676,0c-1.844-1.065-1.844-2.791,0-3.855a7.38,7.38,0,0,1,6.676,0" fill="#009975"/>
        <path id="Trazado_565391" data-name="Trazado 565391" d="M110.628,174.15h0a1.674,1.674,0,0,0-.17-.682c-1.079-4.365-7-28.614-7.716-37.968A63.792,63.792,0,0,0,99,117.947l-3.146,37.72,5.336,18.483a2.347,2.347,0,0,0,1.383,1.928,7.38,7.38,0,0,0,6.676,0,2.347,2.347,0,0,0,1.383-1.928" fill="#fafafa"/>
        <path id="Trazado_565392" data-name="Trazado 565392" d="M91.4,156.5c-13.379-5.822-20.874-37.856-20.874-37.856,2.711-2.085,3.467-9.465,3.467-9.465,5.647-1.14,9.388,4.136,12,6.477a18.143,18.143,0,0,1,2.618,2.885C91.332,126.482,91.4,156.5,91.4,156.5" fill="#ffc7ba"/>
        <path id="Trazado_565393" data-name="Trazado 565393" d="M76.634,198.617h0v0Z" fill="#1e222e"/>
        <path id="Trazado_565394" data-name="Trazado 565394" d="M93.217,104.337a12.055,12.055,0,0,0-.681,3.914,28.419,28.419,0,0,1-1.58,7.877c-.024.049-.024.073-.049.122a11.687,11.687,0,0,1-1.094,2.164v.024c-.243.365-.413.632-.559.827a.526.526,0,0,1-.34.243c-1.313.437-5.4-.365-7.95-1.435a11.331,11.331,0,0,1-4.668-4.3c-3.136-4.4-1.848-6.127-6.346-11.937C71.069,87.9,81.426,89.045,81.426,89.045c12.253,0,11.791,15.292,11.791,15.292" fill="#ffd7c9"/>
        <path id="Trazado_565395" data-name="Trazado 565395" d="M93.529,98.1a1.749,1.749,0,0,0-1.828.3c-.523.4-.924.944-1.447,1.345-1.417,1.088-3.419.934-5.155.513-1.95-.472-5.092-1.448-6.961-.267-.472.072-.688.626-.75,1.089-.205,1.478.062,2.977-.164,4.456a9.588,9.588,0,0,0-.154,2.172l-1.427-.581L72.6,109.5s-2.844-5.473-3.327-7.67a12.589,12.589,0,0,1,3.306-10.237c3.152-3.234,7.249-3.306,8.984-3.306,5.606,0,10.658,2.731,11.767,8.625.031.164.113.626.195,1.191" fill="#2a2f3b"/>
        <path id="Trazado_565396" data-name="Trazado 565396" d="M75.661,107.145a17.685,17.685,0,0,1-.534-2.27c-.159-1.008-.711-2.738-2.625-2.383-2.67.494.067,6.127,1.023,6.624s2.136-1.971,2.136-1.971" fill="#ffd7c9"/>
        <path id="Trazado_565397" data-name="Trazado 565397" d="M88.9,119.509c.01.318-.094.809-.1,1.117-2.669.6-7.51-.81-9.522-2.6a12,12,0,0,1-2.988-4.25,11.445,11.445,0,0,0,4.682,4.3,23.409,23.409,0,0,0,7.933,1.428" fill="#f2b8a1"/>
        <g id="Grupo_841528" data-name="Grupo 841528" opacity="0.184" style="mix-blend-mode: color-burn;isolation: isolate">
          <g id="Grupo_841527" data-name="Grupo 841527">
            <g id="Grupo_841526" data-name="Grupo 841526" clip-path="url(#clip-path-10)">
              <path id="Trazado_565398" data-name="Trazado 565398" d="M66.752,149.15c-.195-1.355-.421-2.711-.729-4.056a38.284,38.284,0,0,0-1.232-3.953c-.452-1.221-.986-2.433-1.551-3.614l.052-.031c.01.011.01.021.02.031.616,1.15,1.2,2.321,1.715,3.522a35.141,35.141,0,0,1,1.386,3.943,22.957,22.957,0,0,1,.842,4.1c.113,1.4-.308,1.428-.5.062" fill="#3a3c53"/>
            </g>
          </g>
        </g>
        <path id="Trazado_565399" data-name="Trazado 565399" d="M67.07,153.36l-.031-.113a30.273,30.273,0,0,0-.287-4.1c-.195-1.355-.421-2.71-.729-4.056a38.284,38.284,0,0,0-1.232-3.953c-.452-1.221-.986-2.433-1.551-3.614-.031-.061-.061-.133-.092-.195l.041-.031c.031.062.072.134.1.2.01.01.01.02.02.03.616,1.15,1.2,2.321,1.715,3.522a35.211,35.211,0,0,1,1.386,3.943,23.056,23.056,0,0,1,.842,4.1,1.863,1.863,0,0,1,.01.236,14.751,14.751,0,0,1-.195,4.035" fill="#1e222e"/>
        <path id="Trazado_565400" data-name="Trazado 565400" d="M67.5,142.9v.466c-.054,1.434-.215,6.023-.466,9.876-.108,1.793-.251,3.424-.394,4.5-.556,3.872-2.151,12.78-2.814,20.756-.628,7.636-1.416,16.347-1.416,17.6a.316.316,0,0,1,.017.125,2.245,2.245,0,0,1-1.344,1.864,7.054,7.054,0,0,1-4.732.645,1.8,1.8,0,0,1-.287-.071,5.066,5.066,0,0,1-1.505-.574,2.293,2.293,0,0,1-1.362-1.864v-30.13l1.523-30.6c0-.179,0-.376.018-.591a3.534,3.534,0,0,1,.986-2.259,1.88,1.88,0,0,1,.43-.34,3.782,3.782,0,0,1,3.316-.233,8.042,8.042,0,0,1,1.649.717c3.531,2.043,6.381,6.56,6.381,10.109" fill="#fafafa"/>
        <path id="Trazado_565401" data-name="Trazado 565401" d="M100.559,180.434l-.048,36.176c-.244,2.407-1.921,4.765-5.106,6.613-6.856,3.963-17.967,3.963-24.847,0a1.158,1.158,0,0,0-.219-.146c-3.185-1.9-4.789-4.352-4.886-6.831v-36.2c.048-.413.121-.827.194-1.216.073-.486.195-1.215.365-2.115.851-5.592,2.48-17.893,1.021-23.461a52.164,52.164,0,0,0-6.1-14.271c-.608-.972-1.24-1.945-1.945-2.917-.244-.389-.535-.754-.827-1.167-.632-.827-1.313-1.7-2.018-2.529a3.673,3.673,0,0,0-.413.268H55.7c.414-.584,16.849-17.14,16.849-17.14a10.69,10.69,0,0,0,1.215,2.552,27.312,27.312,0,0,0,12.764,10.5s2.285-5.664,2.358-9.02h.025v-.024a.523.523,0,0,0,.34-.243c.146-.194.316-.462.559-.826v-.025a11.622,11.622,0,0,0,1.094-2.164s8,1.532,8.023,1.581c.316.51,2.188,4.3.827,19.425h-.024a16.113,16.113,0,0,1-1.411,5.713s.219,20.447,1.435,28.47a71.256,71.256,0,0,1,.778,8.412,4.936,4.936,0,0,1,.024.583" fill="#fafafa"/>
        <path id="Trazado_565402" data-name="Trazado 565402" d="M63.363,137.612c.609,1.111,1.165,2.276,1.667,3.441A36.549,36.549,0,0,1,66.41,145a22.416,22.416,0,0,1,.843,4.086,1.166,1.166,0,0,1,.017.233,15.319,15.319,0,0,1-.2,4.051c1.649,6.435-.824,21.868-1.434,25.452-.071.413-.143.843-.2,1.255-.008.138.009.275.01.412v35.759c.1,2.48,1.7,4.936,4.887,6.832V187.436l0-.006c.089-3.994.3-8.183.609-11.407.107-1.075.179-2.115.233-3.119,1.631-24.717-6.883-34.109-7.815-35.292" fill="#e5e5e5"/>
        <path id="Trazado_565403" data-name="Trazado 565403" d="M73.777,118.039l-14.3,14.035s-.2,1.541-.484,4c-.95,7.832-2.922,25.022-2.976,31.8-.036,6.919.108,23.821.054,30.793a5.043,5.043,0,0,1-1.506-.573,2.293,2.293,0,0,1-1.362-1.864V166.093l1.524-30.6c0-.179,0-.376.018-.591a3.533,3.533,0,0,1,.985-2.259h-.018c.413-.591,16.831-17.153,16.831-17.153a10.1,10.1,0,0,0,1.237,2.545" fill="#e5e5e5"/>
        <path id="Trazado_565404" data-name="Trazado 565404" d="M89.78,147.5c.843,6.44,1.4,12.913,1.808,19.4.176,3.245.261,6.5.151,9.758-.151,3.246-.281,6.478-.362,9.725-.307,12.975-.441,25.958-.579,38.939h-.061c-.046-12.983-.049-25.965.137-38.95.049-3.243.111-6.5.262-9.738.12-3.227,0-6.469-.129-9.706-.237-6.481-.779-12.949-1.287-19.42Z" fill="#e1dfed"/>
        <path id="Trazado_565405" data-name="Trazado 565405" d="M91.394,128.552,89.375,129.6l2.019,1.337s-.074,14.028-1.361,19.352l-3.5-21.735a63.68,63.68,0,0,0,2.382-9.044.529.529,0,0,0,.342-.243c.144-.195.315-.462.558-.827v-.024a11.677,11.677,0,0,0,1.095-2.164c.023-.048.023-.073.047-.121l1.24.364s.316,8.291-.8,12.059" fill="#f2f2f2"/>
        <path id="Trazado_565406" data-name="Trazado 565406" d="M72.989,113.406c-1.323,2.53.469,7.091,13.223,15.531,0,0,1.312,10.113,3.826,21.9,0,0-5.761-11.587-9.39-17.685l.874-1.872-2.9.3a18.422,18.422,0,0,1-9.385-12.666Z" fill="#e1dfed"/>
        <path id="Trazado_565407" data-name="Trazado 565407" d="M80.964,132.758l.875-1.872-2.893.292a18.34,18.34,0,0,1-8.582-9.8,16.465,16.465,0,0,1-.8-2.869l3.428-5.105c-.56,1.094-.511,2.479.753,4.376,1.678,2.528,5.5,5.956,12.789,10.77,0,0,2.079,10.767,3.5,21.735,0,0-5.446-11.427-9.068-17.529" fill="#f2f2f2"/>
        <path id="Trazado_565408" data-name="Trazado 565408" d="M86.531,128.552l3.507,22.281s-1.69-16.468-3.507-22.281" fill="#e1dfed"/>
        <path id="Trazado_565409" data-name="Trazado 565409" d="M70.364,121.38a16.465,16.465,0,0,1-.8-2.869l3.428-5.105c-.56,1.094-.356,2.346.753,4.376Z" fill="#e1dfed"/>
        <path id="Trazado_565410" data-name="Trazado 565410" d="M247.922,114.91s-3.09-1.238-7.329,1.02c-1.56.832,3.934.167,3.934.167s.712.467-.843,1.187-4.443.775-4.75,1.361a7.683,7.683,0,0,0-.746,3.344s7.243,1.227,10.7-2.45a6.213,6.213,0,0,1,3.25-2.135l1.487-4.1Z" transform="translate(0.675 0.28)" fill="#fab39b"/>
        <path id="Trazado_565316" data-name="Trazado 565316" d="M263.684,79.978l-.807-1.649-.591-6.632,1.828-4.463.287,1.936-.054.107a17.473,17.473,0,0,0-.681,2.438,32.721,32.721,0,0,0,.018,8.263" fill="#2ea297"/>
      </g>
    </g>
  </g>
</svg>
