<svg xmlns="http://www.w3.org/2000/svg" xmlns:xlink="http://www.w3.org/1999/xlink" width="130.935" height="130.94" viewBox="0 0 130.935 130.94"><defs><clipPath id="a"><path d="M279.694,128.988a48.8,48.8,0,1,1-48.8-48.805A48.8,48.8,0,0,1,279.694,128.988Z" transform="translate(207.526 48.943)" fill="#fff"/></clipPath></defs><g transform="translate(-735.532 -1836.877)"><path d="M321.62,199.579A65.468,65.468,0,1,1,256.154,134.1,65.467,65.467,0,0,1,321.62,199.579Z" transform="translate(544.847 1702.772)" fill="#ffd63d"/><path d="M295.231,189.852a48.8,48.8,0,1,1-48.8-48.807A48.8,48.8,0,0,1,295.231,189.852Z" transform="translate(554.573 1712.5)" fill="#fff"/><g transform="translate(163.142 1627.541)"><path d="M663.532,288.575a7.466,7.466,0,0,1-4.112,1.639c-5.105.186-15.148-2.4-20.24-2.81a37.128,37.128,0,0,0-4.184,0c-3.966.278-15.747,2.216-15.747,2.216s-5.436,1.187-7.31-.125a6.773,6.773,0,0,1-1.8-1.011c-2.814-3.383-1.54-7.822,2.677-9.305a1.685,1.685,0,0,0,1.369-2,35.515,35.515,0,0,1,.047-4.492,13.27,13.27,0,0,1,9.978-11.589,48.118,48.118,0,0,1,24.751-.171c6.448,1.672,10.547,6.562,10.646,13.261a11.833,11.833,0,0,1,0,1.421c-.227,1.909.043,3.155,2.279,4.032C665.412,281.023,666.1,285.453,663.532,288.575Z"/><path d="M658.935,281.49a27.521,27.521,0,0,1-6.315-.844.5.5,0,0,1,.451-.294,1.563,1.563,0,0,0-1.24.2c-7.065-.66-13.967.766-20.895,1.729-2.035.283-2.72.167-2.878-2.257-.392-5.972,3.683-10.446,9.589-11.592a46.664,46.664,0,0,1,20.559.445c6.731,1.678,8.392,6.951,7.81,12.865-.084.853-.643.765-1.186.681-1.7-.262-3.4-.555-5.1-.836a.51.51,0,0,1,.445-.29A1.615,1.615,0,0,0,658.935,281.49Z" transform="translate(-10.206 -4.268)" fill="#3d99e1"/><path d="M632.1,303.98a29.216,29.216,0,0,1,7.189-.9,6.372,6.372,0,0,0,3.781,0,60.969,60.969,0,0,1,10.549,1.346c-.1.224-.386.19-.516.372.423-.178.94.091,1.323-.277a26.37,26.37,0,0,1,6.305.845.518.518,0,0,1-.434.289,1.608,1.608,0,0,0,1.233-.2,2.629,2.629,0,0,1,.469-.039c1.656.155,3.74.146,3.509,2.467-.236,2.377-2.26,1.884-3.909,1.627-5.517-.859-11.027-1.759-16.551-2.573-6.047-.89-11.887.811-17.8,1.561-2.5.316-4.972.777-7.459,1.164-1.5.234-2.816-.1-2.982-1.816-.152-1.568,1.035-2.167,2.416-2.328,1.793-.209,3.592-.37,5.389-.552.3.09-.116.06.185.151a4.154,4.154,0,0,0,.924.1c-.254-.065-.552-.018-.722-.291a30.228,30.228,0,0,1,6.714-.9c.3.09-.116.06.185.151a4.181,4.181,0,0,0,.924.1C632.57,304.206,632.271,304.253,632.1,303.98Z" transform="translate(-4.293 -22.989)" fill="#1d80cc"/><path d="M668.056,302.9a3.586,3.586,0,0,1-3.781,0A10.946,10.946,0,0,1,668.056,302.9Z" transform="translate(-29.277 -22.811)" fill="#1f86d7"/><path d="M678.264,294.533c.511-.666,1.178-.418,1.925-.42-.3.629-.809.337-1.137.514Z" transform="translate(-36.639 -18.249)" fill="#3fa1ed"/><path d="M693.257,296.523c.514-.655,1.178-.41,1.924-.411-.295.629-.8.337-1.131.509Z" transform="translate(-44.528 -19.301)" fill="#3fa1ec"/><path d="M648.672,304.937l1.827.191c-1.022.437-1.659.461-2.214-.147A.342.342,0,0,1,648.672,304.937Z" transform="translate(-20.863 -23.947)" fill="#1f86d7"/><path d="M693.793,306.02c-.524.588-1.16.505-2.188.231l1.382-.326Z" transform="translate(-43.659 -24.488)" fill="#1f87d8"/><path d="M633.684,306.936l1.827.191c-1.022.437-1.659.461-2.214-.147A.342.342,0,0,1,633.684,306.936Z" transform="translate(-12.976 -24.999)" fill="#1f86d7"/><path d="M709.131,308c-.522.6-1.16.516-1.879.32.244-.539.753-.245,1.08-.413Z" transform="translate(-51.892 -25.533)" fill="#1f87d7"/></g></g></svg>