<svg xmlns="http://www.w3.org/2000/svg" xmlns:xlink="http://www.w3.org/1999/xlink" width="130.935" height="130.94" viewBox="0 0 130.935 130.94"><defs><clipPath id="a"><path d="M279.694,128.988a48.8,48.8,0,1,1-48.8-48.805A48.8,48.8,0,0,1,279.694,128.988Z" transform="translate(207.526 48.943)" fill="#fff"/></clipPath></defs><g transform="translate(-413.661 -1856.877)"><path d="M321.62,199.579A65.468,65.468,0,1,1,256.154,134.1,65.467,65.467,0,0,1,321.62,199.579Z" transform="translate(222.976 1722.772)" fill="#47b5ab"/><path d="M295.231,189.852a48.8,48.8,0,1,1-48.8-48.807A48.8,48.8,0,0,1,295.231,189.852Z" transform="translate(232.702 1732.5)" fill="#fff"/><g transform="translate(40.713 1744.417)" clip-path="url(#a)"><g transform="translate(-1920.029 62.99)"><path d="M2364.93,122.75a.64.64,0,0,1,.22-.608c.566-.1.7-1.375,1.6-.589a11.009,11.009,0,0,1,1.885,5.084c.024,3.184.017,6.367.009,9.547,0,.16-.009.323-.023.48-.009.073-.022.151-.03.224s-.035.142-.05.212a2.426,2.426,0,0,0-.057,1.948,1.369,1.369,0,0,1,.134.408.431.431,0,0,1-.223.371.6.6,0,0,0-.319.6q.005,8.526,0,17.046c.027-5.741-.01-11.482.019-17.224a.628.628,0,0,1,.3-.45.762.762,0,0,1,.4.383,2.255,2.255,0,0,1,.144.544c.15,5.434.061,10.87.055,16.3a4.271,4.271,0,0,1-.041.5c0,.157-.014.317-.023.474s-.012.3-.025.449-.019.284-.032.424c0,.136.008.274.026.409.814.641,1.751.184,2.622.3.981.131,2.027-.238,2.948.382a.4.4,0,0,1-.052.441c-1.094.583-2.276.215-3.415.309a10.072,10.072,0,0,0-1.727.094.865.865,0,0,0-.271.309,2.918,2.918,0,0,0-.05.43c.012.155.016.306.02.46.027,3.784,0,7.566.021,11.348.009,1.719.141,1.856,1.842,1.857.962,0,1.99.211,2.781-.6.639-.471.672.175.89.481a1.966,1.966,0,0,0,.274.128,2.144,2.144,0,0,0,.476.084.75.75,0,0,0,.465-.223,3.28,3.28,0,0,0-.121-2,15.544,15.544,0,0,1-.123-3.516c.053-.987.021-1.975.028-2.962a8.3,8.3,0,0,1,.121-1.759,1.694,1.694,0,0,1,.663-1.069.438.438,0,0,1,.424.231,30.682,30.682,0,0,1,.553,5.962q-.006.954,0,1.908c.018,3.254.037,3.273,3.188,3.377a9.388,9.388,0,0,0,1.645-.039.889.889,0,0,0,.36-.275,51.546,51.546,0,0,0,.128-6.6c.033-2.3.047-4.6-.02-6.9-.016-.077-.03-.156-.046-.232a1.685,1.685,0,0,1-.064-.444,4.628,4.628,0,0,0,.074-1.836,1.26,1.26,0,0,1,.03-.609.925.925,0,0,1,.39-.46.337.337,0,0,1,.363.084c.023,5.413.1,10.826.032,16.238-.017,1.354.39,1.643,1.653,1.6,2.7-.1,5.414-.044,8.121-.016.485,0,1.342-.263,1.33.457s-.87.4-1.342.4q-26.582.027-53.164.015h-15.8c-.345,0-.69.011-1.034-.009-.284-.017-.652-.006-.656-.407,0-.378.344-.449.638-.454,1.083-.02,2.166-.017,3.249-.018,1.871,0,3.746-.079,5.61.027,1.259.071,1.679-.234,1.656-1.593-.076-4.623.009-9.25.032-13.875a.355.355,0,0,1,.436-.034.852.852,0,0,1,.348.622c0,.084-.009.168-.012.252s-.021.168-.032.252c-.054,4.224-.011,8.448-.019,12.671a1.777,1.777,0,0,0,.257,1.263,11.8,11.8,0,0,0,4.322.176c.978-.035.764-.933.767-1.594a7.107,7.107,0,0,1,.206-2.464.55.55,0,0,1,.373-.3c.36.065.512.346.657.633.407.906-.111,1.809-.01,2.713.082.26.088.557.355.726a.757.757,0,0,0,.445.024,2.748,2.748,0,0,0,.406-.23.921.921,0,0,1,.3-.075c.272-.149.333-.822.86-.353,1.211,1.012,2.621.643,3.962.505.8-.082.682-.867.688-1.43.032-2.854.011-5.709.015-8.564,0-1.033-.008-2.067.011-3.1,0-.149.01-.3.019-.449a3.044,3.044,0,0,0-.04-.423.833.833,0,0,0-.269-.319,26.039,26.039,0,0,0-3.495-.1,2.555,2.555,0,0,1-1.677-.342.376.376,0,0,1,.027-.461c1.768-.7,3.612-.189,5.411-.34.18.01.363.029.546.035.061,0,.153.245.175-.01.005-.059-.14-.1-.241-.1a.7.7,0,0,1-.229-.282,1.857,1.857,0,0,1-.092-.379,3.98,3.98,0,0,1-.039-.411c-.017-.146-.023-.29-.03-.438s-.021-.31-.029-.467a3.846,3.846,0,0,1-.045-.5c-.02-5.4-.088-10.792.026-16.187a2.811,2.811,0,0,1,.141-.546.91.91,0,0,1,.375-.41.316.316,0,0,1,.343.343c.015,5.761,0,11.522.009,17.283.034-5.838-.051-11.676.053-17.514a.333.333,0,0,1,.5-.018,3.481,3.481,0,0,1,.311,2.151q.017,15.436.012,30.872c0,.673-.161,1.4.444,1.936a2.505,2.505,0,0,0,1.431.266q6.859.013,13.719,0a2.752,2.752,0,0,0,1.432-.242c.547-.438.453-1.055.453-1.639,0-12.762.017-25.523-.014-38.271-.173-.261-.416-.03-.622-.076a1.043,1.043,0,0,1-.615-.77c.047-1.232.847-2.215,1.112-3.375a11.68,11.68,0,0,0-.07-4.5,6.437,6.437,0,0,0-1.02-2.948c-.491.431-.437,1.195-.984,1.511-.624-.009-.516-.459-.413-.795A5.889,5.889,0,0,0,2364.93,122.75Z" transform="translate(0 -31.972)" fill="#40387b"/><path d="M2344.574,143.627h-.3q-.036-10.409-.07-20.818c-.006-1.907,0-3.814,0-5.751-.577.093-.531.589-.668.906-1.266,2.932-2.532,5.866-3.735,8.824-.368.906-.759,1.166-1.749.8-3.522-1.318-3.541-1.282-2.318-4.852,1.641-4.789,3.489-9.518,4.868-14.381a9.223,9.223,0,0,1,6.326-6.741c.162.808-.541.919-1,1.217-.52.341-1.207.453-1.493,1.107-1.118,1.136-.358,2.177.166,3.231a11.575,11.575,0,0,1,.666,2.762c.026,3.2.02,6.4.007,9.59a4.622,4.622,0,0,1-.032.5,5.242,5.242,0,0,1-.228.907,4.561,4.561,0,0,0-.021,1.3,3.831,3.831,0,0,1,.125.917,1.828,1.828,0,0,1-.082.488c-.122,5.044-.017,10.086-.05,15.128,0,.637-.006,1.273-.041,1.9a1.362,1.362,0,0,0,.154.38,2.18,2.18,0,0,1,.222.339,1.209,1.209,0,0,1,.083.765.962.962,0,0,1-.156.321.757.757,0,0,1-.291.131C2344.686,142.882,2345,143.4,2344.574,143.627Z" transform="translate(-10.645 -15.283)" fill="#41387b"/><path d="M2483.793,123.273h-.243c-.1.156-.2.149-.294,0l-.309.007-.111-.131a.712.712,0,0,1-.019-.341,1.558,1.558,0,0,1,.15-.314c.056-.105.112-.21.158-.32a3.015,3.015,0,0,0-.163-1.7,2.414,2.414,0,0,1-.091-.446,4.826,4.826,0,0,1-.03-.488q-.017-4.695,0-9.38a5.929,5.929,0,0,1,.811-3.518,1.9,1.9,0,0,0-.469-2.885c-.215-.529-.719-.709-1.158-.982-.409-.254-1.022-.395-.831-1.112a9.137,9.137,0,0,1,6.27,6.591c1.439,4.991,3.3,9.862,5,14.778a1.979,1.979,0,0,0,.634,1.223l.865-2.169a47.009,47.009,0,0,0,2.574-7.4l.672-2.068c.264-.284.225-.88.77-.852.245.013.282.331.306.567a13.275,13.275,0,0,1-.846,2.8c-.309.866-.115,1.4.757,1.722a15.259,15.259,0,0,0,2.512.8l.554.59c.424.542.1.9-.3,1.239-.443.071-.952.549-1.272-.2a2.042,2.042,0,0,0-.216-.2c-2.342-1.569-2.738-1.439-3.622,1.164-.439,1.295-.824,2.61-1.307,3.887-.357.943-.3,1.6.788,1.915a1.428,1.428,0,0,1,1.021.767c0,.45-.319.622-.669.767-1.468-.122-2.906-.706-4.412-.287-.358-.13-.67-.306-.709-.74,1.371-.925,1.163-2.086.609-3.4-.512-1.215-.838-2.507-1.27-3.758-.531-1.538-.716-1.623-2.215-1.035a2.6,2.6,0,0,0-1.348.839c-.275.729-.764.5-1.254.281a1.145,1.145,0,0,1-.514-1.261,1.038,1.038,0,0,1,.721-.73c.193-.036-.05.011.144-.025,3.2-.589,3.4-.914,2.422-3.889-.769-2.328-1.55-4.652-2.373-7.092a7.27,7.27,0,0,0-1.211,3.278c-.042,1.525.065,3.05-.063,4.57a3.222,3.222,0,0,0,.059,2.339,1.916,1.916,0,0,1-.168.651,5.479,5.479,0,0,0,.1,2.951C2484.171,121.294,2484.6,122.368,2483.793,123.273Z" transform="translate(-134.542 -15.331)" fill="#41387b"/><path d="M2408.616,86.336c.313.719,1.1.766,1.643,1.15.229.161.768.179.348.678-.788.346-1.251-.124-1.681-.522a9.184,9.184,0,0,1,.085,1.9c-.091,1.527-.739,1.89-2.1,1.188a13.716,13.716,0,0,0-1.252-.742,6.5,6.5,0,0,1-.859-.533,3.374,3.374,0,0,1-.3-.2c-.137-.1-.265-.207-.392-.314a2.947,2.947,0,0,0-.26-.155,2.076,2.076,0,0,0-.285-.066c-.1,0-.194,0-.291,0a1.821,1.821,0,0,0-.283.072c-.089.052-.177.1-.261.16a2.414,2.414,0,0,1-.41.273c-.106.056-.214.1-.323.147a3.54,3.54,0,0,0-.649.405,13.123,13.123,0,0,1-1.735,1.086c-1.131.541-1.6.275-1.726-1a10.434,10.434,0,0,1-.01-1.606,1.252,1.252,0,0,1,.229-.691,3.418,3.418,0,0,1-2.435.894c-.441-.734.36-.592.6-.785.621-.5,1.571-.515,1.979-1.341-.16-1.745,1.27-2.306,2.4-2.453,2.147-.28,4.367-.617,6.512.354A2.1,2.1,0,0,1,2408.616,86.336Z" transform="translate(-61.966)" fill="#3f3679"/><path d="M2732.888,175.511q2.193,6.249,4.39,12.5c.217.616.135,1.057-.577,1.222a2.007,2.007,0,0,0-.271.116c-3.543,1.409-3.547,1.411-5.012-2.06-.86-2.037-1.708-4.079-2.562-6.118.511-.294.685.1.793.446.139.446.311-.031.451.051.74.4.806,1.2,1.087,1.859.617,1.446,1.276,2.875,1.853,4.336.384.974.953,1.16,1.825.689.885-.275.892-.849.661-1.628-.571-1.927-1.5-3.749-1.729-5.779.05-1.524-.815-2.806-1.1-4.235C2732.608,176.464,2731.932,175.844,2732.888,175.511Z" transform="translate(-344.525 -77.931)" fill="#42397c"/><path d="M2716.424,152.643h-.3c-.6-.6-.409-1.379-.415-2.092-.043-5.143.044-10.287-.051-15.427a4.6,4.6,0,0,1-.1-.5,1.979,1.979,0,0,1,.013-.485,3.7,3.7,0,0,0-.018-2.239,2.549,2.549,0,0,1-.1-.478,4.949,4.949,0,0,1-.035-.509c-.017-3.2,0-6.4-.011-9.6a6.558,6.558,0,0,1,.827-3.486c.355-.727,1.137-1.344.6-2.308.059-.277.075-.6.511-.443a4.386,4.386,0,0,1,1.806,2.355.689.689,0,0,1-.61.468c-1.113.151-1.092,1.158-1.426,1.9-.067.43-.233.837-.261,1.274a26.45,26.45,0,0,0,.14,4.657c.428,1.059,1.178,2.016,1.044,3.256-.19.277-.406.493-.781.323-.347-.189-.168-.781-.758-.878,0,5.1.008,10.174,0,15.251C2716.485,146.669,2716.447,149.656,2716.424,152.643Z" transform="translate(-333.116 -26.665)" fill="#42397c"/><path d="M2604.249,97.425c-.571-.192-.822.539-1.351.468,2.042-3.727,9.11-6.316,12.884-4.719a1.326,1.326,0,0,1-.927.5,1.815,1.815,0,0,1-.427.006,4.92,4.92,0,0,0-2.469.1,24.808,24.808,0,0,0-7.031,3.435A.956.956,0,0,1,2604.249,97.425Z" transform="translate(-237.747 -7.724)" fill="#42397c"/><path d="M2727.585,158.7l.624-.318a21.571,21.571,0,0,0,2.2-.878c1.061-.3,1.138-.932.816-1.912-.576-1.748-1.466-3.416-1.507-5.32.147-.384.307-.746.827-.463l1.27,3.828c-.085,1.505.793,2.753,1.1,4.151.1.475.65.964.067,1.48a1.511,1.511,0,0,0-1.934-.256c-.72.308-1.477.521-2.2.814-.073.14.02.589-.334.23-.245-.248-.284-.692-.725-.763Z" transform="translate(-343.448 -56.056)" fill="#41397b"/><path d="M2587.4,137.117c-.509-.758-.519.34-.853.229a58.055,58.055,0,0,1,2.27-6.512c.554.685-.728,1.4.038,2.086A4.537,4.537,0,0,1,2587.4,137.117Z" transform="translate(-223.883 -40.056)" fill="#42397c"/><path d="M2681.353,96.126c.249-.308.607-.246.938-.277a7.925,7.925,0,0,1,2.913,1.244c.472.3,1.322.128,1.309,1.04a.537.537,0,0,1-.3.27c-1.594-.125-2.757-1.317-4.245-1.708A1.082,1.082,0,0,1,2681.353,96.126Z" transform="translate(-304.256 -10.399)" fill="#40387a"/><path d="M2567.8,187.181a19.9,19.9,0,0,1-2.574,7.4C2566,192.087,2566.78,189.592,2567.8,187.181Z" transform="translate(-205.811 -87.824)" fill="#42397c"/><path d="M2736.931,133.764c-.4.033-.535.3-.566.658a3.094,3.094,0,0,1-1.153-3.321l.657-.32A12.9,12.9,0,0,1,2736.931,133.764Z" transform="translate(-349.839 -40.012)" fill="#443c7e"/><path d="M2707.819,105.157c-.031-.754-.86-.68-1.177-1.138a5.737,5.737,0,0,1,3.026,1.41C2708.966,105.923,2708.407,105.439,2707.819,105.157Z" transform="translate(-325.694 -17.325)" fill="#443c7e"/><path d="M2714.065,110.8c.692-.429,1.2.4,1.849.272l.25.31a.584.584,0,0,0-.327.557,1.608,1.608,0,0,1-1.828-1.07Z" transform="translate(-331.94 -22.972)" fill="#40387a"/><path d="M2625.116,262.226V245.075a1.842,1.842,0,0,1,1.365-.414q4.69-.021,9.379,0a2.043,2.043,0,0,1,1.39.354,2.562,2.562,0,0,1,.463,1.809q.031,6.842,0,13.685a3.144,3.144,0,0,1-.3,1.572c-.684.8-1.625.492-2.476.552-.585.041-1.175,0-1.758.065a.807.807,0,0,1-.47-.171,2,2,0,0,1-.347-1.4c.1-1.823-.294-3.617-.314-4.995-.316,1.817-.013,4.135-.636,6.367a.759.759,0,0,1-.467.2c-1.4-.108-2.8-.034-4.2-.06A2.188,2.188,0,0,1,2625.116,262.226Z" transform="translate(-256.581 -136.542)" fill="#63bbe6"/><path d="M2422.662,244.79v17.151c-.719.621-1.592.377-2.408.41-1.13.045-2.262-.035-3.39.065a.838.838,0,0,1-.467-.158c-.714-2.171-.27-4.459-.678-6.239-.391,1.72-.083,3.927-.524,6.074a.617.617,0,0,1-.368.291,33.761,33.761,0,0,0-3.885.026.856.856,0,0,1-.49-.166,1.4,1.4,0,0,1-.251-.479c-.281-3.087-.1-6.181-.12-9.272-.014-2.453-.115-4.909.072-7.361a1.829,1.829,0,0,1,.193-.507.644.644,0,0,1,.421-.289c1.41.051,2.822.079,4.234-.011a.658.658,0,0,1,.427.234c.534,1.516.137,3.09.282,4.63,0,.136,0,.273.017.41.005-.138,0-.277.008-.416.189-1.556-.314-3.162.34-4.685a.825.825,0,0,1,.486-.187c1.476.114,2.953.031,4.429.061A2.239,2.239,0,0,1,2422.662,244.79Z" transform="translate(-74.256 -136.257)" fill="#63bbe6"/><path d="M2622.365,96.982l.589.33c.981.738,2.18,1.068,3.208,1.712,1.26.789,2.461,1.645,2.653,3.3a6.483,6.483,0,0,0-.858,3.2c-.292,2.721-.041,5.451-.132,8.175a4.088,4.088,0,0,1-.135,1.731,1.978,1.978,0,0,1-1.4.337q-5.531.021-11.061,0a2.107,2.107,0,0,1-1.41-.311c-.374-1.89-.077-3.8-.173-5.7a30.019,30.019,0,0,0-.121-4.248,15.146,15.146,0,0,0-1.755-4.557,19.533,19.533,0,0,1,7.652-3.98,8.14,8.14,0,0,1,2.629-.02Z" transform="translate(-245.268 -11.255)" fill="#62bbe6"/><path d="M2457.643,382.565c.017,4.376.019,8.753.063,13.129.008.8-.217,1.175-1.078,1.124a19.157,19.157,0,0,0-2.8.006c-1.035.091-1.7-.173-1.756-1.318a1.378,1.378,0,0,1-.439-1.164c-.013-.6-.008-1.194-.015-1.791a17.781,17.781,0,0,0-.205-4.11,21.282,21.282,0,0,1-.094-2.693c.12-1.1-.287-2.262.393-3.295A10.306,10.306,0,0,1,2457.643,382.565Z" transform="translate(-109.237 -253.039)" fill="#62bbe5"/><path d="M2630.4,395.513c-.056,1.144-.72,1.337-1.752,1.327-3.87-.038-3.877,0-3.868-3.939.007-3.442.032-6.884.049-10.327a10.474,10.474,0,0,1,5.892-.135c.714.917.325,1.994.435,3a22.284,22.284,0,0,1-.09,2.7c-.411,1.447-.129,2.929-.21,4.392-.005.6,0,1.2-.013,1.805A1.371,1.371,0,0,1,2630.4,395.513Z" transform="translate(-256.296 -253.048)" fill="#62bbe5"/><path d="M2679.249,396.956c-4.123-.042-3.543.955-3.8-3.484-.16-2.779-.255-5.562-.379-8.343a2.241,2.241,0,0,1-.063-2.407,6.579,6.579,0,0,1,4.106-.184.94.94,0,0,1,.389.4,5.21,5.21,0,0,1,.228,2.185c-.09,3.783.222,7.571-.17,11.35A2.1,2.1,0,0,1,2679.249,396.956Z" transform="translate(-298.606 -253.233)" fill="#63bbe6"/><path d="M2414.478,392.593q-.03,1.291-.061,2.582c-.268,2-.268,2.01-2.473,1.988a2.481,2.481,0,0,1-1.441-.157,1.881,1.881,0,0,1-.367-1.24c-.034-4.052-.058-8.1.013-12.155a2.118,2.118,0,0,1,.2-.85.729.729,0,0,1,.41-.366c1.348.151,2.751-.286,4.057.364.523.743.283,1.6.35,2.407a23.811,23.811,0,0,1-.1,2.974,9.181,9.181,0,0,0-.2,2.775A2.421,2.421,0,0,1,2414.478,392.593Z" transform="translate(-74.308 -253.307)" fill="#63bbe6"/><path d="M2584.463,135.613a23.236,23.236,0,0,0,1.456-4.2l.823-2.356a6.223,6.223,0,0,1,1.492,3.562c.051,1.666.076,3.332.048,5l-1.171,3.257c-1.531.525-2.594-.637-3.846-1.1-.387-.142-.045-.525.031-.762C2583.664,137.877,2584.07,136.747,2584.463,135.613Z" transform="translate(-220.95 -38.553)" fill="#62bbe6"/><path d="M2439.475,325.106l.069-2.9a4.775,4.775,0,0,0-.1-2.663c-.024-.065-.047-.131-.072-.2a1.084,1.084,0,0,1,.013-.4c.079-.334.375-.649.093-1.018a1.075,1.075,0,0,1-.151-.307,1,1,0,0,1,0-.334c.037-.158.1-.31.145-.465a1.843,1.843,0,0,1,.1-.3,2.037,2.037,0,0,0,.167-.268c.111-2.4.214-4.8.343-7.2.019-.346-.185-.9.385-.954.731-.063.5.584.524.961.131,2.4.232,4.8.343,7.2.057.091.115.182.175.271a2.375,2.375,0,0,1,.107.309,2.544,2.544,0,0,1,.118.486,1.7,1.7,0,0,1-.018.34,7.441,7.441,0,0,0-.142.839c0,.054,0,.108,0,.162.011.239.2.447.123.7-.023.062-.046.122-.071.184l-.109.171a10.7,10.7,0,0,0,.025,3.366q.03,1.3.061,2.591c.317,1.39-.094,2.819.23,4.208q.018.892.034,1.784c-.139.2-.248.456-.574.309-.864-1.077-.113-2.43-.616-3.569a3.778,3.778,0,0,1,0-1.482c.326-2.039-.355-4.06-.124-6.078.116,1.892-.476,3.746-.143,5.625a4.4,4.4,0,0,1-.014,1.642c-.323.656.021,1.512-.617,2.073a.637.637,0,0,1-.277-.591A16.152,16.152,0,0,1,2439.475,325.106Z" transform="translate(-99.07 -190.327)" fill="#3f377a"/><path d="M2661.922,331.589q.017-.892.034-1.784c.331-1.483-.094-3.006.237-4.488q.031-1.3.062-2.609a8.766,8.766,0,0,0,.009-3.086l-.109-.164a.986.986,0,0,1-.092-.367c0-.183.17-.319.155-.51,0-.065.01-.13.02-.194a1.1,1.1,0,0,1-.317-.7,1.645,1.645,0,0,1,.038-.377,5,5,0,0,1,.175-.519,1.985,1.985,0,0,1,.132-.327,2.775,2.775,0,0,0,.2-.29c.111-2.4.212-4.808.344-7.211.021-.38-.2-1.028.519-.971.556.044.371.607.389.959.124,2.4.224,4.808.332,7.212,1.929.175,3.857-.032,5.786-.022a1.377,1.377,0,0,1,.487.178c.061.062.121.125.182.187q0,.3,0,.6c.212.287.161.507-.165.658a.7.7,0,0,1-.367-.167c-.1-.089-.2-.179-.3-.265a38.354,38.354,0,0,0-4.945-.131.875.875,0,0,0-.233.206,1.936,1.936,0,0,0-.136.457,2.411,2.411,0,0,0,.031.684,1.972,1.972,0,0,1,.054.583,1.182,1.182,0,0,1-.149.394c-.393.834.092,1.766-.294,2.6-.01.321.047.663-.277.886-.684-.77-.359-1.693-.383-2.562,0-.1.025-.186-.011-.257a.534.534,0,0,0-.055.089c.14,2.16-.437,4.28-.2,6.424a3.677,3.677,0,0,1,.063,1.412,2.523,2.523,0,0,1-.115.46c-.359,1.011.365,2.249-.65,3.124A.474.474,0,0,1,2661.922,331.589Z" transform="translate(-287.782 -190.235)" fill="#3f3779"/><path d="M2400.839,395.939a9.154,9.154,0,0,1,1.311.059c1.546.285,2.49-.174,2.488-1.9.077,2.148.077,2.148-2.068,2.148l-3.815,0a14.72,14.72,0,0,1-.13-3.791c.046-3.763-.194-7.529.129-11.288h0a.339.339,0,0,1,.466.119,1.641,1.641,0,0,1,.21.495c.2,3.88.074,7.765.071,11.648A2.338,2.338,0,0,0,2400.839,395.939Z" transform="translate(-64.529 -252.231)" fill="#464081"/><path d="M2666.362,409.768c-.278,1.166.288,2.31.089,3.474a5.31,5.31,0,0,1-.054,2.431l-.882-.006a2.5,2.5,0,0,1-.3-2.114c.376-1.147-.052-2.353.255-3.506l.073.022c.357-1.109-.2-2.212-.023-3.32.374-.743-.29-1.736.57-2.362.324.666.082,1.375.155,2.06A19.755,19.755,0,0,0,2666.362,409.768Z" transform="translate(-290.483 -271.956)" fill="#f1f2f6"/><path d="M2443.9,414.075a1.059,1.059,0,0,1-.879.009,5.047,5.047,0,0,1-.259-1.805,27.933,27.933,0,0,0,.133-3.427c.573-1.2.11-2.437.133-3.657a10.115,10.115,0,0,0,.148-1.973c0-.312-.075-.707.45-.691.244,1.056.057,2.149.273,3.208.037,1.129-.442,2.277.12,3.388.129,1.134-.16,2.3.242,3.413A3.5,3.5,0,0,1,2443.9,414.075Z" transform="translate(-101.988 -270.382)" fill="#edeef3"/><path d="M2452.385,368.014a.661.661,0,0,1-.082-1.071,9.38,9.38,0,0,1,5.941.063l.125.27a.245.245,0,0,1,0,.318c-.574.7-1.356.312-2.038.352C2455.017,368.024,2453.7,368,2452.385,368.014Z" transform="translate(-109.883 -239.831)" fill="#f2aa25"/><path d="M2629.267,367.016q.019.492.037.984-2.687-.009-5.373-.018c-.75,0-1.157-.206-.6-1A9.27,9.27,0,0,1,2629.267,367.016Z" transform="translate(-254.849 -239.849)" fill="#f2aa25"/><path d="M2715.793,243.564c.478.437.286,1.013.288,1.53q.02,8.253.009,16.505l-.3.292-.03-.018a1.523,1.523,0,0,1-.375-1.085c.025-5.581-.141-11.163.084-16.744A1.053,1.053,0,0,1,2715.793,243.564Z" transform="translate(-333.078 -135.621)" fill="#3e2d74"/><path d="M2621.293,243.564v18.321a3.523,3.523,0,0,1-.287-2.008q-.023-7.389,0-14.779c0-.519-.191-1.1.287-1.535Z" transform="translate(-253.066 -135.621)" fill="#3e3074"/><path d="M2494.956,243.564h.294V261.52h-.294Z" transform="translate(-146.241 -135.62)" fill="#3e3074"/><path d="M2704.373,395.81l0-.3a2.4,2.4,0,0,0,1.021-2.3q-.04-4.653,0-9.306a2.4,2.4,0,0,0-1.024-2.294l-.012,0a.355.355,0,0,1,.153-.476,1.4,1.4,0,0,1,1.812.3c.246,4.563.079,9.129.089,13.694a1.113,1.113,0,0,1-.266.673Z" transform="translate(-323.73 -252.087)" fill="#63e3e7"/><path d="M2398.133,381.434q0,7.539,0,15.079c-.363-.289-.294-.7-.294-1.083q0-6.456,0-12.913C2397.84,382.133,2397.771,381.723,2398.133,381.434Z" transform="translate(-63.909 -252.498)" fill="#3e3374"/><path d="M2637.585,239.543q0,.154,0,.307a1.276,1.276,0,0,1-.542.123c-3.974-.26-7.953-.081-11.93-.14a2.507,2.507,0,0,1-1.7-.285l-.307-.005h0l.3-.3a2.07,2.07,0,0,1,1.657-.416q5.439-.019,10.878,0a2.068,2.068,0,0,1,1.657.416Q2637.584,239.4,2637.585,239.543Z" transform="translate(-254.87 -131.601)" fill="#3f3273"/><ellipse cx="0.078" cy="9.941" rx="0.078" ry="9.941" transform="translate(2367.988 126.416)" fill="#3e3074"/><path d="M2495.538,383.787v14.047h-.146V383.74Z" transform="translate(-146.611 -254.453)" fill="#3d3074"/><path d="M2717.175,381.526c.389.273.311.687.311,1.07q.005,6.309,0,12.618c0,.384.069.794-.3,1.082a19.505,19.505,0,0,1-.126-4.373C2717.091,388.456,2716.892,384.988,2717.175,381.526Z" transform="translate(-334.478 -252.576)" fill="#3e2e74"/><path d="M2716.007,380.978q.008,7.385.016,14.769l-.146.005-.146,0q-.008-7.236-.016-14.472a.252.252,0,0,1-.085-.226c.014-.081.032-.122.052-.122a.231.231,0,0,1,.333.052Z" transform="translate(-333.31 -252.027)" fill="#4b6e9c"/><path d="M2637.588,221.778q0,.148,0,.3l-.2.193a1.61,1.61,0,0,1-.527.181c-4.431.037-8.864.153-13.3-.057a1.018,1.018,0,0,1-.459-.313l0-.3a2.229,2.229,0,0,1,1.663-.419q5.581-.012,11.162,0A2.23,2.23,0,0,1,2637.588,221.778Z" transform="translate(-254.873 -116.792)" fill="#393679"/><path d="M2637.588,220.8H2623.1c0-.1,0-.195,0-.292a1.355,1.355,0,0,1,.5-.254q6.746-.109,13.491,0a1.34,1.34,0,0,1,.5.255Q2637.587,220.651,2637.588,220.8Z" transform="translate(-254.873 -115.81)" fill="#403174"/><path d="M2639.227,237.588h-14.192c0-.088.006-.176.01-.264.064-.068.128-.136.191-.2a2.3,2.3,0,0,1,1.275-.24c4,.013,7.993-.062,11.99.036a1.53,1.53,0,0,1,.528.18l.2.2C2639.228,237.393,2639.228,237.49,2639.227,237.588Z" transform="translate(-256.513 -129.942)" fill="#34357b"/><path d="M2625.084,243.434c4.129,0,8.257-.01,12.386,0,.525,0,1.089-.154,1.561.238l-.182.21a2.2,2.2,0,0,1-1.885,0c-3.481-.022-6.961,0-10.442-.015a2.861,2.861,0,0,1-1.443-.131Q2625.082,243.583,2625.084,243.434Z" transform="translate(-256.551 -135.486)" fill="#4e70a8"/><path d="M2624.94,245.552l12.12.02.1.141-.115.127h-12.1A.389.389,0,0,1,2624.94,245.552Z" transform="translate(-256.412 -137.306)" fill="#65c3ec"/><path d="M2623.411,164.118l-.308.009q.015-5.217.03-10.435c.493,1.837.14,3.71.223,5.565.064,1.424.042,2.852.058,4.278a.49.49,0,0,1,.156.292A.5.5,0,0,1,2623.411,164.118Z" transform="translate(-254.875 -59.434)" fill="#413e7f"/><path d="M2615.275,157.449a9.773,9.773,0,0,1-.047-5A9.773,9.773,0,0,1,2615.275,157.449Z" transform="translate(-247.944 -58.381)" fill="#64c2eb"/><path d="M2450.345,241.528l-.142-.011-.142.008a.322.322,0,0,1,.039-.457,1.284,1.284,0,0,1,.471-.221c1.538-.132,3.079-.044,4.619-.06a1.789,1.789,0,0,1,1.343.414l-.01,0q0,.148.006.3A31.657,31.657,0,0,1,2450.345,241.528Z" transform="translate(-108.117 -133.256)" fill="#4e70a8"/><path d="M2452.359,245.578l6.183-.027a.39.39,0,0,1-.006.288C2456.48,245.692,2454.4,246.151,2452.359,245.578Z" transform="translate(-110.13 -137.306)" fill="#64c3ec"/><path d="M2631.234,361.945q.006.167.011.335a13.756,13.756,0,0,1-6.208,0l0-.3A14.619,14.619,0,0,1,2631.234,361.945Z" transform="translate(-256.515 -235.707)" fill="#3f2e6f"/><path d="M2452.232,362.279l.011-.335a14.63,14.63,0,0,1,6.2.031l0,.3A13.759,13.759,0,0,1,2452.232,362.279Z" transform="translate(-110.023 -235.707)" fill="#3f2e6f"/><path d="M2400.138,377.3l-.338-.028q0-.148,0-.295a1.016,1.016,0,0,1,.438-.306,19.363,19.363,0,0,1,5.58.117l.191.19q0,.145,0,.29A13.861,13.861,0,0,1,2400.138,377.3Z" transform="translate(-65.575 -248.34)" fill="#3f3272"/><path d="M2683.652,377.139l-.3.015a21.042,21.042,0,0,1-5.7.129l-.2-.191c0-.089,0-.177,0-.266,1.875-.835,3.823-.326,5.745-.312a1.183,1.183,0,0,1,.463.312C2683.658,376.931,2683.655,377.035,2683.652,377.139Z" transform="translate(-300.947 -248.187)" fill="#3f3072"/><path d="M2630.951,377.365a1.438,1.438,0,0,1,.108.213c0,.014-.07.054-.107.083a9.04,9.04,0,0,1-5.914,0C2626.981,377.008,2628.985,377.563,2630.951,377.365Z" transform="translate(-256.516 -249.02)" fill="#332f7e"/><path d="M2458.5,361.336l-6.2-.031.041-.3a1.79,1.79,0,0,0,.27,0,28.907,28.907,0,0,1,5.88.032Q2458.5,361.188,2458.5,361.336Z" transform="translate(-110.084 -235.068)" fill="#517cb2"/><path d="M2453.572,377.66a1.374,1.374,0,0,1-.106-.212c0-.014.07-.054.108-.082,1.966.2,3.969-.358,5.912.294A9.039,9.039,0,0,1,2453.572,377.66Z" transform="translate(-111.068 -249.02)" fill="#332f7e"/><path d="M2631.246,361.305l-6.2.03q0-.148.006-.3a28.9,28.9,0,0,1,5.88-.032,1.84,1.84,0,0,0,.268,0Z" transform="translate(-256.527 -235.068)" fill="#517cb2"/><path d="M2452.232,365.9h6.208c-.009.124-.018.247-.028.371a37.832,37.832,0,0,1-5.832-.048Z" transform="translate(-110.023 -239.329)" fill="#312e80"/><path d="M2625.037,365.9h6.208l-.349.322a38.028,38.028,0,0,1-5.833.049Q2625.05,366.086,2625.037,365.9Z" transform="translate(-256.515 -239.329)" fill="#312e80"/><path d="M2625.058,380.754q0-.148-.006-.295a25.227,25.227,0,0,1,5.916-.016l-.009.011a.258.258,0,0,1-.158.417A42.329,42.329,0,0,1,2625.058,380.754Z" transform="translate(-256.528 -251.517)" fill="#5588bc"/><path d="M2624.833,368.072l5.834-.049a.46.46,0,0,1,.037.273l-5.937-.029A.527.527,0,0,0,2624.833,368.072Z" transform="translate(-256.285 -241.129)" fill="#d09633"/><path d="M2460.218,360.143l-5.88-.032c1.937-.582,3.92-.1,5.875-.255A.379.379,0,0,1,2460.218,360.143Z" transform="translate(-111.808 -234.171)" fill="#65c5ee"/><path d="M2630.824,360.111l-5.88.032a.38.38,0,0,1,0-.287C2626.9,360.015,2628.887,359.529,2630.824,360.111Z" transform="translate(-256.414 -234.171)" fill="#65c5ee"/><path d="M2459.788,381.734l-5.912,0a.292.292,0,0,1,.171-.437,14.962,14.962,0,0,1,5.743.147A.384.384,0,0,1,2459.788,381.734Z" transform="translate(-111.381 -252.208)" fill="#64c3ed"/><path d="M2624.938,383.322l5.917-.016a.194.194,0,0,1,.066.205c-.023.068-.046.1-.069.1l-5.912,0A.383.383,0,0,1,2624.938,383.322Z" transform="translate(-256.408 -254.085)" fill="#64c3ed"/><path d="M2454.146,379.488h5.914l0,.3a24.775,24.775,0,0,1-5.916-.015Q2454.144,379.631,2454.146,379.488Z" transform="translate(-111.642 -250.847)" fill="#3f3172"/><path d="M2630.957,379.773l-5.916.016c0-.1,0-.2,0-.3h5.914C2630.953,379.583,2630.955,379.678,2630.957,379.773Z" transform="translate(-256.517 -250.847)" fill="#3f3172"/><path d="M2453.754,368.024l5.832.048a1.506,1.506,0,0,1-.03.234l-5.94-.063A1.568,1.568,0,0,0,2453.754,368.024Z" transform="translate(-111.196 -241.13)" fill="#d09633"/><path d="M2453.7,381.373l5.916.015c0,.1,0,.2-.006.3l-5.916-.016a.17.17,0,0,1-.06-.194c.027-.06.052-.091.077-.091Z" transform="translate(-111.203 -252.446)" fill="#5588bc"/><path d="M2449.615,445.651q-.049-1.725-.1-3.449c-.1-.218-.133-.426.1-.591.69,1.105-.2,2.454.547,3.55a1.705,1.705,0,0,1,0,1.477h-.3C2449.612,446.352,2449.786,445.958,2449.615,445.651Z" transform="translate(-107.655 -303.512)" fill="#453f80"/><path d="M2663.483,441.561l-.01,3.5c-.292.582.132,1.272-.279,1.835l-.262,0a3.211,3.211,0,0,1,0-2.068C2663.668,443.829,2662.8,442.564,2663.483,441.561Z" transform="translate(-288.495 -303.469)" fill="#433f80"/><path d="M2669.826,388.841l-.057-1.99a3.456,3.456,0,0,1,0-2.967c.009-.048,0-.114.03-.142a.95.95,0,0,1,.191-.115l.094,3.507q-.024.917-.048,1.833Q2669.847,389.05,2669.826,388.841Z" transform="translate(-294.154 -254.358)" fill="#484180"/><path d="M2441.512,440.256l-.1,3.447c-.167.31.005.7-.248.993-.689-.982.354-1.974-.018-2.958.126-.686-.211-1.431.27-2.071C2441.648,439.831,2441.614,440.038,2441.512,440.256Z" transform="translate(-100.437 -301.864)" fill="#464081"/><path d="M2460.428,480.937h4.632v.145h-4.6Z" transform="translate(-116.971 -336.85)" fill="#3e3074"/><path d="M2627.5,480.98h4.627v.146h-4.632Z" transform="translate(-258.594 -336.886)" fill="#3e3074"/><path d="M2438.908,419.806q.014,2.252.028,4.5l-.264,0A17.381,17.381,0,0,1,2438.908,419.806Z" transform="translate(-98.503 -285.027)" fill="#464081"/><path d="M2671.461,417.866q.105.065.213.126,0,1.6-.007,3.2A7.058,7.058,0,0,1,2671.461,417.866Z" transform="translate(-295.789 -283.382)" fill="#c2c1d5"/><path d="M2675.339,384.222c.132-.992-.311-2.039.292-2.985l0,.032a.479.479,0,0,1,.169.294.467.467,0,0,1-.165.295l-.045,2.369Z" transform="translate(-299.128 -252.331)" fill="#424082"/><path d="M2715.122,369.647h-.295a1.08,1.08,0,0,1-.228-.321,1.2,1.2,0,0,1-.033-.4.542.542,0,0,1,.33-.461l.23-.588C2715.684,368.47,2715.38,369.058,2715.122,369.647Z" transform="translate(-332.408 -241.007)" fill="#37317d"/><path d="M2398.214,371.322l-.3,0-.3-.3c.16-.375-.353-.923.3-1.171a1.544,1.544,0,0,1,.451.786,1.1,1.1,0,0,1,.033.369A.656.656,0,0,1,2398.214,371.322Z" transform="translate(-63.693 -242.684)" fill="#37317d"/><path d="M2454.156,464.759q0-.738,0-1.477l.3-.3.035,1.114c-.02.286.061.646-.082.841C2454.192,465.234,2454.214,464.871,2454.156,464.759Z" transform="translate(-111.654 -321.632)" fill="#3f3174"/><path d="M2662.029,462.986q0,1.034,0,2.068c-.657-.128-.084-.686-.334-.957q.017-.556.035-1.111Z" transform="translate(-287.593 -321.632)" fill="#3f3174"/><path d="M2673.579,464.972q.027-1.216.054-2.431C2673.8,463.355,2674.138,464.174,2673.579,464.972Z" transform="translate(-297.666 -321.255)" fill="#c2c1d5"/><path d="M2665.611,466.374q.14-.918.279-1.835.026,1.06.052,2.121Z" transform="translate(-290.911 -322.949)" fill="#c2c1d5"/><path d="M2622.146,226.089l.3.014a1.014,1.014,0,0,1,.219.285,1.6,1.6,0,0,1,.076.354,5.282,5.282,0,0,1,0,.725,1.417,1.417,0,0,1-.073.356,1.019,1.019,0,0,1-.225.282l0,.079a1.024,1.024,0,0,0-.285-.031,3.011,3.011,0,0,1-.017-2.069Z" transform="translate(-253.917 -120.803)" fill="#6f4177"/><path d="M2621.151,226.084q.008,1.035.017,2.069A1.659,1.659,0,0,1,2621.151,226.084Z" transform="translate(-252.921 -120.803)" fill="#353479"/><path d="M2493.429,370.238q0-.159,0-.318l.438-.31a1.126,1.126,0,0,1,0,.94Z" transform="translate(-144.947 -242.474)" fill="#36307c"/><path d="M2442.509,467.169q.124-.5.248-.993.026.931.052,1.863C2442.366,467.867,2442.656,467.443,2442.509,467.169Z" transform="translate(-101.78 -324.336)" fill="#d8d8e5"/><path d="M2450.3,468.144l.247.989c-.093.192.019.493-.3.566Q2450.277,468.921,2450.3,468.144Z" transform="translate(-108.343 -326.005)" fill="#d8d8e5"/><path d="M2397.984,113.41c.19.885-.468,2.186.29,2.59.829.441,1.625-.742,2.471-1.147.174-.083.331-.2.5-.3a.537.537,0,0,1,.166.349,11.188,11.188,0,0,1,.087,3.672c-.092.358-.015.791-.451,1-1.269.35-2.569.068-3.844.2a2.036,2.036,0,0,1-.4.024c-.22.12-.342-.577-.616-.074a.173.173,0,0,1-.224-.165l-.652-2.589A2.785,2.785,0,0,1,2397.984,113.41Z" transform="translate(-61.709 -25.285)" fill="#62bbe6"/><path d="M2363.353,141.393c-1.369-.391-1.656-1.073-1.08-2.482,1-2.439,1.71-4.993,2.576-7.488.152-.439.146-.983.69-1.33.413.827,1.063,1.523.977,2.528a5.928,5.928,0,0,1-.1.84c-.659,2.079-1.358,4.144-2.051,6.212A3.11,3.11,0,0,1,2363.353,141.393Z" transform="translate(-33.523 -39.428)" fill="#6275e5"/><path d="M2352.862,210.274c1.865.492,1.864.5,1.125,2.2-.762,1.76-1.594,3.5-2.242,5.3-.39,1.082-.893,1.286-1.821.725-.407-.434-.243-.919-.092-1.38.625-1.9,1.243-3.81,1.9-5.7C2351.924,210.882,2352.074,210.246,2352.862,210.274Z" transform="translate(-23.076 -107.399)" fill="#62b9e5"/><path d="M2345.587,206.515c-.717.444-.718,1.25-.94,1.928a57.173,57.173,0,0,0-2,6.3c-1.569-.247-1.908-.978-1.234-2.47.7-1.547,1.125-3.217,1.672-4.832C2343.745,205.5,2343.746,205.5,2345.587,206.515Z" transform="translate(-15.801 -103.641)" fill="#6276e5"/><path d="M2370.929,158.5c1.026-2.723,1.719-5.563,2.912-8.226.782.84.565,1.888.592,2.881.022.819,0,1.638.014,2.457-.183.5-.352,1-.552,1.486C2373.031,159.221,2373.027,159.219,2370.929,158.5Z" transform="translate(-41.1 -56.539)" fill="#62bae5"/><path d="M2405.987,117.69l.316-.345c.572.559.411,1.286.416,1.957.029,4.582-.019,9.163.03,13.745a.946.946,0,0,1-.115.548,1.692,1.692,0,0,1-1.5.415c-1.774-.167-3.61.471-5.329-.4q0-.146,0-.291a2.443,2.443,0,0,1,.406-.28c1.662-.383,3.379.141,5.036-.312a1.16,1.16,0,0,0,.27-.4c.175-4.224.02-8.445.081-12.665C2405.6,118.982,2405.456,118.264,2405.987,117.69Z" transform="translate(-65.575 -28.621)" fill="#403273"/><path d="M2400,367.918c-.419-.2-.209-.586-.252-.9a.785.785,0,0,1,.245-.038,9.279,9.279,0,0,1,5.937.033l.116.277a.584.584,0,0,1-.194.754A17.2,17.2,0,0,1,2400,367.918Z" transform="translate(-65.514 -239.847)" fill="#f2aa25"/><path d="M2398.022,261.611c-.455.072-.288-.284-.288-.464q-.013-8.316-.006-16.632a1.043,1.043,0,0,1,.294-.94,1.089,1.089,0,0,1,.319.483c.228,5.492.065,10.988.083,16.482A1.361,1.361,0,0,1,2398.022,261.611Z" transform="translate(-63.798 -135.63)" fill="#3e3374"/><path d="M2398.155,221.325c1.816,0,3.632.008,5.448-.006.473,0,1,.146,1.372-.314a.922.922,0,0,1,.769-.167c1.7.145,3.4.031,5.1.07a2.434,2.434,0,0,1,1.8.417q0,.148,0,.3a.241.241,0,0,1-.111.4,1.465,1.465,0,0,1-.514.037c-3.915-.05-7.83-.01-11.745-.019a2.069,2.069,0,0,0-1,.142c-.4.236-.437.64-.462,1.047a2.158,2.158,0,0,1-.07.412,1.1,1.1,0,0,1-.208.366.3.3,0,0,1-.377-.023l-.3-.592a1.61,1.61,0,0,0,0-1.478Z" transform="translate(-63.929 -116.339)" fill="#393479"/><path d="M2399.793,263.219V245.474a.489.489,0,0,1,.482.229,2.749,2.749,0,0,1,.231,1.432c0,5.046.029,10.092-.013,15.138a1.461,1.461,0,0,1-.235.8l-.215.183C2399.96,263.243,2399.877,263.229,2399.793,263.219Z" transform="translate(-65.569 -137.238)" fill="#4b4c9d"/><path d="M2393.538,109.64a3.781,3.781,0,0,0-2.674,3.558c-.857-1.106-1.468-2.2.106-3.229.685-.309,1.362-.636,2.055-.923S2393.536,109.294,2393.538,109.64Z" transform="translate(-57.263 -21.515)" fill="#6177e4"/><path d="M2390.661,152.579c-.607-.873-.241-1.858-.284-2.788a9.415,9.415,0,0,0-.322-2.551.549.549,0,0,1,.251-.546A9.95,9.95,0,0,1,2390.661,152.579Z" transform="translate(-57.313 -53.502)" fill="#63bce7"/><path d="M2400.168,164.168l-.363.04q.013-5.211.026-10.422a1.425,1.425,0,0,0,.225.155,1.394,1.394,0,0,1,.449,1.2c-.013,2.845.108,5.691-.065,8.536A1.506,1.506,0,0,1,2400.168,164.168Z" transform="translate(-65.579 -59.514)" fill="#403d7e"/><path d="M2400.074,239.683q-.141,0-.282.008,0-.146,0-.292v-.3h.3a1.929,1.929,0,0,1,1.525-.411c1.907.1,3.833-.277,5.725.229a.356.356,0,0,1,.145.486l.013.006a1.209,1.209,0,0,1-.4.217.889.889,0,0,1-.459-.05.877.877,0,0,0-.469.031c-1.947.2-3.9-.046-5.849.126Z" transform="translate(-65.568 -131.455)" fill="#413379"/><path d="M2407.927,361.858c0,.113.009.226.013.34a13.738,13.738,0,0,1-6.208,0q0-.14,0-.279a1.59,1.59,0,0,1,1.827-.186A11.042,11.042,0,0,1,2407.927,361.858Z" transform="translate(-67.211 -235.625)" fill="#3f2f6f"/><path d="M2401.737,365.9l6.208,0-.351.323a37.148,37.148,0,0,1-5.834.042Z" transform="translate(-67.217 -239.326)" fill="#312e80"/><path d="M2401.5,368.074l5.834-.042a.49.49,0,0,1,.034.273l-5.937-.033A.534.534,0,0,0,2401.5,368.074Z" transform="translate(-66.961 -241.137)" fill="#d09633"/><path d="M2403.271,360.323l-1.789.031a1.618,1.618,0,0,0-.044-.269l.048-.045a1.284,1.284,0,0,1,1.771.006l0,.026q.15.074.108.161C2403.333,360.293,2403.3,360.323,2403.271,360.323Z" transform="translate(-66.963 -234.063)" fill="#4b4c9d"/><path d="M2397.859,228.031a1,1,0,0,1,0,1.478Q2397.859,228.77,2397.859,228.031Z" transform="translate(-63.929 -122.453)" fill="#373779"/><path d="M2499.193,132.513a7.827,7.827,0,0,1,1.712-3.559c1.189,3.482,2.324,6.8,3.445,10.121.054.161.034.5-.046.53-1.193.508-2.235,1.507-3.692,1.183a3.923,3.923,0,0,1-1.3-3.113A15.164,15.164,0,0,0,2499.193,132.513Z" transform="translate(-149.833 -38.463)" fill="#62bbe6"/><path d="M2512.466,207.126c.8-1.23,2.238-1.174,3.414-1.616.39-.147.43.449.534.747.649,1.856,1.189,3.756,1.943,5.568.594,1.43.521,2.363-1.168,2.708-.68.772-1.463.8-1.873-.12C2514.252,212.033,2512.921,209.747,2512.466,207.126Z" transform="translate(-161.085 -103.342)" fill="#62bae5"/><path d="M2567.75,215.057c-2.64-1.194-2.641-1.195-1.663-4.058.522-1.528,1.093-3.042,1.548-4.59.217-.739.575-.823,1.141-.506.919.516,2.108.5,2.817,1.427-.458,2.608-1.83,4.864-2.821,7.267C2568.608,214.99,2568.3,215.38,2567.75,215.057Z" transform="translate(-206.032 -103.547)" fill="#62bae5"/><path d="M2457.916,110.631c.861-.024,1.391.639,2.061,1.006.776.426,1.193.321,1.172-.657-.017-.811,0-1.624,0-2.563l2,.8c.274.194.539.4.824.58.781.488,1.006,1.01.415,1.875a5.781,5.781,0,0,0-1.2,3.629.655.655,0,0,1-.376.308c-1.531-.145-3.081.06-4.6-.232-.886-.981-.729-2.15-.518-3.293a2.356,2.356,0,0,0,.141-1.276C2457.853,110.75,2457.885,110.691,2457.916,110.631Z" transform="translate(-114.503 -21.053)" fill="#62bbe6"/><path d="M2509.036,216.251c.953,2.148,1.976,4.269,2.829,6.457.4,1.026.842,1.464,1.894.95l.586.566a.743.743,0,0,1-.121.084c-2.217.971-2.228.975-3.127-1.181s-1.786-4.349-2.677-6.525C2508.49,216.248,2509.189,217,2509.036,216.251Z" transform="translate(-157.655 -112.467)" fill="#40387b"/><path d="M2577.1,223.977c.721-.058.728-.7.935-1.164.975-2.184,1.939-4.374,2.907-6.562-.152.746.546,0,.617.351-1.061,2.57-2.134,5.135-3.178,7.712-.507,1.251-1.2.514-1.864.219Z" transform="translate(-215.381 -112.467)" fill="#40387b"/><path d="M2455.5,133.609c-1.9,0-3.795.009-5.692-.006-.471,0-.982.145-1.392-.242.015-.084.029-.168.043-.254a3.768,3.768,0,0,0,.094-.517c.054-4.431,0-8.86.031-13.289,0-.67-.159-1.4.415-1.954l.31.33a2.7,2.7,0,0,1,.4,1.968c.05,4.223-.08,8.448.074,12.667a1.148,1.148,0,0,0,.268.394c1.657.494,3.381-.06,5.043.328a2.5,2.5,0,0,1,.407.283Q2455.5,133.463,2455.5,133.609Z" transform="translate(-106.788 -28.623)" fill="#403273"/><path d="M2409.133,237.6l-7.391,0q0-.147,0-.293a1.708,1.708,0,0,1,1.223-.411c3.872-.018,7.745-.032,11.617.009a1.659,1.659,0,0,1,.844.221l.2.211q.007.132.01.264A30.2,30.2,0,0,1,2409.133,237.6Z" transform="translate(-67.221 -129.952)" fill="#34357a"/><path d="M2490.637,164.078l-.369-.042a1.564,1.564,0,0,1-.255-.462,4.485,4.485,0,0,1-.1-.524c-.029-2.938-.144-5.877.119-8.812a1.2,1.2,0,0,1,.307-.442l.261-.163Q2490.619,158.855,2490.637,164.078Z" transform="translate(-141.925 -59.385)" fill="#403e7f"/><path d="M2499.084,152.33c.153.1.436.2.439.309.041,1.625.389,3.265-.188,4.866l-.03.228-.091-.212A42.4,42.4,0,0,1,2499.084,152.33Z" transform="translate(-149.724 -58.279)" fill="#64c2eb"/><path d="M2497.07,186.333l.12-.016,1.169,3.1-.554.583-.347-.575-.278-.89C2496.47,187.835,2496.225,187.111,2497.07,186.333Z" transform="translate(-147.579 -87.091)" fill="#40387b"/><path d="M2450.284,241.62l6.5,0v.3l-6.5.005Z" transform="translate(-108.371 -133.971)" fill="#3e2c70"/><path d="M2496.849,202.89q0,1.463,0,2.926A3.8,3.8,0,0,1,2496.849,202.89Z" transform="translate(-147.598 -101.141)" fill="#40387b"/><path d="M2492.911,226.391q0-.15,0-.3a1.659,1.659,0,0,1-.02,2.064A1.277,1.277,0,0,1,2492.911,226.391Z" transform="translate(-144.2 -120.809)" fill="#353479"/><path d="M2491.612,227.834q-.009.882-.018,1.764a1.189,1.189,0,0,0-.286.036l0-.077a.9.9,0,0,1-.217-.28,1.585,1.585,0,0,1-.072-.352,2.923,2.923,0,0,1,.034-.721.954.954,0,0,1,.151-.329l.163-.082Q2491.491,227.819,2491.612,227.834Z" transform="translate(-142.901 -122.252)" fill="#6f4177"/><path d="M2401.546,134.691q-.045-4.983-.091-9.965l.21-.412.14.354c.63.626.208,1.525.579,2.218a1.242,1.242,0,0,1,.124.7,21.427,21.427,0,0,0-.245,5.261.959.959,0,0,0,1.082,1.086c.2,0,.391.011.587.015,2.416.053,2.434.034,2.441-2.424,0-1.517,0-3.034-.059-4.552.13-2.354.646-4.694.209-7.063q-.007-.171-.015-.343a.462.462,0,0,1,.6-.21,10.7,10.7,0,0,1,.132,3.2c-.052,4.051.188,8.106-.12,12.154l.005-.005A22.619,22.619,0,0,1,2401.546,134.691Z" transform="translate(-66.978 -30.299)" fill="#63bfe9"/><path d="M2419.507,96.832c0-1.14,0-2.246,0-3.351,0-.766.621-.961,1.168-1.114.614-.172.662.449.847.8C2422.677,95.365,2422.492,95.7,2419.507,96.832Z" transform="translate(-82.28 -7.421)" fill="#9b9b9c"/><path d="M2460.284,97.076c-.569-.336-.9-.526-1.23-.728-1.764-1.086-1.881-1.934-.564-3.623a.61.61,0,0,1,.86-.233c.51.23.954.476.939,1.151C2460.267,94.707,2460.284,95.771,2460.284,97.076Z" transform="translate(-114.575 -7.477)" fill="#9a9a9c"/><path d="M2439.013,89.793c.487.248,1.22-.335,1.491.47a1.7,1.7,0,1,1-2.98,0C2437.792,89.457,2438.527,90.041,2439.013,89.793Z" transform="translate(-97.545 -5.265)" fill="#6e6e6f"/><path d="M2460.688,134.538q-.024.147-.049.295a23.064,23.064,0,0,1-5.583.016l.007.007c-.3-2.974-.1-5.956-.112-8.934a42.75,42.75,0,0,1,.127-6.431c.375-.023.514.229.614.527l-.029.057c-.34,4.153.454,8.288.194,12.44-.071,1.132.436,1.557,1.56,1.563C2458.515,134.082,2459.687,133.771,2460.688,134.538Z" transform="translate(-112.279 -30.439)" fill="#62bbe6"/><path d="M2444.167,131.723l-.583-.072v.024c-.265-.35-.157-.757-.158-1.139q-.011-6.99,0-13.98a1.761,1.761,0,0,1,.154-1.141l.307.019a2.7,2.7,0,0,1,.391,1.974c.024,4.576-.021,9.152.027,13.728a.859.859,0,0,1-.152.532Z" transform="translate(-102.539 -26.985)" fill="#856357"/><path d="M2442.664,115.415q0,8.13,0,16.26c-.5-.424-.3-1-.305-1.52-.015-4.816-.01-9.631-.01-14.447Z" transform="translate(-101.624 -26.985)" fill="#332f7e"/><path d="M2447.306,131.665q.007-.146,0-.292a9.894,9.894,0,0,1-.13-3.052c.043-4.3-.164-8.6.105-12.892l.311-.017a2.52,2.52,0,0,1,.148,1.438q.017,6.7,0,13.4c0,.475.161.984-.172,1.424l-.132-.007Z" transform="translate(-105.693 -26.983)" fill="#7b5d5c"/><path d="M2450.045,131.672q.013-8.13.025-16.26l.308.295c0,4.819.005,9.638-.01,14.456C2450.366,130.675,2450.576,131.261,2450.045,131.672Z" transform="translate(-108.169 -26.983)" fill="#342f7d"/><path d="M2446.548,115.393q.012,7.972.024,15.944c-.454-.253-.285-.694-.286-1.056q-.005-7.443.017-14.886A.314.314,0,0,1,2446.548,115.393Z" transform="translate(-104.957 -26.946)" fill="#feb71b"/><path d="M2438.633,134.782q-.006-7.676-.013-15.352a.382.382,0,0,1,.275.01c-.012,4.6-.018,9.2-.046,13.794C2438.846,133.751,2439.036,134.314,2438.633,134.782Z" transform="translate(-98.484 -30.372)" fill="#62bae5"/><path d="M2454.547,119.359q-.008,7.682-.015,15.365c-.413-.466-.218-1.031-.221-1.548-.028-4.6-.033-9.21-.045-13.814A.389.389,0,0,1,2454.547,119.359Z" transform="translate(-111.747 -30.308)" fill="#62bae5"/><path d="M2735.814,210.13c.383-.943,1.4-.675,2.066-1.083a.965.965,0,0,1,.5.524,64.315,64.315,0,0,1,2.471,7.711c-1.194.866-1.783.469-2.283-.853C2737.756,214.288,2736.742,212.225,2735.814,210.13Z" transform="translate(-350.424 -106.36)" fill="#62bae5"/><path d="M2752.349,214.611c-1.075-1.51-1.27-3.358-1.924-5.03-.409-1.045-.7-2.135-1.045-3.205.856-.479,1.716-.975,2.072.525.633,1.935,1.178,3.9,1.931,5.791C2753.87,213.914,2753.658,214.488,2752.349,214.611Z" transform="translate(-361.924 -103.689)" fill="#62dfe5"/><path d="M2726.421,130.789a16.307,16.307,0,0,0,1.153,3.321,33.369,33.369,0,0,0,1.656,5.113c.591,1.778.615,1.771-1.316,2.272a5.082,5.082,0,0,1-1.046-2.376c-.739-2.171-1.511-4.333-2.115-6.548.282-.6.567-1.2.845-1.8C2725.888,130.146,2726.153,130.462,2726.421,130.789Z" transform="translate(-341.047 -39.7)" fill="#62dfe5"/><path d="M2722.86,144.577a4.954,4.954,0,0,1,1.2,2.629,48.269,48.269,0,0,1,1.963,6.3c-.672.3-1.238,1.015-2.106.531l-1.109-3.062c-.239-1.73.255-3.5-.286-5.212Z" transform="translate(-339.154 -51.707)" fill="#62bae5"/><path d="M2689.187,104.846c-1.225-2.548-3.68-3.508-6-4.645a1.1,1.1,0,0,1-.2-.171l.341-.2c1.61.26,2.873,1.347,4.383,1.844l1.828,1.07C2690.476,103.622,2689.392,104.161,2689.187,104.846Z" transform="translate(-305.639 -13.775)" fill="#62dee4"/><path d="M2715.648,164.209l-.3-.008a.488.488,0,0,1-.163-.3.46.46,0,0,1,.168-.291c.015-2.7.024-5.4.05-8.1a3.044,3.044,0,0,1,.223-1.725Q2715.636,159,2715.648,164.209Z" transform="translate(-332.935 -59.514)" fill="#403e7f"/><path d="M2722.356,152.336c.252.055.505.176.5.448-.048,1.589.292,3.2-.211,4.764C2722.026,155.839,2722.535,154.069,2722.356,152.336Z" transform="translate(-338.99 -58.284)" fill="#64c2ec"/><path d="M2716.062,226.09a1.715,1.715,0,0,1,0,2.071v0a1.562,1.562,0,0,1,0-2.069Z" transform="translate(-333.347 -120.808)" fill="#373379"/><path d="M2664.65,95.962l-2.629.021A3.17,3.17,0,0,1,2664.65,95.962Z" transform="translate(-287.867 -10.261)" fill="#434282"/><path d="M2704.556,263.95q0-8.575,0-17.15h.018c1.689-.26,1.759-.211,1.767,1.481.025,5.016-.032,10.031.03,15.045a3.549,3.549,0,0,1,.078.535c-.488.587-1.1.377-1.7.262Z" transform="translate(-323.926 -138.267)" fill="#62e0e6"/><path d="M2682,361.4c-1.753.012-3.506.027-5.259.032-.331,0-.7.064-.883-.336a1.736,1.736,0,0,0,.274.008,32.188,32.188,0,0,1,3.931-.1c.6.008,1.2-.018,1.793.018A.231.231,0,0,1,2682,361.4Z" transform="translate(-299.599 -235.164)" fill="#517cb2"/><path d="M2681.773,360.185l-4.115-.018c1.339-.522,2.733-.13,4.1-.252h.021q.142.091.094.18C2681.837,360.155,2681.806,360.185,2681.773,360.185Z" transform="translate(-301.123 -234.232)" fill="#65c6ee"/><path d="M2403.525,263.653l-1.771-.005q.013-.3.026-.606a41.91,41.91,0,0,0,.114-5.7c.035-3.375,0-6.751.015-10.127.006-1.332.19-1.43,1.607-1.005Z" transform="translate(-67.231 -137.67)" fill="#6276e6"/><path d="M2403.424,244.839c-1.149-.176-1.512.282-1.5,1.461.065,4.611.033,9.223.018,13.834,0,.518.186,1.089-.259,1.541q-.021-8.571-.042-17.142l.025.009a2.245,2.245,0,0,1,1.8.031Q2403.446,244.706,2403.424,244.839Z" transform="translate(-67.139 -136.304)" fill="#6479e9"/><path d="M2403.6,243.723l-1.8-.031c2.132-.615,4.311-.143,6.464-.279q.127.108.082.212t-.088.1l-.14-.009-.14.009a15.894,15.894,0,0,1-4.1,0l-.142-.014Z" transform="translate(-67.276 -135.454)" fill="#4e6fa8"/><path d="M2445.431,243.563h.3a23.43,23.43,0,0,1,.034,5.4c-.118.191-.241.193-.368.009A23.809,23.809,0,0,1,2445.431,243.563Z" transform="translate(-104.111 -135.62)" fill="#3d3175"/><path d="M2448.379,248.963q-.017-2.7-.034-5.4l.312.014c.005.1.01.209.015.313C2448.468,245.575,2448.963,247.3,2448.379,248.963Z" transform="translate(-106.728 -135.62)" fill="#403d7e"/><path d="M2444.512,243.564l-.037,5.408c-.59-1.664-.094-3.39-.294-5.077,0-.105,0-.211.006-.316Z" transform="translate(-103.192 -135.621)" fill="#403d7e"/><path d="M2413.38,361.36a1.9,1.9,0,0,1-.018-.252l.32-.058a13.832,13.832,0,0,1,3.794-.015,2.094,2.094,0,0,0,.262,0l.049.3Z" transform="translate(-77.071 -235.1)" fill="#517bb2"/><path d="M2415.475,245.742h4.1A6.954,6.954,0,0,1,2415.475,245.742Z" transform="translate(-78.863 -137.467)" fill="#65c3ec"/><path d="M2419.258,360.011l-3.794.015A5.874,5.874,0,0,1,2419.258,360.011Z" transform="translate(-78.853 -234.076)" fill="#65c5ee"/><path d="M2631.143,139.585a3.051,3.051,0,0,1-.028-4.492,1.972,1.972,0,0,1,1.259-.269q3.94-.007,7.881,0a2,2,0,0,1,1.261.266.949.949,0,0,1,.6.564c.007.712-.038,1.423-.048,2.135-.006.474,0,1.008-.723.962a.578.578,0,0,1-.293-.381c-.08-2.224-.081-2.255-2.344-2.219a60.15,60.15,0,0,0-7,.137,1.631,1.631,0,0,0-.535.26,1.808,1.808,0,0,0-.135,1.61c.08.24.172.476.248.718a1.218,1.218,0,0,1,.042.381c-.018.062-.037.123-.055.185Z" transform="translate(-260.844 -43.436)" fill="#3e2d71"/><path d="M2638.865,218.321v.294a63.217,63.217,0,0,1-7.75.127,35.992,35.992,0,0,1-6.132-.134.4.4,0,0,1,0-.286Z" transform="translate(-256.449 -114.222)" fill="#65c2ec"/><path d="M2636.776,133.348c.157-.1.313-.3.471-.3q4.69-.027,9.38,0c.158,0,.315.192.473.294A100.858,100.858,0,0,1,2636.776,133.348Z" transform="translate(-266.466 -41.924)" fill="#64c1ea"/><path d="M2636.567,135.058l10.324,0a2.03,2.03,0,0,0,.039.233l-10.4,0A2.155,2.155,0,0,0,2636.567,135.058Z" transform="translate(-266.258 -43.635)" fill="#4d69a2"/><path d="M2647.1,164.972c-.157.1-.314.294-.472.3q-4.69.026-9.381,0c-.158,0-.314-.193-.471-.3A28.623,28.623,0,0,1,2647.1,164.972Z" transform="translate(-266.463 -68.598)" fill="#65c4ee"/><path d="M2646.944,163.764l-10.325,0a1.757,1.757,0,0,0-.009-.224l-.018-.118a1.7,1.7,0,0,1,.962-.314c2.836-.03,5.672-.052,8.509.013a1.488,1.488,0,0,1,.7.206l.2.208A2.281,2.281,0,0,0,2646.944,163.764Z" transform="translate(-266.31 -67.39)" fill="#4f75ac"/><path d="M2701.8,143.318c.712-.134.56-.7.566-1.167a3.265,3.265,0,0,1,.332-1.854.606.606,0,0,1,.24.653,3.5,3.5,0,0,0,0,2.053c.041.638-.368.958-.861,1.219l-.015-.121a1.01,1.01,0,0,1-.342-.133.634.634,0,0,1-.109-.347c.018-.059.035-.119.053-.178Z" transform="translate(-321.425 -48.078)" fill="#343378"/><path d="M2708.6,146.639a1.852,1.852,0,0,1,0-2.053Q2708.6,145.612,2708.6,146.639Z" transform="translate(-327.087 -51.714)" fill="#3e2d71"/><path d="M2454.235,427.845c-.539-1.377-.165-2.8-.231-4.208A15.356,15.356,0,0,1,2454.235,427.845Z" transform="translate(-111.47 -288.275)" fill="#453f80"/><path d="M2452.164,381.438a.867.867,0,0,0-.017.285q0,.153,0,.306-.01,1.621-.02,3.243A5.437,5.437,0,0,1,2452.164,381.438Z" transform="translate(-109.653 -252.501)" fill="#453f80"/><path d="M2662.231,421.791c-.089,1.5.33,3.018-.237,4.488A17.331,17.331,0,0,1,2662.231,421.791Z" transform="translate(-287.821 -286.71)" fill="#433f80"/><path d="M2663.856,382.028l0-.307a.865.865,0,0,0-.016-.285,4.811,4.811,0,0,1,.041,3.536Q2663.87,383.5,2663.856,382.028Z" transform="translate(-289.412 -252.5)" fill="#443f80"/><path d="M2704.648,385.124c1.124-.165,1.532.247,1.507,1.444q-.114,5.5,0,11.006c.024,1.193-.377,1.613-1.5,1.447Q2704.649,392.072,2704.648,385.124Z" transform="translate(-324.004 -255.596)" fill="#62e0e6"/><path d="M2677.458,382.672l-.007-.3a11.831,11.831,0,0,1,4.141.013q0,.145-.012.29Z" transform="translate(-300.947 -253.146)" fill="#65c4ed"/><path d="M2403.183,396.908c-1.383.3-1.888-.173-1.85-1.662.111-4.275.068-8.555.085-12.832a2.489,2.489,0,0,1,1.789.03Q2403.2,389.676,2403.183,396.908Z" transform="translate(-66.873 -253.2)" fill="#6174e2"/><path d="M2403.681,381.709l-1.789-.03a.909.909,0,0,1,.017-.251l5.873-.033-.011.007a.25.25,0,0,1-.125.413,19.812,19.812,0,0,1-3.692-.1C2403.864,381.713,2403.772,381.709,2403.681,381.709Z" transform="translate(-67.346 -252.466)" fill="#5588bc"/><path d="M2415.448,383.386l3.828-.026a.176.176,0,0,1,.07.2c-.026.065-.052.1-.077.1C2418,383.5,2416.686,383.982,2415.448,383.386Z" transform="translate(-78.84 -254.131)" fill="#65c3ed"/><path d="M2440.52,382.034q0-.149.008-.3a.873.873,0,0,0-.011-.292,3.448,3.448,0,0,1,.05,2.942Q2440.544,383.21,2440.52,382.034Z" transform="translate(-100.092 -252.507)" fill="#464081"/><path d="M2443.223,385.9c-.61.782-.276,1.686-.33,2.54-.227.4.045.9-.255,1.279a.977.977,0,0,1-.272-1.078,25.583,25.583,0,0,0,.286-5.244c.012-.241-.088-.677.391-.533.117.035.129.421.189.645A4.064,4.064,0,0,1,2443.223,385.9Z" transform="translate(-101.616 -253.682)" fill="#464081"/><path d="M2448.28,389.646l.01-2.391a23.208,23.208,0,0,1,.306,6.8c-.311-.386-.041-.888-.258-1.292Q2448.308,391.2,2448.28,389.646Z" transform="translate(-106.673 -257.432)" fill="#453f80"/><path d="M2444.2,420.918l.255-1.278c0,1.216.293,2.449-.2,3.639l-.095-.589Q2444.181,421.8,2444.2,420.918Z" transform="translate(-103.18 -284.886)" fill="#d8d8e5"/><path d="M2448.185,423.434l.258,1.292q.017.738.033,1.475-.048.3-.1.591A7.855,7.855,0,0,1,2448.185,423.434Z" transform="translate(-106.52 -288.103)" fill="#d8d8e5"/><path d="M2439.554,371.744l.139-.592c.165-.058.393-.189.457.055a.906.906,0,0,1-.551,1.141v0a.5.5,0,0,1-.176-.287A.608.608,0,0,1,2439.554,371.744Z" transform="translate(-99.165 -243.707)" fill="#342f7c"/><path d="M2715.277,263.207a2.167,2.167,0,0,0,0-.282q-.144-.075-.106-.167c.026-.064.054-.1.083-.1l0-.321c-.228-4.475-.058-8.954-.089-13.431a17.085,17.085,0,0,1,.1-3.673l.093-.077a.825.825,0,0,0,.229.064l-.024,18A2.045,2.045,0,0,1,2715.277,263.207Z" transform="translate(-332.874 -136.975)" fill="#4b6f9d"/><path d="M2681.841,368.1l-.069.588c-1.808.617-3.662.207-5.5.234-.49.007-.52-.51-.707-.832l.209-.336a13.226,13.226,0,0,1,5.942.06Z" transform="translate(-299.353 -240.642)" fill="#f2aa25"/><path d="M2666.294,385.316q0,1.483,0,2.967c-.643.685-.218,1.53-.344,2.292-.285.584.135,1.274-.276,1.84a2.2,2.2,0,0,1-.192-1.985,19.449,19.449,0,0,0,.227-3.964C2665.732,386,2665.567,385.427,2666.294,385.316Z" transform="translate(-290.675 -255.789)" fill="#443f80"/><path d="M2675.568,371.676a1.3,1.3,0,0,0,1.347.626c1.618-.039,3.237-.023,4.855-.029l.005.314a25.405,25.405,0,0,1-6.208-.06Z" transform="translate(-299.352 -244.226)" fill="#7e5e5b"/><path d="M2675.568,377.274l6.208.06c0,.092,0,.184-.006.276l-5.913,0Z" transform="translate(-299.352 -248.971)" fill="#332f7f"/><path d="M2677.694,365.922l-.025-.253c1.955.051,3.939-.468,5.859.292A36.545,36.545,0,0,1,2677.694,365.922Z" transform="translate(-301.133 -239.027)" fill="#312e80"/><path d="M2677.081,368.03l5.834.039a1.242,1.242,0,0,1-.028.24l-5.941-.06A1.4,1.4,0,0,0,2677.081,368.03Z" transform="translate(-300.52 -241.135)" fill="#d09633"/><path d="M2667.546,421.69q.138-.92.276-1.839a7.052,7.052,0,0,1-.21,3.328Q2667.579,422.435,2667.546,421.69Z" transform="translate(-292.551 -285.065)" fill="#c2c1d5"/><path d="M2681.542,381.749l-4.141-.013a1,1,0,0,1,0-.291l5.895.03a1.564,1.564,0,0,1,0,.281Z" transform="translate(-300.898 -252.507)" fill="#5589bc"/><path d="M2625.086,226.422q0-.152-.007-.3l13.886-.016a.31.31,0,0,1-.105.46,3.526,3.526,0,0,1-1.894.256c-3.35,0-6.7.007-10.05-.005A2.511,2.511,0,0,1,2625.086,226.422Z" transform="translate(-256.551 -120.818)" fill="#7e4577"/><path d="M2714.371,226.373a1.965,1.965,0,0,0-.009-.281l.3,0q0,1.034,0,2.069l-.146,0-.146,0a2.021,2.021,0,0,1-.27-.408A1.343,1.343,0,0,1,2714.371,226.373Z" transform="translate(-331.948 -120.808)" fill="#42397c"/><path d="M2625.121,220.205l13.882.007a.842.842,0,0,1-.006.294l-13.875,0C2625.122,220.4,2625.122,220.3,2625.121,220.205Z" transform="translate(-256.586 -115.819)" fill="#568cbf"/><path d="M2638.973,235.273a.985.985,0,0,1-.006.277l-13.893-.048q.007-.142.024-.281a2.48,2.48,0,0,1,1.823-.383c3.383-.013,6.767,0,10.15-.009A2.337,2.337,0,0,1,2638.973,235.273Z" transform="translate(-256.546 -128.198)" fill="#a34e77"/><path d="M2706.4,245.668q-.005,8.552-.012,17.1c-.425-.46-.243-1.028-.245-1.548-.014-4.61-.048-9.222.019-13.831.018-1.189-.365-1.624-1.5-1.454q-.005-.135,0-.27Z" transform="translate(-324.01 -137.405)" fill="#64e6e9"/><path d="M2407.63,376.6q.014.181.028.362h-5.913q.017-.193.035-.387A55.325,55.325,0,0,1,2407.63,376.6Z" transform="translate(-67.223 -248.321)" fill="#332f7e"/><path d="M2407.411,375.768l-5.851-.025a.631.631,0,0,0-.074-.181l5.906-.033A.98.98,0,0,1,2407.411,375.768Z" transform="translate(-67.004 -247.492)" fill="#d09633"/><path d="M2625.309,229.9q0-.447,0-.895a62.678,62.678,0,0,1,7.183-.13c1.617-.027,3.237-.08,4.854.043a.716.716,0,0,1,.042,1.038C2633.36,230.052,2629.333,230.16,2625.309,229.9Z" transform="translate(-256.744 -123.131)" fill="#f16175"/><path d="M2625.169,235.785l12.066-.008q.116.092.079.187c-.025.063-.051.095-.076.095l-12.082-.016A.429.429,0,0,1,2625.169,235.785Z" transform="translate(-256.605 -129.02)" fill="#fe6574"/><path d="M2637.2,228.475l-12.068,0a.61.61,0,0,1-.028-.266l12.1.007q.107.091.068.178T2637.2,228.475Z" transform="translate(-256.565 -122.601)" fill="#f96374"/><path d="M2431.251,123.176a19.458,19.458,0,0,1,.055,7.131l-.189-.141a3.1,3.1,0,0,1-.164-2.072.964.964,0,0,1,.253-.393c-.369-.769.246-1.536.026-2.279-.145-.489.551-1.228-.534-1.519C2430.379,123.817,2431.177,123.525,2431.251,123.176Z" transform="translate(-91.705 -33.565)" fill="#62bae5"/><path d="M2409.7,152.184c-.01.069-.021.137-.034.205-1.3.732-2.669.388-4.025.28a.824.824,0,0,1-.386-.339A12.6,12.6,0,0,1,2409.7,152.184Z" transform="translate(-70.202 -58.048)" fill="#403a7b"/><path d="M2403.945,156.34c-.515-.753-.134-1.6-.266-2.4a1.285,1.285,0,0,1,.229-.086l.068.072a2.261,2.261,0,0,1,.26,2.044A.782.782,0,0,1,2403.945,156.34Z" transform="translate(-68.852 -59.572)" fill="#403a7b"/><path d="M2402.019,220.244l5.586.014c-1.836.509-3.714.089-5.566.249A.608.608,0,0,1,2402.019,220.244Z" transform="translate(-67.451 -115.852)" fill="#62bae5"/><path d="M2401.705,226.382c.25-.313.605-.274.945-.274q6.023,0,12.047,0a1.269,1.269,0,0,1,.964.257l-.093.066a2.431,2.431,0,0,1-1.818.387c-3.381.014-6.762,0-10.143.009A2.342,2.342,0,0,1,2401.705,226.382Z" transform="translate(-67.19 -120.82)" fill="#7e4577"/><path d="M2415.536,235.241q.017.141.025.283l-13.89.048a.98.98,0,0,1-.008-.275,2.343,2.343,0,0,1,1.895-.448c3.385.009,6.771-.006,10.155.009A2.484,2.484,0,0,1,2415.536,235.241Z" transform="translate(-67.148 -128.219)" fill="#a34e77"/><path d="M2403.506,229.395l-1.809.044q0-.758,0-1.517l1.8.053a1.008,1.008,0,0,1,.22,1.094A1.58,1.58,0,0,1,2403.506,229.395Z" transform="translate(-67.183 -122.361)" fill="#f03075"/><path d="M2463.354,137.8c-1.423,0-2.846-.011-4.269,0-.613.006-1.051-.106-1.048-.868.016-4.367.01-8.734.029-13.1,0-.166.171-.331.262-.5.176.346,1.186.4.29,1.127-.577.47-.3,1.3-.234,1.953a2.578,2.578,0,0,1-.012,1.415.9.9,0,0,1,.323.762,1.689,1.689,0,0,0,1.469,2.014c.529.734.292,1.582.35,2.367.353-.762-.276-1.757.612-2.361a.316.316,0,0,1,.3.275c0,.912.028,1.824-.011,2.732.051-.906.007-1.817.031-2.724.1-.542.714-.5.977-.861.474-.523-.061-1.577.952-1.816Z" transform="translate(-114.944 -33.699)" fill="#62bae5"/><path d="M2461.436,155.057c-1.971-.092-1.971-.092-1.749-2.87,1.669-.03,3.357-.383,4.988.28l.02.108c-.75.59.007,1.572-.573,2.207-.541.368-1.277-.183-1.777.376.006.772.029,1.545.013,2.317-.009.435.124,1.023-.668.891C2461.359,157.283,2461.811,156.138,2461.436,155.057Z" transform="translate(-116.26 -58.056)" fill="#3f387b"/><path d="M2455.967,220.272l5.583-.016a.619.619,0,0,1-.017.257C2459.68,220.363,2457.8,220.77,2455.967,220.272Z" transform="translate(-113.189 -115.862)" fill="#62bae5"/><path d="M2413.556,229.836q0-.444,0-.889a51.124,51.124,0,0,1,6.915-.125,27.928,27.928,0,0,1,5.142.123q0,.447,0,.895c-3.631.322-7.269.053-10.9.134A1.892,1.892,0,0,1,2413.556,229.836Z" transform="translate(-77.235 -123.075)" fill="#f16075"/><path d="M2425.553,228.487l-12.057,0a1.073,1.073,0,0,1,0-.258l12.063-.007A.419.419,0,0,1,2425.553,228.487Z" transform="translate(-77.176 -122.617)" fill="#f96374"/><path d="M2413.511,235.8l12.054,0a.426.426,0,0,1,.013.257l-12.065.012A.928.928,0,0,1,2413.511,235.8Z" transform="translate(-77.19 -129.044)" fill="#fe6574"/><path d="M2407.913,169.093c.507,2.228.14,4.485.215,6.727.014.411-.265.6-.667.615-.147,0-.294.007-.441.014-3.893.192-3.938.191-3.864-3.751.021-1.1-.551-2.369.56-3.31a.678.678,0,0,1,.92-.091,12.958,12.958,0,0,1,.114,2.73c.015-.843-.012-1.687.023-2.529a.325.325,0,0,1,.35-.226c.9.77.149,1.94.671,2.793a.624.624,0,0,0,.248.119c.02-.975-.292-1.97.257-2.889a1.468,1.468,0,0,1,1.568-.233Z" transform="translate(-68.311 -72.35)" fill="#62bae5"/><path d="M2407.25,167.951l-.13-.012h-.13a.186.186,0,0,1-.285-.054l-.893,0-.312-.27.026-.1C2406.222,167.181,2406.941,166.752,2407.25,167.951Z" transform="translate(-70.407 -70.85)" fill="#454d8c"/><path d="M2706.4,360.079a.488.488,0,0,1,.023.262l-1.752,0c0-.09,0-.18,0-.27Z" transform="translate(-324.021 -234.39)" fill="#64eeee"/><path d="M2634.987,141.165c1.682-.517,3.405-.14,5.107-.227,1.125-.058,2.256-.014,3.384-.01,1.837.006,2.256.713,1.545,2.6a2.611,2.611,0,0,1-1.828.406c-2.608.036-5.218-.064-7.825.059a.857.857,0,0,1-.506-.194A2.984,2.984,0,0,1,2634.987,141.165Z" transform="translate(-264.638 -48.578)" fill="#fd6474"/><path d="M2646.66,161.046l.283.2c-3.45.159-6.9.145-10.351.008a1.66,1.66,0,0,0,.015-.212A24.531,24.531,0,0,1,2646.66,161.046Z" transform="translate(-266.31 -65.227)" fill="#3f2c70"/><path d="M2646.746,160.364h-10.052q0-.135,0-.27l.236-.156a44.577,44.577,0,0,1,9.8.108Z" transform="translate(-266.397 -64.546)" fill="#32357b"/><path d="M2638.637,158.076c1.124-.523,2.312-.2,3.466-.232,2.107-.055,4.218-.008,6.326,0a.922.922,0,0,0-.014.294l-.053-.035A53.3,53.3,0,0,1,2638.637,158.076Z" transform="translate(-268.044 -62.894)" fill="#fe6574"/><path d="M2634.164,142.718q0,1.3,0,2.6.122.117.066.213c-.035.061-.069.092-.1.092l-.008.059a.727.727,0,0,1-.308-.623,3.394,3.394,0,0,1,0-2.056Z" transform="translate(-263.815 -50.131)" fill="#553c78"/><path d="M2632.81,144.582v2.056A1.73,1.73,0,0,1,2632.81,144.582Z" transform="translate(-262.818 -51.711)" fill="#32357b"/><path d="M2636.777,160.066l.034-.3a.536.536,0,0,0,.249,0l9.726.023c.008.1.015.2.023.3Z" transform="translate(-266.467 -64.576)" fill="#9d4c76"/><path d="M2704.559,228.258a2.374,2.374,0,0,0,.007-.264l1.786-.046q0,.754,0,1.509l-1.793-.036a2.252,2.252,0,0,0,0-.281Q2704.559,228.7,2704.559,228.258Z" transform="translate(-323.928 -122.384)" fill="#f08575"/><path d="M2407.394,157c-.425-.737-1.165-.228-1.724-.435q0-1.156.006-2.312l4.343-.013q.043,1.185.087,2.371c-.448.334-.99.21-1.487.305a1.268,1.268,0,0,0-.244.366c-.222.932.251,1.951-.354,2.835-.544.082-.644-.249-.64-.684C2407.386,158.623,2407.389,157.812,2407.394,157Z" transform="translate(-70.551 -59.899)" fill="#40397a"/><path d="M2479.732,171.448v2.9h-.287v-2.85Q2479.553,171.251,2479.732,171.448Z" transform="translate(-133.092 -74.412)" fill="#63c2ec"/><path d="M2471.6,171.7c.6,1.064.167,2.207.253,3.31C2471.334,173.943,2471.752,172.8,2471.6,171.7Z" transform="translate(-126.429 -74.702)" fill="#454e8c"/><path d="M2478.24,169.965l-.288.046-.135-.008-.133.028c.466-.724,1.18-.271,1.777-.376C2479.135,170.076,2478.642,169.843,2478.24,169.965Z" transform="translate(-131.599 -72.928)" fill="#454e8c"/><path d="M2467.389,157.7c.565.22,1.491-.3,1.4.682-.094.959-1,.48-1.543.5-.479.022-1.384.364-1.3-.6C2466.03,157.258,2467.008,158.081,2467.389,157.7Z" transform="translate(-121.64 -62.831)" fill="#e55e74"/><path d="M2422.141,171.7l.308.017c-.021,1.069-.04,2.138-.065,3.206,0,.021-.075.057-.113.055a.4.4,0,0,1-.132-.06A8.434,8.434,0,0,1,2422.141,171.7Z" transform="translate(-84.381 -74.701)" fill="#63c0ea"/><path d="M2421.219,171.7q0,1.61,0,3.219l-.144.02-.144-.021C2421.085,173.852,2420.607,172.727,2421.219,171.7Z" transform="translate(-83.459 -74.701)" fill="#454d8c"/><path d="M2413.411,171.934l.285.054v2.838l-.285,0Z" transform="translate(-77.113 -74.898)" fill="#64c3ec"/><path d="M2643.854,148.327c-.663-.139-.466-.546-.3-.945a41.524,41.524,0,0,1,7.962.087.537.537,0,0,1-.282.859A47.038,47.038,0,0,1,2643.854,148.327Z" transform="translate(-272.075 -53.959)" fill="#393478"/><path d="M2652.445,146.414l-7.962-.087A20.958,20.958,0,0,1,2652.445,146.414Z" transform="translate(-273 -52.903)" fill="#e05c74"/><path d="M2646.422,154.415l7.385,0A21.029,21.029,0,0,1,2646.422,154.415Z" transform="translate(-274.644 -60.047)" fill="#e05c74"/><path d="M2411.441,158.934c-.556-.218-1.469.309-1.416-.651.056-1,.983-.507,1.511-.527.473-.018,1.374-.4,1.333.553C2412.823,159.361,2411.834,158.583,2411.441,158.934Z" transform="translate(-74.241 -62.792)" fill="#e55e74"/></g></g></g></svg>