<svg xmlns="http://www.w3.org/2000/svg" xmlns:xlink="http://www.w3.org/1999/xlink" width="130.935" height="130.94" viewBox="0 0 130.935 130.94"><defs><clipPath id="a"><path d="M279.694,128.988a48.8,48.8,0,1,1-48.8-48.805A48.8,48.8,0,0,1,279.694,128.988Z" transform="translate(207.526 48.943)" fill="#fff"/></clipPath></defs><g transform="translate(-574.597 -1856.877)"><path d="M321.62,199.579A65.468,65.468,0,1,1,256.154,134.1,65.467,65.467,0,0,1,321.62,199.579Z" transform="translate(383.912 1722.772)" fill="#47b5ab"/><path d="M295.231,189.852a48.8,48.8,0,1,1-48.8-48.807A48.8,48.8,0,0,1,295.231,189.852Z" transform="translate(393.637 1732.5)" fill="#fff"/><g transform="translate(201.648 1744.417)" clip-path="url(#a)"><g transform="translate(-1311.26 146.605)"><path d="M1890.022,42.258a13.877,13.877,0,0,0-.175,3.263c-.7,1.265-.5,2.648-.516,4-.025,1.969-.2,2.162-2.114,2.165q-7.464.013-14.928,0c-1.788,0-2-.221-2.011-2.02-.015-3.531-.035-7.062.013-10.592a3.62,3.62,0,0,0-1.175-2.878c-2.055-1.972-4.046-4.012-6.055-6.032a3.012,3.012,0,0,1-1.023-1.452c0-.478.068-.956.044-1.437a1.9,1.9,0,0,1,3.176-.477c1.171,1.032,2.222,2.193,3.336,3.287a5.6,5.6,0,0,0,.8.722c.56.37.9.175,1.051-.433a5.373,5.373,0,0,0,.079-1.315q0-6.665,0-13.329a9.793,9.793,0,0,1,.051-1.439,1.886,1.886,0,0,1,1.9-1.792c.977.012,1.527.559,1.751,1.741-.233,2.775-.084,5.555-.08,8.328.2.343.557.551.769.924.158-.4.487-.616.6-.977.2-3.011.031-6.02.083-9.026.014-.843-.019-1.686.022-2.529.453-1.412,1.459-1.995,2.587-1.457.457.218,1,.477.583,1.167-.181,3.2-.029,6.4-.08,9.6-.016.986.038,1.973-.015,2.958.058-4.175-.04-8.352.068-12.527.411-.278.47.106.556.329a3.918,3.918,0,0,1,.137,1.427q.007,4.807,0,9.613a6.958,6.958,0,0,0,.044,1.2c.044.256.01.625.422.593.286-.022.338-.3.385-.538a6.106,6.106,0,0,0,.069-1.2c0-2.243,0-4.486,0-6.729a4.832,4.832,0,0,1,.156-1.548,1.754,1.754,0,0,1,1.894-1.346c.906.07,1.627.455,1.663,1.527a1.238,1.238,0,0,1-.132.408,1.157,1.157,0,0,0-.184.565c0,3.288-.112,6.576.057,9.857a.929.929,0,0,0,.444.295c.887.246.917-.372.931-.95.038-1.593-.033-3.187.043-4.778.02-.413-.212-1.12.655-1.077a34.771,34.771,0,0,1,.121,5.673c.076-1.664.017-3.311.031-4.957a1.147,1.147,0,0,0-.2-.9.466.466,0,0,1-.174-.358,1.549,1.549,0,0,1,1.812-1.208,1.938,1.938,0,0,1,1.7,1.483,5.121,5.121,0,0,1,.14,1.667q.005,6.54,0,13.079a4.437,4.437,0,0,0,.523,2.42q0,1.621-.005,3.242C1889.127,39.785,1888.875,41.053,1890.022,42.258Z" transform="translate(-109.334 -4.357)" fill="#feb555"/><path d="M1758.031,47.1c.651,1.51-.09,2.524-1.212,3.4a5.188,5.188,0,0,0-2.337,1.59c-1.481,1.521-3,3.008-4.5,4.509a3.167,3.167,0,0,0-.962,1.357c-.14,3.926-.015,7.849-.064,11.771a2.6,2.6,0,0,1-.3,1.738,2.375,2.375,0,0,1-1.511.264q-7.522.012-15.044,0c-1.714,0-1.955-.226-1.958-1.947q-.023-15.162,0-30.323a3.914,3.914,0,0,1,.15-1.309,2.007,2.007,0,0,1,1.749-1.451,1.524,1.524,0,0,1,1.766,1.11.9.9,0,0,1-.236.576,45.387,45.387,0,0,0-.123,5.839,44.253,44.253,0,0,1,.128-5.751c.854-.1.649.6.668.994.077,1.6.008,3.206.042,4.809.013.6.076,1.185.942.948a.862.862,0,0,0,.438-.3c.161-3.319.067-6.633.043-9.948a1,1,0,0,0-.155-.451,1.192,1.192,0,0,1-.15-.4c.016-1.072.727-1.469,1.635-1.548a1.754,1.754,0,0,1,1.911,1.319,5.024,5.024,0,0,1,.165,1.665c.007,2.361-.018,4.722.018,7.082.007.475-.156,1.27.517,1.255.537-.012.373-.787.376-1.233.026-3.481-.013-6.962.037-10.443.007-.524-.338-1.331.649-1.478.155,4.188.022,8.375.08,12.562-.07-4.185.1-8.37-.082-12.555-.409-.686.116-.949.581-1.17a1.969,1.969,0,0,1,2.677,1.3,5.106,5.106,0,0,1,.193,1.781c.007,3.043-.02,6.086.02,9.128.007.569-.153,1.483.987,1,.069-.1.175-.2.175-.311.011-2.705.167-5.412-.089-8.115.132-1.148.684-1.732,1.686-1.784a1.856,1.856,0,0,1,1.95,1.6,7.6,7.6,0,0,1,.082,1.56q0,6.56,0,13.119c0,.361-.013.723.012,1.083.028.395-.024.865.388,1.076.5.256.822-.175,1.128-.466,1.018-.967,1.993-1.979,2.99-2.968C1755.144,45.941,1756,45.851,1758.031,47.1Z" transform="translate(-9.235 -19.611)" fill="#feb555"/><path d="M1736.594,26.068c-.35.419-.2.92-.205,1.385-.012,3.722-.006,7.444-.006,11.166,0,.644.084,1.425-.84,1.42-.9-.005-.853-.771-.853-1.424,0-2.882.006-5.763,0-8.644a1.514,1.514,0,0,0-1.478-1.705,1.4,1.4,0,0,0-1.674,1.431,1.416,1.416,0,0,1,.246,1.021q.006,4.492,0,8.983c0,.351.058.732-.285.99-.284.406-.591.788-1.17.591s-.549-.711-.566-1.194c-.073-2.111.16-4.229-.124-6.336-.079-.031-.111-.07-.1-.118s.036-.079.058-.079a1.4,1.4,0,0,0-1.824-1.1,1.6,1.6,0,0,0-1.291,1.78c.007,3.171,0,6.342,0,9.512,0,7.345.017,14.691-.022,22.035,0,.9.223,1.133,1.126,1.125,5.3-.045,10.6-.02,15.9-.027.356,0,.712-.063,1.068-.1a2.051,2.051,0,0,0,.121-1.169c.009-3.87,0-7.739.009-11.609a3.106,3.106,0,0,1,.081-1.184c2.168-2.181,4.344-4.354,6.5-6.55a1.22,1.22,0,0,1,1.495-.368,1.041,1.041,0,0,1-.2,1.48c-2.023,1.967-4.026,3.955-6.037,5.935-.832.134-.638.781-.639,1.31q-.008,8.659,0,17.319c0-6.109,0-12.218,0-18.412.6.228.469.555.469.806q.013,9.381.006,18.762a.864.864,0,0,1-.108.46c-.142.6-.634.527-1.061.527-6.379.006-12.759,0-19.138.014-.931,0-1.268-.365-1.267-1.293.019-12.917,0-25.834.023-38.751a3.261,3.261,0,0,1,4.153-3.25c.486.109.763.26.819-.48.238-3.128,1.8-4.241,4.848-3.482a4.278,4.278,0,0,1,.856-2.315,3.2,3.2,0,0,1,3.366-1.07,3.077,3.077,0,0,1,2.405,2.563c.108.564.124.877.927.667a3.213,3.213,0,0,1,4.09,3.3c.031,4.647.009,9.295.009,14.237,1.11-1.1,2.043-2.043,3-2.961a3.366,3.366,0,0,1,4.382-.46c.647.474.93,1,.3,1.694a1.281,1.281,0,0,1-1.224-.252,1.667,1.667,0,0,0-2.364.292q-1.947,1.959-3.9,3.91c-.367.367-.72.82-1.328.577s-.553-.81-.553-1.333q0-7.686.005-15.372a1.848,1.848,0,0,0-.915-1.927c-1.006-.5-1.938.036-2.253,1.3a59.939,59.939,0,0,1-.036,8.623c-.289.392-.575.805-1.164.6s-.564-.707-.564-1.2q0-5.349,0-10.7c0-.925-.287-1.7-1.282-1.906a1.372,1.372,0,0,0-1.8.958Z" transform="translate(-5.17 -15.018)" fill="#010000"/><path d="M1870.453,18.769c-.683.678-1.209.438-1.652-.283a15.541,15.541,0,0,1-.126-3.768,34.1,34.1,0,0,1,.088-4.857,1.42,1.42,0,0,0-1.706-1.413c-1.055.1-1.458.841-1.457,1.864q.012,7.464,0,14.928c0,.281-.006.562,0,.843.011.466-.06.9-.542,1.106s-.834-.062-1.163-.395c-1.356-1.367-2.7-2.744-4.089-4.082-1.056-1.02-2.059-.853-2.807.4a1.647,1.647,0,0,1-.031.957c0,.605.495.891.849,1.248,2.233,2.248,4.455,4.508,6.736,6.706a2.883,2.883,0,0,1,.938,2.322c-.047,3.849.005,7.7-.038,11.55-.01.859.159,1.174,1.107,1.165q8.061-.074,16.124,0c.863.007,1.094-.25,1.045-1.076-.069-1.159.01-2.326-.027-3.488-.022-.7.181-1.172.9-1.335a1.153,1.153,0,0,1,.808,1.292c-.023,3.522-.03,7.045,0,10.567.009.962-.418,1.25-1.31,1.248-6.326-.017-12.651-.006-18.977-.015-.453,0-1,.135-1.18-.525a1.71,1.71,0,0,1-.105-.941q-.007-8.96.005-17.92c0-.364-.176-.8.467-1.282,0,6.3,0,12.4,0,18.495q.005-8.643,0-17.287c0-.529.192-1.176-.638-1.311-2.562-2.538-5.16-5.04-7.67-7.628a3.21,3.21,0,0,1,.145-4.555,3.247,3.247,0,0,1,4.472-.111c1.056.969,1.981,2.08,2.981,3.147a1.259,1.259,0,0,0,.3-1.181c.014-4.213,0-8.426.013-12.639.007-2.774,1.615-4.124,4.333-3.591.559.11.55-.117.647-.5.482-1.9,1.64-2.883,3.326-2.863,1.665.02,2.777.983,3.234,2.961.129.559.3.461.7.371,2.428-.552,4.17.793,4.265,3.326.026.7.031.973.908.744a3.213,3.213,0,0,1,4.053,3.112c.046,5.216.012,10.432.026,15.649a1.042,1.042,0,0,1-.792,1.173c-.937-.137-.91-.826-.908-1.535.009-4.913-.005-9.826.012-14.739,0-.915-.176-1.733-1.132-2.014a1.425,1.425,0,0,0-2,1.105c.059.053.074.1.044.133a.106.106,0,0,1-.078.048c-.268,2.11-.046,4.23-.116,6.344-.016.483.024,1-.56,1.2s-.888-.176-1.175-.583c-.342-.259-.283-.64-.284-.991q-.014-4.492,0-8.984a1.422,1.422,0,0,1,.245-1.022,1.394,1.394,0,0,0-1.67-1.434,1.515,1.515,0,0,0-1.482,1.7q-.016,4.38,0,8.761c0,.537.016,1.146-.616,1.278-1,.21-1.083-.514-1.082-1.258q.007-5.64,0-11.281c0-.465.139-.967-.209-1.385v0a1.339,1.339,0,0,0-1.523-.986,1.357,1.357,0,0,0-1.4,1.163c-.212,3.282-.026,6.568-.1,9.851A8.214,8.214,0,0,1,1870.453,18.769Z" transform="translate(-104.092 0)" fill="#010101"/><path d="M1890.592,127.485c1.074-.3.743.557.745.994.023,5.134.015,10.267.015,15.4v3.568h-.224V128.013h-.266v19.719c-.307-.392-.155-.85-.156-1.274-.012-5.847-.005-11.695-.012-17.542C1890.692,128.439,1890.627,127.962,1890.592,127.485Z" transform="translate(-131.004 -94.001)" fill="#040404"/><path d="M1812.176,167.718V148.007l-.231,0v19.572a.9.9,0,0,1-.256-.824q-.006-9.144.012-18.288c0-.437-.33-1.291.745-.992-.035.477-.1.954-.1,1.43-.007,5.847,0,11.694-.013,17.541C1812.331,166.868,1812.483,167.326,1812.176,167.718Z" transform="translate(-71.096 -109.17)" fill="#040404"/><path d="M1974.59,134.157c-.813.013-1.187-.433-1.051-1.187.162-.894-.637-2.143.883-2.574A2.668,2.668,0,0,1,1974.59,134.157Z" transform="translate(-193.902 -96.256)" fill="#030302"/><path d="M1930.894,14.678V27.657l-.244,0V24.6c0-2.891-.006-5.782.007-8.673,0-.423-.155-.894.237-1.25Z" transform="translate(-161.388 -8.437)" fill="#febb57"/><path d="M1918.686,27.769c.018-3.648.031-7.3.06-10.944a2.352,2.352,0,0,1,.162-1.405q.022,5.8.042,11.6A.8.8,0,0,1,1918.686,27.769Z" transform="translate(-152.325 -9)" fill="#e4a64d"/><path d="M1951.479,29.684c.161,3.665.075,7.331.042,11l-.288.327a18.021,18.021,0,0,1-.105-3.806c.024-2.506-.158-5.015.1-7.517Z" transform="translate(-176.908 -19.825)" fill="#fec05a"/><path d="M1950.945,29.685q0,5.661,0,11.323c-.3-.234-.24-.568-.241-.881q0-4.78,0-9.56C1950.705,30.254,1950.649,29.92,1950.945,29.685Z" transform="translate(-176.621 -19.826)" fill="#fab253"/><path d="M1910.96,29.7l.038,8.625c-.231.135-.264-.025-.264-.191,0-2.634,0-5.268.012-7.9A1.61,1.61,0,0,1,1910.96,29.7Z" transform="translate(-146.289 -19.834)" fill="#feba57"/><path d="M1961.244,45.675c.447.477.226,1.065.231,1.6.017,1.867-.015,3.734-.033,5.6,0,.021-.052.056-.083.06a.324.324,0,0,1-.114-.031A45.071,45.071,0,0,1,1961.244,45.675Z" transform="translate(-184.513 -31.961)" fill="#f9b153"/><path d="M1960.77,45.675q0,3.613,0,7.226c-.465-.686-.195-1.456-.219-2.184-.054-1.619-.038-3.241-.05-4.861a.119.119,0,0,1,.033-.181Z" transform="translate(-184.039 -31.961)" fill="#fec25b"/><path d="M1862.35,85.631a.868.868,0,0,1,.032-.957A.6.6,0,0,1,1862.35,85.631Z" transform="translate(-109.472 -61.558)" fill="#fdc059"/><path d="M1806.913,145.61c0,4.243,0,8.485-.026,12.728,0,.407.215.875-.184,1.233q-.007-6.474-.011-12.948C1806.692,146.274,1806.6,145.894,1806.913,145.61Z" transform="translate(-67.321 -107.802)" fill="#dda34c"/><path d="M1773.766,34.629c.078.134.223.268.223.4.012,4.19.01,8.38-.221,12.571V34.623Z" transform="translate(-42.344 -23.573)" fill="#febb57"/><path d="M1753.328,49.671c.3.235.239.569.24.882q0,4.78,0,9.56c0,.313.056.647-.241.881a62.048,62.048,0,0,1-.1-6.8A24.764,24.764,0,0,1,1753.328,49.671Z" transform="translate(-26.715 -34.994)" fill="#fab253"/><path d="M1752.73,49.67q0,5.661,0,11.322l-.29-.329c-.033-3.665-.123-7.33.042-10.994Z" transform="translate(-26.118 -34.993)" fill="#fec15a"/><path d="M1793.691,58.3l.035-8.623a.762.762,0,0,1,.23.65q0,3.952-.008,7.9c0,.031-.033.087-.053.088A1.18,1.18,0,0,1,1793.691,58.3Z" transform="translate(-57.465 -35)" fill="#feba57"/><path d="M1743.593,65.674a.14.14,0,0,1,.037.2c-.009,1.924-.009,3.849-.034,5.774-.005.423.154.892-.226,1.253a42.5,42.5,0,0,1,0-6.986Z" transform="translate(-19.168 -47.138)" fill="#fec25a"/><path d="M1743.082,66.659q0,3.493,0,6.986c-.146.072-.236-.01-.236-.135,0-2.149,0-4.3.019-6.447C1742.867,66.928,1743.007,66.794,1743.082,66.659Z" transform="translate(-18.879 -47.886)" fill="#f9b153"/><path d="M1749.544,214.493c-5.619.011-11.239.013-16.858.045-.707,0-.971-.181-.99-.938-.073-2.923-.1-2.922,2.848-2.922q6.985,0,13.969.007c.424,0,.887-.154,1.269.184a.759.759,0,0,1-.334.116l-16.9,0c5.393,0,10.785.016,16.177-.01.786,0,1.128.269,1.054,1.04C1749.7,212.844,1750,213.705,1749.544,214.493Z" transform="translate(-10.402 -157.163)" fill="#09607c"/><path d="M1751.406,215.183c-.077-1.069.454-2.425-.225-3.134s-2.056-.229-3.121-.236c-4.643-.031-9.286-.013-13.93-.252h17.516a11.119,11.119,0,0,1,0,3.582Z" transform="translate(-12.264 -157.853)" fill="#096686"/><ellipse cx="12.353" cy="0.062" rx="12.353" ry="0.062" transform="translate(1717.97 52.31)" fill="#040301"/><path d="M1806.782,215.146q0-1.791,0-3.582A6.592,6.592,0,0,1,1806.782,215.146Z" transform="translate(-67.4 -157.856)" fill="#09607c"/><path d="M1898.6,190.9c.3-.3.68-.188,1.027-.188,5.3-.007,10.6.014,15.9-.023.876-.006,1.178.2,1.169,1.133-.028,2.736.014,2.74-2.677,2.736q-7.587-.013-15.175-.033a5.83,5.83,0,0,1-.189-2.954c.028-.711.676-.54,1.128-.541,3.452-.009,6.9-.005,10.354-.005q2.853,0,5.707,0-1.953,0-3.907,0-6.08,0-12.16-.006A2.069,2.069,0,0,1,1898.6,190.9Z" transform="translate(-137.049 -142.013)" fill="#09607c"/><path d="M1898.288,191.565H1916a1.674,1.674,0,0,1-1.258.234c-4.971.011-9.942.041-14.912-.018-1.092-.013-1.432.329-1.317,1.367a18.861,18.861,0,0,1,.015,2.043l-.24-.04a11.252,11.252,0,0,1,0-3.585Z" transform="translate(-136.736 -142.678)" fill="#096685"/><path d="M1897.966,191.565q0,1.793,0,3.585A6.655,6.655,0,0,1,1897.966,191.565Z" transform="translate(-136.414 -142.678)" fill="#09607c"/></g></g></g></svg>