<svg xmlns="http://www.w3.org/2000/svg" xmlns:xlink="http://www.w3.org/1999/xlink" width="97.608" height="97.611" viewBox="0 0 97.608 97.611">
  <defs>
    <clipPath id="clip-path">
      <path id="Trazado_564229" data-name="Trazado 564229" d="M279.694,128.988a48.8,48.8,0,1,1-48.8-48.805A48.8,48.8,0,0,1,279.694,128.988Z" transform="translate(207.526 48.943)" fill="#fff"/>
    </clipPath>
  </defs>
  <g id="Grupo_841708" data-name="Grupo 841708" transform="translate(-913.132 -1873.543)">
    <path id="Trazado_563962" data-name="Trazado 563962" d="M295.231,189.852a48.8,48.8,0,1,1-48.8-48.807A48.8,48.8,0,0,1,295.231,189.852Z" transform="translate(715.509 1732.5)" fill="#fff"/>
    <g id="Enmascarar_grupo_700032" data-name="Enmascarar grupo 700032" transform="translate(523.519 1744.417)" clip-path="url(#clip-path)">
      <g id="Grupo_841470" data-name="Grupo 841470" transform="translate(-943.621 -162.218)">
        <path id="Trazado_565121" data-name="Trazado 565121" d="M1415.194,340.649c-.389.215-.1.667-.328.937-.786.122-.216.843-.522,1.178l0-.009c-.953.644-.794,1.761-1.135,2.665a.129.129,0,0,1-.065.2c-.662.187-.239.849-.526,1.2a75.7,75.7,0,0,0-2.881,7.849,3.627,3.627,0,0,1-2.468,2.528,67.263,67.263,0,0,1-49.878-.105c-.775-.3-1.549-.631-1.819-1.491-1.1-3.514-2.811-6.786-4.043-10.247a3.686,3.686,0,0,0-1.1-2.6l0,.009c-.308-.331.266-1.054-.521-1.174a40.74,40.74,0,0,1-2.649-6.282,4.285,4.285,0,0,0-1.122-2.63,1.14,1.14,0,0,1-.334-1.045,8.317,8.317,0,0,1,.308-3.879.846.846,0,0,1,.363-.82,12.593,12.593,0,0,0,2.246-2.548c.572-.741,1.471-.691,2.25-.933a6.489,6.489,0,0,1,2.71-.009l.256.282a6.024,6.024,0,0,1-2.291.167c.759-.091,1.536.2,2.282-.175a5.762,5.762,0,0,0,3.374-.575c12.806-4.63,25.9-6.18,39.357-3.394.949.2,2.122.185,2.04,1.67-.366,1.243-1.353,1.029-2.231.882a65.785,65.785,0,0,0-7.108-1.014,4.564,4.564,0,0,1-.741-.12c-1.229-.36-2.485-.016-3.723-.146-1.2-.032-2.394-.028-3.59,0a44.49,44.49,0,0,0-6.231.409,3.737,3.737,0,0,1-.708.128,81.641,81.641,0,0,0-9.734,1.9c-1.71.433-3.388.975-5.054,1.553a5.209,5.209,0,0,0-1.178.511c-.5.33-.986.807-.825,1.387.2.733.891.306,1.342.233,1.88-.308,3.774-.5,5.655-.794.719-.187,1.48-.012,2.192-.262a3.628,3.628,0,0,1,.67-.115c.379-.029.76-.035,1.14-.028a9.179,9.179,0,0,0,1.816-.274c1.032-.129,2.092.153,3.108-.215.422-.088.854-.077,1.279-.138a161.209,161.209,0,0,1,17.156,0c.338.041.679.064,1.014.129a9.9,9.9,0,0,0,2.839.216,4.287,4.287,0,0,1,.689.1,7.5,7.5,0,0,0,2.222.2,3.832,3.832,0,0,1,.662.1,5.74,5.74,0,0,0,1.739.2,3.525,3.525,0,0,1,.663.107c1.6.261,3.217.467,4.815.757.438.048,1.1.391.733-.583a2.328,2.328,0,0,0-1.69-1.584c-1.213-.418-2.459-.75-3.633-1.266-.694-.3-1.451-.673-.92-1.689A1.35,1.35,0,0,1,1403,321.4c1.981.77,4.087,1.195,5.918,2.384.667.433,1.429-.289,2.172-.342a6.531,6.531,0,0,1,2.714.01l2.248.931a12.587,12.587,0,0,0,2.246,2.546l.365.826c.234,1.279.683,2.541.307,3.869-.452.243-.03.762-.333,1.052a6.666,6.666,0,0,0-1.391,3.257l-1.519,3.637C1415.025,339.673,1415.473,340.34,1415.194,340.649Z" transform="translate(-0.353 0)"/>
        <path id="Trazado_565122" data-name="Trazado 565122" d="M1445.732,327.468c.006.87.56,1.215,1.3,1.452,1.265.4,2.5.9,3.772,1.281a1.806,1.806,0,0,1,1.536,1.9.879.879,0,0,1-.837.849l-5.266-.812a.32.32,0,0,1,.26-.174.994.994,0,0,0-.749.118,3.72,3.72,0,0,1-1.818-.229.316.316,0,0,1,.265-.176.963.963,0,0,0-.75.122,6.3,6.3,0,0,1-2.38-.241.536.536,0,0,1,.6-.174c-.247.053-.678-.137-1.093.128a9.579,9.579,0,0,1-2.968-.235.869.869,0,0,1,.851-.18,4.194,4.194,0,0,0-1.626.132c-5.852-.2-11.7-.213-17.557-.007-.706-.306-1.426-.031-1.818-.106-.51.091-.26.324-.34.149-.035-.075-.012-.112.067-.124.358-.052.723-.164,1.034.137a11.662,11.662,0,0,1-3.255.246,2.135,2.135,0,0,0-1.724.2l-1.156.075c-.271-.268-.634-.058-.962-.2.158.134.394.041.475.25a6.6,6.6,0,0,1-2.318.283c-.671.243-.911-.149-.889-.7a4.014,4.014,0,0,1,.807-2.821,49.45,49.45,0,0,1,9.8-1.981.476.476,0,0,0,.371.135c.1,0,.208.05.3-.026a.227.227,0,0,1-.2-.166,27.972,27.972,0,0,1,6.433-.511,10.733,10.733,0,0,0,3.736,0,13.505,13.505,0,0,1,3.839.228.715.715,0,0,1-.741.16c.214-.054.736.2,1.222-.116a38.5,38.5,0,0,1,7.366,1.068c.786.166,1.519.265,2.044-.525A6.087,6.087,0,0,1,1445.732,327.468Z" transform="translate(-45.007 -5.46)" fill="#a6eddb"/>
        <path id="Trazado_565123" data-name="Trazado 565123" d="M1350.728,339.284c-.029,1.379-1.445,1.806-1.958,2.852l-.288-.3A5.1,5.1,0,0,1,1350.728,339.284Z" transform="translate(-2.353 -14.899)" fill="#020202"/>
        <path id="Trazado_565124" data-name="Trazado 565124" d="M1592.34,341.826l-.285.307c-.517-1.045-1.929-1.474-1.961-2.852A5.089,5.089,0,0,1,1592.34,341.826Z" transform="translate(-174.396 -14.896)" fill="#020202"/>
        <path id="Trazado_565125" data-name="Trazado 565125" d="M1362.207,402.813c.515-.3.643.1.819.44.321.613.391,1.308.757,1.93.284.483-.274.205-.477.228A9.2,9.2,0,0,1,1362.207,402.813Z" transform="translate(-12.126 -60.06)" fill="#020202"/>
        <path id="Trazado_565126" data-name="Trazado 565126" d="M1594.151,371.338c-.121-1.335,0-2.569,1.391-3.257A14.326,14.326,0,0,1,1594.151,371.338Z" transform="translate(-177.259 -35.404)" fill="#020202"/>
        <path id="Trazado_565127" data-name="Trazado 565127" d="M1580.1,405.509a3.752,3.752,0,0,1,.45-2.5c.195-.367.416-.278.685-.168A9.556,9.556,0,0,1,1580.1,405.509Z" transform="translate(-167.237 -60.089)" fill="#020202"/>
        <path id="Trazado_565128" data-name="Trazado 565128" d="M1347.313,368.078a1.922,1.922,0,0,1,1.122,2.63A9.439,9.439,0,0,1,1347.313,368.078Z" transform="translate(-1.521 -35.402)" fill="#020202"/>
        <path id="Trazado_565129" data-name="Trazado 565129" d="M1598.641,354.859c-.241-.926.4-2-.553-2.835-.252-.221.1-.695.246-1.033A4.688,4.688,0,0,1,1598.641,354.859Z" transform="translate(-180.025 -23.234)" fill="#020202"/>
        <path id="Trazado_565130" data-name="Trazado 565130" d="M1345.766,350.98c.341,1.328-.627,2.552-.307,3.878A4.7,4.7,0,0,1,1345.766,350.98Z" transform="translate(0 -23.227)" fill="#020202"/>
        <path id="Trazado_565131" data-name="Trazado 565131" d="M1577.737,413.459a3.814,3.814,0,0,1-.173-1.088c.082-.616.4-.464.7-.112A2.213,2.213,0,0,1,1577.737,413.459Z" transform="translate(-165.467 -66.643)" fill="#020202"/>
        <path id="Trazado_565132" data-name="Trazado 565132" d="M1366.807,335.351l-2.71.009A3.506,3.506,0,0,1,1366.807,335.351Z" transform="translate(-13.472 -11.908)" fill="#020202"/>
        <path id="Trazado_565133" data-name="Trazado 565133" d="M1583.733,399.439a3.722,3.722,0,0,1-.167-1.073c.085-.606.4-.459.689-.1A2.2,2.2,0,0,1,1583.733,399.439Z" transform="translate(-169.741 -56.675)" fill="#020202"/>
        <path id="Trazado_565134" data-name="Trazado 565134" d="M1575.575,335.357l-2.714-.01A3.507,3.507,0,0,1,1575.575,335.357Z" transform="translate(-162.125 -11.905)" fill="#020202"/>
        <path id="Trazado_565135" data-name="Trazado 565135" d="M1586.7,392.34a3.114,3.114,0,0,1-.163-.953c.083-.574.378-.54.694-.125A1.583,1.583,0,0,1,1586.7,392.34Z" transform="translate(-171.854 -51.69)" fill="#020202"/>
        <path id="Trazado_565136" data-name="Trazado 565136" d="M1360.409,398.262c.29-.357.6-.5.687.1a3.68,3.68,0,0,1-.166,1.073A2.208,2.208,0,0,1,1360.409,398.262Z" transform="translate(-10.846 -56.674)" fill="#020202"/>
        <path id="Trazado_565137" data-name="Trazado 565137" d="M1452.807,358.415a21.281,21.281,0,0,1,.427,3.982c.114.934-.6.668-1.06.669q-7.761.02-15.523.009c-.335,0-.671.009-1.006,0-.773-.025-1.537.072-1.568,1.035-.032.987.736,1.084,1.509,1.083q3.737-.006,7.474,0c2.923,0,5.845-.017,8.767.021.382,0,.99-.394,1.167.37l-.21.151-.257-.026c-5.651-.064-11.3-.077-16.954.007,5.317-.106,10.633-.017,15.949-.048.713,0,1.229.184,1.287.995a1.4,1.4,0,0,0,.252.444,18.248,18.248,0,0,1-.806,5.555c-.4.012-.346.259-.264.518a53.519,53.519,0,0,1-8.711,1.4.477.477,0,0,0-.372-.135c-.1,0-.207-.051-.3.026a.228.228,0,0,1,.2.166,3.589,3.589,0,0,1-1.829.224c-.415-.257-.845-.073-1.09-.125a.536.536,0,0,1,.593.174,5.811,5.811,0,0,1-2.379.242c-.572-.306-1.192-.04-1.718-.153-.255.014-.02.325-.083.144-.016-.045.015-.067.09-.075.411-.041.831-.174,1.206.126a79.525,79.525,0,0,1-11.59.588,82.643,82.643,0,0,1-11.876-.576.838.838,0,0,1,.79-.169c-.265.061-.788-.182-1.278.127a5.991,5.991,0,0,1-2.4-.237c.081-.228.331-.122.469-.238-.3.117-.672-.087-.944.189-.578.072-1.2-.1-1.724.283-.629.013-.768-.513-.929-.928a24.9,24.9,0,0,1-1.152-7.577,1.013,1.013,0,0,1,.422-.87,4.307,4.307,0,0,1,2.117-.236c6.755-.022,13.51.02,20.262-.026a1.815,1.815,0,0,0,.47-.1,2.672,2.672,0,0,0,.384-.274c.488-.391.806-.855.479-1.487-.318-.614-.915-.593-1.5-.593q-10.351.007-20.7,0c-.526,0-1.052-.03-1.578-.046a.329.329,0,0,1,.314-.368c7.358-.029,14.716,0,21.875-.015.22-.028.225-.075.218-.167,0-.048,0,.082-.091.108a4.415,4.415,0,0,1-1.268.053q-9.762.006-19.523.01a2.748,2.748,0,0,0-1.543.151c-.725-.127-.684-.747-.7-1.228q-.113-4-.005-8.011c.017-.665.228-1.226,1-1.355l.876-.06a.465.465,0,0,0,.374.139c.1,0,.2.054.3-.026a.227.227,0,0,1-.2-.169,4.7,4.7,0,0,1,2.119-.234c.272.272.64.066.942.188-.133-.118-.379-.016-.46-.236a5.893,5.893,0,0,1,2.4-.231c.576.31,1.2.034,1.753.159.235-.005.063-.328.072-.137,0,.01-.017.009-.042.02a.908.908,0,0,1-1.019-.1,83.066,83.066,0,0,1,11.319-.563,88.638,88.638,0,0,1,12.468.566.857.857,0,0,1-.842.183,4.406,4.406,0,0,0,1.61-.126,5.968,5.968,0,0,1,2.367.247c-.115.213-.355.11-.516.206.242-.082.539.054.743-.183a4.667,4.667,0,0,1,2.1.251.317.317,0,0,1-.268.175.989.989,0,0,0,.751-.117,38.721,38.721,0,0,1,6.971,1.108c.072.332.241.441.546.238a17.214,17.214,0,0,1,.832,4.683c-.06.182-.015-.075-.087.1-.086.211-.02.433-.087.64C1452.7,358.766,1452.6,358.529,1452.807,358.415Z" transform="translate(-43.692 -23.208)" fill="#a6eddb"/>
        <path id="Trazado_565138" data-name="Trazado 565138" d="M1386.984,401.586c.338,3.113.087,6.335,1.724,9.2-.616,1.11-.033,1.637.957,1.965.469.389,1.138.1,1.613.481a15.351,15.351,0,0,0,4.335,1.814c3.215.905,6.464,1.666,9.718,2.413a15.515,15.515,0,0,0,3.974.4c.571.059,1.2-.1,1.63.462a43.61,43.61,0,0,1-10.812,0,.848.848,0,0,1,.835-.186,4.482,4.482,0,0,0-1.6.123,4.376,4.376,0,0,1-2.07-.25.455.455,0,0,1,.51-.134.8.8,0,0,0-.745.1,61.007,61.007,0,0,1-15.945-4.086c-1.12-.428-.922-1.632-1.38-2.674l4.537.728c.754.121,1.553.15,1.716-.794s-.549-1.18-1.337-1.3c-1.515-.234-3.015-.568-4.535-.76a1.241,1.241,0,0,1-1.274-1.232,18.722,18.722,0,0,1-.474-3.112.5.5,0,0,0,.127-.369c0-.1.049-.213-.026-.31a.227.227,0,0,1-.161.2,6.862,6.862,0,0,1-.2-3.252.993.993,0,0,1,.618.12c2.555.114,5.11.051,7.666.022a.93.93,0,0,1,.45.046A.319.319,0,0,1,1386.984,401.586Z" transform="translate(-23.359 -58.84)" fill="#85e7cf"/>
        <path id="Trazado_565139" data-name="Trazado 565139" d="M1441.351,443.661c-3.924.061-7.582-1.288-11.313-2.2-2.383-.583-4.9-.929-6.845-2.678l.153-.154c.6-.388,1.267.239,1.869-.125l8.739.516c-.861.421-1.775.072-2.578.2,4.2.006,8.486,0,12.768-.052.189-.083-.106-.219-.008-.054.037.063,0,.11-.1.1-.932-.106-1.893.23-2.8-.19a31.458,31.458,0,0,1,4.993-.229c.7.309,1.42.03,1.814.107.506-.088.253-.32.334-.147.035.074.011.111-.069.122-.356.048-.721.166-1.028-.142a9.6,9.6,0,0,1,2.974-.243c.269.278.637.071.939.191-.132-.116-.374-.018-.454-.234a4.834,4.834,0,0,1,2.11-.227c.415.257.846.073,1.093.124a.538.538,0,0,1-.594-.173,3.745,3.745,0,0,1,1.805-.234.682.682,0,0,0,.536.126c.1-.008.177.045.269.043-.079-.111-.253-.09-.314-.226,1.948-.329,3.892-.677,5.845-.976.526-.081,1.229-.52,1.573.066.4.679-.218,1.341-.475,1.984-.058.145-.282.256-.454.32a63.463,63.463,0,0,1-15.908,4.1.493.493,0,0,0-.368-.128c-.1,0-.214-.05-.311.026a.226.226,0,0,1,.2.161,4.689,4.689,0,0,1-2.106.238A3.934,3.934,0,0,0,1441.351,443.661Z" transform="translate(-55.551 -84.245)" fill="#a6eddb"/>
        <path id="Trazado_565140" data-name="Trazado 565140" d="M1384.073,355.3a1.3,1.3,0,0,0-.575,1.072c.026,2.961.009,5.923.028,8.884a1.852,1.852,0,0,0,.269.629h0c0,.079,0,.158,0,.237-2.72.016-5.441,0-8.16.066-.893.023-1.058-.349-.961-1.1.067-.52.071-1.047.119-1.57.087-.942-.318-1.452-1.279-1.489a3.931,3.931,0,0,1,.532-2.436,1.272,1.272,0,0,0,1.439-1.4c.047-1.413.835-1.9,2.152-2.028C1379.788,355.948,1381.927,355.593,1384.073,355.3Z" transform="translate(-20.177 -26.302)" fill="#85e7cf"/>
        <path id="Trazado_565141" data-name="Trazado 565141" d="M1358.972,350.5c-.157.817.276,1.763-.533,2.436-1.2.451-.755,1.57-.979,2.417a15.765,15.765,0,0,0-.108,2.855c-.025.385,0,.822-.613.585l-.145-.561c-.612-.2-.243-.828-.522-1.173l0,.008c-.706-.5-.733-1.285-.862-2.028l0,.01c-.737-.444-.592-1.29-.883-1.937-.382-.213-.064-.667-.317-.924-.476-.27-.3-.823-.527-1.2a6.227,6.227,0,0,1-.883-5.216c.381-1.267.884-2.432,2.359-2.768l.811-.331a6.208,6.208,0,0,1,2.584-.011c1.086.365,1.426.932.966,2.131a35.663,35.663,0,0,0-1.033,4.16A1.232,1.232,0,0,0,1358.972,350.5Z" transform="translate(-5.104 -17.213)" fill="#f7f9fa"/>
        <path id="Trazado_565142" data-name="Trazado 565142" d="M1572.068,358.236a2.554,2.554,0,0,0-.629,1.405c-.7-.079-.381-.63-.4-.966a41.4,41.4,0,0,0-.141-4.635,37.5,37.5,0,0,0-1.637-9.552c-.295-1.085.018-1.6,1.044-1.825a6.218,6.218,0,0,1,2.584.012.951.951,0,0,0,.811.331c1.559.32,1.993,1.561,2.348,2.867l0-.007c.326.371.023.874.266,1.262a29.262,29.262,0,0,1-1.138,3.863c-.224.38-.05.933-.526,1.2a.127.127,0,0,0-.065.193c-.4.88-.277,1.983-1.136,2.668l0-.01c-.13.743-.157,1.529-.862,2.027l0-.008C1572.31,357.408,1572.68,358.04,1572.068,358.236Z" transform="translate(-159.483 -17.213)" fill="#f7f9fa"/>
        <path id="Trazado_565143" data-name="Trazado 565143" d="M1392.107,335c-.141.872-.233,1.756-.44,2.612-.132.544,0,.8.522.909l-7.8,1.209c.141-1.831.88-2.9,2.638-3.306C1388.736,336.032,1390.353,335.268,1392.107,335Z" transform="translate(-27.921 -11.851)" fill="#84e5ce"/>
        <path id="Trazado_565144" data-name="Trazado 565144" d="M1387.254,400.78h-.279a52.289,52.289,0,0,1-8.342,0l-.248-.289c.469-.361,1.011-.163,1.513-.164q15.334-.049,30.669-.065c0,.083-.008.166-.016.249a2.8,2.8,0,0,1-1.806.258q-10.607.018-21.213.009Z" transform="translate(-23.647 -58.318)" fill="#8ff6dd"/>
        <path id="Trazado_565145" data-name="Trazado 565145" d="M1460.516,444.827h2.963l-.006.325h-13.194l0-.329h2.962Z" transform="translate(-74.837 -90.049)" fill="#adf6e4"/>
        <path id="Trazado_565146" data-name="Trazado 565146" d="M1470.379,320.49h-7.072v-.144h7.1Z" transform="translate(-84.116 -1.414)" fill="#040404"/>
        <path id="Trazado_565147" data-name="Trazado 565147" d="M1355.492,344.156a8.791,8.791,0,0,0-2.359,2.768A2.287,2.287,0,0,1,1355.492,344.156Z" transform="translate(-5.63 -18.363)" fill="#020202"/>
        <ellipse id="Elipse_6695" data-name="Elipse 6695" cx="4.815" cy="0.097" rx="4.815" ry="0.097" transform="translate(1377.213 361.193)" fill="#040404"/>
        <path id="Trazado_565148" data-name="Trazado 565148" d="M1587.287,347.021a7.749,7.749,0,0,0-2.349-2.867A2.306,2.306,0,0,1,1587.287,347.021Z" transform="translate(-170.724 -18.361)" fill="#020202"/>
        <path id="Trazado_565149" data-name="Trazado 565149" d="M1575.148,382.5a20.581,20.581,0,0,1,.3,4.5c.026.369-.285.841.247,1.105-.031.182-.046.455-.261.427-.382-.049-.3-.412-.3-.671C1575.13,386.069,1575.141,384.284,1575.148,382.5Z" transform="translate(-163.737 -45.67)" fill="#020202"/>
        <path id="Trazado_565150" data-name="Trazado 565150" d="M1584.063,379.419a9.6,9.6,0,0,1,1.136-2.668,3.751,3.751,0,0,1-.449,2.5C1584.554,379.622,1584.331,379.528,1584.063,379.419Z" transform="translate(-170.101 -41.578)" fill="#020202"/>
        <path id="Trazado_565151" data-name="Trazado 565151" d="M1367.606,390.508c.767-.277.38-.933.461-1.429.109-.667-.207-1.389.26-2.011l.086,4.014c.052.289-.087.394-.358.37A1.64,1.64,0,0,1,1367.606,390.508Z" transform="translate(-15.971 -48.924)" fill="#e4e6e7"/>
        <path id="Trazado_565152" data-name="Trazado 565152" d="M1358.884,379.29a4.077,4.077,0,0,1,.883,1.937C1358.365,381.086,1358.752,380.13,1358.884,379.29Z" transform="translate(-9.653 -43.386)" fill="#020202"/>
        <path id="Trazado_565153" data-name="Trazado 565153" d="M1593.353,355.084l-.266-1.262c.53-.261.826-.067.856.492a4.518,4.518,0,0,1-.207,1.8l-.129-1.692-.179,0Q1593.391,354.753,1593.353,355.084Z" transform="translate(-176.527 -25.17)" fill="#020202"/>
        <path id="Trazado_565154" data-name="Trazado 565154" d="M1361.858,385.981a5.788,5.788,0,0,1,.862,2.028C1361.234,387.842,1361.732,386.833,1361.858,385.981Z" transform="translate(-11.748 -48.15)" fill="#020202"/>
        <path id="Trazado_565155" data-name="Trazado 565155" d="M1581.083,388.011a5.767,5.767,0,0,1,.862-2.027C1582.072,386.836,1582.568,387.844,1581.083,388.011Z" transform="translate(-167.979 -48.152)" fill="#020202"/>
        <path id="Trazado_565156" data-name="Trazado 565156" d="M1472.941,325.892a5.341,5.341,0,0,1-3.736,0A16.861,16.861,0,0,1,1472.941,325.892Z" transform="translate(-88.315 -5.29)" fill="#abf4e2"/>
        <path id="Trazado_565157" data-name="Trazado 565157" d="M1419.007,442.462c-.47-.3-1.062-.147-1.511-.335-.474-.2.124-.17.175-.287a9.654,9.654,0,0,1,2.851.294c-.427.43-1.053-.041-1.494.328Z" transform="translate(-51.366 -87.925)" fill="#8df2d9"/>
        <path id="Trazado_565158" data-name="Trazado 565158" d="M1355.869,371.9a2.2,2.2,0,0,1,.526,1.2c-.3.349-.619.51-.7-.111A3.8,3.8,0,0,1,1355.869,371.9Z" transform="translate(-7.483 -38.126)" fill="#020202"/>
        <path id="Trazado_565159" data-name="Trazado 565159" d="M1367.995,336.964c-.812.616-1.706.218-2.578.008H1368Z" transform="translate(-14.412 -13.247)" fill="#020202"/>
        <path id="Trazado_565160" data-name="Trazado 565160" d="M1588.235,373.106a2.214,2.214,0,0,1,.525-1.2,3.778,3.778,0,0,1,.175,1.092C1588.854,373.615,1588.533,373.457,1588.235,373.106Z" transform="translate(-173.072 -38.127)" fill="#020202"/>
        <path id="Trazado_565161" data-name="Trazado 565161" d="M1573.614,337.285h2.1A2.7,2.7,0,0,1,1573.614,337.285Z" transform="translate(-162.661 -13.476)" fill="#020202"/>
        <path id="Trazado_565162" data-name="Trazado 565162" d="M1425.235,344.447c.481-.857,1.1-.555,1.724-.2Z" transform="translate(-57.006 -18.18)" fill="#b0fbe8"/>
        <path id="Trazado_565163" data-name="Trazado 565163" d="M1558.147,347.962l.837-.849c.137.325.489.7.184.992C1558.893,348.368,1558.485,348.079,1558.147,347.962Z" transform="translate(-151.648 -20.474)" fill="#affae7"/>
        <path id="Trazado_565164" data-name="Trazado 565164" d="M1579.282,394.17A2.221,2.221,0,0,1,1579.8,393a3.688,3.688,0,0,1,.165,1.072C1579.882,394.675,1579.571,394.527,1579.282,394.17Z" transform="translate(-166.697 -53.147)" fill="#020202"/>
        <path id="Trazado_565165" data-name="Trazado 565165" d="M1366.848,342.216l-2.584.011A2.792,2.792,0,0,1,1366.848,342.216Z" transform="translate(-13.591 -16.765)" fill="#020202"/>
        <path id="Trazado_565166" data-name="Trazado 565166" d="M1575.729,342.228l-2.584-.012A2.8,2.8,0,0,1,1575.729,342.228Z" transform="translate(-162.327 -16.765)" fill="#020202"/>
        <path id="Trazado_565167" data-name="Trazado 565167" d="M1439.463,343.388l-1.239-.13c.777-.124,1.564-.465,2.3.074Z" transform="translate(-66.255 -17.571)" fill="#aff9e6"/>
        <path id="Trazado_565168" data-name="Trazado 565168" d="M1364.86,392.995a2.233,2.233,0,0,1,.521,1.173c-.29.356-.6.5-.687-.1A3.7,3.7,0,0,1,1364.86,392.995Z" transform="translate(-13.891 -53.145)" fill="#020202"/>
        <path id="Trazado_565169" data-name="Trazado 565169" d="M1504.233,443.836l1.245.133c-.779.128-1.564.466-2.3-.074Z" transform="translate(-112.509 -89.347)" fill="#aef8e6"/>
        <path id="Trazado_565170" data-name="Trazado 565170" d="M1368.337,340.439a2.367,2.367,0,0,1-1.82,0Z" transform="translate(-15.195 -15.721)" fill="#020202"/>
        <path id="Trazado_565171" data-name="Trazado 565171" d="M1350.448,357.809v-1.545A1.5,1.5,0,0,1,1350.448,357.809Z" transform="translate(-3.753 -26.99)" fill="#020202"/>
        <path id="Trazado_565172" data-name="Trazado 565172" d="M1510.72,434.329l-1.49-.108c.679-.159,1.364-.43,1.995.066Z" transform="translate(-116.816 -82.344)" fill="#aef9e6"/>
        <path id="Trazado_565173" data-name="Trazado 565173" d="M1573.181,340.271a4.607,4.607,0,0,1,2.273-.051A4.623,4.623,0,0,1,1573.181,340.271Z" transform="translate(-162.353 -15.482)" fill="#020202"/>
        <path id="Trazado_565174" data-name="Trazado 565174" d="M1507.174,343.367c.629-.57,1.332-.132,2.01-.078l-1.235.126Z" transform="translate(-115.352 -17.6)" fill="#aff9e7"/>
        <path id="Trazado_565175" data-name="Trazado 565175" d="M1432.987,352.912l1.245.134c-.684.16-1.372.416-2.009-.076Z" transform="translate(-61.982 -24.603)" fill="#aff9e6"/>
        <path id="Trazado_565176" data-name="Trazado 565176" d="M1515.187,352.98c-.638.489-1.325.233-2.01.071l1.241-.129Z" transform="translate(-119.626 -24.61)" fill="#aff9e6"/>
        <path id="Trazado_565177" data-name="Trazado 565177" d="M1452.215,460.256c.64-.482,1.326-.232,2.01-.066l-1.245.128Z" transform="translate(-76.217 -100.838)" fill="#8cf3da"/>
        <path id="Trazado_565178" data-name="Trazado 565178" d="M1486.256,460.163a2.178,2.178,0,0,1,2.281.011l-.505.054Z" transform="translate(-100.457 -100.747)" fill="#aff9e6"/>
        <path id="Trazado_565179" data-name="Trazado 565179" d="M1423.264,443.188c.416-.484,1.012-.15,1.495-.328l.506.049C1424.66,443.447,1423.93,443.084,1423.264,443.188Z" transform="translate(-55.603 -88.652)" fill="#aef9e6"/>
        <path id="Trazado_565180" data-name="Trazado 565180" d="M1431.214,434.291c.532-.5,1.126-.257,1.717-.081l-1.229.123Z" transform="translate(-61.264 -82.337)" fill="#affae6"/>
        <path id="Trazado_565181" data-name="Trazado 565181" d="M1492.933,326.982c-.533.5-1.127.262-1.718.086l1.237-.131Z" transform="translate(-103.988 -6.107)" fill="#aff9e6"/>
        <path id="Trazado_565182" data-name="Trazado 565182" d="M1566.757,401.864a.2.2,0,0,0,.176-.111c.424.49.112,1.012.068,1.523h-.282A1.412,1.412,0,0,1,1566.757,401.864Z" transform="translate(-157.63 -59.381)" fill="#affae7"/>
        <path id="Trazado_565183" data-name="Trazado 565183" d="M1520.17,344.343c.44-.423.931-.318,1.65-.114l-1.152.16Z" transform="translate(-124.606 -18.294)" fill="#aef9e6"/>
        <path id="Trazado_565184" data-name="Trazado 565184" d="M1521.58,433.316l-1.149-.158c.716-.206,1.205-.307,1.646.109Z" transform="translate(-124.792 -81.616)" fill="#affae7"/>
        <path id="Trazado_565185" data-name="Trazado 565185" d="M1526.67,441.886l1.155.155c-.722.209-1.212.31-1.653-.106Z" transform="translate(-128.879 -87.958)" fill="#aef8e6"/>
        <path id="Trazado_565186" data-name="Trazado 565186" d="M1561.963,359.162c-.079.134.019.453-.257.367a2.768,2.768,0,0,1-.667-.44l.378-.165C1561.652,358.883,1561.873,358.872,1561.963,359.162Z" transform="translate(-153.707 -28.869)" fill="#aff9e6"/>
        <path id="Trazado_565187" data-name="Trazado 565187" d="M1534.85,354.988c-.318.36-.7.314-1.332.138l.848-.2Z" transform="translate(-134.11 -26.04)" fill="#aef8e5"/>
        <path id="Trazado_565188" data-name="Trazado 565188" d="M1413.7,354.894l.882.17c-.625.2-1.011.3-1.353-.114Z" transform="translate(-48.457 -26.014)" fill="#b0fbe8"/>
        <path id="Trazado_565189" data-name="Trazado 565189" d="M1525.955,353.9c-.333.381-.721.364-1.3.119l1.071-.142A.153.153,0,0,1,1525.955,353.9Z" transform="translate(-127.801 -25.264)" fill="#b0fae8"/>
        <path id="Trazado_565190" data-name="Trazado 565190" d="M1422.7,353.915l.875.169c-.627.2-1.016.289-1.357-.121Z" transform="translate(-54.86 -25.317)" fill="#b0fbe8"/>
        <path id="Trazado_565191" data-name="Trazado 565191" d="M1379.088,410.175l.159-.88c.208.629.293,1.015-.1,1.361Z" transform="translate(-24.147 -64.751)" fill="#8bf2d8"/>
        <path id="Trazado_565192" data-name="Trazado 565192" d="M1445.688,327.928l.883.166c-.628.2-1.014.3-1.357-.109Z" transform="translate(-71.232 -6.813)" fill="#aff9e6"/>
        <path id="Trazado_565193" data-name="Trazado 565193" d="M1563.453,426.52c-.135-.069-.461-.023-.368-.208.082-.163.2-.687.632-.31C1563.75,426.236,1563.743,426.45,1563.453,426.52Z" transform="translate(-155.152 -76.553)" fill="#aef9e5"/>
        <path id="Trazado_565194" data-name="Trazado 565194" d="M1530.319,432.361l-.883-.165c.628-.2,1.014-.3,1.357.108Z" transform="translate(-131.204 -80.935)" fill="#aff9e6"/>
        <path id="Trazado_565195" data-name="Trazado 565195" d="M1566.454,376.3c-.037.3-.073.608-.13,1.084-.254-.593-.269-.979.1-1.314A.158.158,0,0,1,1566.454,376.3Z" transform="translate(-157.339 -41.091)" fill="#affae7"/>
        <path id="Trazado_565196" data-name="Trazado 565196" d="M1538.163,346.375c.316-.36.7-.311,1.332-.142l-.843.2Z" transform="translate(-137.418 -19.756)" fill="#aff9e6"/>
        <path id="Trazado_565197" data-name="Trazado 565197" d="M1369.165,401.377l.358-.37c.2.229.355.531.067.722C1369.345,401.892,1369.193,401.64,1369.165,401.377Z" transform="translate(-17.081 -58.85)" fill="#424242"/>
        <path id="Trazado_565198" data-name="Trazado 565198" d="M1421.219,433.323c.311-.38.7-.33,1.333-.153l-.858.2Z" transform="translate(-54.146 -81.656)" fill="#affae7"/>
        <path id="Trazado_565199" data-name="Trazado 565199" d="M1517.644,442.844l.867.168c-.622.212-1.011.276-1.351-.126Z" transform="translate(-122.462 -88.64)" fill="#b0fae8"/>
        <path id="Trazado_565200" data-name="Trazado 565200" d="M1530.164,345.427c.309-.4.714-.25,1.135-.1l-.65.153Z" transform="translate(-131.722 -19.09)" fill="#affae7"/>
        <path id="Trazado_565201" data-name="Trazado 565201" d="M1444.213,459.282c.338-.365.724-.352,1.317-.1l-1.083.126-.123.032Z" transform="translate(-70.52 -100.144)" fill="#8cf3d9"/>
        <path id="Trazado_565202" data-name="Trazado 565202" d="M1499.342,459.329l-.869-.163c.618-.2,1-.289,1.35.1Z" transform="translate(-109.156 -100.14)" fill="#aef8e5"/>
        <path id="Trazado_565203" data-name="Trazado 565203" d="M1417.407,345.423l-.858-.165c.615-.213,1-.274,1.345.118Z" transform="translate(-50.821 -19.033)" fill="#aff9e6"/>
        <path id="Trazado_565204" data-name="Trazado 565204" d="M1534.661,440.873l.851.159c-.609.218-.993.271-1.342-.1Z" transform="translate(-134.575 -87.237)" fill="#aef9e6"/>
        <path id="Trazado_565205" data-name="Trazado 565205" d="M1409.2,401.968c0-.095-.009-.189-.017-.284l.018-.008a1.628,1.628,0,0,1,.976-.135q10.675-.005,21.351,0a1.654,1.654,0,0,1,.977.132c-.471.5-1.083.282-1.63.283Q1420.038,401.98,1409.2,401.968Z" transform="translate(-45.577 -59.223)" fill="#a3e9d7"/>
        <path id="Trazado_565206" data-name="Trazado 565206" d="M1432.549,401.3l-23.3,0c.488-.458,1.093-.25,1.642-.251q10.819-.024,21.638-.012A1.664,1.664,0,0,1,1432.549,401.3Z" transform="translate(-45.621 -58.848)" fill="#b1fdea"/>
        <path id="Trazado_565207" data-name="Trazado 565207" d="M1409.22,391.336c.284-.354.686-.287,1.063-.287q10.575,0,21.148,0a.552.552,0,0,1,.485.285h-22.7Z" transform="translate(-45.602 -51.755)" fill="#a8f0de"/>
        <path id="Trazado_565208" data-name="Trazado 565208" d="M1522.349,401.673q-.019.706-.037,1.411c-.292-.934-.9-1.189-1.885-1.178-4.919.059-9.839.032-14.759.019-.5,0-1.064.188-1.484-.285a2.773,2.773,0,0,1,1.411-.129q7.62-.014,15.24,0a3.586,3.586,0,0,1,1.422.1Z" transform="translate(-113.222 -59.19)" fill="#a3e9d7"/>
        <path id="Trazado_565209" data-name="Trazado 565209" d="M1522.256,401.361l-18.073.03c.252-.294.6-.256.929-.256q8.175,0,16.349,0A.928.928,0,0,1,1522.256,401.361Z" transform="translate(-113.222 -58.939)" fill="#b1fdea"/>
        <path id="Trazado_565210" data-name="Trazado 565210" d="M1506.4,391.192h16.767v.143h-16.826Z" transform="translate(-114.759 -51.861)" fill="#a8f0de"/>
        <path id="Trazado_565211" data-name="Trazado 565211" d="M1379.246,402.059h8.341c-.872.565-1.841.226-2.762.268-1.7.077-3.412.047-5.118.1C1379.382,402.436,1379.293,402.316,1379.246,402.059Z" transform="translate(-24.259 -59.599)" fill="#82e3cb"/>
      </g>
    </g>
  </g>
</svg>
