<svg xmlns="http://www.w3.org/2000/svg" xmlns:xlink="http://www.w3.org/1999/xlink" width="97.608" height="97.611" viewBox="0 0 97.608 97.611">
  <defs>
    <clipPath id="clip-path">
      <path id="Trazado_564229" data-name="Trazado 564229" d="M279.694,128.988a48.8,48.8,0,1,1-48.8-48.805A48.8,48.8,0,0,1,279.694,128.988Z" transform="translate(207.526 48.943)" fill="#fff"/>
    </clipPath>
  </defs>
  <g id="Grupo_841709" data-name="Grupo 841709" transform="translate(-1074.067 -1873.543)">
    <path id="Trazado_563962" data-name="Trazado 563962" d="M295.231,189.852a48.8,48.8,0,1,1-48.8-48.807A48.8,48.8,0,0,1,295.231,189.852Z" transform="translate(876.444 1732.5)" fill="#fff"/>
    <g id="Enmascarar_grupo_700032" data-name="Enmascarar grupo 700032" transform="translate(684.455 1744.417)" clip-path="url(#clip-path)">
      <g id="Grupo_841471" data-name="Grupo 841471" transform="translate(-828.807 129.007)">
        <path id="Trazado_565212" data-name="Trazado 565212" d="M1286.175,109.64c.658.428,1.3-.153,1.948-.041a1.689,1.689,0,0,1,.943.9c.034.292.24.282.454.258-.241-.011-.39-.1-.3-.374a1.816,1.816,0,0,1,1.727-.259c.467.214.892.571,1.367.381-.178-.1-.565.152-.782-.2.314-.669.891-.509,1.433-.457.378.037.606.479,1.117.366-.228-.066-.543.011-.415-.336.426-.477,1.031-.408,1.572-.49a51.512,51.512,0,0,1,5.773-.859,3.041,3.041,0,0,0,1.393.088c.938.242,1.718.627,1.616,1.8a2.4,2.4,0,0,1-.182.4c-.184,3.575-.161,7.148,0,10.72a5.322,5.322,0,0,1,.264.607,4.634,4.634,0,0,1-1.021,3.615,22.56,22.56,0,0,1-11.312,6.41,23.067,23.067,0,0,1-6.485.511,5.906,5.906,0,0,1-4.607-2.616,15.31,15.31,0,0,1-1.722-3.217,19.469,19.469,0,0,0-1.5-2.891c-2.052-3.285-7.661-3.536-9.9-.019a18.2,18.2,0,0,0-1.512,2.887,17.631,17.631,0,0,1-1.347,2.682,6.408,6.408,0,0,1-5.748,3.218,22.072,22.072,0,0,1-16.153-6.155,4.337,4.337,0,0,0-.61-.492,4.626,4.626,0,0,1-1.295-3.916,4.841,4.841,0,0,1,.258-.611c.18-3.573.165-7.144,0-10.714a3.849,3.849,0,0,1-.188-.4c-.1-1.158.506-1.707,1.594-1.838a2.768,2.768,0,0,0,1.389-.066,18.053,18.053,0,0,1,5.526,1.046c.1.291-.006.4-.308.334.42.21.613-.306.969-.306.466-.066.936-.148,1.226.367-.048.284-.257.254-.461.236a.625.625,0,0,0,.6-.114,1.55,1.55,0,0,1,.465-.233c.543-.083,1.1-.213,1.486.355-.05.315-.24.3-.47.2.189.186.381.072.547-.023a2.4,2.4,0,0,1,.558-.283c.622-.077,1.272-.276,1.723.391-.193.372-.451.327-.73.141.533.383.9-.152,1.348-.272.71-.072,1.466-.362,2,.413-.118.342-.459.21-.713.259.557.068.954-.3,1.429-.449a59.577,59.577,0,0,1,7.428.265,97.358,97.358,0,0,0,11.752-.026c1.825-.137,3.657-.013,5.481-.281A4.531,4.531,0,0,0,1286.175,109.64Z" transform="translate(-5.277 -62.221)" fill="#90d9f5"/>
        <path id="Trazado_565213" data-name="Trazado 565213" d="M1324.543,48.374c-.429-.221-.838-.461-.933-1,.1-.723.545-1.006,1.25-1.075,1.3-.127,2.593-.331,3.892-.471.488-.053.836-.106.712-.757-.841-4.394-2.264-8.5-5.677-11.632a8.681,8.681,0,0,0-2.413-1.532c-.9-.394-1.428-.279-1.74.75a19.662,19.662,0,0,1-1.209,3.021,3.013,3.013,0,0,1-5.774-.67,8.9,8.9,0,0,1,2.25-8.7c2.226-2.295,5.023-2.479,7.883-1.513,5.153,1.741,9.146,5.175,12.61,9.217,4.075,4.754,6.393,10.2,6.1,16.618-.123,2.653-.059,5.317-.011,7.974a11,11,0,0,1-3.72,8.733c-5.274,4.732-11.589,6.553-18.577,6.113a6.752,6.752,0,0,1-5.362-3.535c-.777-1.253-1.4-2.6-2.106-3.9a24.657,24.657,0,0,0-1.346-2.38c-1.42-2.04-3.32-2.031-4.771-.014a26.432,26.432,0,0,0-2.039,3.784c-2.654,5.336-4.9,6.61-10.807,6.079-.865-.078-1.718-.282-2.582-.388a1.218,1.218,0,0,1-1.251-1.358c.216-.92.959-.927,1.651-.871.909.074,1.813.221,2.721.321,4.066.447,5.615-.484,7.659-3.81.955-1.554,1.6-3.283,2.569-4.842,2.246-3.622,6.687-3.61,8.948.027.83,1.335,1.479,2.762,2.189,4.158a15.237,15.237,0,0,0,1.841,2.679,5.5,5.5,0,0,0,4.916,1.9,25.442,25.442,0,0,0,11.243-3.062,17.781,17.781,0,0,0,5.687-4.909,5.772,5.772,0,0,0,1.032-3.4,2.136,2.136,0,0,1-.254-1.13q-.006-4.826,0-9.651a1.451,1.451,0,0,1,.25-.989c-.011-1.029-.867-1.224-1.561-1.579-.348.045-.692.229-1.045.022l-7.668,1.254c-.124.214-.278.175-.443.053a3.37,3.37,0,0,0-1.642.213c-.13.2-.285.172-.45.048a4.741,4.741,0,0,0-1.91.21Z" transform="translate(-40.764)"/>
        <path id="Trazado_565214" data-name="Trazado 565214" d="M1235.825,60.135a6.337,6.337,0,0,0,1.192,3.7,20.432,20.432,0,0,0,8.333,5.96c.637.236,1.461.576.971,1.6-.3.77-.818.892-1.568.607a21.121,21.121,0,0,1-7.027-4.151,11.638,11.638,0,0,1-4.006-9.13c.061-2.74.1-5.486-.007-8.223-.22-5.613,1.71-10.473,4.976-14.9a32.81,32.81,0,0,1,5-5.309c.578-.5,1.134-.833,1.831-.231.866.636.353,1.219-.117,1.731-1,1.089-2.093,2.089-3.116,3.155a23.679,23.679,0,0,0-5.156,8.231c-.424,1.141-.4,1.128.845,1.206a35.988,35.988,0,0,1,3.861.61c1.464.2,1.529.162,1.855-1.269a24.81,24.81,0,0,1,4.09-9.543,15.68,15.68,0,0,1,3.376-3.25,11.856,11.856,0,0,1,3.286-1.377,2.378,2.378,0,0,1,1.192.014c1.208.416,1.634,1.487,2.08,2.526.342.8.56,1.646.963,2.419.2.391.447.805.958.756.527-.051.628-.545.761-.952.907-2.773-1.127-6.537-3.978-7.368a3.493,3.493,0,0,0-2.26.038c-1.906.2-3.432,1.3-5.071,2.134-.676.344-1.389.832-2-.116-.183-.564-.282-1.117.313-1.513a15.408,15.408,0,0,1,7.037-2.919c4.405-.42,7.784,2.5,8.325,7.135a8.249,8.249,0,0,1-.3,3.872,3,3,0,0,1-2.651,2.193,2.951,2.951,0,0,1-2.9-1.617,17.565,17.565,0,0,1-1.432-3.489c-.266-.749-.643-.909-1.37-.644a8.623,8.623,0,0,0-3.241,2.137c-3,3.088-4.336,6.953-5.13,11.074-.171.885.42.758.912.825a149.816,149.816,0,0,0,24.233,1.3c2.785-.071,5.568-.24,8.35-.39.678-.037,1.325-.108,1.663.662.045,1.087-.652,1.229-1.525,1.3a154.479,154.479,0,0,1-23.941.017c-.6-.047-1.211-.036-1.817-.052-.162.14-.314.173-.447-.037a5.748,5.748,0,0,0-2.171-.214c-.164.129-.32.159-.453-.043a4.558,4.558,0,0,0-1.9-.218c-.164.126-.318.161-.447-.047a3.416,3.416,0,0,0-1.646-.214c-.163.123-.317.163-.441-.051a2.465,2.465,0,0,0-1.391-.209c-.163.118-.316.167-.435-.056l-5.844-.99c-.353.207-.7.023-1.045-.022a1.58,1.58,0,0,0-1.562,1.58,1.622,1.622,0,0,1,.252,1.119q.008,4.7,0,9.392A2.282,2.282,0,0,1,1235.825,60.135Z" transform="translate(0 -0.206)"/>
        <path id="Trazado_565215" data-name="Trazado 565215" d="M1263.8,32.634c2.467.454,4.271,2.9,4.425,6a5.189,5.189,0,0,1-.332,2.3c-.451,1.075-1.341,1.2-1.937.206a17.657,17.657,0,0,1-1.111-2.623,4.437,4.437,0,0,0-1.9-2.687c-.347-.376-.8-.1-1.192-.185-.019,0-.052.058-.078.09l.1.075-3.166,1.3c-4.05,1.872-6.07,5.412-7.619,9.32-.463,1.168-.832,2.375-1.185,3.583-.132.452-.193.948-.657,1.224-1.816.008-3.541-.952-5.549-.331a22.078,22.078,0,0,1,3.989-8.178,33.21,33.21,0,0,1,4.757-5.019c.526-.472.931-.939.486-1.674l1.566-1.052c.7.469,1.278.172,1.919-.208,1.6-.953,3.185-1.993,5.132-2.132C1262.236,32.769,1263.019,32.573,1263.8,32.634Z" transform="translate(-7.314 -6.183)" fill="#365d7c"/>
        <path id="Trazado_565216" data-name="Trazado 565216" d="M1255.687,168.572c.061-.91-.61-1.128-1.275-1.388a17.569,17.569,0,0,1-7.1-4.769,12.636,12.636,0,0,1-.929-1.4c1.418.914,2.538,2.2,3.987,3.09a22.662,22.662,0,0,0,13.544,3.4c2.362-.149,3.877-1.6,4.914-3.6.681-1.309,1.211-2.7,1.9-4,1.959-3.7,5.013-4.443,8.578-3.138,2.264.829,3.139,3,4.055,5.039.357.792.68,1.605,1.106,2.359a6.2,6.2,0,0,0,5.857,3.386c6.237-.034,11.665-1.961,16.1-6.444a4.116,4.116,0,0,1,.518-.385,9.274,9.274,0,0,1-3.7,4.048A24.158,24.158,0,0,1,1288.825,169c-2.439-.024-3.932-1.492-5.087-3.327-1.108-1.761-1.912-3.712-2.972-5.507-2.07-3.506-6.288-3.513-8.389.03a40.4,40.4,0,0,0-2.171,4.16,11.891,11.891,0,0,1-2.949,3.761,4.842,4.842,0,0,1-3.213.891,18.262,18.262,0,0,1-4.674-.414c-.721-.145-1.388-.171-1.853.536A5.748,5.748,0,0,1,1255.687,168.572Z" transform="translate(-9.365 -97.388)" fill="#71ceeb"/>
        <path id="Trazado_565217" data-name="Trazado 565217" d="M1241.458,127.362c-.169-3.923-.184-7.847,0-11.77h.253a24.676,24.676,0,0,1,.115,4.65,58.7,58.7,0,0,1-.111,6.86Z" transform="translate(-5.633 -67.433)" fill="#9ae9fe"/>
        <path id="Trazado_565218" data-name="Trazado 565218" d="M1480.47,115.593c.19,3.923.177,7.846,0,11.769l-.257-.261c-.292-2.629-.081-5.266-.112-7.9a14.523,14.523,0,0,1,.116-3.61Z" transform="translate(-181.865 -67.434)" fill="#9ae9fe"/>
        <path id="Trazado_565219" data-name="Trazado 565219" d="M1242.814,127.1q0-5.755,0-11.509a.911.911,0,0,1,.264.826q0,4.928,0,9.856A.92.92,0,0,1,1242.814,127.1Z" transform="translate(-6.729 -67.433)" fill="#8dd5f0"/>
        <path id="Trazado_565220" data-name="Trazado 565220" d="M1479.954,115.592l0,11.509a.921.921,0,0,1-.261-.827v-9.856A.911.911,0,0,1,1479.954,115.592Z" transform="translate(-181.6 -67.434)" fill="#8dd5f0"/>
        <path id="Trazado_565221" data-name="Trazado 565221" d="M1432.726,115.5l.451-.048,1.064.135C1433.574,115.792,1433.129,115.879,1432.726,115.5Z" transform="translate(-146.93 -67.334)" fill="#97e3fd"/>
        <path id="Trazado_565222" data-name="Trazado 565222" d="M1295.052,116.462l.453.043c-.4.382-.847.287-1.517.1Z" transform="translate(-44.51 -68.076)" fill="#98e4fe"/>
        <path id="Trazado_565223" data-name="Trazado 565223" d="M1424.763,116.317l.056-.036.051.042.955.12a1.2,1.2,0,0,1-1.144.089c-.014-.005-.012-.081,0-.117A.4.4,0,0,1,1424.763,116.317Z" transform="translate(-140.985 -67.943)" fill="#98e6fe"/>
        <path id="Trazado_565224" data-name="Trazado 565224" d="M1305.648,117.443l.447.037c-.393.445-.856.2-1.308.084Z" transform="translate(-52.482 -68.801)" fill="#98e5fe"/>
        <path id="Trazado_565225" data-name="Trazado 565225" d="M1247.812,109.207a1.086,1.086,0,0,1,1.045.022A.639.639,0,0,1,1247.812,109.207Z" transform="translate(-10.421 -62.628)" fill="#99e7fe"/>
        <path id="Trazado_565226" data-name="Trazado 565226" d="M1471.7,109.23a1.086,1.086,0,0,1,1.045-.022A.639.639,0,0,1,1471.7,109.23Z" transform="translate(-175.706 -62.629)" fill="#99e7fe"/>
        <path id="Trazado_565227" data-name="Trazado 565227" d="M1272.432,113.428l.435.056a.9.9,0,0,1-1.038.17C1271.971,113.365,1272.251,113.525,1272.432,113.428Z" transform="translate(-28.151 -65.837)" fill="#97e3fd"/>
        <path id="Trazado_565228" data-name="Trazado 565228" d="M1279.439,114.439l.441.051c-.283.361-.65.225-1.032.085Z" transform="translate(-33.333 -66.583)" fill="#97e4fd"/>
        <path id="Trazado_565229" data-name="Trazado 565229" d="M1440.721,114.491l.443-.053.8.142C1441.388,114.773,1441.037,114.846,1440.721,114.491Z" transform="translate(-152.833 -66.582)" fill="#97e4fd"/>
        <path id="Trazado_565230" data-name="Trazado 565230" d="M1286.918,115.451l.447.047c-.287.331-.639.283-1.213.134Z" transform="translate(-38.725 -67.33)" fill="#97e3fd"/>
        <path id="Trazado_565231" data-name="Trazado 565231" d="M1391.078,35.823a4.275,4.275,0,0,0-1.892,2.688,10.836,10.836,0,0,1-1.191,2.731c-.565.787-1.314.749-1.748-.086-1.426-2.743.607-8.288,3.977-8.522.783-.061,1.566.135,2.349,0a4.982,4.982,0,0,1,2.483.71c7.124,3.72,12.577,8.961,15.188,16.771.054.161.082.331.181.741-1.973-.54-3.716.328-5.551.375-.5-.31-.543-.861-.691-1.35A36.564,36.564,0,0,0,1401.44,43a13.169,13.169,0,0,0-6.026-5.9l-3.154-1.29A.9.9,0,0,0,1391.078,35.823Z" transform="translate(-112.277 -6.184)" fill="#365d7c"/>
        <path id="Trazado_565232" data-name="Trazado 565232" d="M1422.568,49.73c2.332.307,3.731,1.983,4.986,3.668a28.636,28.636,0,0,1,4.474,10.463c-1.711.5-1.759.452-2.132-1.225-.943-4.236-2.429-8.214-5.6-11.356C1423.751,50.736,1423.147,50.246,1422.568,49.73Z" transform="translate(-139.431 -18.813)" fill="#2a4b64"/>
        <path id="Trazado_565233" data-name="Trazado 565233" d="M1484.095,116.785v10.9h-.131V116.823Z" transform="translate(-184.756 -68.315)" fill="#020304"/>
        <path id="Trazado_565234" data-name="Trazado 565234" d="M1405.091,32.021a2.409,2.409,0,0,1-2.349,0A3.145,3.145,0,0,1,1405.091,32.021Z" transform="translate(-124.795 -5.569)" fill="#386283"/>
        <path id="Trazado_565235" data-name="Trazado 565235" d="M1406,43.913a1.039,1.039,0,0,1,1.24-.229c.019.008.026.078.016.113a.386.386,0,0,1-.073.1Z" transform="translate(-127.203 -14.274)" fill="#386282"/>
        <path id="Trazado_565236" data-name="Trazado 565236" d="M1264.8,63.858a28.184,28.184,0,0,1,4.473-10.462c1.26-1.682,2.655-3.36,4.987-3.667-4.372,3.423-6.412,8.132-7.4,13.421C1266.592,64.634,1265.648,64.081,1264.8,63.858Z" transform="translate(-22.964 -18.813)" fill="#2a4c64"/>
        <path id="Trazado_565237" data-name="Trazado 565237" d="M1239.228,116.8v10.9h-.131V116.83Z" transform="translate(-3.987 -68.325)" fill="#020304"/>
        <path id="Trazado_565238" data-name="Trazado 565238" d="M1354.176,114.038H1346v-.131h8.288Z" transform="translate(-82.905 -66.19)" fill="#040404"/>
        <path id="Trazado_565239" data-name="Trazado 565239" d="M1314.143,32.02a2.406,2.406,0,0,1-2.35,0A3.152,3.152,0,0,1,1314.143,32.02Z" transform="translate(-57.654 -5.569)" fill="#386283"/>
        <path id="Trazado_565240" data-name="Trazado 565240" d="M1312.189,43.845c-.113-.064-.413-.189-.259-.226a2.464,2.464,0,0,1,1.5.028c.017.007.021.08.009.115a.4.4,0,0,1-.076.1Z" transform="translate(-57.723 -14.226)" fill="#386282"/>
      </g>
    </g>
  </g>
</svg>
