<svg xmlns="http://www.w3.org/2000/svg" xmlns:xlink="http://www.w3.org/1999/xlink" width="130.935" height="130.94" viewBox="0 0 130.935 130.94"><defs><clipPath id="a"><path d="M279.694,128.988a48.8,48.8,0,1,1-48.8-48.805A48.8,48.8,0,0,1,279.694,128.988Z" transform="translate(207.526 48.943)" fill="#fff"/></clipPath></defs><g transform="translate(-1218.339 -1856.877)"><path d="M321.62,199.579A65.468,65.468,0,1,1,256.154,134.1,65.467,65.467,0,0,1,321.62,199.579Z" transform="translate(1027.654 1722.772)" fill="#47b5ab"/><path d="M295.231,189.852a48.8,48.8,0,1,1-48.8-48.807A48.8,48.8,0,0,1,295.231,189.852Z" transform="translate(1037.38 1732.5)" fill="#fff"/><g transform="translate(845.39 1744.417)" clip-path="url(#a)"><g transform="translate(-940.403 -442.098)"><path d="M1427.929,684.638l-.006,2.97a5.958,5.958,0,0,0-.591,3.123c.03.895.021,1.792,0,2.688-.045,1.8-.334,2.113-2.145,2.116q-14.984.027-29.968,0c-1.782,0-2.087-.322-2.091-2.157-.019-8.467,0-16.934-.018-25.4a2.755,2.755,0,0,1,1.546-2.737c.516-.266,1-.6,1.493-.906A11.9,11.9,0,0,0,1402,653.791c.03-1.28-.288-2.6.318-3.838a3.922,3.922,0,0,1,2.072-.408q5.835-.021,11.67,0a7.173,7.173,0,0,1,1.853.251c.608.444.476,1.114.495,1.721a37.045,37.045,0,0,0,.222,4.553c.533,3.447,2.159,6.333,5.2,7.9,2.936,1.516,3.939,3.551,3.493,6.66-.17,1.184.019,2.416-.042,3.622a3.362,3.362,0,0,0,.872,2.686c-.462,1.082-.116,2.218-.224,3.324A3.72,3.72,0,0,0,1427.929,684.638Z" transform="translate(-31.436 -44.953)" fill="#fcc974"/><path d="M1424.925,612.8c-.02-1.413-.062-2.827-.052-4.24.005-.75-.183-1.307-1-1.469q0-1.553,0-3.106c.771-.115,1.1-.87,1.726-1.192.877.023.495.7.5,1.082.037,2.448.012,4.9.025,7.346a2.427,2.427,0,0,0,.128,1.308l0,.27A1.014,1.014,0,0,1,1424.925,612.8Z" transform="translate(-53.921 -10.791)" fill="#f98c4b"/><path d="M1519.6,768.064c-1.637-.463-.848-1.814-1-2.8-.121-.773.071-1.435,1.006-1.575C1520.868,764.514,1520.866,767.19,1519.6,768.064Z" transform="translate(-123.107 -128.378)" fill="#050503"/><path d="M1416.769,737.436c-2.657-.773-3.4-1.756-3.405-4.51,0-4.207.033-8.414-.021-12.62-.016-1.246.338-1.759,1.669-1.749q10,.076,20,0c1.327-.01,1.689.5,1.673,1.745-.055,4.206-.019,8.413-.022,12.62,0,2.757-.746,3.739-3.4,4.513-.336.412-.81.31-1.241.311q-7.006.014-14.012,0C1417.579,737.745,1417.105,737.847,1416.769,737.436Z" transform="translate(-46.224 -95.396)" fill="#020101"/><path d="M1429.042,817.215H1396.9v-.134h32.186Z" transform="translate(-34.205 -167.403)" fill="#fece77"/><path d="M1437.8,716.545c-.356.4-.831.253-1.26.254q-9.768.012-19.536,0c-.429,0-.9.142-1.26-.254a1.48,1.48,0,0,1,.911-.129q10.117,0,20.234,0A1.48,1.48,0,0,1,1437.8,716.545Z" transform="translate(-47.977 -93.824)" fill="#fed57a"/><path d="M1437.8,716.143h-22.055c.351-.406.827-.263,1.256-.264q9.772-.012,19.544,0C1436.969,715.879,1437.446,715.737,1437.8,716.143Z" transform="translate(-47.977 -93.422)" fill="#f8c672"/><path d="M1424.365,788.7h16.495l.627.316a.919.919,0,0,1-.508.132h-16.735a.92.92,0,0,1-.508-.132Z" transform="translate(-53.82 -146.66)" fill="#fed77b"/><path d="M1423.736,789.874h17.752c-.306.371-.732.266-1.12.267q-7.756.008-15.511,0C1424.468,790.14,1424.042,790.245,1423.736,789.874Z" transform="translate(-53.82 -147.518)" fill="#f7c572"/><path d="M1427.782,649.8v-.272a3.837,3.837,0,0,1,1.71-.122q6.278-.021,12.556,0a2.478,2.478,0,0,1,1.309.125v.271c-.694.422-1.386-.037-2.083-.027q-5.7.081-11.409,0C1429.167,649.763,1428.476,650.223,1427.782,649.8Z" transform="translate(-56.776 -44.832)" fill="#f9c772"/><path d="M1411.009,735.988c-.292.1-.269-.125-.269-.287q0-7.245,0-14.489a.422.422,0,0,1,.053-.247c.035-.043.142-.028.217-.038a5.649,5.649,0,0,1,.122,2.113q.027,5.818,0,11.637A2.477,2.477,0,0,1,1411.009,735.988Z" transform="translate(-44.32 -97.129)" fill="#f8c572"/><path d="M1501.24,720.861c.292-.1.269.123.269.285q0,7.245,0,14.489a.422.422,0,0,1-.052.247c-.035.043-.142.029-.217.04a5.608,5.608,0,0,1-.122-2.113q-.027-5.819,0-11.637A2.489,2.489,0,0,1,1501.24,720.861Z" transform="translate(-110.346 -97.063)" fill="#f8c572"/><path d="M1500.968,720.926q0,7.531,0,15.061c-.324-.268-.256-.641-.256-.99q0-6.541,0-13.081C1500.713,721.568,1500.644,721.194,1500.968,720.926Z" transform="translate(-110.073 -97.128)" fill="#fed67a"/><path d="M1411.745,735.987q0-7.53,0-15.061c.324.268.255.642.255.99q0,6.54,0,13.081C1412,735.346,1412.069,735.719,1411.745,735.987Z" transform="translate(-45.056 -97.128)" fill="#fed67a"/><path d="M1406.679,645.1a15.808,15.808,0,0,1-3.153-10.316c.113-3.179.052-6.366.01-9.548-.035-2.695-1.974-5.135-4.536-5.1-2.239.029-3.811-1.056-5.5-2.092a9.882,9.882,0,0,1-4.974-8.951q-.007-6.523,0-13.046c0-4.436-.006-4.43-3.283-7.4a2.143,2.143,0,0,0-1.557-.616q-4.909.037-9.817,0a1.875,1.875,0,0,0-1.445.549c-.921.917-1.88,1.8-2.809,2.7-.806.789-.832,1.462.34,1.91.814.37,1.1-.726,1.81-.664.34.376.187.844.189,1.275.013,2.5.011,5.007.007,7.513,0,.127-.007.25-.009.377-.021.177-.061.394-.259.379-.4-.029-.237-.375-.287-.6-.008-1.233.075-2.474-.047-3.706-.08-.8-.253-1.635-1.4-1.472-.872.188-.9.842-.9,1.555.012,3.811.031,7.621,0,11.432a11.054,11.054,0,0,1-10.126,10.742,5.194,5.194,0,0,0-4.877,5.134c-.048,2.33-.118,4.668.007,6.992.268,4.966-.3,9.671-3.652,13.653a1.07,1.07,0,0,0-.073.113.906.906,0,0,0,.207,1.4c.558.364,1,.116,1.371-.381,2.468-3.31,4.11-6.9,4.021-11.148-.073-3.45-.028-6.9-.009-10.355a3.383,3.383,0,0,1,2.6-3.47c1.471-.341,1.7-.162,1.7,1.329q0,13.516-.012,27.033c0,1.053.181,1.7,1.45,1.7q17.146-.038,34.292,0c1.037,0,1.446-.415,1.427-1.448q-.061-3.227,0-6.455a1.336,1.336,0,0,0-.891-1.465,1.3,1.3,0,0,0-1.02,1.494c.047,1.567-.063,3.142.04,4.7.072,1.1-.313,1.311-1.339,1.308q-15.392-.057-30.784,0c-1.089,0-1.31-.315-1.3-1.341.042-7.932.156-15.867-.051-23.794-.069-2.651.64-4.157,3.013-5.444,4.024-2.181,5.855-5.882,5.9-10.454.015-1.387.039-2.775.06-4.162a1.266,1.266,0,0,1,.444-.16c2.489-.242,4.985-.1,7.477-.1a70.5,70.5,0,0,1,7.21.1,1.243,1.243,0,0,1,.444.16,10.919,10.919,0,0,1,.052,1.471c-.635,6.684,1.954,11.58,8.043,14.53a1.383,1.383,0,0,1,.822,1.49c-.041,2.686,0,5.374-.026,8.061-.009.9.206,1.508,1.248,1.462.652-.305.651-.882.649-1.485-.01-2.555.026-5.111-.022-7.666-.015-.78.223-.987.981-.95a3.368,3.368,0,0,1,3.332,3.487c.03,3.138.1,6.279-.014,9.414a17.016,17.016,0,0,0,3.477,11.311c.488.638.79,1.972,1.95,1.161C1408.135,646.512,1407.128,645.705,1406.679,645.1Zm-23.572-42.813-.233-.006q-4.082-.009-8.164,0l-.233.006c-.457-1.834-.123-3.7-.177-5.544-.033-1.146-.51-2.64.2-3.359s2.2-.19,3.352-.219c1.52-.038,3.041-.016,4.562,0,.37,0,.9-.152.881.5C1383.19,596.531,1383.548,599.417,1383.107,602.286Z" transform="translate(0 0)" fill="#010101"/><path d="M1444.321,596.4c-1.206,0-2.411,0-3.617,0-.436,0-.779-.026-.8-.619-.018-.624.276-.745.814-.741,2.455.016,4.911.011,7.367,0,.492,0,.868.027.865.69s-.407.672-.883.669C1446.822,596.39,1445.572,596.4,1444.321,596.4Z" transform="translate(-65.639 -5.123)" fill="#e46b23"/><path d="M1481.359,602.8a1.272,1.272,0,0,1,.742,1.294c-.042,2.9-.05,5.807-.07,8.71a1.016,1.016,0,0,1-1.331,0l0-.27c.311-2.881.032-5.772.152-8.655C1480.869,603.5,1480.478,602.82,1481.359,602.8Z" transform="translate(-95.452 -10.798)" fill="#f98b4a"/><path d="M1443.357,648.914h-15.576c.1-.562.552-.342.85-.343q6.938-.023,13.875,0C1442.8,648.572,1443.258,648.352,1443.357,648.914Z" transform="translate(-56.776 -44.217)" fill="#fed47a"/><path d="M1430.94,611.359c-.426-.4-.254-.914-.257-1.38-.016-2.346,0-4.693-.013-7.039,0-.465.154-1-.383-1.316.157-.152.332-.448.467-.43.364.047.243.409.242.649Q1430.978,606.6,1430.94,611.359Z" transform="translate(-58.608 -9.621)" fill="#fe904d"/><path d="M1481.16,601.628c-.54.316-.382.85-.385,1.314-.013,2.346,0,4.693-.014,7.039,0,.467.169.985-.258,1.38q-.031-4.759-.056-9.518c0-.24-.121-.6.245-.647C1480.83,601.18,1481,601.475,1481.16,601.628Z" transform="translate(-95.253 -9.624)" fill="#fe904d"/><path d="M1449.342,643.32h-8.474v-.135h8.517Z" transform="translate(-66.341 -40.311)" fill="#040404"/><path d="M1427.78,639.97h1.33C1428.651,640.6,1428.24,640.6,1427.78,639.97Z" transform="translate(-56.776 -37.961)" fill="#fe954f"/><path d="M1480.7,639.968h1.331C1481.571,640.6,1481.16,640.6,1480.7,639.968Z" transform="translate(-95.452 -37.96)" fill="#fe954f"/><path d="M1422.081,753.094a1.337,1.337,0,0,1-1.332-1.359,56.787,56.787,0,0,0-.013-8.6c.159-.42.525-.252.8-.252q8.882-.016,17.766,0c.275,0,.642-.168.8.252a57.3,57.3,0,0,0-.014,8.6,1.332,1.332,0,0,1-1.331,1.359.743.743,0,0,0-.372-.181c-5.309.024-10.616.017-15.921.009A.823.823,0,0,0,1422.081,753.094Z" transform="translate(-51.627 -113.147)" fill="#fa8c4b"/><path d="M1421.258,728.926c-.223.033-.475.145-.547-.212a.4.4,0,0,0,.063-.117c.287-2.168.287-2.169,2.525-2.169h15.006c1.586,0,1.588,0,1.64,1.648a1.007,1.007,0,0,0,.145.637c-.088.28-.323.262-.542.261q-9-.022-18.009-.048c.206-.656.749-.329,1.12-.331,5.37-.023,10.74-.016,15.888-.016.4-.048.129-.291.22-.139.012.021-.128.127-.209.127q-5.092.012-10.183,0c-1.921,0-3.841-.006-5.761,0C1422.139,728.581,1421.612,728.433,1421.258,728.926Z" transform="translate(-51.609 -101.149)" fill="#e76c23"/><path d="M1442.409,779.48v.279a15.264,15.264,0,0,1-3.59.128c-3.879.026-7.758.013-11.637.005a3.2,3.2,0,0,1-1.449-.132v-.28a2.09,2.09,0,0,1,1.177-.126q7.161-.011,14.321,0A2.088,2.088,0,0,1,1442.409,779.48Z" transform="translate(-55.28 -139.813)" fill="#fe9650"/><path d="M1439.885,728.143c-.059-.066-.155-.123-.172-.2-.453-1.955-.452-1.956-2.547-1.956-4.871,0-9.742.027-14.612-.02-1.185-.012-2.065.057-1.793,1.594.031.173-.165.386-.255.58-.192-2.485-.192-2.485,2.192-2.485,5.177,0,10.353-.012,15.529.006,1.925.007,1.691-.328,1.719,1.681C1439.95,727.611,1439.907,727.877,1439.885,728.143Z" transform="translate(-51.404 -100.579)" fill="#ef7125"/><path d="M1422.742,734.4c.07-.386.336-.483.685-.483,5.762,0,11.524,0,17.521,0a2.443,2.443,0,0,1-1.6.258c-4.967.013-9.934,0-14.9.016-.477,0-.991-.155-1.42.209Z" transform="translate(-53.094 -106.621)" fill="#ea6e24"/><path d="M1442.393,786.267h-16.586v-.135h16.583Z" transform="translate(-55.333 -144.784)" fill="#040302"/><path d="M1420.477,743.905c.4.347.261.819.264,1.245q.019,3.053,0,6.107c0,.426.138.9-.251,1.252C1420.336,749.641,1420.359,746.773,1420.477,743.905Z" transform="translate(-51.369 -113.922)" fill="#fe924e"/><path d="M1491.837,752.509c-.471-.539-.232-1.188-.242-1.783-.033-1.858-.02-3.717-.006-5.575,0-.426-.139-.9.263-1.245C1491.967,746.773,1491.992,749.642,1491.837,752.509Z" transform="translate(-103.376 -113.922)" fill="#fe924e"/><path d="M1441.5,744.26h-17.617v-.134h17.662Z" transform="translate(-53.928 -114.084)" fill="#fe8e4c"/><path d="M1442.348,779.148h-16.675c-.095-.292.125-.269.287-.269q8.051,0,16.1,0a.422.422,0,0,1,.247.052C1442.352,778.966,1442.337,779.073,1442.348,779.148Z" transform="translate(-55.219 -139.481)" fill="#f58949"/></g></g></g></svg>