<svg xmlns="http://www.w3.org/2000/svg" xmlns:xlink="http://www.w3.org/1999/xlink" width="97.608" height="97.611" viewBox="0 0 97.608 97.611">
  <defs>
    <clipPath id="clip-path">
      <path id="Trazado_564229" data-name="Trazado 564229" d="M279.694,128.988a48.8,48.8,0,1,1-48.8-48.805A48.8,48.8,0,0,1,279.694,128.988Z" transform="translate(207.526 48.943)" fill="#fff"/>
    </clipPath>
  </defs>
  <g id="Grupo_841708" data-name="Grupo 841708" transform="translate(-269.389 -1873.543)">
    <g id="Grupo_841707" data-name="Grupo 841707">
      <g id="Grupo_841706" data-name="Grupo 841706">
        <g id="Grupo_841704" data-name="Grupo 841704">
          <g id="Grupo_841705" data-name="Grupo 841705">
            <path id="Trazado_563962" data-name="Trazado 563962" d="M295.231,189.852a48.8,48.8,0,1,1-48.8-48.807A48.8,48.8,0,0,1,295.231,189.852Z" transform="translate(71.766 1732.5)" fill="#fff"/>
          </g>
        </g>
        <g id="Enmascarar_grupo_700032" data-name="Enmascarar grupo 700032" transform="translate(-120.223 1744.417)" clip-path="url(#clip-path)">
          <g id="Grupo_841467" data-name="Grupo 841467" transform="translate(-1326.383 -259.728)">
            <path id="Trazado_564798" data-name="Trazado 564798" d="M1776.253,425.433c.7.247.712.791.639,1.407a60.185,60.185,0,0,0-.46,9.461,18.212,18.212,0,0,0,.5,3.838,5.242,5.242,0,0,0,4.737,4.077c1.81.259,3.652.31,5.456.6,3.4.549,5.049,2.362,5.211,5.807.115,2.438.072,4.885.027,7.326a2.726,2.726,0,0,1-2.68,2.705c-1.866.06-3.736,0-5.6.035-.731.013-1.083-.5-1.482-.935-.348-.381-.6-.386-.92.008a1.943,1.943,0,0,1-1.921.922c-.533-.093-.537.262-.559.66-.153,2.8-.986,3.571-3.808,3.571-1.078,0-2.157-.034-3.233.01-1.105.045-2.152.031-2.859-1.024-.335-.5-.578-.112-.834.125a2.719,2.719,0,0,1-4.18-.036c-.37-.349-.62-.424-.922.009a2.336,2.336,0,0,1-2.361.928,11.055,11.055,0,0,0-1.938,0,4.215,4.215,0,0,1-3.741-1.151c-.349-.377-.671-.318-1,.026a4.271,4.271,0,0,1-3.532,1.137c-2.729-.075-5.46-.019-8.191-.024-2.275,0-3.309-1.072-3.358-3.374-.073-3.458.419-6.88.608-10.322a133.651,133.651,0,0,0-1.062-24.937c-.123-.925-.226-1.854-.365-2.776-.126-.83-.109-1.7-.908-2.3-.35-.263-.343-.762-.339-1.2.01-1.113-.006-2.227.006-3.341a1.792,1.792,0,0,1,2.046-2.046c3.377-.016,6.754-.031,10.131.013.792.01,1.028-.169,1.02-1-.03-3.369.108-3.473,3.528-3.473h22.849c2.033,0,2.51.485,2.513,2.552,0,.826-.014,1.653,0,2.478a2.957,2.957,0,0,1-.609,1.989c-.566.748-.476,1.775-.692,2.675a22.128,22.128,0,0,0-.432,2.437,1.051,1.051,0,0,1-.93,1.015c-.782.092-.874-.461-.909-1.014a12.372,12.372,0,0,1,.33-2.642,4.064,4.064,0,0,0,.144-1.578c-.322-.428-.788-.267-1.193-.27-2.424-.016-4.848-.011-7.272-.006-1.309,0-1.318.018-1.329,1.3,0,.428.006.856-.012,1.283-1.443,3.044-1.665,6.366-2.174,9.62,0,.322-.325.706.183.932,3.115.105,6.226.025,9.337.041a1.2,1.2,0,0,0,.709-.2,15.6,15.6,0,0,0,.391-2.968,5.341,5.341,0,0,1,.355-1.787C1775.373,425.578,1775.658,425.194,1776.253,425.433Z"/>
            <path id="Trazado_564799" data-name="Trazado 564799" d="M1900.961,445.24c-.223,1.334-.427,2.672-.678,4a1.064,1.064,0,0,0,.649,1.385q-.183,1.064-.364,2.128a1.008,1.008,0,0,0-.945,1.078c-.1,1.274-.241,2.546-.384,3.816-.029.257.129.582-.211.758a1.877,1.877,0,0,0-.481-.157c-.87-.07-1.775.223-2.607-.248a1.33,1.33,0,0,1-.244-.7,78.732,78.732,0,0,1,1.592-11.363,1.462,1.462,0,0,1,.526-.817A6.8,6.8,0,0,1,1900.961,445.24Z" transform="translate(-124.314 -27.322)" fill="#fcd66f"/>
            <path id="Trazado_564800" data-name="Trazado 564800" d="M1767.368,556.905a16.777,16.777,0,0,0-1.924-3.825,11.053,11.053,0,0,0-7.3-4.71c-.491-.081-.744-.166-.727-.77.078-2.759.095-5.52.134-8.28.024-.535-.39-1.129.211-1.587q1.338,1.054,2.675,2.108a3.947,3.947,0,0,0,1.688.9c1.213.232,1.91-.277,2.389-1.728.205-.584-.039-1.206.15-1.792.119-.908.6-1.365,1.545-1.222a45.514,45.514,0,0,0,5.113.1c1.1.029,2.211,0,3.315.011.645.3.5.9.5,1.406a45.593,45.593,0,0,0,.435,6.849,6.6,6.6,0,0,0,4.636,5.646,44.786,44.786,0,0,0,6.594,1.485,7.908,7.908,0,0,1,2.355.713,2.892,2.892,0,0,1,1.717,2.307c.025,2.267.025,2.268-2.252,2.269q-10.292,0-20.58.006a1.36,1.36,0,0,0-.343.077A.4.4,0,0,1,1767.368,556.905Z" transform="translate(-15.868 -98.673)" fill="#fce487"/>
            <path id="Trazado_564801" data-name="Trazado 564801" d="M1751.021,472.076q-.523-4.31-1.044-8.62c-.1-.85-.583-2.029-.205-2.468.488-.567,1.679-.166,2.566-.176,2.219-.026,4.438-.013,6.657-.005.509,0,1.012.025,1.361-.445.485-.836.995-.935,2.091-.406.145.695.615.859,1.265.857,2.318-.008,4.637.019,6.955.033a1.278,1.278,0,0,1,.149,1.22,87.617,87.617,0,0,0-1.563,11.328,1,1,0,0,1-.522.98c-2.689.014-5.378.023-8.067.044-2.8.022-3.71.918-3.842,3.732-.018.386.121.914-.266,1.089-.415.189-.8-.206-1.125-.474-1.251-1.02-2.48-2.066-3.741-3.073a1.338,1.338,0,0,1-.556-1.093c-.017-.715-.056-1.43-.085-2.145.239-.373.023-.767.089-.984A.653.653,0,0,1,1751.021,472.076Z" transform="translate(-9.761 -38.798)" fill="#fce487"/>
            <path id="Trazado_564802" data-name="Trazado 564802" d="M1864.342,531.795c-3.647-.066-5.865-2.208-6.03-5.825.208-.281.04-.611.144-.984-.1.25.04.491-.185.623a6,6,0,0,1-.17-2.227,8.125,8.125,0,0,0,0-2.8,23.778,23.778,0,0,1,.248-4.317.785.785,0,0,1,.355-.183c2.472-.036,4.945-.071,7.416.018.563.3.428.851.475,1.333a45.066,45.066,0,0,0,1.21,7.972,6.317,6.317,0,0,0,4.942,4.722c1.75.424,3.557.471,5.31.882a5.4,5.4,0,0,1,4.4,4.713,1.536,1.536,0,0,1-.212,1.431l-7.829.042c-.292,0-.538.013-.621-.394-.662-3.255-2.981-4.4-5.987-4.651a.232.232,0,1,1,.139-.2c-.337-.019-.673-.159-1.01.051a6.758,6.758,0,0,1-2.229-.176.54.54,0,0,1,.555-.119C1865.1,531.75,1864.707,531.563,1864.342,531.795Z" transform="translate(-94.81 -83.043)" fill="#fce487"/>
            <path id="Trazado_564803" data-name="Trazado 564803" d="M1859.476,515.476h-.088l-.088,0c-.072-.567.357-.422.639-.423,3.3-.006,6.6.018,9.895-.015.691-.007.727.3.711.838a29.9,29.9,0,0,0,.321,5.573c.658,4.148,2.939,6.309,7.125,6.756.389.042.773.122,1.16.185a.409.409,0,0,1-.452.126c.207-.038.526.108.83-.1a14.158,14.158,0,0,1,3.405.27c2.344.431,3.453,1.813,3.492,4.261-.309,1.125.092,2.293-.211,3.418l-3.021,0c-.1-4.737-2.547-5.761-6.363-6.218a18.852,18.852,0,0,1-4.4-.863c-2.61-.971-3.769-3.1-4.28-5.63a40.24,40.24,0,0,1-.918-8.176A55.753,55.753,0,0,0,1859.476,515.476Z" transform="translate(-95.765 -82.252)" fill="#fcd66e"/>
            <path id="Trazado_564804" data-name="Trazado 564804" d="M1758.944,443.049c-.7.116-1.51-.323-2.09.407a.974.974,0,0,0-.742-1.247c-.3-.287-.677-.128-1.013-.129-2.974-.015-5.948-.028-8.921.006-.7.008-.933-.185-.916-.9a10.406,10.406,0,0,0-.1-2.886c.183-.35.51-.187.766-.187q11.967-.015,23.934,0c.261,0,.583-.149.778.18a24.7,24.7,0,0,0-.016,2.69c.038.821-.216,1.128-1.095,1.113-3.05-.052-6.1-.023-9.152-.015-.233,0-.508-.118-.694.144A1.329,1.329,0,0,0,1758.944,443.049Z" transform="translate(-6.259 -21.892)" fill="#febb84"/>
            <path id="Trazado_564805" data-name="Trazado 564805" d="M1870.38,446.323c-.321,2.075-.673,4.145-.952,6.225-.232,1.728-.378,3.467-.562,5.2-.111.569-.348.954-1.031.95-1.852-.011-3.7.016-5.555-.015a1.187,1.187,0,0,1-.959-.385q-.114-.166-.223-.336c.5-3.29.5-6.7,2.206-9.712.2-.857-.06-1.739.145-2.6a.617.617,0,0,1,.373-.1c1.868.077,3.737-.011,5.6.053C1869.858,445.617,1870.515,445.488,1870.38,446.323Z" transform="translate(-97.181 -27.756)" fill="#fce487"/>
            <path id="Trazado_564806" data-name="Trazado 564806" d="M1853.882,554.75c-.4-1.568-1.664-2.047-3.023-2.359-2.493-.571-5.06-.777-7.489-1.678a6.977,6.977,0,0,1-4.842-6.066,60.682,60.682,0,0,1-.391-8.01l.165-.091a10.42,10.42,0,0,1,2.424.093q0,1.4,0,2.8a3.485,3.485,0,0,0-.085,1.355c.074.4.248.217.117.276-.057.025-.085.008-.094-.049-.043-.271-.121-.545.1-.783.13.957.234,1.918.394,2.87a6.923,6.923,0,0,0,6.277,6.247c1.735.262,3.505.291,5.242.55,2.934.438,4.072,1.866,4.009,4.842a4.346,4.346,0,0,0,.007,2.155l0,.214a4.068,4.068,0,0,1-2.539.083C1853.729,556.423,1854.223,555.54,1853.882,554.75Z" transform="translate(-79.175 -99.101)" fill="#fcd66e"/>
            <path id="Trazado_564807" data-name="Trazado 564807" d="M1805.875,420.305a6.971,6.971,0,0,1,.023-2.577,1.319,1.319,0,0,1,.834-.109q11.866-.006,23.732,0a1.5,1.5,0,0,1,.84.1h0a24.506,24.506,0,0,1,.1,3.428c.021.415-.167.573-.576.565-3.658-.064-7.318.122-10.974-.1a2.517,2.517,0,0,0-1.284-1.135c-3.847-.139-7.695-.019-11.541-.066A2.237,2.237,0,0,1,1805.875,420.305Z" transform="translate(-53.787 -5.84)" fill="#f4a86c"/>
            <path id="Trazado_564808" data-name="Trazado 564808" d="M1784.426,644.976c-.431-.147-.66-.534-.963-.828-1.035-1-1.205-1-2.264.03-.278.272-.585.514-.879.769a1.341,1.341,0,0,0-1.063.015,4.337,4.337,0,0,1-1.184-1.069,1.042,1.042,0,0,0-1.738,0,4.293,4.293,0,0,1-1.184,1.069,26.328,26.328,0,0,0-4.5-.046c-1.682-1.85-3.339-1.522-4.98.059a.908.908,0,0,0-.312-.185q-4.881-.086-9.759,0a.719.719,0,0,0-.281.194c-.751-.061-1.018-.57-1.053-1.221-.032-.6.015-1.2.027-1.8a1.4,1.4,0,0,1,.418-.018q16.048.02,32.1.01a3.516,3.516,0,0,1,1.489.122,2.661,2.661,0,0,1,.1,2.63,10.452,10.452,0,0,1-2.717.153C1785.257,644.9,1784.825,644.754,1784.426,644.976Z" transform="translate(-13.386 -181.778)" fill="#7d6f7c"/>
            <path id="Trazado_564809" data-name="Trazado 564809" d="M1755.226,607c.127-1.927.279-3.853.369-5.782.036-.776.519-.53.887-.455a9.381,9.381,0,0,1,5.775,3.812,7.679,7.679,0,0,1,1.334,2.426,1.269,1.269,0,0,1-.269.3,1.57,1.57,0,0,1-.928.214c-2.253-.035-4.508.126-6.759-.088A.837.837,0,0,1,1755.226,607Z" transform="translate(-14.15 -149.407)" fill="#febb84"/>
            <path id="Trazado_564810" data-name="Trazado 564810" d="M1838.168,478.58a10.835,10.835,0,0,0,.372-3.279,96.019,96.019,0,0,1,1.54-9.713,3.058,3.058,0,0,0,.024-.537c2.666-.162,2.63-.168,2.207,2.451-.473,2.929-.872,5.87-1.3,8.806-.247-.19-.1-.4-.115-.549a2.011,2.011,0,0,0,.069,1.116c.028,1.748.028,1.75-1.731,1.745C1838.875,478.62,1838.521,478.594,1838.168,478.58Z" transform="translate(-79.198 -43.005)" fill="#fcd66e"/>
            <path id="Trazado_564811" data-name="Trazado 564811" d="M1936.531,625.177a1.116,1.116,0,0,1-.177-.12c-1.437-1.434-1.457-1.752-3.107-.014-.3.32-.625.665-1.106.488-.517-.19-.248-.683-.266-1.034-.034-.643.014-1.291.028-1.937a80.268,80.268,0,0,1,8.184-.039,2.688,2.688,0,0,1,.034,2.682A7.774,7.774,0,0,1,1936.531,625.177Z" transform="translate(-152.647 -166.481)" fill="#7d6f7c"/>
            <path id="Trazado_564812" data-name="Trazado 564812" d="M1788.442,643.8q0-1.3,0-2.591a2.224,2.224,0,0,0-1.16-.1q-15.755-.01-31.509-.009a2.8,2.8,0,0,1-1.168-.083l-.18,0c.334-.417.8-.21,1.191-.21q17-.012,33.993.026c.48,0,1.216-.43,1.447.428a2.269,2.269,0,0,1-.891,2.753c-.516-.23-1.063-.03-1.589-.116Z" transform="translate(-13.523 -180.821)" fill="#695b68"/>
            <path id="Trazado_564813" data-name="Trazado 564813" d="M1957.7,624.648q0-1.294,0-2.588-.181-.121.007-.232c.5-.011,1-.031,1.5-.032,1.924,0,2.137.266,1.763,2.2a1.124,1.124,0,0,1-1.064,1.04c-1.789.045-3.58.02-5.37.01-.082,0-.162-.124-.244-.19C1955.423,624.576,1956.584,624.952,1957.7,624.648Z" transform="translate(-170.276 -165.98)" fill="#6a5c69"/>
            <path id="Trazado_564814" data-name="Trazado 564814" d="M1826.969,631.966h2.591c-.1.755-.693.352-1.01.354q-11.567.048-23.134.02a3.344,3.344,0,0,1-1.873-.162l.15-.045a2.468,2.468,0,0,1,1.366-.161c7.234-.01,14.467,0,21.7-.009Z" transform="translate(-52.043 -173.945)" fill="#fee073"/>
            <path id="Trazado_564815" data-name="Trazado 564815" d="M1807.4,415.421h24.913v.108H1807.37Z" transform="translate(-55.045 -4.127)" fill="#040302"/>
            <path id="Trazado_564816" data-name="Trazado 564816" d="M1831.783,417.588l-25.406.011c.239-.238.542-.138.816-.138q11.884-.008,23.767,0C1831.236,417.461,1831.536,417.368,1831.783,417.588Z" transform="translate(-54.266 -5.711)" fill="#d99962"/>
            <path id="Trazado_564817" data-name="Trazado 564817" d="M1812.481,443.007c.1-.558.533-.232.768-.235,2.962-.03,5.925-.052,8.886,0,.868.015,1.084-.273,1.087-1.1,0-.862-.292-1.771.216-2.6a21.306,21.306,0,0,1,.115,3.4c.029.5-.257.581-.672.578Q1817.68,443.021,1812.481,443.007Z" transform="translate(-59.053 -22.678)" fill="#fec087"/>
            <path id="Trazado_564818" data-name="Trazado 564818" d="M1754.874,630.023l.209.214c2.521.245,5.047.063,7.57.09.194,0,.312-.15.414-.3l.172,0c.3.468.481.825-.375.815q-3.691-.041-7.383,0C1754.8,630.85,1754.647,630.614,1754.874,630.023Z" transform="translate(-13.798 -172.431)" fill="#fdc48b"/>
            <path id="Trazado_564819" data-name="Trazado 564819" d="M1871.371,444.71c-.118.857.182,1.744-.19,2.582-.008-.716.012-1.433-.033-2.147-.036-.575.1-.826.753-.819,3.08.034,6.161.016,9.241.03.228,0,.642-.172.563.359h-3.228l-.193,0C1875.98,444.708,1873.676,444.721,1871.371,444.71Z" transform="translate(-105.059 -26.797)" fill="#fee375"/>
            <path id="Trazado_564820" data-name="Trazado 564820" d="M1871.06,422.012c3.431,0,6.862-.033,10.292.007.858.01,1.239-.183,1.163-1.116s-.01-1.856-.006-2.785c.4,1.211.1,2.457.174,3.685.02.321-.233.4-.516.4q-5.487-.017-10.974-.039C1871.148,422.166,1871.1,422.066,1871.06,422.012Z" transform="translate(-104.994 -6.242)" fill="#d99962"/>
            <path id="Trazado_564821" data-name="Trazado 564821" d="M1744.784,439.116c.479.872.187,1.812.2,2.715.01.759.258.975,1,.968,3.248-.032,6.5-.015,9.746-.01a.782.782,0,0,1,.25.094l-.243.145q-5.19.026-10.38.057c-.412,0-.691-.064-.664-.571A26.907,26.907,0,0,1,1744.784,439.116Z" transform="translate(-5.879 -22.71)" fill="#fec087"/>
            <path id="Trazado_564822" data-name="Trazado 564822" d="M1871.553,505.652l.223.232c-3.61.162-7.219.186-10.829,0,.311-.361.732-.221,1.109-.227,2.148-.031,4.3.036,6.444-.038a2.249,2.249,0,0,1,.384-.069A13.572,13.572,0,0,1,1871.553,505.652Z" transform="translate(-97.063 -74.799)" fill="#fee677"/>
            <path id="Trazado_564823" data-name="Trazado 564823" d="M1806.271,430.053q5.889-.005,11.778-.007c.312,0,.649-.081.916.176-3.86,0-7.721,0-11.581-.015C1807.016,430.206,1806.6,430.384,1806.271,430.053Z" transform="translate(-54.183 -15.588)" fill="#d99962"/>
            <path id="Trazado_564824" data-name="Trazado 564824" d="M1756.606,432.6h-11.055v-.108h11.1Z" transform="translate(-6.562 -17.518)" fill="#040404"/>
            <path id="Trazado_564825" data-name="Trazado 564825" d="M1746.46,459.377h10.705v.108h-10.71Z" transform="translate(-7.271 -38.6)" fill="#040302"/>
            <ellipse id="Elipse_6692" data-name="Elipse 6692" cx="7.403" cy="0.058" rx="7.403" ry="0.058" transform="translate(1751.477 420.779)" fill="#040302"/>
            <path id="Trazado_564826" data-name="Trazado 564826" d="M1759.185,654.734l0-.227a41.694,41.694,0,0,1,5.443-.091,33.361,33.361,0,0,1,4.907.092v.218C1766.087,654.842,1762.636,654.826,1759.185,654.734Z" transform="translate(-17.255 -191.526)" fill="#877886"/>
            <path id="Trazado_564827" data-name="Trazado 564827" d="M1868.233,503.744c-.327.333-.746.191-1.124.195-2.224.022-4.448.024-6.672.033-.3-.3-.043-.589.032-.88h.225c.116.573.546.548.992.546q2.748-.015,5.5,0A1.827,1.827,0,0,1,1868.233,503.744Z" transform="translate(-96.553 -72.884)" fill="#fbf18f"/>
            <path id="Trazado_564828" data-name="Trazado 564828" d="M1806.8,536.005c-2.5,0-5,.007-7.505,0-.377,0-.8.137-1.116-.2,2.875-.118,5.749-.1,8.624-.011q.108.073.073.148c-.024.05-.047.075-.071.075Z" transform="translate(-47.836 -98.468)" fill="#feee8d"/>
            <path id="Trazado_564829" data-name="Trazado 564829" d="M1940.378,621.791q0,.116-.007.232H1932.2c.087-.351.381-.263.608-.263C1935.331,621.764,1937.854,621.779,1940.378,621.791Z" transform="translate(-152.943 -165.942)" fill="#837582"/>
            <path id="Trazado_564830" data-name="Trazado 564830" d="M1752.523,552.285v6.791h-.108v-6.828Z" transform="translate(-11.946 -111.435)" fill="#030303"/>
            <path id="Trazado_564831" data-name="Trazado 564831" d="M1830.253,655.011a11.439,11.439,0,0,1,4.5.046A20.207,20.207,0,0,1,1830.253,655.011Z" transform="translate(-72.991 -191.871)" fill="#877886"/>
            <path id="Trazado_564832" data-name="Trazado 564832" d="M1894.119,655.111c1.27-.475,2.588-.1,3.878-.215l.007,0q.1.079.072.16c-.022.055-.044.082-.067.082A26.758,26.758,0,0,1,1894.119,655.111Z" transform="translate(-123.079 -191.913)" fill="#877886"/>
            <path id="Trazado_564833" data-name="Trazado 564833" d="M1957.2,635.015c-1.112.455-2.271.111-3.4.2l-.139-.177Z" transform="translate(-169.77 -176.346)" fill="#80727f"/>
            <path id="Trazado_564834" data-name="Trazado 564834" d="M1748.556,637.3v2.937h-.108V637.29Z" transform="translate(-8.834 -178.131)" fill="#040404"/>
            <path id="Trazado_564835" data-name="Trazado 564835" d="M1983.995,601.462c.111-1.137-.236-2.3.211-3.418a18.091,18.091,0,0,1,.094,2.976C1984.305,601.225,1984.313,601.465,1983.995,601.462Z" transform="translate(-193.545 -147.351)" fill="#fde677"/>
            <path id="Trazado_564836" data-name="Trazado 564836" d="M1857.9,537.08a4.02,4.02,0,0,1,0,2.8A12.423,12.423,0,0,1,1857.9,537.08Z" transform="translate(-94.611 -99.54)" fill="#feeb8b"/>
            <path id="Trazado_564837" data-name="Trazado 564837" d="M1838.154,535.926l0-.223c.866.031,1.767-.346,2.587.222Z" transform="translate(-79.186 -98.386)" fill="#fedf74"/>
            <path id="Trazado_564838" data-name="Trazado 564838" d="M1923.193,623.183a2.43,2.43,0,0,1-.007-2.155A8.5,8.5,0,0,1,1923.193,623.183Z" transform="translate(-145.68 -165.377)" fill="#fee073"/>
            <path id="Trazado_564839" data-name="Trazado 564839" d="M1849.347,550.87l-.095.924c-.086-.583-.353-1.176.06-1.723Q1849.33,550.471,1849.347,550.87Z" transform="translate(-87.762 -109.729)" fill="#fee274"/>
            <path id="Trazado_564840" data-name="Trazado 564840" d="M1757.786,543.324c-.34.493-.039,1.071-.211,1.587a12.942,12.942,0,0,1-.126-1.566C1757.46,543,1757.653,543.052,1757.786,543.324Z" transform="translate(-15.892 -104.264)" fill="#e0d17c"/>
            <path id="Trazado_564841" data-name="Trazado 564841" d="M1790.37,541.759a2.98,2.98,0,0,1-.15,1.792A4,4,0,0,1,1790.37,541.759Z" transform="translate(-41.573 -103.209)" fill="#d5c575"/>
            <path id="Trazado_564842" data-name="Trazado 564842" d="M1912.133,655.171c0-.08,0-.161,0-.242.57.094,1.187-.2,1.718.21Z" transform="translate(-137.203 -191.951)" fill="#716270"/>
            <path id="Trazado_564843" data-name="Trazado 564843" d="M1756.08,514.031l.08-.905c.131.441.318.887-.053,1.284Z" transform="translate(-14.82 -80.754)" fill="#fef08e"/>
            <path id="Trazado_564844" data-name="Trazado 564844" d="M1850.322,515.37c-.355-.406-.2-.849-.056-1.294l.1.727Q1850.346,515.087,1850.322,515.37Z" transform="translate(-88.56 -81.499)" fill="#fee174"/>
            <path id="Trazado_564845" data-name="Trazado 564845" d="M1887.127,588.237c.4-.374.844-.2,1.287-.054l-.927.088Z" transform="translate(-117.595 -139.485)" fill="#fef28f"/>
            <path id="Trazado_564846" data-name="Trazado 564846" d="M1858.986,557.215c.031-.239.062-.478.112-.869.172.531.241.9-.072,1.23Z" transform="translate(-95.525 -114.649)" fill="#feef8e"/>
            <path id="Trazado_564847" data-name="Trazado 564847" d="M1948.431,576.955c-.327.329-.7.241-1.283.087l.9-.112Z" transform="translate(-164.667 -130.793)" fill="#fee174"/>
            <path id="Trazado_564848" data-name="Trazado 564848" d="M1899.125,589.215c.307-.326.677-.21,1.066-.165-.108.263-.345.125-.493.206Z" transform="translate(-127.004 -140.253)" fill="#feef8e"/>
            <path id="Trazado_564849" data-name="Trazado 564849" d="M1870.155,655.13a.756.756,0,0,1,1.063-.015A1.524,1.524,0,0,1,1870.155,655.13Z" transform="translate(-104.284 -191.944)" fill="#877886"/>
            <path id="Trazado_564850" data-name="Trazado 564850" d="M1869.669,502.965l-6.605-.005c-.459,0-.984.093-.934-.646a1.228,1.228,0,0,0,1.023.441c1.818-.025,3.637-.043,5.454.008a1.1,1.1,0,0,0,1.066-.664q0,.323,0,.646c.077.047.1.095.077.142s-.051.071-.077.071Z" transform="translate(-97.989 -72.105)" fill="#f7df84"/>
            <path id="Trazado_564851" data-name="Trazado 564851" d="M1879.822,446.3c-.108-.594-.582-.424-.943-.427-1.577-.014-3.155,0-4.732-.011-.345,0-.727.114-1.01-.209a45.167,45.167,0,0,1,6.9,0l.009,0C1880.028,445.889,1880.068,446.143,1879.822,446.3Z" transform="translate(-106.623 -27.733)" fill="#f8e085"/>
            <path id="Trazado_564852" data-name="Trazado 564852" d="M1897.121,505.2c0-.071,0-.143,0-.214.93.12,1.9-.254,2.8.213Z" transform="translate(-125.432 -74.348)" fill="#f7d26c"/>
            <path id="Trazado_564853" data-name="Trazado 564853" d="M1827.242,621.02c.457.755.1,1.585.219,2.372l-.009,0a1.444,1.444,0,0,1-.839.1q-10.8.005-21.6,0a1.426,1.426,0,0,1-.838-.1c.034-.2.1-.278.348-.277q10.61.044,21.222.061c1.5,0,1.5,0,1.5-1.51Q1827.241,621.343,1827.242,621.02Z" transform="translate(-52.534 -165.371)" fill="#f8e185"/>
            <path id="Trazado_564854" data-name="Trazado 564854" d="M1804.169,632.016h23.282a.661.661,0,0,1-.583.2l-22.684-.039A1.063,1.063,0,0,1,1804.169,632.016Z" transform="translate(-52.534 -173.994)" fill="#fef08e"/>
            <path id="Trazado_564855" data-name="Trazado 564855" d="M1860.143,516.3c.177-.231.432-.214.68-.214h6.4c.249,0,.5-.016.679.216Z" transform="translate(-96.432 -83.071)" fill="#fee889"/>
            <path id="Trazado_564856" data-name="Trazado 564856" d="M1772.559,439.607h-23.992V439.5H1772.6Z" transform="translate(-8.928 -23.012)" fill="#fec087"/>
            <path id="Trazado_564857" data-name="Trazado 564857" d="M1879.3,445.167l-6.9,0c-.067,0-.135,0-.2-.008a10.721,10.721,0,0,1,3.71-.175A8.462,8.462,0,0,1,1879.3,445.167Z" transform="translate(-105.89 -27.25)" fill="#fef18f"/>
            <path id="Trazado_564858" data-name="Trazado 564858" d="M1755.261,642q16.467-.007,32.934-.011c.311,0,.656-.092.9.208q-16.3,0-32.6-.007C1756.081,642.193,1755.627,642.351,1755.261,642Z" transform="translate(-14.177 -181.808)" fill="#827481"/>
            <path id="Trazado_564859" data-name="Trazado 564859" d="M1769.515,654.159h-10.35c-.056-.332.2-.211.335-.211q4.665-.01,9.33,0A.757.757,0,0,1,1769.515,654.159Z" transform="translate(-17.234 -191.177)" fill="#7b6d7a"/>
            <path id="Trazado_564860" data-name="Trazado 564860" d="M1764.177,630.035a.46.46,0,0,1-.52.424c-2.4-.012-4.8-.019-7.2-.039-.087,0-.173-.113-.26-.173q3.369,0,6.738,0A2.351,2.351,0,0,0,1764.177,630.035Z" transform="translate(-14.909 -172.441)" fill="#fab882"/>
          </g>
        </g>
      </g>
    </g>
  </g>
</svg>
