<svg xmlns="http://www.w3.org/2000/svg" xmlns:xlink="http://www.w3.org/1999/xlink" width="78" height="78" viewBox="0 0 78 78"><defs><clipPath id="a"><rect width="78" height="78" transform="translate(210 915)" fill="none" stroke="#707070" stroke-width="1"/></clipPath></defs><g transform="translate(-210 -915)" clip-path="url(#a)"><g transform="translate(-1493.464 796.891)"><path d="M1715.028,138.568c.3-.256.551-.608,1.005-.621.979.714,1.747-.157,2.606-.35a7.085,7.085,0,0,1,2.716.017c2.176.622,4.194,1.729,6.451,2.1a1.688,1.688,0,0,0,1.687-1.331c.182-.6-.245-1.118-.693-1.652a8.917,8.917,0,0,1-2.051-7.9,2.444,2.444,0,0,1,2.047-1.743c.413-.089.967-.116.886.623-.328.095-.656.188-.834.067.235.017.6.178.939-.186a1.238,1.238,0,0,1,1.482.751c.629,1.319,2.127,1.895,2.67,3.259a.184.184,0,0,0,.092.088c2.147.985,3.859,2.8,6.579,2.677a72.171,72.171,0,0,1,10.564.114,1.8,1.8,0,0,0,1.232-.27c1.626-.165,2.809.9,4.15,1.514.5.229.916.656,1.527.59.555.1.854-.556,1.4-.476.7.259.488.549.112.992-1.2,1.411-.8,2.51,1.022,2.887,2.247-.385,4.259-1.48,6.427-2.1a7.116,7.116,0,0,1,2.714-.02c1.591.339,2.8,1.466,4.259,2.075a29.769,29.769,0,0,1,2.22,2.465,3.053,3.053,0,0,1-.408,3.82,14.121,14.121,0,0,1-5.6,3.812,5.155,5.155,0,0,1-3.662-.079c-.647-.266-1.164-.647-.659-1.461a1.465,1.465,0,0,1,1.118-.092,7.226,7.226,0,0,0,6.723-2.327c.236-.232.643-.446.563-.8-.1-.465-.628-.323-.973-.433a3.6,3.6,0,0,0-.508-.078,2.475,2.475,0,0,1-.384-.08,9.973,9.973,0,0,0-2.243-.1c-.776-.02-1.552-.01-2.327,0a13.285,13.285,0,0,0-3.409.332c-1.286.265-1.466.543-1.241,1.827a2.268,2.268,0,0,1,.042,1.129c-.631.642-.307,1.358-.139,2.05a34.362,34.362,0,0,1,1.046,6.343c.239,4.6-1.183,8.819-2.843,12.984a22.858,22.858,0,0,0-1.362,13.629,3.653,3.653,0,0,1-.023,1.553,12.756,12.756,0,0,1-1.693,3.743,7.791,7.791,0,0,1-3.081,2.242,7.705,7.705,0,0,1-3.852.9c-4.691-.024-9.383-.068-14.073.014a9.618,9.618,0,0,1-6.67-2.665,8.363,8.363,0,0,1-2.1-4.214,3.594,3.594,0,0,1-.039-1.555,22.806,22.806,0,0,0-1.3-13.528,41.839,41.839,0,0,1-2.645-8.617,43.2,43.2,0,0,1-.242-5.665,45.51,45.51,0,0,1,.853-4.487c.162-.811.014-1.368-.984-1.272a34.359,34.359,0,0,0-3.49,1.068,2.877,2.877,0,0,1-1.316.012,14.074,14.074,0,0,1-6.236-3.679c-1.823-1.712-1.861-3.445-.092-5.184.652-.641.982-1.6,2.035-1.861C1715.591,139.267,1714.881,138.856,1715.028,138.568Z" transform="translate(-1.75 -2.011)"/><path d="M1916.387,192.365a5.4,5.4,0,0,1,2.368.236.407.407,0,0,1-.456.119.733.733,0,0,0,.669-.091c.762.008,1.9-.055,2.1.493.262.72-.806,1.162-1.337,1.7-2.185,2.2-4.84,2.548-7.732,1.964-.25.194-.422.51-.8.512-.536.043-1.027-.769-1.6-.084-.681-.118-.435-.585-.372-.984a13.531,13.531,0,0,0-.423-1.872c-.322-.865.014-1.3.811-1.468a14.745,14.745,0,0,1,4.185-.517A5.317,5.317,0,0,0,1916.387,192.365Z" transform="translate(-147.848 -50.433)" fill="#e0a774"/><path d="M1771.1,126.534a1.907,1.907,0,0,0-2.729,1.38,8.286,8.286,0,0,0,1.473,6.646c.433.547,1.118.938,1.333,1.635a2.148,2.148,0,0,1-1.885,2.736c-.145-.183-.534-.078-.54-.377-.006-.316.367-.224.536-.367,1.324-.482,1.46-.87.614-1.894-1.476-1.788-2.585-3.714-2.436-6.142a.23.23,0,0,1,.231-.1c.145-.5-.038-1.027.1-1.529.012-.041.044-.095.029-.122-.073-.134-.063.048-.117.036a.242.242,0,0,1-.25-.1,2.529,2.529,0,0,1,1.832-2.829c.773.007,1.546-.019,2.318.018a2.408,2.408,0,0,1,1.563,1.425c1.477,2.881,4.372,4.023,6.871,5.642a2.286,2.286,0,0,0,1.126.127q5.609.06,11.218.1a.367.367,0,0,1-.347.284c-3.8.017-7.61,0-11.336.011.105.17.427-.007.674-.006,3.306.014,6.611.01,9.917.009a2.592,2.592,0,0,0,1.382-.2c.466-.171.947-.4,1.183.308a.7.7,0,0,1-.826.456c-4.01-.337-8.034-.068-12.048-.217-1.4-.052-2.914-.18-3.726-1.743-.2-.386-.827-.076-1.279-.359-1.473-.924-2.252-2.455-3.361-3.683a3.537,3.537,0,0,0-1.524-1.154Z" transform="translate(-43.107 -0.875)" fill="#070707"/><path d="M1899.287,207.2l.372.985c.555,2.489,1.277,4.954,1.1,7.55a1.4,1.4,0,0,0-.005,1.292,24.06,24.06,0,0,1-1.657,8.665c-1.045,3.034-2.419,5.96-2.84,9.2a27.744,27.744,0,0,0,.1,6.161,1.338,1.338,0,0,0-.2.42.647.647,0,0,1-.3.354c-.807-2.234-.574-4.546-.426-6.829.21-3.244,1.478-6.232,2.663-9.192a25.327,25.327,0,0,0,.875-16.773,9.471,9.471,0,0,1-.261-1.5C1898.643,207.017,1898.987,207.128,1899.287,207.2Z" transform="translate(-137.902 -61.41)" fill="#080808"/><path d="M1759.262,234.1c-.394,5.016.985,9.671,2.867,14.232a23.541,23.541,0,0,1,1.527,12.845.761.761,0,0,1-.259.561c-.25-.1-.159.145-.232.227a4.3,4.3,0,0,0,.075,1.57.565.565,0,0,1-.032.517.237.237,0,0,1-.317.009,5.059,5.059,0,0,1-.11-2.8,21.144,21.144,0,0,0-1.111-11.532c-1.235-3.292-2.626-6.549-3.04-10.095a11.992,11.992,0,0,1-.138-2.7,1.99,1.99,0,0,0,0-1.55l.022-.777a3.113,3.113,0,0,0,.193-.365.642.642,0,0,1,.324-.258A.224.224,0,0,1,1759.262,234.1Z" transform="translate(-36.439 -81.322)" fill="#090909"/><path d="M1775.614,348.874h.249c.169-.131.076-.393.259-.517.575,1.24,1.195,2.462,1.7,3.729.2.491.622.255.913.514a9.591,9.591,0,0,0,7.013,2.246c4.209-.116,8.425-.069,12.637-.014a9.533,9.533,0,0,0,5.418-1.66,7.152,7.152,0,0,0,2.921-4.176,3.176,3.176,0,0,1,.386-.639.606.606,0,0,1,.315.295,2.078,2.078,0,0,0,.19.223,7.626,7.626,0,0,1-5.161,6.159,160.38,160.38,0,0,1-21.682,0A7.631,7.631,0,0,1,1775.614,348.874Z" transform="translate(-49.163 -166.134)" fill="#070707"/><path d="M1918.375,181.2c.246-.2.387-.566.8-.512.108,1.461,1.328,1.271,2.207,1.349a7.2,7.2,0,0,0,5.23-2.014c1.075-.887,2.429-1.539,2.875-3.065a2.383,2.383,0,0,0-.679-2.81,7.484,7.484,0,0,1-1.629-2.012c-.475-.092-.754-.485-1.111-.75-.319-.237-.374-.544.074-.753a9.226,9.226,0,0,1,3.6,2.989,3.833,3.833,0,0,1,.083,4.811c-2.508,3.244-6.008,5.192-10.192,4.233C1918.838,182.481,1918.262,182.139,1918.375,181.2Z" transform="translate(-155.021 -34.335)" fill="#080808"/><path d="M1879.9,138.931a2.025,2.025,0,0,1-1.816-2.529c.084-.678.709-.6.959-1.055.242-.438-.249-.349-.175-.548a8.752,8.752,0,0,0,1.754-6.147,2.109,2.109,0,0,0-1.395-1.965c-.8-.337-1.4.2-1.948.679a4.147,4.147,0,0,0-.959,1.361,2.758,2.758,0,0,1-1.28,1.361c-.261.138-1.122.625-.48,1.348a.534.534,0,0,1-.065.356c-.747.535-1.393.675-1.714-.442a1.011,1.011,0,0,1,.434-1.237,10.1,10.1,0,0,0,2.861-3.272,2.523,2.523,0,0,1,1.505-1.312c.772-.036,1.544-.011,2.317-.016a2.527,2.527,0,0,1,1.833,2.828.253.253,0,0,1-.3.071c.1-.139-.062.063-.075-.1-.01-.116-.082-.14-.06-.084a10.645,10.645,0,0,1,.187,2.24,1.439,1.439,0,0,0,.2.458,8.75,8.75,0,0,1-2.4,5.373c-.84,1.025-.706,1.412.618,1.891.153.138.473.051.512.315C1880.476,138.883,1880.03,138.729,1879.9,138.931Z" transform="translate(-121.178 -0.875)" fill="#080808"/><path d="M1718.951,182.96a7.983,7.983,0,0,1,3.357-1.032c-.544.25.172.5,0,.755a7.86,7.86,0,0,1-3.026.819,4.4,4.4,0,0,1-2,.006c-3.3-.234-5.628-2.116-7.374-4.693a4,4,0,0,1,.692-4.985,12,12,0,0,1,2.676-2.184l1.014.7c-1.508.389-2.167,1.611-3.118,2.506a2.732,2.732,0,0,0,.026,4.139,17.035,17.035,0,0,0,6.2,3.971A1.952,1.952,0,0,0,1718.951,182.96Z" transform="translate(0 -35.09)" fill="#080808"/><path d="M1865.969,148.109a1.165,1.165,0,0,0,1.679.328c1.457.625,2.965,1.169,3.96,2.521.1.619-.344.872-.775,1.131-.386.524-.722.3-1.146,0a10.933,10.933,0,0,0-4.57-2.093,1.449,1.449,0,0,0-1.073-.226.326.326,0,0,1-.506-.054c-.015-.083.019-.126.1-.129A8.121,8.121,0,0,0,1865.969,148.109Z" transform="translate(-114.363 -17.635)" fill="#ecc04f"/><path d="M1795.584,373.535c.708-.553,1.389.075,2.093.069q8.748-.076,17.5,0c.7.006,1.384-.623,2.092-.069a6.335,6.335,0,0,1-3,.576q-7.845,0-15.69,0A6.332,6.332,0,0,1,1795.584,373.535Z" transform="translate(-63.972 -184.637)" fill="#010101"/><path d="M1900.5,168.584c.322-.246.418-.494.005-.745,1.757-.638,3.505-1.3,5.272-1.906a7.5,7.5,0,0,1,6.188.517,9.029,9.029,0,0,0,.928.371c-.336.971,1,.79,1.037,1.5-.1.061-.272.2-.3.171a24.127,24.127,0,0,0-3.833-2.234,6.15,6.15,0,0,0-2.58,0A26.887,26.887,0,0,1,1900.5,168.584Z" transform="translate(-141.776 -30.528)" fill="#050505"/><path d="M1740.427,167.923c-.416.25-.318.5,0,.744a26.936,26.936,0,0,1-6.717-2.322,6.122,6.122,0,0,0-2.579,0,4.153,4.153,0,0,1-1.561.817c-.661.261-.971.055-1.042-.617,3.094-1.64,6.071-.89,9.043.4C1738.494,167.343,1739.474,167.6,1740.427,167.923Z" transform="translate(-14.247 -30.611)" fill="#050505"/><path d="M1758.805,211.835c-.389-.253-.325-.5,0-.755,1.189-.337,1.617,0,1.413,1.179-.275,1.591-.6,3.174-.9,4.761h-.255c-.179-.183-.109-.438-.157-.658-.061-.161-.235.121-.1.017a.812.812,0,0,1,0,.895l-.239.26a18.91,18.91,0,0,1,.718-4.939C1759.386,212.182,1759.571,211.7,1758.805,211.835Z" transform="translate(-36.499 -64.242)" fill="#090909"/><path d="M1898.32,341.47h-.248a6.873,6.873,0,0,1,0-2.84l.246-.257A5,5,0,0,1,1898.32,341.47Z" transform="translate(-139.866 -158.731)" fill="#020202"/><path d="M1776.9,124.654a2.5,2.5,0,0,1-2.318-.018A2.279,2.279,0,0,1,1776.9,124.654Z" transform="translate(-48.399)"/><path d="M1893.847,124.638a2.5,2.5,0,0,1-2.317.016A2.28,2.28,0,0,1,1893.847,124.638Z" transform="translate(-135.124 -0.001)"/><path d="M1906.069,136.469l.281,0a7.847,7.847,0,0,1-.039,2.582l-.243-.257A4.58,4.58,0,0,1,1906.069,136.469Z" transform="translate(-145.794 -9.002)" fill="#010101"/><path d="M1767.242,136.467l.28,0a2.826,2.826,0,0,1,0,1.806l-.275,0A4.6,4.6,0,0,1,1767.242,136.467Z" transform="translate(-42.89 -9.002)"/><path d="M1740.141,217.53l2-.006A2.948,2.948,0,0,1,1740.141,217.53Z" transform="translate(-22.857 -69.112)" fill="#0e0e0e"/><path d="M1758.348,239.417a1.175,1.175,0,0,1,0,1.55A3.673,3.673,0,0,1,1758.348,239.417Z" transform="translate(-36.298 -85.347)"/><path d="M1915.67,241.706a.871.871,0,0,1,.005-1.292A2.7,2.7,0,0,1,1915.67,241.706Z" transform="translate(-152.815 -86.087)"/><path d="M1804.546,176.147a35.526,35.526,0,0,0-.045,6.561,12.733,12.733,0,0,0,6.112,9.534c1.637,1.024,3.33,1.963,5.027,2.886.621.338.852.628.564,1.371a19.29,19.29,0,0,0-1.147,5.645c-.517.026-.674-.4-.944-.631a9.551,9.551,0,0,0-6.243-2.395c-1.29-.01-2.58.013-3.87-.011a1.4,1.4,0,0,0-1.339.586.6.6,0,0,1-.17.32.91.91,0,0,1-.535.084,8.42,8.42,0,0,1-2.057-.4,1.458,1.458,0,0,0-1.085-.584c-2.941.051-5.933-.34-8.708,1.064-.487-1.993-1.509-3.847-1.555-5.956,1.027-.614,2.066-1.21,3.08-1.846a13.007,13.007,0,0,0,6.4-10.978,24.08,24.08,0,0,0-1.992-11.178c-1.05-2.348-1.932-4.771-2.988-7.117-.458-1.018-.3-1.469.818-1.542.468-.031.933-.089,1.4-.135a1.1,1.1,0,0,0,.386.222c3.711-.095,7.422-.135,11.132.021a1.55,1.55,0,0,0,.619-.224,2.161,2.161,0,0,1,.383-.022c2.145.254,2.116.244,1.321,2.254-1.576,3.983-3.549,7.819-4.509,12.033-.121-.058-.1-.214-.2-.288C1804.5,175.652,1804.354,175.933,1804.546,176.147Z" transform="translate(-58.756 -27.504)" fill="#f5f4f4"/><path d="M1870.738,186.625a28.887,28.887,0,0,1-2.37,10.776c-.2.523-.4.648-.916.336-1.734-1.038-3.559-1.934-5.231-3.06a10.881,10.881,0,0,1-4.944-9.023,22.832,22.832,0,0,1,2-10.8c1.026-2.223,1.942-4.5,2.8-6.8.4-1.064.808-1.014,1.6-.436a10.072,10.072,0,0,1,3.892,4.71C1869.15,176.973,1870.56,181.671,1870.738,186.625Z" transform="translate(-109.701 -31.807)" fill="#8e8e8e"/><path d="M1804.366,309.713l.209-.181c-.065,1,.446,1.331,1.4,1.343a22.821,22.821,0,0,1,4.453.13c-1.2.607-2.457.206-3.671.238a29.652,29.652,0,0,0,3.62.026,1.449,1.449,0,0,0,.493-.215,7.56,7.56,0,0,1,6.346,5.928,6.351,6.351,0,0,1-2.678,6.861,4.383,4.383,0,0,1-2.631.9.994.994,0,0,0-.442-.147c-4.987-.037-9.974,0-14.96-.016a8.756,8.756,0,0,1-1.8-.1,2.475,2.475,0,0,1-2.072-1.3,8.362,8.362,0,0,1,.6-10.327,5.071,5.071,0,0,0,1.108-1.553,1.887,1.887,0,0,1,1.291-.264.983.983,0,0,0,.281.211,31.54,31.54,0,0,0,3.535.029c-1.217-.1-2.456.332-3.62-.265a23.542,23.542,0,0,1,4.414-.14,1.729,1.729,0,0,0,1.569-.611c.634-.515,1.37-.315,2.079-.3C1804.073,309.926,1804.267,309.909,1804.366,309.713Z" transform="translate(-60.669 -137.343)" fill="#e0a775"/><path d="M1782.8,172.333c1.676,4.084,3.864,7.986,4.522,12.434a21.414,21.414,0,0,1,.06,5.921,10.725,10.725,0,0,1-4.925,7.826c-.965.636-2.016,1.141-3.027,1.706-.722-.036-.868-.643-1.044-1.142A22.58,22.58,0,0,1,1777.1,188.8a1.373,1.373,0,0,1,.425-.708c.774-.092.683.62.893,1.012a3.393,3.393,0,0,0,3.111,1.947,3.179,3.179,0,0,0,2.91-2.014,3.249,3.249,0,0,0-1.308-4.144c-.4-.237-.909-.3-1.163-.754-.091-.133.181-.2.069-.341-.256.334-.742-.051-.988.32a22.646,22.646,0,0,0-3.321,2.472.933.933,0,0,1-.351-1.145c1.028-3.534,1.442-7.252,3.13-10.588a8.989,8.989,0,0,1,1.594-2.328A.623.623,0,0,1,1782.8,172.333Z" transform="translate(-50.161 -35.569)" fill="#8e8e8e"/><path d="M1774.464,168.307a10.971,10.971,0,0,0-3.015,5.106c-.764,2.567-1.347,5.188-2.015,7.784-.117.457-.3.907.111,1.315a.51.51,0,0,1-.028.806c-.039.183-.354-.336-.282.1a2.048,2.048,0,0,1-.194,1.157,26.649,26.649,0,0,0,1.052,9.443,5.111,5.111,0,0,0,1,2.174c-2.724,1.828-2.705,1.821-3.809-1.207a24.348,24.348,0,0,1-.662-15.165c.558-2.025,1.041-4.071,1.6-6.095a11.259,11.259,0,0,1,4.232-6.133C1773.89,166.521,1773.891,166.523,1774.464,168.307Z" transform="translate(-41.824 -31.542)" fill="#828181"/><path d="M1728.043,192.627c.38.047.765.07,1.139.145.609.123,1.462.208,1.366.983-.093.751.008,1.77-1.135,2.077-1.115.3-2.178.8-3.3,1.059a8.15,8.15,0,0,1-7.8-3.237c-.307-.469-.354-.765.341-.816.551-.04,1.1-.139,1.647-.212a.455.455,0,0,0,.341.112c.086,0,.18.047.26-.024a.2.2,0,0,1-.178-.15,4.676,4.676,0,0,1,2.157-.209,5.318,5.318,0,0,0,2.581,0,4.746,4.746,0,0,1,2.149.211.277.277,0,0,1-.246.159A.9.9,0,0,0,1728.043,192.627Z" transform="translate(-6.513 -50.423)" fill="#e0a774"/><path d="M1787.836,316.376c.764.667-.057.933-.364,1.248a7.961,7.961,0,0,0-2.176,8.138,4.875,4.875,0,0,0,2.539,3.53.21.21,0,0,1,.1.243c-.088.123-.238.163-.348.256a6.113,6.113,0,0,1-5.21-5.665A7.564,7.564,0,0,1,1787.836,316.376Z" transform="translate(-54.163 -142.418)" fill="#d59d6d"/><path d="M1776.15,139.087c-1.619-1.776-1.636-3.955-1.527-6.155a.951.951,0,0,1,.795-.9,1.124,1.124,0,0,1,1.3.58,13.463,13.463,0,0,0,3.308,3.87.382.382,0,0,1-.072.468A13.967,13.967,0,0,1,1776.15,139.087Z" transform="translate(-48.4 -5.686)" fill="#f1ce63"/><path d="M1917.252,173.271c2.891-.373,4.832,1.25,6.653,3.283a35.3,35.3,0,0,0-9.75-.169c-.312-.321-.784.121-1.09-.228-.294-.778.326-1.069.779-1.436C1914.84,173.914,1916.122,173.77,1917.252,173.271Z" transform="translate(-151.037 -36.255)" fill="#8e8e8e"/><path d="M1731.422,173.321c2.715-.328,4.96,1.2,7.415,1.891.5.141.366.516.16.817-.27.393-.1,1.233-1.024.983a30.949,30.949,0,0,0-8.827-.828,1.21,1.21,0,0,1-1.268-.18,10.775,10.775,0,0,0,3.135-1.835C1731.275,173.927,1731.64,173.778,1731.422,173.321Z" transform="translate(-13.762 -36.298)" fill="#8e8e8e"/><path d="M1781.235,288.352c.606,1.962,1.67,3.8,1.555,5.956a10.9,10.9,0,0,0-2.673,2.275,25.715,25.715,0,0,0-1.4-6.522c-.155-.4.248-.494.487-.629C1779.876,289.058,1780.558,288.71,1781.235,288.352Z" transform="translate(-51.441 -121.636)" fill="#ebe6e6"/><path d="M1880.5,137.426l.685-1.052c.562-1.555,1.35-3.051,1.229-4.783-.015-.213,0-.428-.013-.641-.035-.425-.019-.9-.528-1.065-.539-.169-.889.178-1.185.563a23.286,23.286,0,0,1-1.424,1.974c-.514.541-.951,1.255-1.875,1.139l-.821-.35a16.868,16.868,0,0,0,2.886-3.354,2.358,2.358,0,0,1,2.625-1.466c1.1.231,1.668,1.321,1.716,2.765a8.628,8.628,0,0,1-.909,4.5,2.675,2.675,0,0,1-1.166,1.238C1881.265,136.967,1881.142,137.8,1880.5,137.426Z" transform="translate(-124.026 -2.973)" fill="#020201"/><path d="M1780.643,151.965c1.12-1.124,2.756-1.478,3.875-2.6l2.435,1.431a16.333,16.333,0,0,0-4.771,2.437c-.314.255-.522.153-.724-.134C1781.192,152.715,1780.915,152.341,1780.643,151.965Z" transform="translate(-52.892 -18.564)" fill="#ecbf4f"/><path d="M1725.684,173.452c.061.249.966.25.173.765-1.062.689-1.753,2-3.356,1.833.32.343.641.173.907.264l-3.268.551C1721.608,175.026,1723.182,173.456,1725.684,173.452Z" transform="translate(-8.024 -36.429)" fill="gray"/><path d="M1802.576,367.223l.254-.241c.077-.038.154-.107.231-.107q8.549-.043,17.1,0c.078,0,.155.068.232.106l0,.274a10.707,10.707,0,0,1-1.262.148q-7.453.016-14.9,0A15.225,15.225,0,0,1,1802.576,367.223Z" transform="translate(-69.158 -179.851)" fill="#ebb27b"/><path d="M1910.464,173.425c-.27.613-.919.543-1.4.776-1.05.509-2.279.779-2.735,2.072-.032.311-.364.347-.509.555-.573.072-1.18.9-1.7-.141-.405-.811-.519-1.345.613-1.623C1906.662,174.589,1908.4,173.445,1910.464,173.425Z" transform="translate(-144.249 -36.409)" fill="#807f7f"/><path d="M1826.688,161.007l-.257.243a67.736,67.736,0,0,1-7.287.11,24.6,24.6,0,0,1-4.592-.11v-.261A108.794,108.794,0,0,1,1826.688,161.007Z" transform="translate(-78.038 -27.067)" fill="#fefefe"/><path d="M1802.781,370.488h17.89v.128h-17.939Z" transform="translate(-69.274 -182.547)" fill="#080606"/><ellipse cx="9.049" cy="0.07" rx="9.049" ry="0.07" transform="translate(1733.379 133.198)" fill="#0c0c0c"/><path d="M1807.843,312.628h5.326v.129h-5.335Z" transform="translate(-73.057 -139.639)" fill="#080606"/><path d="M1845.534,315.528c1.169-.514,2.4-.135,3.6-.24.545-.048,1.094-.039,1.642-.055l.441.05-.256.247A23.538,23.538,0,0,1,1845.534,315.528Z" transform="translate(-101.014 -141.571)" fill="#ebb27b"/><path d="M1852.69,312.764h-5.08v-.129h5.072Z" transform="translate(-102.554 -139.644)" fill="#080606"/><path d="M1808.75,315.168c1.346.015,2.692.021,4.038.049.406.008.853-.131,1.189.241a23.343,23.343,0,0,1-5.424,0v-.262A.136.136,0,0,1,1808.75,315.168Z" transform="translate(-73.591 -141.499)" fill="#ebb27b"/><path d="M1822.98,223.522v4.81l-.1,0v-4.811Z" transform="translate(-84.213 -73.56)" fill="#0b0b0b"/><path d="M1851.759,228.466v-4.819h.122v4.819Z" transform="translate(-105.63 -73.652)" fill="#0b0b0b"/><path d="M1738.377,189.876h-3.531l0-.113h3.531Z" transform="translate(-18.929 -48.525)" fill="#090806"/><path d="M1926.728,189.676h3.525v.129h-3.506Z" transform="translate(-161.226 -48.46)" fill="#090806"/><path d="M1738.6,167.584c.9-.569,1.869-.171,2.808-.19,0,0,.015.086,0,.093a2.384,2.384,0,0,1-.231.1A10.205,10.205,0,0,1,1738.6,167.584Z" transform="translate(-21.717 -31.849)" fill="#070707"/><path d="M1925.837,167.854c-.042-.008-.1,0-.123-.027a.832.832,0,0,1-.1-.166c.926-.007,1.853-.016,2.779-.019.022,0,.06.057.064.09a.347.347,0,0,1-.035.122A10.262,10.262,0,0,1,1925.837,167.854Z" transform="translate(-160.396 -32.12)" fill="#0a0a0a"/><path d="M1776.41,342.223a.547.547,0,0,1-.259.517q0-.258,0-.517a2.84,2.84,0,0,1,0-1.806l.129-.331.13.331Q1776.409,341.32,1776.41,342.223Z" transform="translate(-49.451 -160.001)" fill="#0c0c0c"/><path d="M1897.757,339.367q0,1.42,0,2.84a.549.549,0,0,1-.258-.517q0-.9,0-1.806A.545.545,0,0,1,1897.757,339.367Z" transform="translate(-139.55 -159.468)" fill="#0c0c0c"/><path d="M1739.181,192.155a2.937,2.937,0,0,1-2.581,0A7.964,7.964,0,0,1,1739.181,192.155Z" transform="translate(-20.231 -50.22)" fill="#eaaf7a"/><path d="M1835.133,309.909l-.232.33a4.922,4.922,0,0,1-2.279-.036l0-.259a3.7,3.7,0,0,1,2.038-.009Z" transform="translate(-91.436 -137.539)" fill="#e2ccb7"/><path d="M1931.072,192.153a2.936,2.936,0,0,1-2.581,0A7.977,7.977,0,0,1,1931.072,192.153Z" transform="translate(-162.533 -50.22)" fill="#eaaf7a"/><path d="M1911.521,185a.841.841,0,0,1,.509-.555c.359.037.767-.116,1.037.266A3.574,3.574,0,0,1,1911.521,185Z" transform="translate(-149.949 -44.579)" fill="#959595"/><path d="M1832.508,311.369l2.279.036c-.739.457-1.55.126-2.323.217Z" transform="translate(-91.322 -138.705)" fill="#dea26d"/><path d="M1834.5,309.5l-2.038.009a.2.2,0,0,1-.039-.214A3.029,3.029,0,0,1,1834.5,309.5Z" transform="translate(-91.28 -137.1)" fill="#f8f9fc"/><path d="M1740.833,170.572a2.3,2.3,0,0,1,1.558.015A2.448,2.448,0,0,1,1740.833,170.572Z" transform="translate(-23.37 -34.197)" fill="#070707"/><path d="M1928.723,170.572a2.3,2.3,0,0,1,1.558.015A2.448,2.448,0,0,1,1928.723,170.572Z" transform="translate(-162.705 -34.197)" fill="#070707"/><path d="M1819.657,230.656a2.432,2.432,0,0,1,.041,1.56A2.317,2.317,0,0,1,1819.657,230.656Z" transform="translate(-81.737 -78.85)" fill="#060606"/><path d="M1854.647,231.71a2.3,2.3,0,0,1,.015-1.558A2.452,2.452,0,0,1,1854.647,231.71Z" transform="translate(-107.676 -78.477)" fill="#060606"/><path d="M1732.953,186.553a2.449,2.449,0,0,1-1.542.05A2.49,2.49,0,0,1,1732.953,186.553Z" transform="translate(-16.383 -46.067)" fill="#070707"/><path d="M1746.682,186.556a4.143,4.143,0,0,1-2.042.046A4.155,4.155,0,0,1,1746.682,186.556Z" transform="translate(-26.193 -46.069)" fill="#070707"/><path d="M1922.44,186.647a2.571,2.571,0,0,1,1.757,0Z" transform="translate(-158.046 -46.101)" fill="#070707"/><path d="M1742.022,215.428c-.446.516-1.014.184-1.528.213-.021,0-.061-.06-.064-.095s.027-.079.043-.118Z" transform="translate(-23.071 -67.558)" fill="#0e0e0e"/><path d="M1938.523,186.7h-1.62A1.917,1.917,0,0,1,1938.523,186.7Z" transform="translate(-168.771 -46.116)" fill="#070707"/><path d="M1727.042,193.259l.794.146c-.561.183-.9.268-1.217-.084Z" transform="translate(-12.83 -51.118)" fill="#e9af7a"/><path d="M1849.777,214.982c-.31-.289-.272-.634-.113-1.2l.169.758Z" transform="translate(-103.988 -66.339)" fill="#fcfbfb"/><path d="M1753.631,193.335a.893.893,0,0,1-1.025.167c.138-.287.415-.129.593-.224Z" transform="translate(-32.101 -51.131)" fill="#eab07a"/><path d="M1910.664,233.1V231.94C1910.93,232.308,1910.914,232.553,1910.664,233.1Z" transform="translate(-149.313 -79.802)" fill="#070707"/><path d="M1945.015,193.314c-.3.325-.651.313-1.2.076l.989-.1A.164.164,0,0,1,1945.015,193.314Z" transform="translate(-173.895 -51.117)" fill="#e9af7a"/><path d="M1910.586,250.112a.733.733,0,0,1,.024-.852A.721.721,0,0,1,1910.586,250.112Z" transform="translate(-149.163 -92.647)" fill="#070707"/><path d="M1778.535,129.457a.845.845,0,0,1-1.057.152c.355-.276.724-.094,1.058-.151Z" transform="translate(-50.545 -3.798)" fill="#0a0906"/><path d="M1829.694,154.316l.506.054a1.742,1.742,0,0,1-.574.229c-3.909.014-7.818.01-11.729-.283Z" transform="translate(-80.518 -22.238)" fill="#040404"/><path d="M1768.575,137.608q0-.9,0-1.806c.007-.041,0-.094.026-.12a.9.9,0,0,1,.156-.115,6.671,6.671,0,0,1,0,2.275s-.081.006-.088-.009A2.285,2.285,0,0,1,1768.575,137.608Z" transform="translate(-43.943 -8.334)" fill="#0c0c0c"/><path d="M1914.565,232.476c-.193-.277-.189-.7-.064-.732.327-.094.133.244.171.388C1914.694,232.22,1914.612,232.336,1914.565,232.476Z" transform="translate(-152.093 -79.645)"/><path d="M1775.735,341.367q0,.9,0,1.806A1.543,1.543,0,0,1,1775.735,341.367Z" transform="translate(-49.036 -160.951)" fill="#010101"/><path d="M1759.593,232.315v-1.076c.395.265.193.575.258.822Z" transform="translate(-37.282 -79.283)"/><path d="M1963.543,190.338a.694.694,0,0,1,.042.834A.71.71,0,0,1,1963.543,190.338Z" transform="translate(-188.442 -48.951)" fill="#020202"/><path d="M1879.526,136.28a8.785,8.785,0,0,0,2.982-3.3c.4-.6.79-1.181,1.63-.907.792.258.729.953.745,1.606.046,1.97-.153,3.865-1.562,5.414-1.116-1.125-2.751-1.478-3.87-2.6C1879.478,136.422,1879.5,136.351,1879.526,136.28Z" transform="translate(-126.167 -5.691)" fill="#f1ce63"/><path d="M1905.69,135.813q0,1.162,0,2.323c-.512-.777-.148-1.645-.25-2.465a.108.108,0,0,1,.062-.085C1905.685,135.557,1905.658,135.711,1905.69,135.813Z" transform="translate(-145.416 -8.346)" fill="#0c0c0c"/><path d="M1710.715,190.244c.194.277.191.7.063.733-.332.1-.138-.244-.173-.389C1710.584,190.5,1710.667,190.383,1710.715,190.244Z" transform="translate(-0.935 -48.882)"/><path d="M1814.552,162.458h11.879c-.253.316-.61.256-.946.256q-4.994,0-9.989,0C1815.162,162.714,1814.8,162.774,1814.552,162.458Z" transform="translate(-78.039 -28.276)" fill="#f0efef"/><path d="M1846.676,305.658h4.52l0,.091h-4.521Z" transform="translate(-101.861 -134.47)" fill="#fdfcfc"/><path d="M1815.379,305.807h-4.562l0-.107h4.562Z" transform="translate(-75.267 -134.501)" fill="#fdfcfc"/><path d="M1870.676,217.03a4.185,4.185,0,0,1,3.378,3.394.412.412,0,0,1,0,.656c-.779,2.431-2.237,3.618-4.122,3.358a3.676,3.676,0,0,1-.873-7.12c.236-.095.476-.18.714-.27A.643.643,0,0,1,1870.676,217.03Z" transform="translate(-116.653 -68.616)" fill="#010101"/><path d="M1878.833,216.638l-.9.017-.312-.17a2.02,2.02,0,0,1,1.5-.028c-.015.034-.021.086-.046.1A2.056,2.056,0,0,1,1878.833,216.638Z" transform="translate(-124.811 -68.224)" fill="#969696"/><path d="M1895.382,230.46q0-.328,0-.656c.073-.1.139-.436.222-.237a1.575,1.575,0,0,1,0,1.121C1895.512,230.9,1895.455,230.555,1895.382,230.46Z" transform="translate(-137.977 -77.997)" fill="#979797"/><path d="M1803.147,329.312a3.629,3.629,0,1,1-3.668,3.554A3.613,3.613,0,0,1,1803.147,329.312Z" transform="translate(-66.86 -152.011)" fill="#010101"/><path d="M1851.151,336.567a3.628,3.628,0,1,1,3.617-3.607A3.625,3.625,0,0,1,1851.151,336.567Z" transform="translate(-102.48 -152.011)" fill="#010101"/><path d="M1821.118,366.517h-17.562q0-.129,0-.258,8.048,0,16.1.008C1820.144,366.27,1820.691,366.079,1821.118,366.517Z" transform="translate(-69.883 -179.388)" fill="#dba472"/><path d="M1845.534,316.374l5.423,0A11.869,11.869,0,0,1,1845.534,316.374Z" transform="translate(-101.014 -142.417)" fill="#dca473"/><path d="M1808.556,316.366l5.423,0A11.82,11.82,0,0,1,1808.556,316.366Z" transform="translate(-73.592 -142.411)" fill="#dca473"/><path d="M1779.218,220.43l.2-.845a4.263,4.263,0,0,1,3.163-2.555.639.639,0,0,1,.9.018,3.941,3.941,0,0,1,3.116,3.231,3.675,3.675,0,0,1-7.034,1.9c-.146-.355-.241-.731-.36-1.1A.388.388,0,0,1,1779.218,220.43Z" transform="translate(-51.701 -68.616)" fill="#010101"/><path d="M1792.84,216.649l-.9-.018a.364.364,0,0,1-.124-.032,1.646,1.646,0,0,1-.164-.149,2.334,2.334,0,0,1,1.462-.029C1793.24,216.449,1792.955,216.583,1792.84,216.649Z" transform="translate(-61.059 -68.217)" fill="#969696"/><path d="M1778.758,229.815q-.007.324-.014.649c-.041.218-.062.446-.286.573a4.02,4.02,0,0,1,.037-1.357C1778.659,229.254,1778.659,229.766,1778.758,229.815Z" transform="translate(-51.241 -78.002)" fill="#959595"/><path d="M1877.724,227.043a1.685,1.685,0,0,1-1.681,1.723,1.716,1.716,0,1,1-.029-3.432A1.717,1.717,0,0,1,1877.724,227.043Z" transform="translate(-122.341 -74.902)" fill="#736f6f"/><path d="M1878.709,243.593a1.58,1.58,0,0,1,1.231-.1C1879.523,243.864,1879.106,243.551,1878.709,243.593Z" transform="translate(-125.616 -88.314)" fill="#070707"/><path d="M1878.99,219.691h-1.17A.977.977,0,0,1,1878.99,219.691Z" transform="translate(-124.957 -70.577)" fill="#080808"/><path d="M1892.7,231.277v-.733C1893.037,230.74,1892.9,231,1892.7,231.277Z" transform="translate(-135.992 -78.767)" fill="#070707"/><path d="M1809.619,337.379a1.424,1.424,0,0,1,1.022,1.031,2.254,2.254,0,0,0,0,1.024,1.424,1.424,0,0,1-1.022,1.025,2.247,2.247,0,0,0-1.026,0,1.427,1.427,0,0,1-1.034-1.026,1.953,1.953,0,0,0,0-1.033,1.429,1.429,0,0,1,1.035-1.031A2.061,2.061,0,0,0,1809.619,337.379Z" transform="translate(-72.849 -157.991)" fill="#d39b6c"/><path d="M1807.092,341.364a.629.629,0,0,1,0,1.033A.9.9,0,0,1,1807.092,341.364Z" transform="translate(-72.387 -160.949)" fill="#e4a674"/><path d="M1810.774,334.617a2.261,2.261,0,0,1,1.426-.18A2.255,2.255,0,0,1,1810.774,334.617Z" transform="translate(-75.237 -155.79)" fill="#080805"/><path d="M1812.587,336.931a.631.631,0,0,1-1.03,0A.919.919,0,0,1,1812.587,336.931Z" transform="translate(-75.818 -157.543)" fill="#e4a674"/><path d="M1818.757,342.405a.64.64,0,0,1,0-1.024A.947.947,0,0,1,1818.757,342.405Z" transform="translate(-80.967 -160.962)" fill="#e3a674"/><path d="M1811.563,348.575a.635.635,0,0,1,1.026,0A.933.933,0,0,1,1811.563,348.575Z" transform="translate(-75.822 -166.101)" fill="#e4a674"/><path d="M1812.283,351.461a.622.622,0,0,1-.746.062C1811.779,351.212,1812.052,351.465,1812.283,351.461Z" transform="translate(-75.803 -168.367)" fill="#090806"/><path d="M1856.6,340.46a1.425,1.425,0,0,1-1.022-1.026,2.382,2.382,0,0,0,0-1.025,1.429,1.429,0,0,1,1.022-1.031,2.047,2.047,0,0,0,1.03,0,1.42,1.42,0,0,1,1.033,1.031,1.988,1.988,0,0,0,0,1.032,1.429,1.429,0,0,1-1.033,1.027A2.233,2.233,0,0,0,1856.6,340.46Z" transform="translate(-108.461 -157.991)" fill="#d39b6c"/><path d="M1860.674,334.486a1.72,1.72,0,0,1-1.243.013C1859.791,334.259,1860.128,334.329,1860.674,334.486Z" transform="translate(-111.32 -155.742)" fill="#080805"/><path d="M1860.563,336.926a.631.631,0,0,1-1.03,0A.918.918,0,0,1,1860.563,336.926Z" transform="translate(-111.395 -157.541)" fill="#e4a674"/><path d="M1855.149,341.379a.639.639,0,0,1,0,1.025A.951.951,0,0,1,1855.149,341.379Z" transform="translate(-108.034 -160.96)" fill="#e4a674"/><path d="M1866.742,342.4a.63.63,0,0,1,0-1.032A.9.9,0,0,1,1866.742,342.4Z" transform="translate(-116.543 -160.95)" fill="#e4a674"/><path d="M1859.54,348.571a.635.635,0,0,1,1.027,0A.933.933,0,0,1,1859.54,348.571Z" transform="translate(-111.401 -166.101)" fill="#e4a674"/><path d="M1860.067,351.482c.406-.138.647-.176.9-.016C1860.718,351.707,1860.46,351.64,1860.067,351.482Z" transform="translate(-111.792 -168.363)" fill="#090806"/><path d="M1790.934,227.116a1.644,1.644,0,0,1-1.732,1.655,1.687,1.687,0,0,1-1.7-1.706,1.713,1.713,0,0,1,1.819-1.724A1.655,1.655,0,0,1,1790.934,227.116Z" transform="translate(-57.98 -74.908)" fill="#736f6f"/><path d="M1790.48,243.624a1.879,1.879,0,0,1,1.518,0Z" transform="translate(-60.187 -88.351)" fill="#070707"/><path d="M1791.938,219.562a1.654,1.654,0,0,1,1.249-.014A1.505,1.505,0,0,1,1791.938,219.562Z" transform="translate(-61.268 -70.527)" fill="#080808"/><path d="M1781.653,230.073a.862.862,0,0,1,.086.824C1781.42,230.711,1781.554,230.452,1781.653,230.073Z" transform="translate(-53.556 -78.418)" fill="#070707"/></g></g></svg>