<svg xmlns="http://www.w3.org/2000/svg" xmlns:xlink="http://www.w3.org/1999/xlink" width="710.132" height="526.49" viewBox="0 0 710.132 526.49">
  <defs>
    <clipPath id="clip-path">
      <path id="Trazado_565702" data-name="Trazado 565702" d="M169.6,436.994a23,23,0,0,1,0-32.535l12.513-12.513a23.006,23.006,0,0,1,32.536,32.535l-12.514,12.513a23.006,23.006,0,0,1-32.535,0m8.245-49.316L165.335,400.19a29.043,29.043,0,0,0,41.072,41.073L218.92,428.75a29.042,29.042,0,1,0-41.072-41.072" fill="#ff854e"/>
    </clipPath>
    <clipPath id="clip-path-2">
      <path id="Trazado_565702-2" data-name="Trazado 565702" d="M165.17,416.928a15.021,15.021,0,0,1,0-21.245l8.171-8.171a15.022,15.022,0,1,1,21.245,21.245l-8.171,8.171a15.023,15.023,0,0,1-21.245,0m5.384-32.2-8.171,8.17a18.964,18.964,0,0,0,26.819,26.82l8.171-8.171a18.964,18.964,0,1,0-26.819-26.819" transform="translate(-156.828 -379.171)" fill="#ff854e"/>
    </clipPath>
    <clipPath id="clip-path-3">
      <rect id="Rectángulo_279147" data-name="Rectángulo 279147" width="184.681" height="184.68" transform="translate(0 139.89)" fill="#f5ead9"/>
    </clipPath>
  </defs>
  <g id="Grupo_841707" data-name="Grupo 841707" transform="translate(-453.029 -1729.509)">
    <g id="Grupo_841691" data-name="Grupo 841691" opacity="0.848">
      <path id="Trazado_565698" data-name="Trazado 565698" d="M543.941,83.118h0a21.7,21.7,0,0,1,0-30.694L585.562,10.8A21.7,21.7,0,0,1,616.255,41.5L574.634,83.118a21.7,21.7,0,0,1-30.693,0" transform="translate(197.875 1725.062)" fill="#ffce7e"/>
      <path id="Trazado_565701" data-name="Trazado 565701" d="M249.37,74.537h0a13.119,13.119,0,0,1,0-18.554l37.2-37.2a13.12,13.12,0,0,1,18.555,18.555l-37.2,37.2a13.119,13.119,0,0,1-18.554,0" transform="translate(807.545 1916.852)" fill="#f5ead9"/>
      <g id="Grupo_841689" data-name="Grupo 841689" transform="translate(50.96 2.602)">
        <g id="Grupo_841679" data-name="Grupo 841679" transform="translate(331.172 1390.25)">
          <g id="Grupo_841678" data-name="Grupo 841678" clip-path="url(#clip-path)">
            <rect id="Rectángulo_279145" data-name="Rectángulo 279145" width="99.84" height="99.84" transform="translate(121.53 414.47) rotate(-45)" fill="#ff854e"/>
          </g>
        </g>
        <path id="Trazado_565705" data-name="Trazado 565705" d="M140.119,465.593h0a13,13,0,0,1,0-18.384l24.929-24.929a13,13,0,0,1,18.383,0h0a13,13,0,0,1,0,18.384L158.5,465.593a13,13,0,0,1-18.384,0" transform="translate(331.172 1390.25)" fill="#ffce7e"/>
      </g>
      <g id="Grupo_841690" data-name="Grupo 841690" transform="translate(121.558 445.903)">
        <g id="Grupo_841679-2" data-name="Grupo 841679" transform="translate(488 1763.997)">
          <g id="Grupo_841678-2" data-name="Grupo 841678" transform="translate(0 0)" clip-path="url(#clip-path-2)">
            <rect id="Rectángulo_279145-2" data-name="Rectángulo 279145" width="65.193" height="65.193" transform="translate(-23.049 23.049) rotate(-45)" fill="#ff854e"/>
          </g>
        </g>
        <path id="Trazado_565705-2" data-name="Trazado 565705" d="M138.8,449.241h0a8.488,8.488,0,0,1,0-12l16.278-16.278a8.488,8.488,0,0,1,12,0h0a8.489,8.489,0,0,1,0,12L150.8,449.241a8.489,8.489,0,0,1-12,0" transform="translate(374.738 1335.319)" fill="#ffce7e"/>
      </g>
      <path id="Trazado_565708" data-name="Trazado 565708" d="M208.563,225.832h0a10.884,10.884,0,0,1,0-15.392l18.392-18.392a10.884,10.884,0,1,1,15.392,15.392l-18.392,18.392A10.884,10.884,0,0,1,208.563,225.832Z" transform="translate(525.72 1551.092)" fill="none" stroke="#d8d8d8" stroke-miterlimit="10" stroke-width="1"/>
      <g id="Grupo_841685" data-name="Grupo 841685" transform="translate(73.71 30.78)">
        <g id="Grupo_841684" data-name="Grupo 841684" transform="translate(379.319 1730.77)" style="isolation: isolate">
          <g id="Grupo_841683" data-name="Grupo 841683">
            <g id="Grupo_841682" data-name="Grupo 841682" clip-path="url(#clip-path-3)">
              <path id="Trazado_565706" data-name="Trazado 565706" d="M13.4,311.172h0a45.742,45.742,0,0,1,0-64.69l93.193-93.194a45.743,45.743,0,0,1,64.691,64.691L78.089,311.172a45.743,45.743,0,0,1-64.691,0" fill="#f5ead9"/>
            </g>
          </g>
        </g>
        <path id="Trazado_565709" data-name="Trazado 565709" d="M11.4,341.874h0a18.022,18.022,0,0,1,0-25.487L83.387,244.4a18.023,18.023,0,0,1,25.488,25.488l-71.991,71.99A18.021,18.021,0,0,1,11.4,341.874Z" transform="translate(397.172 1745.09)" fill="none" stroke="#c7c7c7" stroke-miterlimit="10" stroke-width="1"/>
      </g>
      <g id="Grupo_841687" data-name="Grupo 841687" transform="translate(16.54 -17)">
        <path id="Trazado_565697" data-name="Trazado 565697" d="M551.654,329.145h0a27.571,27.571,0,0,1,0-38.991l79.5-79.5a27.571,27.571,0,1,1,38.991,38.991l-79.5,79.5a27.571,27.571,0,0,1-38.991,0" transform="translate(412.752 1826.513)" fill="#ffce7e"/>
        <path id="Trazado_565699" data-name="Trazado 565699" d="M87.049,281.47h0a13.053,13.053,0,0,1,0-18.46l45.692-45.692a13.053,13.053,0,0,1,18.46,18.46L105.51,281.47a13.053,13.053,0,0,1-18.46,0" transform="translate(890.959 1967.168)" fill="#f5ead9"/>
        <path id="Trazado_565696" data-name="Trazado 565696" d="M498.694,282.728h0a19.614,19.614,0,0,1,0-27.739L601.538,152.145a19.614,19.614,0,0,1,27.739,27.739L526.433,282.728A19.614,19.614,0,0,1,498.694,282.728Z" transform="translate(511.099 1868.089)" fill="none" stroke="#c7c7c7" stroke-miterlimit="10" stroke-width="1"/>
      </g>
    </g>
    <g id="Grupo_841688" data-name="Grupo 841688">
      <g id="Grupo_841706" data-name="Grupo 841706">
        <path id="Trazado_150343" data-name="Trazado 150343" d="M1472.843,334.706,1371.81,415.28a90.221,90.221,0,0,0-67.707-32.612V253.447A218.779,218.779,0,0,1,1472.843,334.706Z" transform="translate(-502.12 1539.974)" fill="#bbdeaf"/>
        <path id="Trazado_150344" data-name="Trazado 150344" d="M1765.087,765.518a220.311,220.311,0,0,1-5.131,47.014l-125.988-28.759a90.123,90.123,0,0,0-16.745-73.245l101.069-80.6A220.834,220.834,0,0,1,1765.087,765.518Z" transform="translate(-745.087 1247.843)" fill="#ddefd7"/>
        <path id="Trazado_150345" data-name="Trazado 150345" d="M1651.736,1362.6a218.785,218.785,0,0,1-116.773,146.425l-56.07-116.428a90.212,90.212,0,0,0,46.857-58.758Z" transform="translate(-637.749 701.642)" fill="#ddefd7"/>
        <path id="Trazado_150346" data-name="Trazado 150346" d="M1064.562,1720.2a218.825,218.825,0,0,1-187.289,0l56.07-116.43a90.369,90.369,0,0,0,75.15,0Z" transform="translate(-170.92 492.188)" fill="#ddefd7"/>
        <path id="Trazado_150347" data-name="Trazado 150347" d="M512.976,1392.6l-56.068,116.428A218.782,218.782,0,0,1,340.133,1362.6l125.988-28.761A90.228,90.228,0,0,0,512.976,1392.6Z" transform="translate(245.876 701.642)" fill="#ddefd7"/>
        <path id="Trazado_150348" data-name="Trazado 150348" d="M442.538,765.518a90.928,90.928,0,0,0,1.889,18.255L318.439,812.531a219.435,219.435,0,0,1,41.668-182.6l101.07,80.6A91.044,91.044,0,0,0,442.538,765.518Z" transform="translate(266.687 1247.843)" fill="#ddefd7"/>
        <path id="Trazado_150349" data-name="Trazado 150349" d="M701.993,253.447V382.668a90.2,90.2,0,0,0-67.707,32.612L533.253,334.706A218.768,218.768,0,0,1,701.993,253.447Z" transform="translate(96.023 1539.974)" fill="#ddefd7"/>
        <circle id="Elipse_6630" data-name="Elipse 6630" cx="86.559" cy="86.559" r="86.559" transform="translate(713.441 1926.869)" fill="#f5ead9"/>
        <g id="Grupo_841379" data-name="Grupo 841379" transform="translate(752.083 1979.882)">
          <path id="Trazado_150350" data-name="Trazado 150350" d="M3642.91,1185.62c-.826-.419-1.4-1.044-1.064-2s1.2-1.074,2.093-1.027a4.109,4.109,0,0,0,3.2-.927c1.309-1.13,5.2-.832,6.679.175,2.311,1.576,4.841.679,7.293.543.576-.032.513-.658.646-1.074a5.36,5.36,0,0,1,3.8-3.833c1-.264.955-.737.877-1.531a15.647,15.647,0,0,1,1.03-7.252,6.361,6.361,0,0,1,6.782-4.431,15.883,15.883,0,0,1,14.114,9.45c.466.963.8,1.413,1.965,1.022,1.672-.56,3.322.258,4.99.382.322.024.639.153.959.158,5.425.092,9.022,2.513,10.611,7.884.673,2.273,2.656,3.609,4.669,4.751.917.52,1.894,1.01,1.49,2.365-.473,1.91-1.717,1.183-2.852.84a4.462,4.462,0,0,1-.7-.455c-.61-.472-1.269-.877-1.918-1.3a4.7,4.7,0,0,1-.607-.486c-.5-.488-.993-.976-1.482-1.473a4.591,4.591,0,0,1-.5-.616,15.539,15.539,0,0,1-1.9-3.734c-.139-.315-.281-.629-.437-.937a4.142,4.142,0,0,0-1.417-1.829c-1.449-1.287-3.332-1.13-5.049-1.5a32.339,32.339,0,0,0-3.2-.527c-.89-.223-1.79-.537-2.535.335-.4,1.34-.09,2.711-.208,4.059-.1,1.165-.119,2.374-1.444,2.94-2.333.03-2.876-.627-2.569-3.1a12.8,12.8,0,0,0-9.976-14.54,5.286,5.286,0,0,0-1.347-.116c-3.149,0-4.16.747-4.7,3.831-.269,1.533-.708,3.154.3,4.632,1.08.4,2.238.01,3.319.351,4.066,1.145,5.54,3.043,5.546,7.275,0,2.783.078,5.568-.073,8.35a7.958,7.958,0,0,1-1.371,3.269,4.7,4.7,0,0,1-.684.716,6.364,6.364,0,0,1-4.644,1.618c-1.553-.035-3.11-.051-4.662,0a6.9,6.9,0,0,1-5-1.752,5.558,5.558,0,0,1-1.853-4.475c-.073-1.727.235-3.47-.208-5.174a1.062,1.062,0,0,0-.479-.241,9.783,9.783,0,0,0-1.937-.1c-2.575.006-2.75.221-2.324,2.85a3.576,3.576,0,0,1,.125.575,57.029,57.029,0,0,0,3.282,12.462c.154.434.245.89.422,1.318.136.321.279.64.436.95.422.837.779,1.7,1.122,2.574a9.224,9.224,0,0,0,.766,1.294c.386.694.7,1.422,1.08,2.114.153.261.306.524.641.591.485-.091.759-.484,1.114-.755,1.95-1.49,3.55-1.426,5.378.261,1.045.966,2.008,2.018,3.037,3,.511.489,1.018,1.092,1.816.444.349-.264.672-.56,1.025-.817a34.027,34.027,0,0,1,3.465-2.334c.545-.262,1.085-.533,1.637-.781.4-.159.819-.286,1.228-.436s.844-.285,1.268-.424c.632-.155,1.262-.316,1.895-.468a11.567,11.567,0,0,0,2.264-.318,6.748,6.748,0,0,1,1.462-.155,5.171,5.171,0,0,1,1.186.114,2.394,2.394,0,0,1,1.433,1.037,1.81,1.81,0,0,1,.2.561,2.026,2.026,0,0,1,.006.583c-.453,1.463-1.469,1.916-2.958,1.894a15.685,15.685,0,0,0-10.394,3.614c-.935.759-1.648,1.483-.474,2.65a1.607,1.607,0,0,1,.092,2.142c-1.208,1.329-2.309.764-3.337-.234-2.049-1.986-4.088-3.985-6.047-6.058-1.046-1.107-1.825-1.129-2.87-.007-1.724,1.849-3.519,3.637-5.363,5.366-1.158,1.086-1.174,1.911-.012,3.042,3.949,3.845,7.807,7.784,11.722,11.664,3.316,3.379,2.571,3.139,5.685.1,1.3-1.264,2.57-2.549,3.84-3.838,1.563-1.586,1.557-1.715.035-3.261-.409-.415-.846-.8-1.246-1.226-.792-.945-1.119-1.917-.169-2.96a1.9,1.9,0,0,1,2.766.274c1.024.989,2.052,1.975,3,3.032a3.452,3.452,0,0,1,.9,3.577c-.287.861-.2,1.527.734,1.886,2.02.907,4.144,1.523,6.218,2.272a2.207,2.207,0,0,0,2.858-.834,30.623,30.623,0,0,1,20.221-11.683q2.79-.44,5.573-.924c2.153-.376,2.464-.914,1.979-3.083a8.289,8.289,0,0,0-1.458-3.157c-1.481-2.438-3.782-4.284-5.01-6.906-.373-.8-.838-.641-1.344-.128-2.854,2.9-6.463,4.233-10.366,4.893-2.5.423-5.039.024-7.559.138a5.691,5.691,0,0,1-1.22-.173c-1.122-.374-2.44-.522-2.5-2.14a1.871,1.871,0,0,1,2.188-1.857c.765.017,1.526-.086,2.291-.055,1.223.073,2.449.032,3.673.031a14.173,14.173,0,0,0,3.077-.143,4.132,4.132,0,0,1,.569-.143,12.6,12.6,0,0,0,3.479-1.022,13.376,13.376,0,0,0,7.533-9.615,1.3,1.3,0,0,0-.346-1.518c-.466-.415-1.083-.589-1.558-.991-.665-.7-1.148-1.425-.4-2.36.947-.918,1.843-.81,2.945-.123,4.786,2.982,9.625,5.877,14.44,8.811a6.558,6.558,0,0,1,3.39,5.95c-.019,9.434.608,8.3-6.682,14.12-3.319,2.649-7.1,2.964-10.9,3.552-4.678.724-9.156,1.958-13.022,4.759-3.939,2.853-7.775,5.839-8.1,11.343a3.6,3.6,0,0,1-2.254,3.373c-.757.3-.781.985-.885,1.6-.346,2.045-.641,4.1-.968,6.147-.113.707-.2,1.447-1.041,1.715a1.57,1.57,0,0,1-1.939-.871c-.761-1.933-.092-3.842.18-5.73.4-2.743.464-2.7-2.218-3.674a36.969,36.969,0,0,1-6.97-2.945c-1.892-1.166-3.532-1.36-5.2.234a4.342,4.342,0,0,1-4.544-1.412c-4.13-4.212-8.417-8.276-12.461-12.568-1.789-1.9-3.656-3-6.276-2.622a1.575,1.575,0,0,1-1.074-.495c-.617-.124-1.23-.27-1.851-.369-2.268-.361-2.624-1.253-1.234-3.131,1.208-.892,2.478-.018,3.712-.132.842-.022,1.818.715,2.481-.349.624-1,.062-1.873-.451-2.7a70.39,70.39,0,0,1-9.861-28.6c-.165-1.3-.454-2.447-2.057-2.572A3.706,3.706,0,0,1,3642.91,1185.62Z" transform="translate(-3641.75 -1164.243)"/>
          <path id="Trazado_150351" data-name="Trazado 150351" d="M3734.19,1214.161c1.06.431,2.138,1.079,3.034-.276.523.986,1.882.956,2.389,1.963a3.535,3.535,0,0,0,.99,4.208c1.031.908.694,2.145.169,3.255-2.447,5.179-6.721,7.553-12.271,7.877-1.879.11-3.768.035-5.652.019a5.168,5.168,0,0,0-3.5.9,1.458,1.458,0,0,1-2.105-.174,4.428,4.428,0,0,0-3.609-1.1c-4.4.266-8.624,1.049-12.341,3.673-2.25,1.588-2.95,1.553-4.85-.49a6.269,6.269,0,0,0-6.439-2.2,2.548,2.548,0,0,1-3.1-1.714,68.693,68.693,0,0,1-5.283-15.451,6.7,6.7,0,0,1-.123-2.706,1.424,1.424,0,0,1,2.776-.074,1.137,1.137,0,0,1,.071.381c-.38,3.522,1.032,6.745,1.641,10.1.494,2.723,1.95,4.184,4.688,4.238,2.4.047,4.809.056,7.211,0,2.8-.07,4.26-1.2,4.718-3.948.409-2.452,1.608-4.669,1.9-7.144a1.517,1.517,0,0,1,1.872-1.31c4.014.512,5.925-2.414,8.048-4.9a3.618,3.618,0,0,0,.524-3.674c-.581-1.684.156-2.749,1.929-2.644a25.85,25.85,0,0,1,6.507,1.151c1.992.651,2.56,2.494,3.247,4.149a14.559,14.559,0,0,0,6.472,7.033,4.238,4.238,0,0,0,2.811.685C3735.2,1215.468,3733.9,1215.554,3734.19,1214.161Z" transform="translate(-3665.933 -1187.852)" fill="#3f5959"/>
          <path id="Trazado_150352" data-name="Trazado 150352" d="M3731.116,1195.208c.545,1.262,1.565,1.345,2.735,1.052a2,2,0,0,1-3.107,1.157c-3.408-1.88-6.414-4.182-7.723-8.082-.89-2.652-2.5-4.272-5.518-4.237a16.223,16.223,0,0,1-3.218-.622,2.065,2.065,0,0,0-2,.48c-.566.594-.132,1.156.173,1.755a3.566,3.566,0,0,1-.722,4.152c-1.133,1.144-2.062,2.475-3.287,3.53a5.75,5.75,0,0,1-4.526,1.327c-1.338-.13-1.952.128-2.179,1.8a41.3,41.3,0,0,1-2.137,8.006,4.187,4.187,0,0,1-4.175,2.656c-2.727.065-5.457.028-8.185.014a4.71,4.71,0,0,1-4.87-4.716,6.743,6.743,0,0,0-.739-2.973c-.985-1.918-.82-4.017-.877-6.091-.022-.806.63-2.293-1.059-2.128-1.524.15-.919,1.6-.786,2.355a59.075,59.075,0,0,0,4.014,13.145c.512,1.189,1.078,2.357,1.571,3.554a1.622,1.622,0,0,0,2.19,1.053,5.99,5.99,0,0,1,7.037,2.3c1.241,1.585,2.4,1.85,4.2.462,4.137-3.186,9.086-3.845,14.155-3.84a2.851,2.851,0,0,1,2.362,1.155c.513.677.9,1.109,1.6.168s1.769-.914,2.831-.95c3.1-.105,6.217.316,9.307-.364a12.551,12.551,0,0,0,9.3-7.752,1.819,1.819,0,0,0-.665-2.513c-1.786-1.306-1.786-2.381-.276-4.17l.809.411a2.375,2.375,0,0,0,.8,2.173,2.261,2.261,0,0,0,1.532.908c.543.435,1.021.887.413,1.616-.867.949-.731,2.264-1.236,3.36a15.947,15.947,0,0,1-6.539,6.766,7,7,0,0,1-3.562,1.137c-.249-.075.1-.048-.15-.125a3.188,3.188,0,0,0-.756-.079c.207.046.443.021.585.234-1.011.581-2.116.325-3.188.361a8.116,8.116,0,0,0-3.892-.015,11.493,11.493,0,0,1-1.939-.01,1.848,1.848,0,0,0-2.331,1.6,3.074,3.074,0,0,1-1.434-.095c-.81-.3-1.8.021-2.489-.7a1.327,1.327,0,0,1-.075-.353c-.186-.515-.371-1.03-1.1-.817l-1.177-.014a7.049,7.049,0,0,0-2.5-.14c-.717.143-.4.455-.5.215-.044-.1-.014-.155.087-.175a1.631,1.631,0,0,1,1.447.151,4.708,4.708,0,0,1-2.427.345c-.675-.038-1.367-.157-1.91.412a1.508,1.508,0,0,1-1.2.385c-.4.071-.889-.107-1.119.415a3.167,3.167,0,0,1-1.6.775,8.292,8.292,0,0,0-3.492,2.438l-.783.712a1.389,1.389,0,0,1-2.012-.269c-1.088-1.188-2.251-2.307-3.409-3.428-1.681-1.627-3.382-1.652-5.1-.107-.471.422-.839,1.009-1.584,1l-.426-.749a4.4,4.4,0,0,0-1.27-2.321,1.622,1.622,0,0,1-.642-1.206,4.7,4.7,0,0,0-1.211-2.675l-.362-.828c-.082-.393.108-.89-.425-1.111a44.026,44.026,0,0,1-3.476-12.925c.077-.248.05.1.128-.149a3.11,3.11,0,0,0,.082-.76c-.048.209-.019.449-.237.59a1.186,1.186,0,0,1-.192-.328c-.642-3.1-.506-3.263,2.6-3.263h2.688c.5,2.209-.069,4.477.334,6.691.086.253.254-.151.035-.01-.066.043-.116-.008-.116-.154a36.118,36.118,0,0,1,.136-6.543c.78,1.906.235,3.893.333,5.839a6.236,6.236,0,0,0,1.586,4.365c1.284,5.566,1.685,5.262,7.165,5.253.776,0,1.553.01,2.33,0,2.657-.048,3.621-.87,4-3.463a4.2,4.2,0,0,1,.569-1.831l.38-.409a2.917,2.917,0,0,0,1.193-2.7q-.01-4.065-.019-8.13c0-4.656-.891-5.945-5.132-7.435a7.03,7.03,0,0,0-3.825-.045,9.91,9.91,0,0,1,1.036-8.5c.89-1.48,2.51-1.387,4.035-1.194,4.926,1.987,7.2,6.012,7.833,10.94.441,3.456.464,7.044-2.311,10.1,2.6.478,4.686.366,6.054-1.871a2.647,2.647,0,0,1,2.059-1.23c1.292-.531,1-1.747,1.192-2.754.3-1.531-.4-3.141.375-4.634.437,1.586.034,3.21.2,4.621-.016-.577,0-1.342,0-2.106,0-2.519,0-2.519,2.53-2.583,2.446.379,4.89.786,7.343,1.122.807.11,1.172.676,1.623,1.2.5.582.586,1.42,1.195,1.936l.371.815a6.59,6.59,0,0,0,2.06,3.872l.331.391a2.737,2.737,0,0,0,1.526,1.542l.394.331a3.507,3.507,0,0,0,1.931,1.259Z" transform="translate(-3662.859 -1168.899)" fill="#3f5959"/>
          <path id="Trazado_150353" data-name="Trazado 150353" d="M3808.932,1352.031c-1.741-2.2-2.792-4.4-2.5-6.986a8.683,8.683,0,0,1,5.884-7.557,8.4,8.4,0,0,1,9.315,2.036c.6.569.946,1.438,2.06.325,3.435-3.433,7.521-4.015,11.086-1.824,3.657,2.248,4.988,6.3,3.64,11.088.48.483,1.117.16,1.661.32.754.222,1.3.647,1.252,1.5a1.458,1.458,0,0,1-1.372,1.394.454.454,0,0,1-.193.015c-3.36-.912-5.037,1.5-6.941,3.491-2.063,2.156-4.152,4.287-6.234,6.425-2.8,2.879-4.779,2.9-7.541.065-1.9-1.95-3.858-3.854-5.679-5.878a3.817,3.817,0,0,0-3.532-1.5,18.83,18.83,0,0,1-2.916,0c-.876-.033-1.541-.429-1.562-1.383-.024-1.034.614-1.505,1.608-1.527C3807.524,1352.02,3808.084,1352.031,3808.932,1352.031Z" transform="translate(-3741.53 -1269.44)" fill="#010000"/>
          <path id="Trazado_150354" data-name="Trazado 150354" d="M3730.307,1357.73c1.665-2.112,3.4-1.581,5.451-.439a43.76,43.76,0,0,0,9.026,3.563c1.04.305,1.261.746.995,1.8a43.371,43.371,0,0,0-1.085,7.5,3.425,3.425,0,0,0-2.343-1.475q-2.312-.61-4.623-1.229a2.554,2.554,0,0,1-1.309-2.6,3.191,3.191,0,0,0-2.213-3.463c-1.129-.476-2.216-1.059-3.3-1.634-.624-.331-1.3-.62-1.485-1.42C3729.46,1357.751,3730.079,1358.031,3730.307,1357.73Z" transform="translate(-3695.218 -1281.369)" fill="#fde6c8"/>
          <path id="Trazado_150355" data-name="Trazado 150355" d="M3655.262,1254.049l-3.874-.393c-2.957-5.544-4.4-11.558-5.484-17.681-1-5.627-1.008-11.325-1.182-17.011l.407-.049a3.435,3.435,0,0,1,.546,2.4,64.335,64.335,0,0,0,8.472,29.759C3654.662,1252,3655.61,1252.791,3655.262,1254.049Z" transform="translate(-3643.563 -1197.586)" fill="#3f5959"/>
          <path id="Trazado_150356" data-name="Trazado 150356" d="M3720.275,1360.592c1.54,1.433,3.545,2.043,5.371,2.944,1.458.719,2.266,1.667,2.071,3.29a4.684,4.684,0,0,0,.8,3.046c-2.074-1.1-4.306-1.854-6.456-2.765-2.2-.931-4.121-2.4-6.42-3.079-.131-.833-1.658-.768-1.254-1.946a4.571,4.571,0,0,0,3.8-1.33A1.567,1.567,0,0,1,3720.275,1360.592Z" transform="translate(-3686.008 -1283.794)" fill="#fef1e2"/>
          <path id="Trazado_150357" data-name="Trazado 150357" d="M3686.014,1335.661c-.007.887,1.3.98,1.17,1.942-4.374-2.974-8.764-5.928-12.382-9.847a61.97,61.97,0,0,1-6.76-8.913c-.542-.855-.6-1.461.42-1.9l1.173.068c.594,2.148,2.152,3.582,3.668,5.076q5.8,5.722,11.525,11.53C3685.382,1334.173,3686.251,1334.617,3686.014,1335.661Z" transform="translate(-3657.552 -1257.369)" fill="#fef2e3"/>
          <path id="Trazado_150358" data-name="Trazado 150358" d="M3750.114,1274.79c.38.2.918-.04,1.2.43.365,1.225,1.5,1.2,2.434,1.49-.252.26-.511.4-.663.231.474-.041,1.093.222,1.711-.173,2.755-.163,5.515.158,8.277-.318a16.773,16.773,0,0,0,10.711-6.206c.957,3.742,4.01,5.815,5.719,8.81a11.819,11.819,0,0,1-6.606,4.477c-2.785.639-5.627.995-8.446,1.463a29.61,29.61,0,0,0-18.325,10.561c-.676.8-1.244,1.889-2.625,1.494-1.371-.169-1.992-.687-1.131-2.109a2.363,2.363,0,0,0-.007-2.419,18.017,18.017,0,0,0-4.2-4.467c-.506-.447-1.106-.1-1.653.076a3.127,3.127,0,0,1-2.8-2.8,1.715,1.715,0,0,0-.514-2.389c-1.145-.831-.736-1.351.124-2.148a16.885,16.885,0,0,1,11.815-4.458c1.194-.01,1.949-.332,2.283-1.488A4.2,4.2,0,0,1,3750.114,1274.79Z" transform="translate(-3697.092 -1228.891)" fill="#fef1e2"/>
          <path id="Trazado_150359" data-name="Trazado 150359" d="M3760.724,1310.822c.961-.068,1.469-.817,1.969-1.456,5.22-6.661,12.15-10.222,20.424-11.416q3.723-.538,7.428-1.213c1.592-.291,2.677-1.51,3.955-2.369.749-.5,1.483-1.026,2.225-1.54a4.737,4.737,0,0,1,1.225,2.16c1.351,3.781,1.006,4.308-2.9,4.954a88.688,88.688,0,0,0-8.957,1.7,28.908,28.908,0,0,0-16,11.015,1.849,1.849,0,0,1-2.529.814A50.152,50.152,0,0,1,3760.724,1310.822Z" transform="translate(-3714.31 -1242.665)" fill="#fde6c8"/>
          <path id="Trazado_150360" data-name="Trazado 150360" d="M3705.719,1296.37a13.341,13.341,0,0,0,2.8,2.8c-.8,1.016-.39,1.884.332,2.713a18.883,18.883,0,0,1-5.336,5.387c-1.24.141-1.6,1.023-1.75,2.086-.417.688-.912,1.24-1.83,1.053-4.283-4.248-8.556-8.508-12.863-12.731-.7-.683-.583-1.128.048-1.746,2.364-2.317,4.73-4.635,7.012-7.031.84-.882,1.307-.608,2.006.112,2.26,2.328,4.6,4.583,6.862,6.907C3703.836,1296.775,3704.661,1297.125,3705.719,1296.37Z" transform="translate(-3669.102 -1239.931)" fill="#a8d2d7"/>
          <path id="Trazado_150361" data-name="Trazado 150361" d="M3655.871,1253.9a67.829,67.829,0,0,1-8.735-21.288,55.935,55.935,0,0,1-1.4-13.846c2.446-.531,2.505,1.213,2.685,2.828a69.853,69.853,0,0,0,7.058,23.651,38.262,38.262,0,0,0,3.014,5.2,2.59,2.59,0,0,1,.035,3.322C3657.778,1254.842,3656.769,1253.949,3655.871,1253.9Z" transform="translate(-3644.172 -1197.434)" fill="#374747"/>
          <path id="Trazado_150362" data-name="Trazado 150362" d="M3660.97,1214.863c1.372-.261,1.911.2,2.039,1.7a62.47,62.47,0,0,0,8.607,26.987,2.632,2.632,0,0,1-1.4,3.61c-.851.277-.9-.569-1.157-.978a63.389,63.389,0,0,1-7.593-17.6,70.509,70.509,0,0,1-2.116-12.05C3659.224,1215.143,3659.523,1214.527,3660.97,1214.863Z" transform="translate(-3652.467 -1195.06)" fill="#fa7c4a"/>
          <path id="Trazado_150363" data-name="Trazado 150363" d="M3689.025,1335.628c-4.97-5.034-9.912-10.1-14.932-15.079a3.889,3.889,0,0,1-1.446-3.575,6.449,6.449,0,0,1,6.111,2.355c4.069,4.359,8.422,8.451,12.591,12.721a4.537,4.537,0,0,0,4.3,1.648l-.822.436a2.206,2.206,0,0,0-2.333.947C3691.5,1336.274,3690.373,1336.659,3689.025,1335.628Z" transform="translate(-3660.563 -1257.335)" fill="#fce5c8"/>
          <path id="Trazado_150364" data-name="Trazado 150364" d="M3740.353,1190.086c-.364.443-.969.482-1.343,1.029-2.066,3.021-3.92,3.587-7.849,2.428,3.591-3.066,3.324-7.2,2.827-11.109a13.512,13.512,0,0,0-6.344-9.591c-.32-.214-.618-.461-.927-.693,7.4.357,13.28,7.9,11.852,15.237C3738.267,1188.938,3738.262,1190.174,3740.353,1190.086Z" transform="translate(-3693.57 -1169.066)" fill="#384747"/>
          <path id="Trazado_150365" data-name="Trazado 150365" d="M3702.307,1218.923a1.755,1.755,0,0,1-1.547-1.538,1.461,1.461,0,0,0,.2-.579c.036-3.245.014-6.49.008-9.734a1.821,1.821,0,0,0-.147-.6c1.251-2.452,3.489-1.374,5.39-1.506a1.859,1.859,0,0,1,1.211,1.616c.138,3.954.6,7.92-.27,11.852a1.338,1.338,0,0,1-.78.624A34.081,34.081,0,0,0,3702.307,1218.923Z" transform="translate(-3677.739 -1189.004)" fill="#fbc06c"/>
          <path id="Trazado_150366" data-name="Trazado 150366" d="M3866,1273.342c-.971,2.046-3.154,2.648-4.8,4.436a15.274,15.274,0,0,0-2.516-6.744,6.944,6.944,0,0,0,1.851-4.751c1.09-.732,1.411-1.564.359-2.6a1.422,1.422,0,0,1-.486-.991,2.432,2.432,0,0,1,.622-1.877c1.8,1.174,4.185,1.6,5.042,3.965C3866.029,1267.635,3866.164,1270.49,3866,1273.342Z" transform="translate(-3774.053 -1223.141)" fill="#f9936c"/>
          <path id="Trazado_150367" data-name="Trazado 150367" d="M3853.087,1254.9c-.131.691.238,1.495-.465,2.056a1.318,1.318,0,0,1-.905.241c-.486.021-.9.172-1.035.692a1.145,1.145,0,0,0,.511,1.165c.513.454,1.318.6,1.492,1.413a3.628,3.628,0,0,1-1.943,4.65,45.466,45.466,0,0,1-4.424-5.624,3.568,3.568,0,0,1-.642-2.195,31.365,31.365,0,0,0-.013-3.5c.08-.5.15-1,.243-1.5.217-1.168.733-1.542,1.841-.8C3849.5,1252.662,3851.3,1253.763,3853.087,1254.9Z" transform="translate(-3766.111 -1217.22)" fill="#faab8c"/>
          <path id="Trazado_150368" data-name="Trazado 150368" d="M3715.13,1218.631c.821-3.195.192-6.448.379-9.668a5.7,5.7,0,0,0-.776-3.92,25.455,25.455,0,0,1,3.1-.033,2.287,2.287,0,0,1,2.357,2.313,49.561,49.561,0,0,0-.018,9.744,1.925,1.925,0,0,1-1.558,1.906C3717.452,1218.846,3716.226,1219.4,3715.13,1218.631Z" transform="translate(-3686.261 -1189.08)" fill="#fba52f"/>
          <path id="Trazado_150369" data-name="Trazado 150369" d="M3710.519,1244.986c0,.648.015,1.3,0,1.943a3.667,3.667,0,0,1-3.857,3.9c-1.943.028-3.9-.15-5.826.042-3,.3-5.025-2.1-4.384-5.845C3699.93,1247.279,3707.206,1247.256,3710.519,1244.986Z" transform="translate(-3675.039 -1213.486)" fill="#374747"/>
          <path id="Trazado_150370" data-name="Trazado 150370" d="M3724.146,1328.152l5.558-5.109c3.2,2.753,3.2,2.753.282,5.673-1.7,1.7-3.429,3.356-5.069,5.1-.754.8-1.292.872-2.007.005-.656-.794-1.41-1.507-2.121-2.256l1.516-1.127c.533-.323.7.143.955.43.31.311.6.416.851-.069C3724.659,1329.922,3724.219,1329.034,3724.146,1328.152Z" transform="translate(-3689.954 -1261.092)" fill="#8eb8c2"/>
          <path id="Trazado_150371" data-name="Trazado 150371" d="M3751.8,1345.884c2.793.984,5.567,2.027,8.386,2.932,1.793.575.554,1.66.509,2.5-.047.881-.439,1.339-1.542.977a60.608,60.608,0,0,1-10.42-4.071C3749.3,1346.835,3750.107,1345.777,3751.8,1345.884Z" transform="translate(-3706.999 -1275.017)" fill="#f97b4a"/>
          <path id="Trazado_150372" data-name="Trazado 150372" d="M3749.051,1344.2c-1.371.32-1.956,1.671-3.066,2.335-.683-.342-2.212-.383-1.632-1.328.559-.912,1.251-2.816,3.186-1.8C3748.041,1343.677,3748.546,1343.939,3749.051,1344.2Z" transform="translate(-3704.247 -1273.337)" fill="#ef5230"/>
          <path id="Trazado_150373" data-name="Trazado 150373" d="M3697.738,1281.185c.533-.463,1.059-.931,1.6-1.385a3.565,3.565,0,0,1,5.061.094q1.633,1.512,3.146,3.15a2.215,2.215,0,0,0,2.306.949c-.539.847-1.125.953-1.859.191-1.121-1.162-2.268-2.3-3.425-3.426-1.906-1.852-3.381-1.84-5.382-.072C3698.816,1281.007,3698.558,1282.032,3697.738,1281.185Z" transform="translate(-3675.896 -1234.104)" fill="#3f5959"/>
          <path id="Trazado_150374" data-name="Trazado 150374" d="M3700.234,1209.023c.1.006.194.009.292.008a59.684,59.684,0,0,1,.015,10.9h-.369A36.751,36.751,0,0,1,3700.234,1209.023Z" transform="translate(-3677.151 -1191.553)" fill="#fecb72"/>
          <path id="Trazado_150375" data-name="Trazado 150375" d="M3819.794,1259.228c.479-1.086,1.687-1.267,2.463-1.98,2.011-1.849,3.8-3.834,4.339-6.658.165-.862.243-.847.973-1.487A12.927,12.927,0,0,1,3819.794,1259.228Z" transform="translate(-3750.336 -1215.997)" fill="#3f5959"/>
          <path id="Trazado_150376" data-name="Trazado 150376" d="M3876.82,1279.541a21.691,21.691,0,0,1,.075-8.56A19.566,19.566,0,0,1,3876.82,1279.541Z" transform="translate(-3784.877 -1229.34)" fill="#fe9870"/>
          <path id="Trazado_150377" data-name="Trazado 150377" d="M3709.6,1239.942c1.156.156,2.377-.346,3.48.343a20.946,20.946,0,0,1-7.416.131,6.425,6.425,0,0,1,3.462-.156Z" transform="translate(-3680.729 -1210.391)" fill="#feae30"/>
          <path id="Trazado_150378" data-name="Trazado 150378" d="M3727.941,1220.753a25.378,25.378,0,0,1,.018-9.744A68.529,68.529,0,0,1,3727.941,1220.753Z" transform="translate(-3694.034 -1192.764)" fill="#feaf31"/>
          <path id="Trazado_150379" data-name="Trazado 150379" d="M3768.416,1198.5c-.542.881-2.472-.316-2.348,1.6a7.056,7.056,0,0,1-.382,3.056v-4.586A2.817,2.817,0,0,1,3768.416,1198.5Z" transform="translate(-3717.336 -1184.936)" fill="#3f5959"/>
          <path id="Trazado_150380" data-name="Trazado 150380" d="M3691.11,1218.944v6.546l-.391.008v-6.537Z" transform="translate(-3671.616 -1197.604)" fill="#3f5959"/>
          <path id="Trazado_150381" data-name="Trazado 150381" d="M3801.712,1215.877a3.862,3.862,0,0,1-2.06-3.872Z" transform="translate(-3738.041 -1193.372)" fill="#3f5959"/>
          <path id="Trazado_150382" data-name="Trazado 150382" d="M3730.784,1286.485a4.133,4.133,0,0,1,3.492-2.437Z" transform="translate(-3696.05 -1237.309)" fill="#3f5959"/>
          <path id="Trazado_150383" data-name="Trazado 150383" d="M3675.973,1213.149h4.784l.008.194h-4.87Z" transform="translate(-3662.574 -1194.07)" fill="#050505"/>
          <path id="Trazado_150384" data-name="Trazado 150384" d="M3845.206,1257.99a3.621,3.621,0,0,1,.013,3.5A5.272,5.272,0,0,1,3845.206,1257.99Z" transform="translate(-3765.655 -1221.417)" fill="#feb594"/>
          <path id="Trazado_150385" data-name="Trazado 150385" d="M3734.864,1237.007c.583,1.333.02,2.162-1.193,2.7Q3734.266,1238.358,3734.864,1237.007Z" transform="translate(-3697.811 -1208.62)" fill="#3f5959"/>
          <path id="Trazado_150386" data-name="Trazado 150386" d="M3688.642,1267.107a2.264,2.264,0,0,1,1.21,2.674A8.188,8.188,0,0,1,3688.642,1267.107Z" transform="translate(-3670.349 -1226.978)" fill="#3f5959"/>
          <path id="Trazado_150387" data-name="Trazado 150387" d="M3713.722,1196.326c1.324-.8,2.769-.208,4.149-.356.026,0,.061.084.092.129l-.416.271Z" transform="translate(-3685.645 -1183.549)" fill="#435e5e"/>
          <path id="Trazado_150388" data-name="Trazado 150388" d="M3749.1,1278.773l-.442-.241c.768-.278,1.5-.984,2.352-.171A3.658,3.658,0,0,1,3749.1,1278.773Z" transform="translate(-3706.948 -1233.61)" fill="#3f5959"/>
          <path id="Trazado_150389" data-name="Trazado 150389" d="M3791.69,1278.245a4.451,4.451,0,0,1,3.893.015Z" transform="translate(-3733.195 -1233.502)" fill="#3f5959"/>
          <path id="Trazado_150390" data-name="Trazado 150390" d="M3708.554,1240.2l-3.463.156-.364-.107A4.652,4.652,0,0,1,3708.554,1240.2Z" transform="translate(-3680.158 -1210.332)" fill="#fecb73"/>
          <path id="Trazado_150391" data-name="Trazado 150391" d="M3807.336,1224.474c-1.065-.129-1.423-.491-1.527-1.542Z" transform="translate(-3741.806 -1200.036)" fill="#3f5959"/>
          <path id="Trazado_150392" data-name="Trazado 150392" d="M3693.392,1277.055a1.994,1.994,0,0,1,1.27,2.321A6.507,6.507,0,0,1,3693.392,1277.055Z" transform="translate(-3673.246 -1233.045)" fill="#3f5959"/>
          <path id="Trazado_150393" data-name="Trazado 150393" d="M3758.059,1277.337c-.537-.135-1.146.163-1.819-.4,1.227.092,2.3-.387,3.289.347Z" transform="translate(-3711.575 -1232.931)" fill="#3f5959"/>
          <path id="Trazado_150394" data-name="Trazado 150394" d="M3812.661,1228.993c-1.134.334-1.522-.479-1.931-1.259Z" transform="translate(-3744.808 -1202.965)" fill="#3f5959"/>
          <path id="Trazado_150395" data-name="Trazado 150395" d="M3796.862,1206.889c-.963-.3-.984-1.174-1.194-1.936C3796.5,1205.33,3796.665,1206.121,3796.862,1206.889Z" transform="translate(-3735.622 -1189.072)" fill="#3f5959"/>
          <path id="Trazado_150396" data-name="Trazado 150396" d="M3773.412,1281.288l-2.7.057q-.012-.209-.022-.418C3771.6,1281.067,3772.581,1280.6,3773.412,1281.288Z" transform="translate(-3720.389 -1235.389)" fill="#3f5959"/>
          <path id="Trazado_150397" data-name="Trazado 150397" d="M3767.685,1277.757c.918-.31,1.171-.122,1.1.817Z" transform="translate(-3718.555 -1233.389)" fill="#3f5959"/>
          <path id="Trazado_150398" data-name="Trazado 150398" d="M3743.838,1280.893c.125-.8.484-.983,1.119-.415A1.42,1.42,0,0,1,3743.838,1280.893Z" transform="translate(-3704.011 -1234.93)" fill="#3f5959"/>
          <path id="Trazado_150399" data-name="Trazado 150399" d="M3786.659,1286.876c-.546.6-1.219.377-1.927.315.193-.468.617-.228.879-.373Z" transform="translate(-3728.952 -1238.998)" fill="#fefcef"/>
          <path id="Trazado_150400" data-name="Trazado 150400" d="M3836.273,1243.541c-.85.271-1.288-.152-1.531-.907A3.426,3.426,0,0,1,3836.273,1243.541Z" transform="translate(-3759.452 -1212.052)" fill="#3f5959"/>
          <path id="Trazado_150401" data-name="Trazado 150401" d="M3686.624,1262.137c.818.112.988.472.424,1.111A1.358,1.358,0,0,1,3686.624,1262.137Z" transform="translate(-3669.118 -1223.946)" fill="#3f5959"/>
          <path id="Trazado_150402" data-name="Trazado 150402" d="M3807.854,1277.371c-.4-.1-.874.137-1.271-.256a1.258,1.258,0,0,1,1.592.226l-.159.04Z" transform="translate(-3742.279 -1232.973)" fill="#3f5959"/>
          <path id="Trazado_150403" data-name="Trazado 150403" d="M3677.624,1226.2c.108-.4-.134-.876.258-1.274a1.253,1.253,0,0,1-.231,1.594A.53.53,0,0,1,3677.624,1226.2Z" transform="translate(-3663.621 -1201.249)" fill="#3f5959"/>
          <path id="Trazado_150404" data-name="Trazado 150404" d="M3769.6,1230.959c.142-2.04,2.48-3.935,4.843-3.926,2.305.009,4.634,1.99,4.764,4.045a1.438,1.438,0,0,1-.936,1.531,1.415,1.415,0,0,1-1.817-.675c-1.865-2.613-2.272-2.609-4.263.064-.4.543-.878.961-1.635.683A1.571,1.571,0,0,1,3769.6,1230.959Z" transform="translate(-3719.722 -1202.537)" fill="#010101"/>
          <path id="Trazado_150405" data-name="Trazado 150405" d="M3786.08,1277.113a1.3,1.3,0,0,1-1.244.13C3785.117,1276.76,3785.507,1276.964,3786.08,1277.113Z" transform="translate(-3729.015 -1232.975)" fill="#3f5959"/>
          <path id="Trazado_150406" data-name="Trazado 150406" d="M3836.253,1354.045c-1.1.03-2.2.115-3.3.074a2.5,2.5,0,0,0-2.814,1.56c-.4-1.336-.65-2.409-1.044-3.427-.582-1.5-1.812-1.656-2.787-.359-.5.671-.9,1.423-1.344,2.139q-3.534,5.7-7.9.38a5.682,5.682,0,0,1-.083-7.638,5.871,5.871,0,0,1,7.718-1.268,15.846,15.846,0,0,1,2.682,2.524c1.137,1.259,2.1,1.185,3.251-.017,1.363-1.425,2.523-3.209,4.8-3.356.746-.353,1.232.073,1.63.6C3838.655,1347.38,3838.7,1352.467,3836.253,1354.045Z" transform="translate(-3747.742 -1274.196)" fill="#fa693b"/>
          <path id="Trazado_150407" data-name="Trazado 150407" d="M3867.336,1353.937c1.1-2.148,1.9-4.368,1.125-6.8-.334-1.054-.494-2.338-1.954-2.585,2.444-.651,4.308.355,5.706,2.224a6,6,0,0,1,.532,6.4,1.409,1.409,0,0,1-1.55.856C3869.909,1353.976,3868.622,1353.966,3867.336,1353.937Z" transform="translate(-3778.825 -1274.088)" fill="#f95431"/>
          <path id="Trazado_150408" data-name="Trazado 150408" d="M3845.8,1380.824a1.8,1.8,0,0,0,2.514-1.055c1.785-3.562,2.19-3.714,6.692-2.934-2.785,2.852-5.475,5.617-8.179,8.368a1.184,1.184,0,0,1-1.874,0c-.586-.6-1.13-1.238-1.693-1.859A4.823,4.823,0,0,1,3845.8,1380.824Z" transform="translate(-3764.647 -1293.664)" fill="#f85431"/>
          <path id="Trazado_150409" data-name="Trazado 150409" d="M3839.05,1379.9a7.707,7.707,0,0,1-2.54,2.518l-4.318-4.365c3.432.982,3.686-1.735,5.063-3.12C3838.119,1376.57,3838.122,1378.4,3839.05,1379.9Z" transform="translate(-3757.897 -1292.737)" fill="#f8693a"/>
          <path id="Trazado_150410" data-name="Trazado 150410" d="M3716.762,1307.746a1.483,1.483,0,0,1-.685,1.4,1.219,1.219,0,0,1-1.612-.105q-3.88-3.814-7.7-7.689a1.307,1.307,0,0,1,.016-1.925,1.176,1.176,0,0,1,1.738-.244c2.7,2.61,5.347,5.275,8,7.937A1.613,1.613,0,0,1,3716.762,1307.746Z" transform="translate(-3681.148 -1246.364)" fill="#010202"/>
          <path id="Trazado_150411" data-name="Trazado 150411" d="M3725.4,1339.122l-.88-.7c-.335-1.527.181-2.367,1.841-2.289,1.271.991,1.222,1.978-.009,2.961C3726.049,1339.483,3725.732,1339.448,3725.4,1339.122Z" transform="translate(-3692.174 -1269.072)" fill="#090b0c"/>
          <path id="Trazado_150412" data-name="Trazado 150412" d="M3717.573,1330.865c-1.019-.147-1.562-.7-1.5-1.559a1.458,1.458,0,0,1,2.912.171A1.423,1.423,0,0,1,3717.573,1330.865Z" transform="translate(-3687.075 -1264.079)" fill="#0d1111"/>
          <path id="Trazado_150413" data-name="Trazado 150413" d="M3701.682,1219.948q-.007-5.453-.015-10.905c.73.687.43,1.586.382,2.366C3701.878,1214.254,3702.576,1217.137,3701.682,1219.948Z" transform="translate(-3678.292 -1191.565)" fill="#f7bd6b"/>
          <path id="Trazado_150414" data-name="Trazado 150414" d="M3859.41,1269.106c-.449-.248-.9-.493-1.348-.745-.876-.493-1.76-1.041-1.2-2.238.556-1.179,1.539-.885,2.482-.529.665.682,1.961.888,1.73,2.246C3860.92,1268.764,3860.237,1269.041,3859.41,1269.106Z" transform="translate(-3772.836 -1225.862)" fill="#090605"/>
          <path id="Trazado_150415" data-name="Trazado 150415" d="M3726.836,1343.758l.951-.028c.469.579-.141.483-.335.443C3727.231,1344.128,3726.574,1344.552,3726.836,1343.758Z" transform="translate(-3693.605 -1273.708)" fill="#95c1cc"/>
        </g>
        <path id="Trazado_565726" data-name="Trazado 565726" d="M9.208,14.016A1.2,1.2,0,0,0,8.739,13a6.148,6.148,0,0,0-1.687-.75,11.963,11.963,0,0,1-1.93-.777,3.153,3.153,0,0,1-1.937-2.82A2.747,2.747,0,0,1,3.7,7,3.389,3.389,0,0,1,5.2,5.875,5.616,5.616,0,0,1,7.38,5.469a5.112,5.112,0,0,1,2.172.441,3.458,3.458,0,0,1,1.48,1.246,3.261,3.261,0,0,1,.527,1.828H9.216A1.534,1.534,0,0,0,8.723,7.77a2.023,2.023,0,0,0-1.383-.434A2.162,2.162,0,0,0,6,7.7a1.146,1.146,0,0,0-.477.957,1.1,1.1,0,0,0,.559.93,6.311,6.311,0,0,0,1.645.7,7.106,7.106,0,0,1,2.914,1.492A2.972,2.972,0,0,1,11.559,14a2.737,2.737,0,0,1-1.117,2.316,4.891,4.891,0,0,1-3.008.84,5.808,5.808,0,0,1-2.391-.48A3.783,3.783,0,0,1,3.4,15.359a3.371,3.371,0,0,1-.566-1.937H5.184q0,1.883,2.25,1.883a2.189,2.189,0,0,0,1.3-.34A1.106,1.106,0,0,0,9.208,14.016ZM17.9,17a2.507,2.507,0,0,1-.227-.758,2.732,2.732,0,0,1-2.133.914,3,3,0,0,1-2.059-.719,2.312,2.312,0,0,1-.816-1.812,2.389,2.389,0,0,1,1-2.062,4.915,4.915,0,0,1,2.879-.727h1.039v-.484a1.393,1.393,0,0,0-.3-.937,1.183,1.183,0,0,0-.949-.352,1.345,1.345,0,0,0-.895.273.929.929,0,0,0-.324.75H12.848A2.268,2.268,0,0,1,13.3,9.727a3,3,0,0,1,1.281-.98,4.669,4.669,0,0,1,1.859-.355,3.689,3.689,0,0,1,2.48.785,2.747,2.747,0,0,1,.918,2.207v3.664a4.041,4.041,0,0,0,.336,1.82V17Zm-1.867-1.57a1.945,1.945,0,0,0,.922-.223,1.462,1.462,0,0,0,.625-.6V13.156h-.844q-1.7,0-1.8,1.172l-.008.133a.9.9,0,0,0,.3.7A1.153,1.153,0,0,0,16.028,15.43ZM23.958,17H21.692V5h2.266Zm6.922-.859a2.831,2.831,0,0,1-2.312,1.016,2.67,2.67,0,0,1-2.074-.781,3.335,3.335,0,0,1-.73-2.289V8.547H28.02v5.467q0,1.322,1.2,1.322a1.63,1.63,0,0,0,1.578-.8V8.547h2.266V17H30.942Zm3.539-3.43a5.094,5.094,0,0,1,.887-3.148,2.877,2.877,0,0,1,2.426-1.172,2.589,2.589,0,0,1,2.039.922V5h2.266V17H40l-.109-.9a2.657,2.657,0,0,1-2.172,1.055,2.869,2.869,0,0,1-2.395-1.176A5.258,5.258,0,0,1,34.419,12.711Zm2.258.168a3.337,3.337,0,0,0,.414,1.823,1.349,1.349,0,0,0,1.2.634,1.511,1.511,0,0,0,1.477-.884V11.111a1.489,1.489,0,0,0-1.461-.884Q36.676,10.227,36.676,12.879ZM52.669,17a2.507,2.507,0,0,1-.227-.758,2.732,2.732,0,0,1-2.133.914,3,3,0,0,1-2.059-.719,2.312,2.312,0,0,1-.816-1.812,2.389,2.389,0,0,1,1-2.062,4.915,4.915,0,0,1,2.879-.727h1.039v-.484a1.393,1.393,0,0,0-.3-.937,1.183,1.183,0,0,0-.949-.352,1.345,1.345,0,0,0-.895.273.929.929,0,0,0-.324.75H47.622a2.268,2.268,0,0,1,.453-1.359,3,3,0,0,1,1.281-.98,4.669,4.669,0,0,1,1.859-.355,3.689,3.689,0,0,1,2.48.785,2.747,2.747,0,0,1,.918,2.207v3.664a4.041,4.041,0,0,0,.336,1.82V17ZM50.8,15.43a1.945,1.945,0,0,0,.922-.223,1.462,1.462,0,0,0,.625-.6V13.156H51.5q-1.7,0-1.8,1.172l-.008.133a.9.9,0,0,0,.3.7A1.153,1.153,0,0,0,50.8,15.43Zm7.625-6.883.07.977a2.951,2.951,0,0,1,2.43-1.133,2.453,2.453,0,0,1,2,.789,3.682,3.682,0,0,1,.672,2.359V17H61.341V11.594a1.465,1.465,0,0,0-.312-1.043,1.4,1.4,0,0,0-1.039-.324,1.553,1.553,0,0,0-1.43.813V17H56.3V8.547ZM67.692,17H65.426V8.547h2.266Zm-2.4-10.641a1.112,1.112,0,0,1,.34-.836,1.465,1.465,0,0,1,1.848,0,1.105,1.105,0,0,1,.344.836,1.108,1.108,0,0,1-.348.844,1.448,1.448,0,0,1-1.836,0A1.108,1.108,0,0,1,65.294,6.359Zm6.375,2.188.07.945a2.971,2.971,0,0,1,2.43-1.1A2.255,2.255,0,0,1,76.411,9.68,2.9,2.9,0,0,1,78.95,8.391a2.521,2.521,0,0,1,2.047.8,3.681,3.681,0,0,1,.672,2.41V17H79.4V11.609a1.61,1.61,0,0,0-.281-1.051,1.246,1.246,0,0,0-.992-.332,1.409,1.409,0,0,0-1.406.969l.008,5.8H74.473V11.617a1.59,1.59,0,0,0-.289-1.062,1.259,1.259,0,0,0-.984-.328,1.463,1.463,0,0,0-1.391.8V17H69.551V8.547ZM88.3,17a2.507,2.507,0,0,1-.227-.758,2.732,2.732,0,0,1-2.133.914,3,3,0,0,1-2.059-.719,2.312,2.312,0,0,1-.816-1.812,2.389,2.389,0,0,1,1-2.062,4.915,4.915,0,0,1,2.879-.727h1.039v-.484a1.393,1.393,0,0,0-.3-.937,1.183,1.183,0,0,0-.949-.352,1.345,1.345,0,0,0-.895.273.929.929,0,0,0-.324.75H83.255a2.268,2.268,0,0,1,.453-1.359,3,3,0,0,1,1.281-.98,4.669,4.669,0,0,1,1.859-.355,3.689,3.689,0,0,1,2.48.785,2.747,2.747,0,0,1,.918,2.207v3.664a4.041,4.041,0,0,0,.336,1.82V17Zm-1.867-1.57a1.945,1.945,0,0,0,.922-.223,1.462,1.462,0,0,0,.625-.6V13.156h-.844q-1.7,0-1.8,1.172l-.008.133a.9.9,0,0,0,.3.7A1.153,1.153,0,0,0,86.434,15.43ZM94.364,17H92.1V5h2.266Z" transform="translate(751.175 1949.072)" fill="#12263f"/>
        <path id="Trazado_565720" data-name="Trazado 565720" d="M16.776,15.117h4.977V17h-7.32V5.625h2.344Zm10.063,2.039a4.15,4.15,0,0,1-3.027-1.141,4.054,4.054,0,0,1-1.168-3.039v-.219a5.106,5.106,0,0,1,.492-2.277A3.612,3.612,0,0,1,24.53,8.934a3.914,3.914,0,0,1,2.059-.543,3.508,3.508,0,0,1,2.73,1.094,4.444,4.444,0,0,1,1,3.1v.922H24.932a2.1,2.1,0,0,0,.66,1.328,2,2,0,0,0,1.395.5,2.437,2.437,0,0,0,2.039-.945l1.109,1.242a3.389,3.389,0,0,1-1.375,1.121A4.511,4.511,0,0,1,26.838,17.156Zm-.258-6.945a1.411,1.411,0,0,0-1.09.455,2.357,2.357,0,0,0-.535,1.3H28.1v-.181a1.681,1.681,0,0,0-.406-1.165A1.456,1.456,0,0,0,26.58,10.211ZM34.752,13.8l1.563-5.258h2.422l-3.4,9.766-.187.445a2.577,2.577,0,0,1-2.5,1.656,3.552,3.552,0,0,1-1-.148V18.555l.344.008a1.857,1.857,0,0,0,.957-.2,1.283,1.283,0,0,0,.5-.648l.266-.7L30.752,8.547h2.43Zm11.063-3.492h1.2a1.7,1.7,0,0,0,1.273-.43,1.574,1.574,0,0,0,.414-1.141,1.392,1.392,0,0,0-.41-1.07,1.59,1.59,0,0,0-1.129-.383,1.666,1.666,0,0,0-1.086.355,1.137,1.137,0,0,0-.437.926H43.385a2.777,2.777,0,0,1,.48-1.6,3.2,3.2,0,0,1,1.344-1.105,4.485,4.485,0,0,1,1.9-.4,4.253,4.253,0,0,1,2.828.863,2.945,2.945,0,0,1,1.023,2.379,2.394,2.394,0,0,1-.477,1.438,3.1,3.1,0,0,1-1.25,1.008,2.826,2.826,0,0,1,1.434,1.031,2.8,2.8,0,0,1,.473,1.625,2.994,2.994,0,0,1-1.105,2.43,4.445,4.445,0,0,1-2.926.914,4.214,4.214,0,0,1-2.785-.9,2.934,2.934,0,0,1-1.082-2.375H45.5a1.308,1.308,0,0,0,.48,1.047,2,2,0,0,0,2.445-.02,1.47,1.47,0,0,0,.457-1.129q0-1.7-1.875-1.7h-1.2Zm12.164,2.141a2.851,2.851,0,0,1-2.062.867A3.049,3.049,0,0,1,53.5,12.285,4.091,4.091,0,0,1,52.6,9.492a4.357,4.357,0,0,1,.488-2.051,3.582,3.582,0,0,1,1.363-1.453,3.782,3.782,0,0,1,1.969-.52,3.617,3.617,0,0,1,2,.563,3.7,3.7,0,0,1,1.359,1.617,5.806,5.806,0,0,1,.492,2.414V10.9a6.579,6.579,0,0,1-1.414,4.469A5.346,5.346,0,0,1,54.846,17.1l-.555.008V15.227l.5-.008Q57.737,15.086,57.979,12.453Zm-1.508-.859a1.579,1.579,0,0,0,.941-.281,1.879,1.879,0,0,0,.6-.68V9.7a3.1,3.1,0,0,0-.437-1.781A1.358,1.358,0,0,0,56.4,7.289a1.318,1.318,0,0,0-1.117.621,2.641,2.641,0,0,0-.437,1.559A2.57,2.57,0,0,0,55.272,11,1.387,1.387,0,0,0,56.471,11.594Zm5.742-.187.656-5.781h6.375V7.508H64.721L64.44,9.953a3.58,3.58,0,0,1,1.711-.43A3.279,3.279,0,0,1,68.7,10.531a4.026,4.026,0,0,1,.922,2.82,4.124,4.124,0,0,1-.465,1.973,3.281,3.281,0,0,1-1.332,1.352,4.158,4.158,0,0,1-2.047.48,4.416,4.416,0,0,1-1.914-.418,3.4,3.4,0,0,1-1.395-1.176,3.2,3.2,0,0,1-.543-1.727h2.234a1.669,1.669,0,0,0,.5,1.105,1.573,1.573,0,0,0,1.113.395,1.388,1.388,0,0,0,1.18-.551,2.552,2.552,0,0,0,.414-1.559,2.11,2.11,0,0,0-.477-1.484,1.749,1.749,0,0,0-1.352-.516,1.954,1.954,0,0,0-1.3.422l-.219.2Zm-49.031,25.3a5.094,5.094,0,0,1,.887-3.148,2.877,2.877,0,0,1,2.426-1.172,2.589,2.589,0,0,1,2.039.922V29H20.8V41H18.76l-.109-.9a2.657,2.657,0,0,1-2.172,1.055,2.869,2.869,0,0,1-2.395-1.176A5.258,5.258,0,0,1,13.182,36.711Zm2.258.168a3.337,3.337,0,0,0,.414,1.823,1.349,1.349,0,0,0,1.2.634,1.511,1.511,0,0,0,1.477-.884V35.111a1.489,1.489,0,0,0-1.461-.884Q15.44,34.227,15.44,36.879Zm11,4.277a4.15,4.15,0,0,1-3.027-1.141,4.054,4.054,0,0,1-1.168-3.039v-.219a5.106,5.106,0,0,1,.492-2.277,3.612,3.612,0,0,1,1.395-1.547,3.914,3.914,0,0,1,2.059-.543,3.508,3.508,0,0,1,2.73,1.094,4.444,4.444,0,0,1,1,3.1v.922H24.534a2.1,2.1,0,0,0,.66,1.328,2,2,0,0,0,1.395.5,2.437,2.437,0,0,0,2.039-.945l1.109,1.242a3.389,3.389,0,0,1-1.375,1.121A4.511,4.511,0,0,1,26.44,41.156Zm-.258-6.945a1.411,1.411,0,0,0-1.09.455,2.357,2.357,0,0,0-.535,1.3H27.7v-.181a1.681,1.681,0,0,0-.406-1.165A1.456,1.456,0,0,0,26.182,34.211ZM40.573,41H38.315V32.3l-2.7.836V31.3l4.711-1.687h.242Zm8.977-4.547a2.851,2.851,0,0,1-2.062.867,3.049,3.049,0,0,1-2.414-1.035,4.091,4.091,0,0,1-.906-2.793,4.357,4.357,0,0,1,.488-2.051,3.582,3.582,0,0,1,1.363-1.453,3.782,3.782,0,0,1,1.969-.52,3.617,3.617,0,0,1,2,.563,3.7,3.7,0,0,1,1.359,1.617,5.806,5.806,0,0,1,.492,2.414V34.9a6.579,6.579,0,0,1-1.414,4.469A5.346,5.346,0,0,1,46.416,41.1l-.555.008V39.227l.5-.008Q49.307,39.086,49.549,36.453Zm-1.508-.859a1.579,1.579,0,0,0,.941-.281,1.879,1.879,0,0,0,.6-.68V33.7a3.1,3.1,0,0,0-.437-1.781,1.358,1.358,0,0,0-1.172-.633,1.318,1.318,0,0,0-1.117.621,2.641,2.641,0,0,0-.437,1.559A2.57,2.57,0,0,0,46.842,35,1.387,1.387,0,0,0,48.041,35.594Zm10.688.859a2.851,2.851,0,0,1-2.062.867,3.049,3.049,0,0,1-2.414-1.035,4.091,4.091,0,0,1-.906-2.793,4.357,4.357,0,0,1,.488-2.051A3.582,3.582,0,0,1,55.2,29.988a3.782,3.782,0,0,1,1.969-.52,3.617,3.617,0,0,1,2,.563,3.7,3.7,0,0,1,1.359,1.617,5.806,5.806,0,0,1,.492,2.414V34.9A6.579,6.579,0,0,1,59.6,39.367,5.346,5.346,0,0,1,55.6,41.1l-.555.008V39.227l.5-.008Q58.487,39.086,58.729,36.453Zm-1.508-.859a1.579,1.579,0,0,0,.941-.281,1.879,1.879,0,0,0,.6-.68V33.7a3.1,3.1,0,0,0-.437-1.781,1.358,1.358,0,0,0-1.172-.633,1.318,1.318,0,0,0-1.117.621,2.641,2.641,0,0,0-.437,1.559A2.57,2.57,0,0,0,56.022,35,1.387,1.387,0,0,0,57.221,35.594Zm13.141-4.708L65.963,41H63.58l4.406-9.555H62.33v-1.82h8.031Z" transform="translate(830.516 1855.093)" fill="#12263f"/>
        <path id="Trazado_565725" data-name="Trazado 565725" d="M23.727,12.4H21.055V17H19.548V5.625h3.766A4.457,4.457,0,0,1,26.27,6.5a3.148,3.148,0,0,1,1.035,2.547,3.062,3.062,0,0,1-.574,1.852,3.428,3.428,0,0,1-1.6,1.18l2.672,4.828V17H26.2Zm-2.672-1.227h2.3a2.6,2.6,0,0,0,1.777-.579,1.959,1.959,0,0,0,.66-1.55,2.062,2.062,0,0,0-.629-1.62,2.663,2.663,0,0,0-1.816-.571h-2.3Zm11.633,5.984a3.693,3.693,0,0,1-2.8-1.129,4.19,4.19,0,0,1-1.078-3.02v-.266a5.073,5.073,0,0,1,.48-2.246,3.748,3.748,0,0,1,1.344-1.547,3.378,3.378,0,0,1,1.871-.559,3.166,3.166,0,0,1,2.563,1.086,4.7,4.7,0,0,1,.914,3.109v.6H30.258a3,3,0,0,0,.73,2.02,2.3,2.3,0,0,0,1.777.77,2.517,2.517,0,0,0,1.3-.312,3.259,3.259,0,0,0,.93-.828l.883.688A3.55,3.55,0,0,1,32.688,17.156Zm-.18-7.578a1.928,1.928,0,0,0-1.469.637A3.1,3.1,0,0,0,30.305,12H34.54v-.109a2.753,2.753,0,0,0-.594-1.707A1.815,1.815,0,0,0,32.508,9.578Zm10.07,5.18a1.064,1.064,0,0,0-.441-.91,4.249,4.249,0,0,0-1.539-.559,7.277,7.277,0,0,1-1.742-.562,2.479,2.479,0,0,1-.953-.781,1.869,1.869,0,0,1-.309-1.078,2.193,2.193,0,0,1,.879-1.758,3.432,3.432,0,0,1,2.246-.719,3.532,3.532,0,0,1,2.332.742,2.357,2.357,0,0,1,.895,1.9H42.493a1.3,1.3,0,0,0-.5-1.023,1.888,1.888,0,0,0-1.27-.43,1.976,1.976,0,0,0-1.234.344,1.082,1.082,0,0,0-.445.9.877.877,0,0,0,.414.789,5.1,5.1,0,0,0,1.5.508A7.8,7.8,0,0,1,42.7,12.7a2.558,2.558,0,0,1,1,.809,1.988,1.988,0,0,1,.324,1.152,2.163,2.163,0,0,1-.906,1.816,3.8,3.8,0,0,1-2.352.684,4.257,4.257,0,0,1-1.8-.359,2.922,2.922,0,0,1-1.223-1,2.42,2.42,0,0,1-.441-1.395h1.445a1.5,1.5,0,0,0,.582,1.152,2.258,2.258,0,0,0,1.434.426,2.331,2.331,0,0,0,1.316-.332A1.02,1.02,0,0,0,42.579,14.758ZM45.524,12.7a4.993,4.993,0,0,1,.488-2.234A3.643,3.643,0,0,1,47.372,8.93a3.7,3.7,0,0,1,1.988-.539,3.565,3.565,0,0,1,2.793,1.2,4.6,4.6,0,0,1,1.066,3.18v.1a5.036,5.036,0,0,1-.473,2.215A3.589,3.589,0,0,1,51.4,16.609a3.743,3.743,0,0,1-2.02.547,3.556,3.556,0,0,1-2.785-1.2A4.575,4.575,0,0,1,45.524,12.8Zm1.453.172a3.616,3.616,0,0,0,.652,2.258,2.211,2.211,0,0,0,3.5-.012,3.955,3.955,0,0,0,.648-2.418,3.61,3.61,0,0,0-.66-2.254,2.1,2.1,0,0,0-1.754-.863,2.075,2.075,0,0,0-1.727.852A3.925,3.925,0,0,0,46.977,12.867ZM56.6,17H55.157V5H56.6Zm7.531-.836a3.07,3.07,0,0,1-2.477.992,2.628,2.628,0,0,1-2.059-.785,3.4,3.4,0,0,1-.715-2.324v-5.5h1.445v5.461q0,1.922,1.563,1.922a2.163,2.163,0,0,0,2.2-1.234V8.547H65.54V17H64.165Zm6.992-.187a2.082,2.082,0,0,0,1.352-.469,1.649,1.649,0,0,0,.641-1.172h1.367a2.621,2.621,0,0,1-.5,1.383,3.293,3.293,0,0,1-1.23,1.047,3.55,3.55,0,0,1-1.629.391A3.482,3.482,0,0,1,68.38,16a4.59,4.59,0,0,1-1.02-3.152v-.242a5.089,5.089,0,0,1,.453-2.2,3.451,3.451,0,0,1,1.3-1.492,3.7,3.7,0,0,1,2-.531,3.39,3.39,0,0,1,2.363.852,3.043,3.043,0,0,1,1,2.211H73.118a1.992,1.992,0,0,0-.621-1.348,1.932,1.932,0,0,0-1.379-.527,2.023,2.023,0,0,0-1.707.793,3.724,3.724,0,0,0-.605,2.293v.273a3.65,3.65,0,0,0,.6,2.25A2.033,2.033,0,0,0,71.126,15.977ZM77.68,17H76.235V8.547H77.68ZM76.118,6.3a.863.863,0,0,1,.215-.594.807.807,0,0,1,.637-.242.819.819,0,0,1,.641.242.854.854,0,0,1,.219.594.826.826,0,0,1-.219.586.834.834,0,0,1-.641.234.821.821,0,0,1-.637-.234A.834.834,0,0,1,76.118,6.3ZM79.61,12.7a4.993,4.993,0,0,1,.488-2.234A3.643,3.643,0,0,1,81.458,8.93a3.7,3.7,0,0,1,1.988-.539,3.565,3.565,0,0,1,2.793,1.2,4.6,4.6,0,0,1,1.066,3.18v.1a5.036,5.036,0,0,1-.473,2.215,3.589,3.589,0,0,1-1.352,1.527,3.743,3.743,0,0,1-2.02.547,3.556,3.556,0,0,1-2.785-1.2A4.575,4.575,0,0,1,79.61,12.8Zm1.453.172a3.616,3.616,0,0,0,.652,2.258,2.211,2.211,0,0,0,3.5-.012A3.955,3.955,0,0,0,85.86,12.7a3.61,3.61,0,0,0-.66-2.254,2.1,2.1,0,0,0-1.754-.863,2.075,2.075,0,0,0-1.727.852A3.925,3.925,0,0,0,81.063,12.867ZM84.1,5h1.75L83.758,7.3l-1.164,0Zm6.383,3.547.047,1.063a3.08,3.08,0,0,1,2.531-1.219q2.68,0,2.7,3.023V17H94.321V11.406a1.946,1.946,0,0,0-.418-1.352,1.675,1.675,0,0,0-1.277-.437,2.086,2.086,0,0,0-1.234.375,2.546,2.546,0,0,0-.828.984V17H89.118V8.547ZM11.942,34.609h1.086a2.387,2.387,0,0,0,1.609-.539,1.8,1.8,0,0,0,.586-1.414,1.764,1.764,0,0,0-1.992-2,2.072,2.072,0,0,0-1.5.535,1.873,1.873,0,0,0-.559,1.418H9.731a2.9,2.9,0,0,1,.988-2.246,3.6,3.6,0,0,1,2.512-.895,3.558,3.558,0,0,1,2.523.852,3.076,3.076,0,0,1,.914,2.367,2.5,2.5,0,0,1-.48,1.438,2.9,2.9,0,0,1-1.309,1.039,2.8,2.8,0,0,1,1.449.984,2.734,2.734,0,0,1,.512,1.68,3.1,3.1,0,0,1-1,2.43,3.745,3.745,0,0,1-2.6.9,3.844,3.844,0,0,1-2.605-.867A2.877,2.877,0,0,1,9.63,38h1.453a1.859,1.859,0,0,0,.586,1.438,2.229,2.229,0,0,0,1.57.539,2.187,2.187,0,0,0,1.6-.547,2.108,2.108,0,0,0,.555-1.57,1.912,1.912,0,0,0-.609-1.523,2.655,2.655,0,0,0-1.758-.547H11.942Zm13.781-2.016a2.641,2.641,0,0,1-.449,1.516,3.057,3.057,0,0,1-1.215,1.039,3.26,3.26,0,0,1,1.41,1.117,2.811,2.811,0,0,1,.52,1.664,2.972,2.972,0,0,1-1,2.352,3.827,3.827,0,0,1-2.621.875,3.81,3.81,0,0,1-2.629-.879,2.986,2.986,0,0,1-.988-2.348,2.9,2.9,0,0,1,.5-1.664,3.136,3.136,0,0,1,1.395-1.125,2.981,2.981,0,0,1-1.2-1.039,2.679,2.679,0,0,1-.437-1.508,2.94,2.94,0,0,1,.922-2.281,3.458,3.458,0,0,1,2.43-.844,3.461,3.461,0,0,1,2.426.844A2.934,2.934,0,0,1,25.723,32.594Zm-1.18,5.3a2.1,2.1,0,0,0-.605-1.555,2.147,2.147,0,0,0-1.582-.6A2.034,2.034,0,0,0,20.2,37.9a2.019,2.019,0,0,0,.574,1.523,2.2,2.2,0,0,0,1.6.555,2.2,2.2,0,0,0,1.594-.559A2.014,2.014,0,0,0,24.544,37.9Zm-2.172-7.242a1.865,1.865,0,0,0-1.379.527,2.182,2.182,0,0,0-.008,2.836,2.064,2.064,0,0,0,2.773,0,2.138,2.138,0,0,0-.02-2.816A1.839,1.839,0,0,0,22.372,30.656Zm11.109-1.039v1.227h-.266a3.805,3.805,0,0,0-2.687,1,4.161,4.161,0,0,0-1.156,2.727,3.085,3.085,0,0,1,2.453-1.031A2.95,2.95,0,0,1,34.2,34.586a4.038,4.038,0,0,1,.887,2.7,4.025,4.025,0,0,1-.957,2.813,3.3,3.3,0,0,1-2.566,1.055A3.247,3.247,0,0,1,28.911,39.9a4.97,4.97,0,0,1-1.016-3.23v-.555a7.488,7.488,0,0,1,1.34-4.8,4.921,4.921,0,0,1,3.988-1.7Zm-1.9,5.125A2.429,2.429,0,0,0,29.348,36.3v.531a3.731,3.731,0,0,0,.633,2.266,1.9,1.9,0,0,0,1.578.859,1.838,1.838,0,0,0,1.535-.719,3.452,3.452,0,0,0-.008-3.777A1.816,1.816,0,0,0,31.583,34.742Zm5.875.555.578-5.672h5.828v1.336h-4.6l-.344,3.1a3.671,3.671,0,0,1,1.9-.492A3.138,3.138,0,0,1,43.286,34.6a4.026,4.026,0,0,1,.914,2.777,3.886,3.886,0,0,1-.949,2.77A3.46,3.46,0,0,1,40.6,41.156a3.6,3.6,0,0,1-2.461-.836,3.337,3.337,0,0,1-1.086-2.312h1.367a2.3,2.3,0,0,0,.7,1.473,2.162,2.162,0,0,0,1.484.5,1.95,1.95,0,0,0,1.582-.687,2.874,2.874,0,0,0,.574-1.9,2.638,2.638,0,0,0-.621-1.832,2.113,2.113,0,0,0-1.652-.691A2.383,2.383,0,0,0,39,35.281l-.383.313ZM49.536,36.7a4.952,4.952,0,0,1,.922-3.129,3.137,3.137,0,0,1,4.766-.168V29h1.445V41H55.341l-.07-.906a2.943,2.943,0,0,1-2.414,1.063,2.887,2.887,0,0,1-2.395-1.2,5.008,5.008,0,0,1-.926-3.141Zm1.445.164a3.749,3.749,0,0,0,.594,2.25,1.919,1.919,0,0,0,1.641.813A2.108,2.108,0,0,0,55.223,38.7V34.813a2.125,2.125,0,0,0-1.992-1.2,1.929,1.929,0,0,0-1.656.82A4.128,4.128,0,0,0,50.981,36.867Zm11.438,4.289a3.693,3.693,0,0,1-2.8-1.129,4.19,4.19,0,0,1-1.078-3.02v-.266a5.073,5.073,0,0,1,.48-2.246,3.748,3.748,0,0,1,1.344-1.547,3.378,3.378,0,0,1,1.871-.559A3.166,3.166,0,0,1,64.8,33.477a4.7,4.7,0,0,1,.914,3.109v.6H59.989a3,3,0,0,0,.73,2.02,2.3,2.3,0,0,0,1.777.77,2.517,2.517,0,0,0,1.3-.312,3.259,3.259,0,0,0,.93-.828l.883.688A3.55,3.55,0,0,1,62.419,41.156Zm-.18-7.578a1.928,1.928,0,0,0-1.469.637A3.1,3.1,0,0,0,60.036,36H64.27v-.109a2.753,2.753,0,0,0-.594-1.707A1.815,1.815,0,0,0,62.239,33.578ZM78.653,41H71.2V39.961l3.938-4.375a9.354,9.354,0,0,0,1.207-1.613,2.693,2.693,0,0,0,.332-1.285,2.041,2.041,0,0,0-.539-1.461,1.885,1.885,0,0,0-1.437-.57,2.232,2.232,0,0,0-1.676.613,2.343,2.343,0,0,0-.6,1.707H70.981a3.355,3.355,0,0,1,1.012-2.539,3.751,3.751,0,0,1,2.707-.969,3.6,3.6,0,0,1,2.508.832,2.838,2.838,0,0,1,.922,2.215q0,1.68-2.141,4l-3.047,3.3h5.711Zm8.664-4.852a6.61,6.61,0,0,1-.867,3.773,3.6,3.6,0,0,1-5.406.027,6.274,6.274,0,0,1-.906-3.605v-1.93A6.463,6.463,0,0,1,81,30.688a3.668,3.668,0,0,1,5.422-.043,6.237,6.237,0,0,1,.891,3.629Zm-1.445-1.977a5.3,5.3,0,0,0-.516-2.676,1.775,1.775,0,0,0-1.633-.84,1.751,1.751,0,0,0-1.617.836,5.171,5.171,0,0,0-.523,2.57v2.313a5.381,5.381,0,0,0,.535,2.723,1.771,1.771,0,0,0,1.621.879,1.747,1.747,0,0,0,1.59-.828,5.186,5.186,0,0,0,.543-2.609ZM96.3,36.148a6.61,6.61,0,0,1-.867,3.773,3.6,3.6,0,0,1-5.406.027,6.274,6.274,0,0,1-.906-3.605v-1.93a6.463,6.463,0,0,1,.867-3.727,3.668,3.668,0,0,1,5.422-.043,6.237,6.237,0,0,1,.891,3.629Zm-1.445-1.977a5.3,5.3,0,0,0-.516-2.676,1.775,1.775,0,0,0-1.633-.84,1.751,1.751,0,0,0-1.617.836,5.171,5.171,0,0,0-.523,2.57v2.313A5.381,5.381,0,0,0,91.1,39.1a1.771,1.771,0,0,0,1.621.879,1.747,1.747,0,0,0,1.59-.828,5.186,5.186,0,0,0,.543-2.609Zm5.4.438h1.086a2.387,2.387,0,0,0,1.609-.539,1.8,1.8,0,0,0,.586-1.414,1.764,1.764,0,0,0-1.992-2,2.072,2.072,0,0,0-1.5.535,1.873,1.873,0,0,0-.559,1.418H98.044a2.9,2.9,0,0,1,.988-2.246,3.6,3.6,0,0,1,2.512-.895,3.558,3.558,0,0,1,2.523.852,3.076,3.076,0,0,1,.914,2.367,2.5,2.5,0,0,1-.48,1.438,2.9,2.9,0,0,1-1.309,1.039,2.8,2.8,0,0,1,1.449.984,2.734,2.734,0,0,1,.512,1.68,3.1,3.1,0,0,1-1,2.43,3.745,3.745,0,0,1-2.6.9,3.844,3.844,0,0,1-2.605-.867,2.877,2.877,0,0,1-1-2.289H99.4a1.859,1.859,0,0,0,.586,1.438,2.229,2.229,0,0,0,1.57.539,2.187,2.187,0,0,0,1.6-.547,2.108,2.108,0,0,0,.555-1.57,1.912,1.912,0,0,0-.609-1.523,2.655,2.655,0,0,0-1.758-.547h-1.086Z" transform="translate(893.291 1967.564)" fill="#12263f"/>
        <path id="Trazado_565724" data-name="Trazado 565724" d="M20.184,12.4H17.512V17H16V5.625H19.77a4.457,4.457,0,0,1,2.957.875,3.148,3.148,0,0,1,1.035,2.547,3.062,3.062,0,0,1-.574,1.852,3.428,3.428,0,0,1-1.6,1.18l2.672,4.828V17H22.652Zm-2.672-1.227h2.3a2.6,2.6,0,0,0,1.777-.579,1.959,1.959,0,0,0,.66-1.55,2.062,2.062,0,0,0-.629-1.62,2.663,2.663,0,0,0-1.816-.571h-2.3Zm11.633,5.984a3.693,3.693,0,0,1-2.8-1.129,4.19,4.19,0,0,1-1.078-3.02v-.266a5.073,5.073,0,0,1,.48-2.246,3.748,3.748,0,0,1,1.344-1.547,3.378,3.378,0,0,1,1.871-.559,3.166,3.166,0,0,1,2.563,1.086,4.7,4.7,0,0,1,.914,3.109v.6H26.715a3,3,0,0,0,.73,2.02,2.3,2.3,0,0,0,1.777.77,2.517,2.517,0,0,0,1.3-.312,3.259,3.259,0,0,0,.93-.828l.883.688A3.55,3.55,0,0,1,29.145,17.156Zm-.18-7.578a1.928,1.928,0,0,0-1.469.637A3.1,3.1,0,0,0,26.762,12H31v-.109a2.753,2.753,0,0,0-.594-1.707A1.815,1.815,0,0,0,28.965,9.578Zm10.07,5.18a1.064,1.064,0,0,0-.441-.91,4.249,4.249,0,0,0-1.539-.559,7.277,7.277,0,0,1-1.742-.562,2.479,2.479,0,0,1-.953-.781,1.869,1.869,0,0,1-.309-1.078,2.193,2.193,0,0,1,.879-1.758,3.432,3.432,0,0,1,2.246-.719,3.532,3.532,0,0,1,2.332.742,2.357,2.357,0,0,1,.895,1.9H38.949a1.3,1.3,0,0,0-.5-1.023,1.888,1.888,0,0,0-1.27-.43,1.976,1.976,0,0,0-1.234.344,1.082,1.082,0,0,0-.445.9.877.877,0,0,0,.414.789,5.1,5.1,0,0,0,1.5.508,7.8,7.8,0,0,1,1.754.578,2.558,2.558,0,0,1,1,.809,1.988,1.988,0,0,1,.324,1.152,2.163,2.163,0,0,1-.906,1.816,3.8,3.8,0,0,1-2.352.684,4.257,4.257,0,0,1-1.8-.359,2.922,2.922,0,0,1-1.223-1,2.42,2.42,0,0,1-.441-1.395h1.445a1.5,1.5,0,0,0,.582,1.152,2.258,2.258,0,0,0,1.434.426,2.331,2.331,0,0,0,1.316-.332A1.02,1.02,0,0,0,39.035,14.758ZM41.98,12.7a4.993,4.993,0,0,1,.488-2.234A3.643,3.643,0,0,1,43.828,8.93a3.7,3.7,0,0,1,1.988-.539,3.565,3.565,0,0,1,2.793,1.2,4.6,4.6,0,0,1,1.066,3.18v.1a5.036,5.036,0,0,1-.473,2.215,3.589,3.589,0,0,1-1.352,1.527,3.743,3.743,0,0,1-2.02.547,3.556,3.556,0,0,1-2.785-1.2A4.575,4.575,0,0,1,41.98,12.8Zm1.453.172a3.616,3.616,0,0,0,.652,2.258,2.211,2.211,0,0,0,3.5-.012A3.955,3.955,0,0,0,48.23,12.7a3.61,3.61,0,0,0-.66-2.254,2.1,2.1,0,0,0-1.754-.863,2.075,2.075,0,0,0-1.727.852A3.925,3.925,0,0,0,43.434,12.867ZM53.059,17H51.613V5h1.445Zm7.531-.836a3.07,3.07,0,0,1-2.477.992,2.628,2.628,0,0,1-2.059-.785,3.4,3.4,0,0,1-.715-2.324v-5.5h1.445v5.461q0,1.922,1.563,1.922a2.163,2.163,0,0,0,2.2-1.234V8.547H62V17H60.621Zm6.992-.187a2.082,2.082,0,0,0,1.352-.469,1.649,1.649,0,0,0,.641-1.172h1.367a2.621,2.621,0,0,1-.5,1.383,3.293,3.293,0,0,1-1.23,1.047,3.55,3.55,0,0,1-1.629.391A3.482,3.482,0,0,1,64.836,16a4.59,4.59,0,0,1-1.02-3.152v-.242a5.089,5.089,0,0,1,.453-2.2,3.451,3.451,0,0,1,1.3-1.492,3.7,3.7,0,0,1,2-.531,3.39,3.39,0,0,1,2.363.852,3.043,3.043,0,0,1,1,2.211H69.574a1.992,1.992,0,0,0-.621-1.348,1.932,1.932,0,0,0-1.379-.527,2.023,2.023,0,0,0-1.707.793,3.724,3.724,0,0,0-.605,2.293v.273a3.65,3.65,0,0,0,.6,2.25A2.033,2.033,0,0,0,67.582,15.977ZM74.137,17H72.691V8.547h1.445ZM72.574,6.3a.863.863,0,0,1,.215-.594.807.807,0,0,1,.637-.242.819.819,0,0,1,.641.242.854.854,0,0,1,.219.594.826.826,0,0,1-.219.586.834.834,0,0,1-.641.234.821.821,0,0,1-.637-.234A.834.834,0,0,1,72.574,6.3ZM76.066,12.7a4.993,4.993,0,0,1,.488-2.234A3.643,3.643,0,0,1,77.914,8.93,3.7,3.7,0,0,1,79.9,8.391a3.565,3.565,0,0,1,2.793,1.2,4.6,4.6,0,0,1,1.066,3.18v.1a5.036,5.036,0,0,1-.473,2.215,3.589,3.589,0,0,1-1.352,1.527,3.743,3.743,0,0,1-2.02.547,3.556,3.556,0,0,1-2.785-1.2A4.575,4.575,0,0,1,76.066,12.8Zm1.453.172a3.616,3.616,0,0,0,.652,2.258,2.211,2.211,0,0,0,3.5-.012,3.955,3.955,0,0,0,.648-2.418,3.61,3.61,0,0,0-.66-2.254A2.1,2.1,0,0,0,79.9,9.578a2.075,2.075,0,0,0-1.727.852A3.925,3.925,0,0,0,77.52,12.867ZM80.559,5h1.75L80.215,7.3l-1.164,0Zm6.383,3.547.047,1.063A3.08,3.08,0,0,1,89.52,8.391q2.68,0,2.7,3.023V17H90.777V11.406a1.946,1.946,0,0,0-.418-1.352,1.675,1.675,0,0,0-1.277-.437,2.086,2.086,0,0,0-1.234.375,2.546,2.546,0,0,0-.828.984V17H85.574V8.547ZM13.43,36.148a6.61,6.61,0,0,1-.867,3.773,3.084,3.084,0,0,1-2.711,1.234,3.107,3.107,0,0,1-2.7-1.207,6.274,6.274,0,0,1-.906-3.605v-1.93a6.463,6.463,0,0,1,.867-3.727,3.108,3.108,0,0,1,2.719-1.219,3.136,3.136,0,0,1,2.7,1.176,6.237,6.237,0,0,1,.891,3.629Zm-1.445-1.977a5.3,5.3,0,0,0-.516-2.676,1.775,1.775,0,0,0-1.633-.84,1.751,1.751,0,0,0-1.617.836,5.171,5.171,0,0,0-.523,2.57v2.313A5.381,5.381,0,0,0,8.23,39.1a1.771,1.771,0,0,0,1.621.879,1.747,1.747,0,0,0,1.59-.828,5.186,5.186,0,0,0,.543-2.609Zm5.4.438h1.086a2.387,2.387,0,0,0,1.609-.539,1.8,1.8,0,0,0,.586-1.414,1.764,1.764,0,0,0-1.992-2,2.072,2.072,0,0,0-1.5.535,1.873,1.873,0,0,0-.559,1.418H15.172a2.9,2.9,0,0,1,.988-2.246,3.6,3.6,0,0,1,2.512-.895,3.558,3.558,0,0,1,2.523.852,3.076,3.076,0,0,1,.914,2.367,2.5,2.5,0,0,1-.48,1.438,2.9,2.9,0,0,1-1.309,1.039,2.8,2.8,0,0,1,1.449.984,2.734,2.734,0,0,1,.512,1.68,3.1,3.1,0,0,1-1,2.43,3.745,3.745,0,0,1-2.6.9,3.844,3.844,0,0,1-2.605-.867,2.877,2.877,0,0,1-1-2.289h1.453a1.859,1.859,0,0,0,.586,1.438,2.229,2.229,0,0,0,1.57.539,2.187,2.187,0,0,0,1.6-.547,2.108,2.108,0,0,0,.555-1.57,1.912,1.912,0,0,0-.609-1.523,2.655,2.655,0,0,0-1.758-.547H17.383ZM31.719,41H24.266V39.961L28.2,35.586a9.354,9.354,0,0,0,1.207-1.613,2.693,2.693,0,0,0,.332-1.285,2.041,2.041,0,0,0-.539-1.461,1.885,1.885,0,0,0-1.437-.57,2.232,2.232,0,0,0-1.676.613,2.343,2.343,0,0,0-.6,1.707H24.047a3.355,3.355,0,0,1,1.012-2.539,3.751,3.751,0,0,1,2.707-.969,3.6,3.6,0,0,1,2.508.832,2.838,2.838,0,0,1,.922,2.215q0,1.68-2.141,4l-3.047,3.3h5.711ZM40.7,41H33.25V39.961l3.938-4.375a9.355,9.355,0,0,0,1.207-1.613,2.693,2.693,0,0,0,.332-1.285,2.041,2.041,0,0,0-.539-1.461,1.885,1.885,0,0,0-1.437-.57,2.232,2.232,0,0,0-1.676.613,2.343,2.343,0,0,0-.6,1.707H33.031a3.355,3.355,0,0,1,1.012-2.539,3.751,3.751,0,0,1,2.707-.969,3.6,3.6,0,0,1,2.508.832,2.838,2.838,0,0,1,.922,2.215q0,1.68-2.141,4l-3.047,3.3H40.7Zm5.289-4.3a4.952,4.952,0,0,1,.922-3.129,3.137,3.137,0,0,1,4.766-.168V29h1.445V41H51.8l-.07-.906a2.943,2.943,0,0,1-2.414,1.063,2.887,2.887,0,0,1-2.395-1.2,5.008,5.008,0,0,1-.926-3.141Zm1.445.164a3.749,3.749,0,0,0,.594,2.25,1.919,1.919,0,0,0,1.641.813A2.108,2.108,0,0,0,51.68,38.7V34.813a2.125,2.125,0,0,0-1.992-1.2,1.929,1.929,0,0,0-1.656.82A4.128,4.128,0,0,0,47.438,36.867Zm11.438,4.289a3.693,3.693,0,0,1-2.8-1.129A4.19,4.19,0,0,1,55,37.008v-.266a5.073,5.073,0,0,1,.48-2.246,3.748,3.748,0,0,1,1.344-1.547,3.378,3.378,0,0,1,1.871-.559,3.166,3.166,0,0,1,2.563,1.086,4.7,4.7,0,0,1,.914,3.109v.6H56.445a3,3,0,0,0,.73,2.02,2.3,2.3,0,0,0,1.777.77,2.517,2.517,0,0,0,1.3-.312,3.258,3.258,0,0,0,.93-.828l.883.688A3.55,3.55,0,0,1,58.875,41.156Zm-.18-7.578a1.928,1.928,0,0,0-1.469.637A3.1,3.1,0,0,0,56.492,36h4.234v-.109a2.753,2.753,0,0,0-.594-1.707A1.815,1.815,0,0,0,58.7,33.578ZM75.109,41H67.656V39.961l3.938-4.375A9.354,9.354,0,0,0,72.8,33.973a2.693,2.693,0,0,0,.332-1.285,2.041,2.041,0,0,0-.539-1.461,1.885,1.885,0,0,0-1.437-.57,2.232,2.232,0,0,0-1.676.613,2.343,2.343,0,0,0-.6,1.707H67.438a3.355,3.355,0,0,1,1.012-2.539,3.751,3.751,0,0,1,2.707-.969,3.6,3.6,0,0,1,2.508.832,2.838,2.838,0,0,1,.922,2.215q0,1.68-2.141,4L69.4,39.82h5.711Zm8.664-4.852a6.61,6.61,0,0,1-.867,3.773,3.6,3.6,0,0,1-5.406.027,6.274,6.274,0,0,1-.906-3.605v-1.93a6.463,6.463,0,0,1,.867-3.727,3.668,3.668,0,0,1,5.422-.043,6.237,6.237,0,0,1,.891,3.629Zm-1.445-1.977a5.3,5.3,0,0,0-.516-2.676,1.775,1.775,0,0,0-1.633-.84,1.751,1.751,0,0,0-1.617.836,5.171,5.171,0,0,0-.523,2.57v2.313a5.381,5.381,0,0,0,.535,2.723,1.771,1.771,0,0,0,1.621.879,1.747,1.747,0,0,0,1.59-.828,5.186,5.186,0,0,0,.543-2.609Zm10.43,1.977a6.61,6.61,0,0,1-.867,3.773,3.6,3.6,0,0,1-5.406.027,6.274,6.274,0,0,1-.906-3.605v-1.93a6.463,6.463,0,0,1,.867-3.727,3.668,3.668,0,0,1,5.422-.043,6.237,6.237,0,0,1,.891,3.629Zm-1.445-1.977A5.3,5.3,0,0,0,90.8,31.5a1.775,1.775,0,0,0-1.633-.84,1.751,1.751,0,0,0-1.617.836,5.171,5.171,0,0,0-.523,2.57v2.313a5.381,5.381,0,0,0,.535,2.723,1.771,1.771,0,0,0,1.621.879,1.747,1.747,0,0,0,1.59-.828,5.186,5.186,0,0,0,.543-2.609Zm9.4,3.008h1.578v1.18h-1.578V41H99.258V38.359h-5.18v-.852l5.094-7.883h1.539Zm-4.992,0h3.539V31.6l-.172.313Z" transform="translate(865 2083.523)" fill="#12263f"/>
        <path id="Trazado_565723" data-name="Trazado 565723" d="M19.8,12.4H17.132V17H15.624V5.625H19.39a4.457,4.457,0,0,1,2.957.875,3.148,3.148,0,0,1,1.035,2.547,3.062,3.062,0,0,1-.574,1.852,3.428,3.428,0,0,1-1.6,1.18l2.672,4.828V17H22.273Zm-2.672-1.227h2.3a2.6,2.6,0,0,0,1.777-.579,1.959,1.959,0,0,0,.66-1.55,2.062,2.062,0,0,0-.629-1.62,2.663,2.663,0,0,0-1.816-.571h-2.3Zm11.633,5.984a3.693,3.693,0,0,1-2.8-1.129,4.19,4.19,0,0,1-1.078-3.02v-.266a5.073,5.073,0,0,1,.48-2.246,3.748,3.748,0,0,1,1.344-1.547,3.378,3.378,0,0,1,1.871-.559,3.166,3.166,0,0,1,2.563,1.086,4.7,4.7,0,0,1,.914,3.109v.6H26.335a3,3,0,0,0,.73,2.02,2.3,2.3,0,0,0,1.777.77,2.517,2.517,0,0,0,1.3-.312,3.259,3.259,0,0,0,.93-.828l.883.688A3.55,3.55,0,0,1,28.765,17.156Zm-.18-7.578a1.928,1.928,0,0,0-1.469.637A3.1,3.1,0,0,0,26.382,12h4.234v-.109a2.753,2.753,0,0,0-.594-1.707A1.815,1.815,0,0,0,28.585,9.578Zm10.07,5.18a1.064,1.064,0,0,0-.441-.91,4.249,4.249,0,0,0-1.539-.559,7.277,7.277,0,0,1-1.742-.562,2.479,2.479,0,0,1-.953-.781,1.869,1.869,0,0,1-.309-1.078,2.193,2.193,0,0,1,.879-1.758A3.432,3.432,0,0,1,36.8,8.391a3.532,3.532,0,0,1,2.332.742,2.357,2.357,0,0,1,.895,1.9H38.569a1.3,1.3,0,0,0-.5-1.023,1.888,1.888,0,0,0-1.27-.43,1.976,1.976,0,0,0-1.234.344,1.082,1.082,0,0,0-.445.9.877.877,0,0,0,.414.789,5.1,5.1,0,0,0,1.5.508,7.8,7.8,0,0,1,1.754.578,2.558,2.558,0,0,1,1,.809,1.988,1.988,0,0,1,.324,1.152,2.163,2.163,0,0,1-.906,1.816,3.8,3.8,0,0,1-2.352.684,4.257,4.257,0,0,1-1.8-.359,2.922,2.922,0,0,1-1.223-1,2.42,2.42,0,0,1-.441-1.395h1.445a1.5,1.5,0,0,0,.582,1.152,2.258,2.258,0,0,0,1.434.426,2.331,2.331,0,0,0,1.316-.332A1.02,1.02,0,0,0,38.655,14.758ZM41.6,12.7a4.993,4.993,0,0,1,.488-2.234A3.643,3.643,0,0,1,43.448,8.93a3.7,3.7,0,0,1,1.988-.539,3.565,3.565,0,0,1,2.793,1.2,4.6,4.6,0,0,1,1.066,3.18v.1a5.036,5.036,0,0,1-.473,2.215,3.589,3.589,0,0,1-1.352,1.527,3.743,3.743,0,0,1-2.02.547,3.556,3.556,0,0,1-2.785-1.2A4.575,4.575,0,0,1,41.6,12.8Zm1.453.172a3.616,3.616,0,0,0,.652,2.258,2.211,2.211,0,0,0,3.5-.012,3.955,3.955,0,0,0,.648-2.418,3.61,3.61,0,0,0-.66-2.254,2.1,2.1,0,0,0-1.754-.863,2.075,2.075,0,0,0-1.727.852A3.925,3.925,0,0,0,43.054,12.867ZM52.679,17H51.233V5h1.445Zm7.531-.836a3.07,3.07,0,0,1-2.477.992,2.628,2.628,0,0,1-2.059-.785,3.4,3.4,0,0,1-.715-2.324v-5.5h1.445v5.461q0,1.922,1.563,1.922a2.163,2.163,0,0,0,2.2-1.234V8.547h1.445V17H60.241Zm6.992-.187a2.082,2.082,0,0,0,1.352-.469,1.649,1.649,0,0,0,.641-1.172h1.367a2.621,2.621,0,0,1-.5,1.383,3.293,3.293,0,0,1-1.23,1.047,3.55,3.55,0,0,1-1.629.391A3.482,3.482,0,0,1,64.456,16a4.59,4.59,0,0,1-1.02-3.152v-.242a5.089,5.089,0,0,1,.453-2.2,3.451,3.451,0,0,1,1.3-1.492,3.7,3.7,0,0,1,2-.531,3.39,3.39,0,0,1,2.363.852,3.043,3.043,0,0,1,1,2.211H69.194a1.992,1.992,0,0,0-.621-1.348,1.932,1.932,0,0,0-1.379-.527,2.023,2.023,0,0,0-1.707.793,3.724,3.724,0,0,0-.605,2.293v.273a3.65,3.65,0,0,0,.6,2.25A2.033,2.033,0,0,0,67.2,15.977ZM73.757,17H72.312V8.547h1.445ZM72.194,6.3a.863.863,0,0,1,.215-.594.807.807,0,0,1,.637-.242.819.819,0,0,1,.641.242.854.854,0,0,1,.219.594.826.826,0,0,1-.219.586.834.834,0,0,1-.641.234.821.821,0,0,1-.637-.234A.834.834,0,0,1,72.194,6.3ZM75.687,12.7a4.993,4.993,0,0,1,.488-2.234A3.643,3.643,0,0,1,77.534,8.93a3.7,3.7,0,0,1,1.988-.539,3.565,3.565,0,0,1,2.793,1.2,4.6,4.6,0,0,1,1.066,3.18v.1a5.036,5.036,0,0,1-.473,2.215,3.589,3.589,0,0,1-1.352,1.527,3.743,3.743,0,0,1-2.02.547,3.556,3.556,0,0,1-2.785-1.2A4.575,4.575,0,0,1,75.687,12.8Zm1.453.172a3.616,3.616,0,0,0,.652,2.258,2.211,2.211,0,0,0,3.5-.012,3.955,3.955,0,0,0,.648-2.418,3.61,3.61,0,0,0-.66-2.254,2.1,2.1,0,0,0-1.754-.863,2.075,2.075,0,0,0-1.727.852A3.925,3.925,0,0,0,77.14,12.867ZM80.179,5h1.75L79.835,7.3l-1.164,0Zm6.383,3.547.047,1.063A3.08,3.08,0,0,1,89.14,8.391q2.68,0,2.7,3.023V17H90.4V11.406a1.946,1.946,0,0,0-.418-1.352A1.675,1.675,0,0,0,88.7,9.617a2.086,2.086,0,0,0-1.234.375,2.546,2.546,0,0,0-.828.984V17H85.194V8.547ZM10.667,41H9.214V31.367L6.3,32.438V31.125l4.141-1.555h.227ZM17,34.609h1.086A2.387,2.387,0,0,0,19.7,34.07a1.8,1.8,0,0,0,.586-1.414,1.764,1.764,0,0,0-1.992-2,2.072,2.072,0,0,0-1.5.535,1.873,1.873,0,0,0-.559,1.418H14.792a2.9,2.9,0,0,1,.988-2.246,3.6,3.6,0,0,1,2.512-.895,3.558,3.558,0,0,1,2.523.852,3.076,3.076,0,0,1,.914,2.367,2.5,2.5,0,0,1-.48,1.438,2.9,2.9,0,0,1-1.309,1.039,2.8,2.8,0,0,1,1.449.984,2.734,2.734,0,0,1,.512,1.68,3.1,3.1,0,0,1-1,2.43,3.745,3.745,0,0,1-2.6.9,3.844,3.844,0,0,1-2.605-.867,2.877,2.877,0,0,1-1-2.289h1.453a1.859,1.859,0,0,0,.586,1.438,2.229,2.229,0,0,0,1.57.539,2.187,2.187,0,0,0,1.6-.547,2.108,2.108,0,0,0,.555-1.57,1.912,1.912,0,0,0-.609-1.523,2.655,2.655,0,0,0-1.758-.547H17ZM28.636,41H27.183V31.367l-2.914,1.07V31.125l4.141-1.555h.227Zm6.336-6.391h1.086a2.387,2.387,0,0,0,1.609-.539,1.8,1.8,0,0,0,.586-1.414,1.764,1.764,0,0,0-1.992-2,2.072,2.072,0,0,0-1.5.535,1.873,1.873,0,0,0-.559,1.418H32.761a2.9,2.9,0,0,1,.988-2.246,3.6,3.6,0,0,1,2.512-.895,3.558,3.558,0,0,1,2.523.852,3.076,3.076,0,0,1,.914,2.367,2.5,2.5,0,0,1-.48,1.438,2.9,2.9,0,0,1-1.309,1.039,2.8,2.8,0,0,1,1.449.984,2.734,2.734,0,0,1,.512,1.68,3.1,3.1,0,0,1-1,2.43,3.745,3.745,0,0,1-2.6.9,3.844,3.844,0,0,1-2.605-.867,2.877,2.877,0,0,1-1-2.289h1.453a1.859,1.859,0,0,0,.586,1.438,2.229,2.229,0,0,0,1.57.539,2.187,2.187,0,0,0,1.6-.547,2.108,2.108,0,0,0,.555-1.57,1.912,1.912,0,0,0-.609-1.523,2.655,2.655,0,0,0-1.758-.547H34.972ZM45.612,36.7a4.952,4.952,0,0,1,.922-3.129,3.137,3.137,0,0,1,4.766-.168V29h1.445V41H51.417l-.07-.906a2.943,2.943,0,0,1-2.414,1.063,2.887,2.887,0,0,1-2.395-1.2,5.008,5.008,0,0,1-.926-3.141Zm1.445.164a3.749,3.749,0,0,0,.594,2.25,1.919,1.919,0,0,0,1.641.813A2.108,2.108,0,0,0,51.3,38.7V34.813a2.125,2.125,0,0,0-1.992-1.2,1.929,1.929,0,0,0-1.656.82A4.128,4.128,0,0,0,47.058,36.867ZM58.5,41.156a3.693,3.693,0,0,1-2.8-1.129,4.19,4.19,0,0,1-1.078-3.02v-.266A5.073,5.073,0,0,1,55.1,34.5a3.748,3.748,0,0,1,1.344-1.547,3.378,3.378,0,0,1,1.871-.559,3.166,3.166,0,0,1,2.563,1.086,4.7,4.7,0,0,1,.914,3.109v.6H56.066a3,3,0,0,0,.73,2.02,2.3,2.3,0,0,0,1.777.77,2.517,2.517,0,0,0,1.3-.312,3.258,3.258,0,0,0,.93-.828l.883.688A3.55,3.55,0,0,1,58.5,41.156Zm-.18-7.578a1.928,1.928,0,0,0-1.469.637A3.1,3.1,0,0,0,56.112,36h4.234v-.109a2.753,2.753,0,0,0-.594-1.707A1.815,1.815,0,0,0,58.316,33.578ZM74.73,41H67.276V39.961l3.938-4.375a9.354,9.354,0,0,0,1.207-1.613,2.693,2.693,0,0,0,.332-1.285,2.041,2.041,0,0,0-.539-1.461,1.885,1.885,0,0,0-1.437-.57,2.232,2.232,0,0,0-1.676.613,2.343,2.343,0,0,0-.6,1.707H67.058a3.355,3.355,0,0,1,1.012-2.539,3.751,3.751,0,0,1,2.707-.969,3.6,3.6,0,0,1,2.508.832,2.838,2.838,0,0,1,.922,2.215q0,1.68-2.141,4l-3.047,3.3H74.73Zm8.664-4.852a6.61,6.61,0,0,1-.867,3.773,3.6,3.6,0,0,1-5.406.027,6.274,6.274,0,0,1-.906-3.605v-1.93a6.463,6.463,0,0,1,.867-3.727,3.668,3.668,0,0,1,5.422-.043,6.237,6.237,0,0,1,.891,3.629Zm-1.445-1.977a5.3,5.3,0,0,0-.516-2.676,1.775,1.775,0,0,0-1.633-.84,1.751,1.751,0,0,0-1.617.836,5.171,5.171,0,0,0-.523,2.57v2.313a5.381,5.381,0,0,0,.535,2.723,1.771,1.771,0,0,0,1.621.879,1.747,1.747,0,0,0,1.59-.828,5.186,5.186,0,0,0,.543-2.609ZM90,41H88.542V31.367l-2.914,1.07V31.125l4.141-1.555H90Zm11.367-4.852a6.61,6.61,0,0,1-.867,3.773,3.6,3.6,0,0,1-5.406.027,6.274,6.274,0,0,1-.906-3.605v-1.93a6.463,6.463,0,0,1,.867-3.727,3.668,3.668,0,0,1,5.422-.043,6.237,6.237,0,0,1,.891,3.629Zm-1.445-1.977A5.3,5.3,0,0,0,99.4,31.5a1.775,1.775,0,0,0-1.633-.84,1.751,1.751,0,0,0-1.617.836,5.171,5.171,0,0,0-.523,2.57v2.313a5.381,5.381,0,0,0,.535,2.723,1.771,1.771,0,0,0,1.621.879,1.747,1.747,0,0,0,1.59-.828,5.186,5.186,0,0,0,.543-2.609Z" transform="translate(746.815 2130.443)" fill="#12263f"/>
        <path id="Trazado_565722" data-name="Trazado 565722" d="M15.009,12.4H12.337V17H10.829V5.625h3.766a4.457,4.457,0,0,1,2.957.875,3.148,3.148,0,0,1,1.035,2.547,3.062,3.062,0,0,1-.574,1.852,3.428,3.428,0,0,1-1.6,1.18l2.672,4.828V17H17.477Zm-2.672-1.227h2.3a2.6,2.6,0,0,0,1.777-.579,1.959,1.959,0,0,0,.66-1.55,2.062,2.062,0,0,0-.629-1.62,2.663,2.663,0,0,0-1.816-.571h-2.3Zm11.633,5.984a3.693,3.693,0,0,1-2.8-1.129,4.19,4.19,0,0,1-1.078-3.02v-.266a5.073,5.073,0,0,1,.48-2.246,3.748,3.748,0,0,1,1.344-1.547,3.378,3.378,0,0,1,1.871-.559,3.166,3.166,0,0,1,2.563,1.086,4.7,4.7,0,0,1,.914,3.109v.6H21.54a3,3,0,0,0,.73,2.02,2.3,2.3,0,0,0,1.777.77,2.517,2.517,0,0,0,1.3-.312,3.259,3.259,0,0,0,.93-.828l.883.688A3.55,3.55,0,0,1,23.969,17.156Zm-.18-7.578a1.928,1.928,0,0,0-1.469.637A3.1,3.1,0,0,0,21.587,12h4.234v-.109a2.753,2.753,0,0,0-.594-1.707A1.815,1.815,0,0,0,23.79,9.578Zm10.07,5.18a1.064,1.064,0,0,0-.441-.91,4.249,4.249,0,0,0-1.539-.559,7.277,7.277,0,0,1-1.742-.562,2.479,2.479,0,0,1-.953-.781,1.869,1.869,0,0,1-.309-1.078,2.193,2.193,0,0,1,.879-1.758A3.432,3.432,0,0,1,32,8.391a3.532,3.532,0,0,1,2.332.742,2.357,2.357,0,0,1,.895,1.9H33.774a1.3,1.3,0,0,0-.5-1.023A1.888,1.888,0,0,0,32,9.578a1.976,1.976,0,0,0-1.234.344,1.082,1.082,0,0,0-.445.9.877.877,0,0,0,.414.789,5.1,5.1,0,0,0,1.5.508,7.8,7.8,0,0,1,1.754.578,2.558,2.558,0,0,1,1,.809,1.988,1.988,0,0,1,.324,1.152,2.163,2.163,0,0,1-.906,1.816,3.8,3.8,0,0,1-2.352.684,4.257,4.257,0,0,1-1.8-.359,2.922,2.922,0,0,1-1.223-1,2.42,2.42,0,0,1-.441-1.395h1.445a1.5,1.5,0,0,0,.582,1.152,2.258,2.258,0,0,0,1.434.426,2.331,2.331,0,0,0,1.316-.332A1.02,1.02,0,0,0,33.86,14.758ZM36.805,12.7a4.993,4.993,0,0,1,.488-2.234A3.643,3.643,0,0,1,38.653,8.93a3.7,3.7,0,0,1,1.988-.539,3.565,3.565,0,0,1,2.793,1.2,4.6,4.6,0,0,1,1.066,3.18v.1a5.036,5.036,0,0,1-.473,2.215,3.589,3.589,0,0,1-1.352,1.527,3.743,3.743,0,0,1-2.02.547,3.556,3.556,0,0,1-2.785-1.2A4.575,4.575,0,0,1,36.805,12.8Zm1.453.172a3.616,3.616,0,0,0,.652,2.258,2.211,2.211,0,0,0,3.5-.012,3.955,3.955,0,0,0,.648-2.418,3.61,3.61,0,0,0-.66-2.254,2.1,2.1,0,0,0-1.754-.863,2.075,2.075,0,0,0-1.727.852A3.925,3.925,0,0,0,38.259,12.867ZM47.884,17H46.438V5h1.445Zm7.531-.836a3.07,3.07,0,0,1-2.477.992,2.628,2.628,0,0,1-2.059-.785,3.4,3.4,0,0,1-.715-2.324v-5.5H51.61v5.461q0,1.922,1.563,1.922a2.163,2.163,0,0,0,2.2-1.234V8.547h1.445V17H55.446Zm6.992-.187a2.082,2.082,0,0,0,1.352-.469,1.649,1.649,0,0,0,.641-1.172h1.367a2.621,2.621,0,0,1-.5,1.383,3.293,3.293,0,0,1-1.23,1.047,3.55,3.55,0,0,1-1.629.391A3.482,3.482,0,0,1,59.661,16a4.59,4.59,0,0,1-1.02-3.152v-.242a5.089,5.089,0,0,1,.453-2.2,3.451,3.451,0,0,1,1.3-1.492,3.7,3.7,0,0,1,2-.531,3.39,3.39,0,0,1,2.363.852,3.043,3.043,0,0,1,1,2.211H64.4a1.992,1.992,0,0,0-.621-1.348A1.932,1.932,0,0,0,62.4,9.578a2.023,2.023,0,0,0-1.707.793,3.724,3.724,0,0,0-.605,2.293v.273a3.65,3.65,0,0,0,.6,2.25A2.033,2.033,0,0,0,62.407,15.977ZM68.962,17H67.516V8.547h1.445ZM67.4,6.3a.863.863,0,0,1,.215-.594.807.807,0,0,1,.637-.242.819.819,0,0,1,.641.242.854.854,0,0,1,.219.594.826.826,0,0,1-.219.586.834.834,0,0,1-.641.234.821.821,0,0,1-.637-.234A.834.834,0,0,1,67.4,6.3ZM70.891,12.7a4.993,4.993,0,0,1,.488-2.234A3.643,3.643,0,0,1,72.739,8.93a3.7,3.7,0,0,1,1.988-.539,3.565,3.565,0,0,1,2.793,1.2,4.6,4.6,0,0,1,1.066,3.18v.1a5.036,5.036,0,0,1-.473,2.215,3.589,3.589,0,0,1-1.352,1.527,3.743,3.743,0,0,1-2.02.547,3.556,3.556,0,0,1-2.785-1.2A4.575,4.575,0,0,1,70.891,12.8Zm1.453.172A3.616,3.616,0,0,0,73,15.125a2.211,2.211,0,0,0,3.5-.012,3.955,3.955,0,0,0,.648-2.418,3.61,3.61,0,0,0-.66-2.254,2.1,2.1,0,0,0-1.754-.863A2.075,2.075,0,0,0,73,10.43,3.925,3.925,0,0,0,72.344,12.867ZM75.384,5h1.75L75.04,7.3l-1.164,0Zm6.383,3.547.047,1.063a3.08,3.08,0,0,1,2.531-1.219q2.68,0,2.7,3.023V17H85.6V11.406a1.946,1.946,0,0,0-.418-1.352,1.675,1.675,0,0,0-1.277-.437,2.086,2.086,0,0,0-1.234.375,2.546,2.546,0,0,0-.828.984V17H80.4V8.547ZM8.423,41H6.969V31.367l-2.914,1.07V31.125L8.2,29.57h.227Zm8.984,0H15.954V31.367l-2.914,1.07V31.125L17.18,29.57h.227Zm9.773-5a3.536,3.536,0,0,1-1.082.867,2.936,2.936,0,0,1-1.379.328A3.031,3.031,0,0,1,23,36.711a3.149,3.149,0,0,1-1.129-1.363,4.648,4.648,0,0,1-.4-1.941,4.735,4.735,0,0,1,.434-2.055,3.185,3.185,0,0,1,1.23-1.4A3.509,3.509,0,0,1,25,29.469a3.177,3.177,0,0,1,2.66,1.262,5.5,5.5,0,0,1,.973,3.441v.422q0,3.32-1.312,4.848a5.043,5.043,0,0,1-3.961,1.566h-.281V39.781h.3a3.979,3.979,0,0,0,2.75-.932A4,4,0,0,0,27.18,36Zm-2.227,0a2.232,2.232,0,0,0,1.34-.445,2.625,2.625,0,0,0,.895-1.1v-.578a3.977,3.977,0,0,0-.617-2.312,1.887,1.887,0,0,0-3.094-.16,3.013,3.013,0,0,0-.578,1.926,3.136,3.136,0,0,0,.559,1.918A1.769,1.769,0,0,0,24.954,36Zm9.43.7a4.952,4.952,0,0,1,.922-3.129,3.137,3.137,0,0,1,4.766-.168V29h1.445V41H40.188l-.07-.906A2.943,2.943,0,0,1,37.7,41.156a2.887,2.887,0,0,1-2.395-1.2,5.008,5.008,0,0,1-.926-3.141Zm1.445.164a3.749,3.749,0,0,0,.594,2.25,1.919,1.919,0,0,0,1.641.813A2.108,2.108,0,0,0,40.071,38.7V34.813a2.125,2.125,0,0,0-1.992-1.2,1.929,1.929,0,0,0-1.656.82A4.128,4.128,0,0,0,35.829,36.867Zm11.438,4.289a3.693,3.693,0,0,1-2.8-1.129,4.19,4.19,0,0,1-1.078-3.02v-.266a5.073,5.073,0,0,1,.48-2.246,3.748,3.748,0,0,1,1.344-1.547,3.378,3.378,0,0,1,1.871-.559,3.166,3.166,0,0,1,2.563,1.086,4.7,4.7,0,0,1,.914,3.109v.6H44.837a3,3,0,0,0,.73,2.02,2.3,2.3,0,0,0,1.777.77,2.517,2.517,0,0,0,1.3-.312,3.258,3.258,0,0,0,.93-.828l.883.688A3.55,3.55,0,0,1,47.266,41.156Zm-.18-7.578a1.928,1.928,0,0,0-1.469.637A3.1,3.1,0,0,0,44.884,36h4.234v-.109a2.753,2.753,0,0,0-.594-1.707A1.815,1.815,0,0,0,47.087,33.578ZM53.805,41H52.36V29h1.445Zm13.578,0H59.93V39.961l3.938-4.375a9.354,9.354,0,0,0,1.207-1.613,2.693,2.693,0,0,0,.332-1.285,2.041,2.041,0,0,0-.539-1.461,1.885,1.885,0,0,0-1.438-.57,2.232,2.232,0,0,0-1.676.613,2.343,2.343,0,0,0-.6,1.707H59.712a3.355,3.355,0,0,1,1.012-2.539,3.751,3.751,0,0,1,2.707-.969,3.6,3.6,0,0,1,2.508.832,2.838,2.838,0,0,1,.922,2.215q0,1.68-2.141,4l-3.047,3.3h5.711Zm8.664-4.852a6.61,6.61,0,0,1-.867,3.773,3.6,3.6,0,0,1-5.406.027,6.274,6.274,0,0,1-.906-3.605v-1.93a6.463,6.463,0,0,1,.867-3.727,3.668,3.668,0,0,1,5.422-.043,6.237,6.237,0,0,1,.891,3.629ZM74.6,34.172a5.3,5.3,0,0,0-.516-2.676,1.775,1.775,0,0,0-1.633-.84,1.751,1.751,0,0,0-1.617.836,5.171,5.171,0,0,0-.523,2.57v2.313a5.381,5.381,0,0,0,.535,2.723,1.771,1.771,0,0,0,1.621.879,1.747,1.747,0,0,0,1.59-.828,5.186,5.186,0,0,0,.543-2.609Zm10.43,1.977a6.61,6.61,0,0,1-.867,3.773,3.6,3.6,0,0,1-5.406.027,6.274,6.274,0,0,1-.906-3.605v-1.93a6.463,6.463,0,0,1,.867-3.727,3.668,3.668,0,0,1,5.422-.043,6.237,6.237,0,0,1,.891,3.629Zm-1.445-1.977a5.3,5.3,0,0,0-.516-2.676,1.775,1.775,0,0,0-1.633-.84,1.751,1.751,0,0,0-1.617.836,5.171,5.171,0,0,0-.523,2.57v2.313a5.381,5.381,0,0,0,.535,2.723,1.771,1.771,0,0,0,1.621.879,1.747,1.747,0,0,0,1.59-.828,5.186,5.186,0,0,0,.543-2.609Zm9.4,3.008h1.578v1.18H92.985V41H91.532V38.359h-5.18v-.852l5.094-7.883h1.539Zm-4.992,0h3.539V31.6l-.172.313Z" transform="translate(629.113 2083.523)" fill="#12263f"/>
        <path id="Trazado_565721" data-name="Trazado 565721" d="M14.137,12.4H11.465V17H9.957V5.625h3.766A4.457,4.457,0,0,1,16.68,6.5a3.148,3.148,0,0,1,1.035,2.547,3.062,3.062,0,0,1-.574,1.852,3.428,3.428,0,0,1-1.6,1.18l2.672,4.828V17H16.605Zm-2.672-1.227h2.3a2.6,2.6,0,0,0,1.777-.579,1.959,1.959,0,0,0,.66-1.55,2.062,2.062,0,0,0-.629-1.62,2.663,2.663,0,0,0-1.816-.571h-2.3ZM23.1,17.156a3.693,3.693,0,0,1-2.8-1.129,4.19,4.19,0,0,1-1.078-3.02v-.266A5.073,5.073,0,0,1,19.7,10.5a3.748,3.748,0,0,1,1.344-1.547,3.378,3.378,0,0,1,1.871-.559A3.166,3.166,0,0,1,25.48,9.477a4.7,4.7,0,0,1,.914,3.109v.6H20.668a3,3,0,0,0,.73,2.02,2.3,2.3,0,0,0,1.777.77,2.517,2.517,0,0,0,1.3-.312,3.259,3.259,0,0,0,.93-.828l.883.688A3.55,3.55,0,0,1,23.1,17.156Zm-.18-7.578a1.928,1.928,0,0,0-1.469.637A3.1,3.1,0,0,0,20.715,12h4.234v-.109a2.753,2.753,0,0,0-.594-1.707A1.815,1.815,0,0,0,22.918,9.578Zm10.07,5.18a1.064,1.064,0,0,0-.441-.91,4.249,4.249,0,0,0-1.539-.559,7.277,7.277,0,0,1-1.742-.562,2.479,2.479,0,0,1-.953-.781A1.869,1.869,0,0,1,28,10.867a2.193,2.193,0,0,1,.879-1.758,3.432,3.432,0,0,1,2.246-.719,3.532,3.532,0,0,1,2.332.742,2.357,2.357,0,0,1,.895,1.9H32.9a1.3,1.3,0,0,0-.5-1.023,1.888,1.888,0,0,0-1.27-.43,1.976,1.976,0,0,0-1.234.344,1.082,1.082,0,0,0-.445.9.877.877,0,0,0,.414.789,5.1,5.1,0,0,0,1.5.508,7.8,7.8,0,0,1,1.754.578,2.558,2.558,0,0,1,1,.809,1.988,1.988,0,0,1,.324,1.152,2.163,2.163,0,0,1-.906,1.816,3.8,3.8,0,0,1-2.352.684,4.257,4.257,0,0,1-1.8-.359,2.922,2.922,0,0,1-1.223-1,2.42,2.42,0,0,1-.441-1.395H29.16a1.5,1.5,0,0,0,.582,1.152,2.258,2.258,0,0,0,1.434.426,2.331,2.331,0,0,0,1.316-.332A1.02,1.02,0,0,0,32.988,14.758ZM35.934,12.7a4.993,4.993,0,0,1,.488-2.234A3.643,3.643,0,0,1,37.781,8.93a3.7,3.7,0,0,1,1.988-.539,3.565,3.565,0,0,1,2.793,1.2,4.6,4.6,0,0,1,1.066,3.18v.1a5.036,5.036,0,0,1-.473,2.215A3.589,3.589,0,0,1,41.8,16.609a3.743,3.743,0,0,1-2.02.547A3.556,3.556,0,0,1,37,15.961,4.575,4.575,0,0,1,35.934,12.8Zm1.453.172a3.616,3.616,0,0,0,.652,2.258,2.211,2.211,0,0,0,3.5-.012,3.955,3.955,0,0,0,.648-2.418,3.61,3.61,0,0,0-.66-2.254,2.1,2.1,0,0,0-1.754-.863,2.075,2.075,0,0,0-1.727.852A3.925,3.925,0,0,0,37.387,12.867ZM47.012,17H45.566V5h1.445Zm7.531-.836a3.07,3.07,0,0,1-2.477.992,2.628,2.628,0,0,1-2.059-.785,3.4,3.4,0,0,1-.715-2.324v-5.5h1.445v5.461q0,1.922,1.563,1.922A2.163,2.163,0,0,0,54.5,14.7V8.547h1.445V17H54.574Zm6.992-.187a2.082,2.082,0,0,0,1.352-.469,1.649,1.649,0,0,0,.641-1.172h1.367a2.621,2.621,0,0,1-.5,1.383,3.293,3.293,0,0,1-1.23,1.047,3.55,3.55,0,0,1-1.629.391A3.482,3.482,0,0,1,58.789,16a4.59,4.59,0,0,1-1.02-3.152v-.242a5.089,5.089,0,0,1,.453-2.2,3.451,3.451,0,0,1,1.3-1.492,3.7,3.7,0,0,1,2-.531,3.39,3.39,0,0,1,2.363.852,3.043,3.043,0,0,1,1,2.211H63.527a1.992,1.992,0,0,0-.621-1.348,1.932,1.932,0,0,0-1.379-.527,2.023,2.023,0,0,0-1.707.793,3.724,3.724,0,0,0-.605,2.293v.273a3.65,3.65,0,0,0,.6,2.25A2.033,2.033,0,0,0,61.535,15.977ZM68.09,17H66.644V8.547H68.09ZM66.527,6.3a.863.863,0,0,1,.215-.594.807.807,0,0,1,.637-.242.819.819,0,0,1,.641.242.854.854,0,0,1,.219.594.826.826,0,0,1-.219.586.834.834,0,0,1-.641.234.821.821,0,0,1-.637-.234A.834.834,0,0,1,66.527,6.3ZM70.019,12.7a4.993,4.993,0,0,1,.488-2.234A3.643,3.643,0,0,1,71.867,8.93a3.7,3.7,0,0,1,1.988-.539,3.565,3.565,0,0,1,2.793,1.2,4.6,4.6,0,0,1,1.066,3.18v.1a5.036,5.036,0,0,1-.473,2.215,3.589,3.589,0,0,1-1.352,1.527,3.743,3.743,0,0,1-2.02.547,3.556,3.556,0,0,1-2.785-1.2A4.575,4.575,0,0,1,70.019,12.8Zm1.453.172a3.616,3.616,0,0,0,.652,2.258,2.211,2.211,0,0,0,3.5-.012,3.955,3.955,0,0,0,.648-2.418,3.61,3.61,0,0,0-.66-2.254,2.1,2.1,0,0,0-1.754-.863,2.075,2.075,0,0,0-1.727.852A3.925,3.925,0,0,0,71.473,12.867ZM74.512,5h1.75L74.168,7.3,73,7.293Zm6.383,3.547.047,1.063a3.08,3.08,0,0,1,2.531-1.219q2.68,0,2.7,3.023V17H84.73V11.406a1.946,1.946,0,0,0-.418-1.352,1.675,1.675,0,0,0-1.277-.437,2.086,2.086,0,0,0-1.234.375,2.546,2.546,0,0,0-.828.984V17H79.527V8.547ZM24.949,41H23.5V31.367l-2.914,1.07V31.125l4.141-1.555h.227Zm8.984,0H32.48V31.367l-2.914,1.07V31.125l4.141-1.555h.227Zm9.773-5a3.536,3.536,0,0,1-1.082.867,2.936,2.936,0,0,1-1.379.328,3.031,3.031,0,0,1-1.715-.484A3.149,3.149,0,0,1,38.4,35.348a4.648,4.648,0,0,1-.4-1.941,4.735,4.735,0,0,1,.434-2.055,3.185,3.185,0,0,1,1.23-1.4,3.509,3.509,0,0,1,1.859-.484,3.177,3.177,0,0,1,2.66,1.262,5.5,5.5,0,0,1,.973,3.441v.422q0,3.32-1.312,4.848a5.043,5.043,0,0,1-3.961,1.566h-.281V39.781h.3A3.442,3.442,0,0,0,43.707,36ZM41.48,36a2.232,2.232,0,0,0,1.34-.445,2.625,2.625,0,0,0,.895-1.1v-.578a3.977,3.977,0,0,0-.617-2.312A1.887,1.887,0,0,0,40,31.4a3.013,3.013,0,0,0-.578,1.926,3.136,3.136,0,0,0,.559,1.918A1.769,1.769,0,0,0,41.48,36Zm13.125,5H47.152V39.961l3.938-4.375A9.355,9.355,0,0,0,52.3,33.973a2.693,2.693,0,0,0,.332-1.285,2.041,2.041,0,0,0-.539-1.461,1.885,1.885,0,0,0-1.437-.57,2.232,2.232,0,0,0-1.676.613,2.343,2.343,0,0,0-.6,1.707H46.934a3.355,3.355,0,0,1,1.012-2.539,3.751,3.751,0,0,1,2.707-.969,3.6,3.6,0,0,1,2.508.832,2.838,2.838,0,0,1,.922,2.215q0,1.68-2.141,4l-3.047,3.3h5.711Zm5.289-4.3a4.952,4.952,0,0,1,.922-3.129,3.137,3.137,0,0,1,4.766-.168V29h1.445V41H65.7l-.07-.906a2.943,2.943,0,0,1-2.414,1.063,2.887,2.887,0,0,1-2.395-1.2,5.008,5.008,0,0,1-.926-3.141Zm1.445.164a3.749,3.749,0,0,0,.594,2.25,1.919,1.919,0,0,0,1.641.813A2.108,2.108,0,0,0,65.582,38.7V34.813a2.125,2.125,0,0,0-1.992-1.2,1.929,1.929,0,0,0-1.656.82A4.128,4.128,0,0,0,61.34,36.867Zm11.437,4.289a3.693,3.693,0,0,1-2.8-1.129,4.19,4.19,0,0,1-1.078-3.02v-.266a5.073,5.073,0,0,1,.48-2.246,3.748,3.748,0,0,1,1.344-1.547,3.378,3.378,0,0,1,1.871-.559,3.166,3.166,0,0,1,2.563,1.086,4.7,4.7,0,0,1,.914,3.109v.6H70.348a3,3,0,0,0,.73,2.02,2.3,2.3,0,0,0,1.777.77,2.517,2.517,0,0,0,1.3-.312,3.259,3.259,0,0,0,.93-.828l.883.688A3.55,3.55,0,0,1,72.777,41.156Zm-.18-7.578a1.928,1.928,0,0,0-1.469.637A3.1,3.1,0,0,0,70.394,36h4.234v-.109a2.753,2.753,0,0,0-.594-1.707A1.815,1.815,0,0,0,72.6,33.578ZM38.383,65H30.93V63.961l3.938-4.375a9.355,9.355,0,0,0,1.207-1.613,2.693,2.693,0,0,0,.332-1.285,2.041,2.041,0,0,0-.539-1.461,1.885,1.885,0,0,0-1.437-.57,2.232,2.232,0,0,0-1.676.613,2.343,2.343,0,0,0-.6,1.707H30.711a3.355,3.355,0,0,1,1.012-2.539,3.751,3.751,0,0,1,2.707-.969,3.6,3.6,0,0,1,2.508.832,2.838,2.838,0,0,1,.922,2.215q0,1.68-2.141,4l-3.047,3.3h5.711Zm8.664-4.852a6.61,6.61,0,0,1-.867,3.773,3.084,3.084,0,0,1-2.711,1.234,3.107,3.107,0,0,1-2.7-1.207,6.274,6.274,0,0,1-.906-3.605v-1.93a6.463,6.463,0,0,1,.867-3.727,3.108,3.108,0,0,1,2.719-1.219,3.136,3.136,0,0,1,2.7,1.176,6.237,6.237,0,0,1,.891,3.629ZM45.6,58.172a5.3,5.3,0,0,0-.516-2.676,1.775,1.775,0,0,0-1.633-.84,1.751,1.751,0,0,0-1.617.836,5.171,5.171,0,0,0-.523,2.57v2.313a5.381,5.381,0,0,0,.535,2.723,1.771,1.771,0,0,0,1.621.879,1.747,1.747,0,0,0,1.59-.828,5.186,5.186,0,0,0,.543-2.609Zm10.43,1.977a6.61,6.61,0,0,1-.867,3.773,3.6,3.6,0,0,1-5.406.027,6.274,6.274,0,0,1-.906-3.605v-1.93a6.463,6.463,0,0,1,.867-3.727,3.668,3.668,0,0,1,5.422-.043,6.237,6.237,0,0,1,.891,3.629Zm-1.445-1.977A5.3,5.3,0,0,0,54.07,55.5a1.775,1.775,0,0,0-1.633-.84,1.751,1.751,0,0,0-1.617.836,5.171,5.171,0,0,0-.523,2.57v2.313a5.381,5.381,0,0,0,.535,2.723,1.771,1.771,0,0,0,1.621.879,1.747,1.747,0,0,0,1.59-.828,5.186,5.186,0,0,0,.543-2.609Zm10.2-1.578a2.641,2.641,0,0,1-.449,1.516,3.056,3.056,0,0,1-1.215,1.039,3.26,3.26,0,0,1,1.41,1.117,2.811,2.811,0,0,1,.52,1.664,2.972,2.972,0,0,1-1,2.352,4.367,4.367,0,0,1-5.25,0,2.986,2.986,0,0,1-.988-2.348,2.9,2.9,0,0,1,.5-1.664,3.136,3.136,0,0,1,1.395-1.125,2.981,2.981,0,0,1-1.2-1.039,2.679,2.679,0,0,1-.437-1.508A2.94,2.94,0,0,1,59,54.313a3.915,3.915,0,0,1,4.855,0A2.934,2.934,0,0,1,64.781,56.594ZM63.6,61.9A2.1,2.1,0,0,0,63,60.344a2.147,2.147,0,0,0-1.582-.6A2.034,2.034,0,0,0,59.258,61.9a2.019,2.019,0,0,0,.574,1.523,2.565,2.565,0,0,0,3.191,0A2.014,2.014,0,0,0,63.6,61.9ZM61.43,54.656a1.865,1.865,0,0,0-1.379.527,2.182,2.182,0,0,0-.008,2.836,2.064,2.064,0,0,0,2.773,0A2.138,2.138,0,0,0,62.8,55.2,1.839,1.839,0,0,0,61.43,54.656Z" transform="translate(599.469 1945.383)" fill="#12263f"/>
        <path id="Trazado_565719" data-name="Trazado 565719" d="M16.316,12.4H13.644V17H12.137V5.625H15.9a4.457,4.457,0,0,1,2.957.875,3.148,3.148,0,0,1,1.035,2.547A3.062,3.062,0,0,1,19.32,10.9a3.428,3.428,0,0,1-1.6,1.18l2.672,4.828V17H18.785Zm-2.672-1.227h2.3a2.6,2.6,0,0,0,1.777-.579,1.959,1.959,0,0,0,.66-1.55,2.062,2.062,0,0,0-.629-1.62,2.663,2.663,0,0,0-1.816-.571h-2.3Zm11.633,5.984a3.693,3.693,0,0,1-2.8-1.129,4.19,4.19,0,0,1-1.078-3.02v-.266a5.073,5.073,0,0,1,.48-2.246,3.748,3.748,0,0,1,1.344-1.547A3.378,3.378,0,0,1,25.1,8.391,3.166,3.166,0,0,1,27.66,9.477a4.7,4.7,0,0,1,.914,3.109v.6H22.848a3,3,0,0,0,.73,2.02,2.3,2.3,0,0,0,1.777.77,2.517,2.517,0,0,0,1.3-.312,3.259,3.259,0,0,0,.93-.828l.883.688A3.55,3.55,0,0,1,25.277,17.156ZM25.1,9.578a1.928,1.928,0,0,0-1.469.637A3.1,3.1,0,0,0,22.894,12h4.234v-.109a2.753,2.753,0,0,0-.594-1.707A1.815,1.815,0,0,0,25.1,9.578Zm10.07,5.18a1.064,1.064,0,0,0-.441-.91,4.249,4.249,0,0,0-1.539-.559,7.277,7.277,0,0,1-1.742-.562,2.479,2.479,0,0,1-.953-.781,1.869,1.869,0,0,1-.309-1.078,2.193,2.193,0,0,1,.879-1.758,3.432,3.432,0,0,1,2.246-.719,3.532,3.532,0,0,1,2.332.742,2.357,2.357,0,0,1,.895,1.9H35.082a1.3,1.3,0,0,0-.5-1.023,1.888,1.888,0,0,0-1.27-.43,1.976,1.976,0,0,0-1.234.344,1.082,1.082,0,0,0-.445.9.877.877,0,0,0,.414.789,5.1,5.1,0,0,0,1.5.508,7.8,7.8,0,0,1,1.754.578,2.558,2.558,0,0,1,1,.809,1.988,1.988,0,0,1,.324,1.152,2.163,2.163,0,0,1-.906,1.816,3.8,3.8,0,0,1-2.352.684,4.257,4.257,0,0,1-1.8-.359,2.922,2.922,0,0,1-1.223-1,2.42,2.42,0,0,1-.441-1.395H31.34a1.5,1.5,0,0,0,.582,1.152,2.258,2.258,0,0,0,1.434.426,2.331,2.331,0,0,0,1.316-.332A1.02,1.02,0,0,0,35.168,14.758ZM38.113,12.7a4.993,4.993,0,0,1,.488-2.234A3.643,3.643,0,0,1,39.961,8.93a3.7,3.7,0,0,1,1.988-.539,3.565,3.565,0,0,1,2.793,1.2,4.6,4.6,0,0,1,1.066,3.18v.1a5.036,5.036,0,0,1-.473,2.215,3.589,3.589,0,0,1-1.352,1.527,3.743,3.743,0,0,1-2.02.547,3.556,3.556,0,0,1-2.785-1.2A4.575,4.575,0,0,1,38.113,12.8Zm1.453.172a3.616,3.616,0,0,0,.652,2.258,2.211,2.211,0,0,0,3.5-.012,3.955,3.955,0,0,0,.648-2.418,3.61,3.61,0,0,0-.66-2.254,2.1,2.1,0,0,0-1.754-.863,2.075,2.075,0,0,0-1.727.852A3.925,3.925,0,0,0,39.566,12.867ZM49.191,17H47.746V5h1.445Zm7.531-.836a3.07,3.07,0,0,1-2.477.992,2.628,2.628,0,0,1-2.059-.785,3.4,3.4,0,0,1-.715-2.324v-5.5h1.445v5.461q0,1.922,1.563,1.922a2.163,2.163,0,0,0,2.2-1.234V8.547h1.445V17H56.754Zm6.992-.187a2.082,2.082,0,0,0,1.352-.469,1.649,1.649,0,0,0,.641-1.172h1.367a2.621,2.621,0,0,1-.5,1.383,3.293,3.293,0,0,1-1.23,1.047,3.55,3.55,0,0,1-1.629.391A3.482,3.482,0,0,1,60.969,16a4.59,4.59,0,0,1-1.02-3.152v-.242a5.089,5.089,0,0,1,.453-2.2,3.451,3.451,0,0,1,1.3-1.492,3.7,3.7,0,0,1,2-.531,3.39,3.39,0,0,1,2.363.852,3.043,3.043,0,0,1,1,2.211H65.707a1.992,1.992,0,0,0-.621-1.348,1.932,1.932,0,0,0-1.379-.527A2.023,2.023,0,0,0,62,10.371a3.724,3.724,0,0,0-.605,2.293v.273a3.65,3.65,0,0,0,.6,2.25A2.033,2.033,0,0,0,63.715,15.977ZM70.269,17H68.824V8.547h1.445ZM68.707,6.3a.863.863,0,0,1,.215-.594.807.807,0,0,1,.637-.242.819.819,0,0,1,.641.242.854.854,0,0,1,.219.594.826.826,0,0,1-.219.586.834.834,0,0,1-.641.234.821.821,0,0,1-.637-.234A.834.834,0,0,1,68.707,6.3ZM72.2,12.7a4.993,4.993,0,0,1,.488-2.234A3.643,3.643,0,0,1,74.047,8.93a3.7,3.7,0,0,1,1.988-.539,3.565,3.565,0,0,1,2.793,1.2,4.6,4.6,0,0,1,1.066,3.18v.1a5.036,5.036,0,0,1-.473,2.215,3.589,3.589,0,0,1-1.352,1.527,3.743,3.743,0,0,1-2.02.547,3.556,3.556,0,0,1-2.785-1.2A4.575,4.575,0,0,1,72.2,12.8Zm1.453.172a3.616,3.616,0,0,0,.652,2.258,2.211,2.211,0,0,0,3.5-.012,3.955,3.955,0,0,0,.648-2.418,3.61,3.61,0,0,0-.66-2.254,2.1,2.1,0,0,0-1.754-.863,2.075,2.075,0,0,0-1.727.852A3.925,3.925,0,0,0,73.652,12.867ZM76.691,5h1.75L76.348,7.3l-1.164,0Zm6.383,3.547.047,1.063a3.08,3.08,0,0,1,2.531-1.219q2.68,0,2.7,3.023V17H86.91V11.406a1.946,1.946,0,0,0-.418-1.352,1.675,1.675,0,0,0-1.277-.437,2.086,2.086,0,0,0-1.234.375,2.546,2.546,0,0,0-.828.984V17H81.707V8.547ZM7.18,41H5.726V31.367l-2.914,1.07V31.125L6.953,29.57H7.18Zm4.9-5.7.578-5.672h5.828v1.336h-4.6l-.344,3.1a3.671,3.671,0,0,1,1.9-.492A3.138,3.138,0,0,1,17.906,34.6a4.026,4.026,0,0,1,.914,2.777,3.886,3.886,0,0,1-.949,2.77,3.46,3.46,0,0,1-2.652,1.012,3.6,3.6,0,0,1-2.461-.836,3.337,3.337,0,0,1-1.086-2.312h1.367a2.3,2.3,0,0,0,.7,1.473,2.162,2.162,0,0,0,1.484.5,1.95,1.95,0,0,0,1.582-.687,2.874,2.874,0,0,0,.574-1.9,2.638,2.638,0,0,0-.621-1.832,2.113,2.113,0,0,0-1.652-.691,2.383,2.383,0,0,0-1.484.414l-.383.313ZM25.148,41H23.7V31.367l-2.914,1.07V31.125l4.141-1.555h.227Zm6.336-6.391H32.57a2.387,2.387,0,0,0,1.609-.539,1.8,1.8,0,0,0,.586-1.414,1.764,1.764,0,0,0-1.992-2,2.072,2.072,0,0,0-1.5.535,1.873,1.873,0,0,0-.559,1.418H29.273a2.9,2.9,0,0,1,.988-2.246,3.6,3.6,0,0,1,2.512-.895,3.558,3.558,0,0,1,2.523.852,3.076,3.076,0,0,1,.914,2.367,2.5,2.5,0,0,1-.48,1.438,2.9,2.9,0,0,1-1.309,1.039,2.8,2.8,0,0,1,1.449.984,2.734,2.734,0,0,1,.512,1.68,3.1,3.1,0,0,1-1,2.43,3.745,3.745,0,0,1-2.6.9,3.844,3.844,0,0,1-2.605-.867,2.877,2.877,0,0,1-1-2.289h1.453a1.859,1.859,0,0,0,.586,1.438,2.229,2.229,0,0,0,1.57.539,2.187,2.187,0,0,0,1.6-.547,2.108,2.108,0,0,0,.555-1.57,1.912,1.912,0,0,0-.609-1.523,2.655,2.655,0,0,0-1.758-.547H31.484ZM42.125,36.7a4.952,4.952,0,0,1,.922-3.129,3.137,3.137,0,0,1,4.766-.168V29h1.445V41H47.93l-.07-.906a2.943,2.943,0,0,1-2.414,1.063,2.887,2.887,0,0,1-2.395-1.2,5.008,5.008,0,0,1-.926-3.141Zm1.445.164a3.749,3.749,0,0,0,.594,2.25,1.919,1.919,0,0,0,1.641.813A2.108,2.108,0,0,0,47.812,38.7V34.813a2.125,2.125,0,0,0-1.992-1.2,1.929,1.929,0,0,0-1.656.82A4.128,4.128,0,0,0,43.57,36.867Zm11.438,4.289a3.693,3.693,0,0,1-2.8-1.129,4.19,4.19,0,0,1-1.078-3.02v-.266a5.073,5.073,0,0,1,.48-2.246,3.748,3.748,0,0,1,1.344-1.547,3.378,3.378,0,0,1,1.871-.559,3.166,3.166,0,0,1,2.563,1.086,4.7,4.7,0,0,1,.914,3.109v.6H52.578a3,3,0,0,0,.73,2.02,2.3,2.3,0,0,0,1.777.77,2.517,2.517,0,0,0,1.3-.312,3.258,3.258,0,0,0,.93-.828l.883.688A3.55,3.55,0,0,1,55.008,41.156Zm-.18-7.578a1.928,1.928,0,0,0-1.469.637A3.1,3.1,0,0,0,52.625,36h4.234v-.109a2.753,2.753,0,0,0-.594-1.707A1.815,1.815,0,0,0,54.828,33.578ZM71.242,41H63.789V39.961l3.937-4.375a9.354,9.354,0,0,0,1.207-1.613,2.693,2.693,0,0,0,.332-1.285,2.041,2.041,0,0,0-.539-1.461,1.885,1.885,0,0,0-1.437-.57,2.232,2.232,0,0,0-1.676.613,2.343,2.343,0,0,0-.6,1.707H63.57a3.355,3.355,0,0,1,1.012-2.539,3.751,3.751,0,0,1,2.707-.969A3.6,3.6,0,0,1,69.8,30.3a2.838,2.838,0,0,1,.922,2.215q0,1.68-2.141,4l-3.047,3.3h5.711Zm8.664-4.852a6.61,6.61,0,0,1-.867,3.773,3.6,3.6,0,0,1-5.406.027,6.274,6.274,0,0,1-.906-3.605v-1.93a6.463,6.463,0,0,1,.867-3.727,3.668,3.668,0,0,1,5.422-.043,6.237,6.237,0,0,1,.891,3.629Zm-1.445-1.977a5.3,5.3,0,0,0-.516-2.676,1.775,1.775,0,0,0-1.633-.84,1.751,1.751,0,0,0-1.617.836,5.171,5.171,0,0,0-.523,2.57v2.313a5.381,5.381,0,0,0,.535,2.723,1.771,1.771,0,0,0,1.621.879,1.747,1.747,0,0,0,1.59-.828,5.186,5.186,0,0,0,.543-2.609Zm10.43,1.977a6.61,6.61,0,0,1-.867,3.773,3.6,3.6,0,0,1-5.406.027,6.274,6.274,0,0,1-.906-3.605v-1.93a6.463,6.463,0,0,1,.867-3.727A3.668,3.668,0,0,1,88,30.645a6.237,6.237,0,0,1,.891,3.629Zm-1.445-1.977A5.3,5.3,0,0,0,86.93,31.5a1.775,1.775,0,0,0-1.633-.84,1.751,1.751,0,0,0-1.617.836,5.171,5.171,0,0,0-.523,2.57v2.313a5.381,5.381,0,0,0,.535,2.723,1.771,1.771,0,0,0,1.621.879,1.747,1.747,0,0,0,1.59-.828,5.186,5.186,0,0,0,.543-2.609Zm9.4,3.008h1.578v1.18H96.844V41H95.391V38.359h-5.18v-.852L95.3,29.625h1.539Zm-4.992,0h3.539V31.6l-.172.313Z" transform="translate(677.938 1855.093)" fill="#12263f"/>
        <g id="Grupo_841533" data-name="Grupo 841533" transform="translate(423 27)">
          <circle id="Elipse_6696" data-name="Elipse 6696" cx="17.5" cy="17.5" r="17.5" transform="translate(455 1772)" fill="#ffd63d" opacity="0.302"/>
          <circle id="Elipse_6697" data-name="Elipse 6697" cx="10.5" cy="10.5" r="10.5" transform="translate(462 1779)" fill="#ffd63d"/>
        </g>
        <g id="Grupo_841542" data-name="Grupo 841542" transform="translate(328 444)">
          <circle id="Elipse_6696-2" data-name="Elipse 6696" cx="17.5" cy="17.5" r="17.5" transform="translate(455 1772)" fill="#ffd63d" opacity="0.302"/>
          <circle id="Elipse_6697-2" data-name="Elipse 6697" cx="10.5" cy="10.5" r="10.5" transform="translate(462 1779)" fill="#ffd63d"/>
        </g>
        <g id="Grupo_841540" data-name="Grupo 841540" transform="translate(217 27)">
          <circle id="Elipse_6696-3" data-name="Elipse 6696" cx="17.5" cy="17.5" r="17.5" transform="translate(455 1772)" fill="#ffd63d" opacity="0.302"/>
          <circle id="Elipse_6697-3" data-name="Elipse 6697" cx="10.5" cy="10.5" r="10.5" transform="translate(462 1779)" fill="#ffd63d"/>
        </g>
        <g id="Grupo_841541" data-name="Grupo 841541" transform="translate(164 375)">
          <circle id="Elipse_6696-4" data-name="Elipse 6696" cx="17.5" cy="17.5" r="17.5" transform="translate(455 1772)" fill="#ffd63d" opacity="0.302"/>
          <circle id="Elipse_6697-4" data-name="Elipse 6697" cx="10.5" cy="10.5" r="10.5" transform="translate(462 1779)" fill="#ffd63d"/>
        </g>
        <g id="Grupo_841543" data-name="Grupo 841543" transform="translate(491 375)">
          <circle id="Elipse_6696-5" data-name="Elipse 6696" cx="17.5" cy="17.5" r="17.5" transform="translate(455 1772)" fill="#ffd63d" opacity="0.302"/>
          <circle id="Elipse_6697-5" data-name="Elipse 6697" cx="10.5" cy="10.5" r="10.5" transform="translate(462 1779)" fill="#ffd63d"/>
        </g>
        <g id="Grupo_841534" data-name="Grupo 841534" transform="translate(548 201)">
          <circle id="Elipse_6696-6" data-name="Elipse 6696" cx="17.5" cy="17.5" r="17.5" transform="translate(455 1772)" fill="#ffd63d" opacity="0.302"/>
          <circle id="Elipse_6697-6" data-name="Elipse 6697" cx="10.5" cy="10.5" r="10.5" transform="translate(462 1779)" fill="#ffd63d"/>
        </g>
        <g id="Grupo_841539" data-name="Grupo 841539" transform="translate(109 201)">
          <circle id="Elipse_6696-7" data-name="Elipse 6696" cx="17.5" cy="17.5" r="17.5" transform="translate(455 1772)" fill="#ffd63d" opacity="0.302"/>
          <circle id="Elipse_6697-7" data-name="Elipse 6697" cx="10.5" cy="10.5" r="10.5" transform="translate(462 1779)" fill="#ffd63d"/>
        </g>
        <path id="Trazado_565707" data-name="Trazado 565707" d="M535.685,490.661h0a10.883,10.883,0,0,1,0-15.391l8.614-8.613a10.883,10.883,0,1,1,15.391,15.392l-8.613,8.612A10.885,10.885,0,0,1,535.685,490.661Z" transform="translate(397.172 1745.09)" fill="none" stroke="#fff" stroke-miterlimit="10" stroke-width="1"/>
      </g>
    </g>
  </g>
</svg>
