<svg xmlns="http://www.w3.org/2000/svg" xmlns:xlink="http://www.w3.org/1999/xlink" width="78" height="78" viewBox="0 0 78 78"><defs><clipPath id="a"><rect width="78" height="78" transform="translate(835 915)" fill="none" stroke="#707070" stroke-width="1"/></clipPath></defs><g transform="translate(-835 -915)" clip-path="url(#a)"><g transform="translate(-1953.545 800.201)"><path d="M2860.168,141.055c-.954.943-.276,2.13-.476,3.185-.452.259-.7-.168-1.034-.3a3.423,3.423,0,0,0-3.135-.127c-.744.331-1.636.654-2.166-.436a3.361,3.361,0,0,1,.19-2.238c1.325-1.211.977-2.764.831-4.253-.061-.622-.56-.9-1.159-.973a12.773,12.773,0,0,0-1.639-.056q-19.564,0-39.128,0c-2.758,0-2.858.1-2.858,2.826q0,11.486,0,22.971c0,.991-.031,1.977,1.176,2.353.476.879-.064,1.72-.1,2.58a1.012,1.012,0,0,1-.332.363c-.922.674-.933.845-.091,1.555a1.371,1.371,0,0,1,.425.454,4.033,4.033,0,0,1-.029,2.315,2.283,2.283,0,0,1-.576.694,2.662,2.662,0,0,0-.467,1.792c-.008,3.908-.015,7.817,0,11.725.008,1.739.332,2.077,2.079,2.079q20.362.026,40.724,0c1.961,0,2.89-2.182,1.752-4.032a8.707,8.707,0,0,0-.561-.68c-.556-1.019-.24-2.136-.352-3.2.363-1.55,1.082-1.808,2.2-.772.643.6,1.24,1.239,1.87,1.849a1.746,1.746,0,0,0,1.2.584c.477.124.684-.534,1.162-.408q.007,2.256.013,4.512c-.109.3-.384.473-.562.723a3.593,3.593,0,0,0-.217.324,19.915,19.915,0,0,0-.14,3.237c-.044.754-.212,1.413-1.085,1.605a13.551,13.551,0,0,1-1.765.05q-23.774,0-47.548,0a6.477,6.477,0,0,1-2-.131.851.851,0,0,1-.374-.33,4.082,4.082,0,0,1-.181-1.741q-.007-27.445,0-54.89a4.9,4.9,0,0,1,.131-1.627.855.855,0,0,1,.33-.375,3.361,3.361,0,0,1,1.489-.182q24.424-.006,48.848,0a6.488,6.488,0,0,1,1.133.058,1.219,1.219,0,0,1,.905.746,33.818,33.818,0,0,1,.1,5.4C2858.74,139.5,2858.758,140.6,2860.168,141.055Z" transform="translate(-7.912 -7.902)" fill="#b5dbfd"/><path d="M2850.127,183.127c.778-1.015.234-2.187.387-3.277.089-.639-.214-1.361.417-1.879a1.159,1.159,0,0,0,.8.207c.536-.062.745.261.768.75.073,1.574.3,3.147-.378,4.678-.532,1.194-.479,1.217-1.82,1.535-.166-.028-.1.234-.087.066,0-.006.024,0,.07,0,.319-.016.69-.133.727.383a3.038,3.038,0,0,1-2.024.53h-49.712a3.047,3.047,0,0,1-2.025-.528,4.209,4.209,0,0,0-1.5-1.494,2.458,2.458,0,0,1-.536-1.735q.013-28.554,0-57.107a2.454,2.454,0,0,1,.535-1.735,4.2,4.2,0,0,0,1.5-1.494,3.05,3.05,0,0,1,2.025-.529h49.713a3.03,3.03,0,0,1,2.024.529c0,.41-.3.387-.833.433,2.12.218,2.194,1.805,2.362,3.089a38.89,38.89,0,0,1,.059,5.535,1.532,1.532,0,0,1-.122.614c-.224.492-.554.867-1.155.763-.567-.1-.688-.514-.684-1.033q.019-2.582,0-5.164a2.388,2.388,0,0,0-.106-1.233l-.4-.544a4.227,4.227,0,0,0-1.739-.216h-48.462a4.9,4.9,0,0,0-1.745.185l.063.056-.056-.062a4.9,4.9,0,0,0-.185,1.744q0,27.615,0,55.23a4.9,4.9,0,0,0,.185,1.744l.056-.063-.062.057a4.9,4.9,0,0,0,1.745.185h48.462A4.223,4.223,0,0,0,2850.127,183.127Z" transform="translate(0)" fill="#010101"/><path d="M3015.187,178.43l.759.463a2.552,2.552,0,0,0,2.335,1.573,3.4,3.4,0,0,1,3.1,3.28,2.286,2.286,0,0,0,1.075,1.836,3.438,3.438,0,0,1,1.156,4.562,2.113,2.113,0,0,0,0,2.011,3.312,3.312,0,0,1-.88,4.309,3.213,3.213,0,0,0-1.465,2.432c-.644.045-.482-.482-.383-.713.157-.365-.118-.434-.248-.616a2.081,2.081,0,0,1,1.033-1.994c1.27-.979,1.422-1.559.865-3.05a3.808,3.808,0,0,1,.019-2.938,2.211,2.211,0,0,0-1.094-3.111c-.813-.436-.839-1.17-.909-1.918a2.73,2.73,0,0,1,.224-.65c.023-.05.128-.127,0-.171-.018-.006-.1.079-.194.068-.692-.36-.764-1.262-1.483-1.632a5.916,5.916,0,0,0-1.841-.719,3.242,3.242,0,0,1-2.39-2.543A.461.461,0,0,1,3015.187,178.43Z" transform="translate(-164.166 -42.554)" fill="#080808"/><path d="M3020.564,254.412c.882.132-.062,1.02.528,1.273-.391,1.23-.874,2.381-2.3,2.739-.415-.214-.864-.035-1.29-.119.36.085.758-.1,1.091.167a1.218,1.218,0,0,1-.826.223,2,2,0,0,0-2,2.209c-.013,3.811-.01,7.623-.013,11.434-.3.289-.45.779-1,.731a19.865,19.865,0,0,1-.081-3.638c-.033-2.608-.011-5.216-.01-7.824a9.779,9.779,0,0,1,.038-1.26,2.961,2.961,0,0,1,2.547-2.742c1.484-.245,2.661-.75,2.866-2.458A.967.967,0,0,1,3020.564,254.412Z" transform="translate(-163.99 -99.343)" fill="#080808"/><path d="M3010.794,126.6c.508.907.168,1.885.222,2.828.063,1.13.031,2.267.008,3.4-.011.536.148.958.708.988a.758.758,0,0,0,.781-.821c-.068-2.673.431-5.39-.557-8a.686.686,0,0,0-.753-.519,2.447,2.447,0,0,1-1.559-.684c.543-.592,1.163.4,1.631-.2a3.312,3.312,0,0,1,2,3.177c.059,2.165.01,4.333.028,6.5a1.54,1.54,0,0,1-.787,1.452c-1.4.005-1.731-.284-1.739-1.63C3010.767,130.927,3010.788,128.762,3010.794,126.6Z" transform="translate(-160.262 -1.568)" fill="#090909"/><path d="M3011.488,352.238c-.487-.571-1.023.312-1.561-.1.045-.439.511-.553.783-.588,1.876-.239,1.766-1.783,2.026-3.046a8.42,8.42,0,0,0,.019-1.761c-.01-.854.151-1.829-1.208-1.788-.043,0-.094-.216-.142-.332h.006a1.84,1.84,0,0,1,1.632.073.731.731,0,0,1,.087.091C3014.407,346.639,3013.412,351.152,3011.488,352.238Z" transform="translate(-160.474 -166.65)" fill="#0a0a0a"/><path d="M2798.834,123.59c.036.18.462.313.233.439a3.7,3.7,0,0,0-1.2,1.2c-.288.4-.34-.142-.53-.149A2.4,2.4,0,0,1,2798.834,123.59Z" transform="translate(-1.583 -1.566)" fill="#0b0b0b"/><path d="M2797.34,368.447c.19-.007.24-.552.529-.15a3.7,3.7,0,0,0,1.2,1.2c.229.126-.2.26-.232.44A2.407,2.407,0,0,1,2797.34,368.447Z" transform="translate(-1.584 -184.351)" fill="#0b0b0b"/><path d="M3017.436,343.777l-1.632-.073c.183-.33.535-.356.841-.465C3016.941,343.371,3017.331,343.365,3017.436,343.777Z" transform="translate(-164.866 -165.733)"/><path d="M3026.452,269.662l-1.3-.072c.513-.177,1.025-.368,1.5.025l-.089.069Z" transform="translate(-171.852 -110.533)"/><path d="M2824.155,182.994c.136-.814-.387-1.757.471-2.431a12.539,12.539,0,0,0,.381-3.866q-.013-9.906,0-19.813c0-.5.007-1.009.018-1.514a1.333,1.333,0,0,1,1.47-1.495c.378-.006.757-.018,1.136-.018h36.219c.294,0,.589.014.883.008,1.047-.021,1.729.395,1.712,1.524-.013.869.563,1.469.872,2.189v2.248a.862.862,0,0,1-.84.1,3.112,3.112,0,0,0-3.474,1.152,3.931,3.931,0,0,1-2.551,1.448c-1.78.24-2.473,1.57-2.85,3.126-.1.407-.066.881-.388,1.176a7.27,7.27,0,0,0-2.366,3.629c-.154.616-.874.571-1.414.582-1.766.035-3.533.013-5.3.014q-6.937,0-13.876,0a5.5,5.5,0,0,0-1.5.109c-.393.11-.711.339-.7.778s.328.66.721.766a6.183,6.183,0,0,0,1.631.107q9.147,0,18.292,0c.42,0,.841-.011,1.262.011,1.347.073,1.518.29,1.282,1.625a2.613,2.613,0,0,0-.111.872c.29,1.7-.5,1.784-1.92,1.785q-9.4,0-18.8,0a7.558,7.558,0,0,0-1.509.076c-.439.089-.843.287-.85.786-.009.576.449.756.931.841a8.725,8.725,0,0,0,1.511.059q10.345,0,20.689,0c1.566,0,2.251-.035,2.647,1.762a3.244,3.244,0,0,0,2.856,2.508c1.736.3,2.425,1.125,2.454,2.942.049,3.027,0,6.055.027,9.082.008.767-.262,1.757.621,2.156.917.414,1.383-.541,1.978-1.022.387-.313.706-.742,1.287-.686.577,1.059.13,2.2.263,3.295a6.711,6.711,0,0,0-.973,2.292,1,1,0,0,1-.965.852,10.056,10.056,0,0,1-1.636.069q-17.965,0-35.931,0c-2.71,0-2.8-.091-2.8-2.858,0-2.942,0-5.883,0-8.825a3.555,3.555,0,0,0-.372-2.074c-.171-.252-.434-.449-.488-.775q.006-1.241.011-2.482A1.235,1.235,0,0,0,2824.155,182.994Z" transform="translate(-21.6 -24.188)" fill="#fefefe"/><path d="M2888.814,212.026c-.605.579-1.222,1.147-1.812,1.741a1.464,1.464,0,0,1-1.678.541c-.7-.283-.79-.9-.788-1.568q.017-5.174,0-10.348c0-1.614-.583-2.273-2.151-2.458a3.421,3.421,0,0,1-3.212-3.039c-.1-1.2-.626-1.257-1.574-1.253-7.319.03-14.639.017-21.958.017h-.884c-.872,0-1.53-.331-1.507-1.29s.716-1.239,1.573-1.227c.421.006.841,0,1.262,0h20.6a4.035,4.035,0,0,1,.475-3.542h-1.552q-10.1,0-20.192,0a5.332,5.332,0,0,1-1.254-.068,1.224,1.224,0,0,1,0-2.377,5.4,5.4,0,0,1,1.254-.067q9.906,0,19.813.007c.763,0,1.308.05,1.306-1.042a2.931,2.931,0,0,1,1.539-2.473,2.037,2.037,0,0,0,1.011-1.741,3.522,3.522,0,0,1,3.436-3.383,1.932,1.932,0,0,0,1.51-.741c1.487-1.963,2.611-2.272,5.036-1.479.57.534,1.128.262,1.706,0a3.277,3.277,0,0,1,3.6.239,2.451,2.451,0,0,0,2.05,2.687,4.509,4.509,0,0,1,3.5,2.622.618.618,0,0,1,0,.755c.144.929.172,1.894,1.557,1.86.477-.012.967,2.3.659,2.975a3.545,3.545,0,0,0-.1,3.17,2.239,2.239,0,0,1-.74,3.105,2.742,2.742,0,0,0-1.373,2.019c-.161.675-.3,1.356-.49,2.022a1.334,1.334,0,0,1-1.369,1.174,5.636,5.636,0,0,0-2.5.525,3.091,3.091,0,0,0-1.2,2.67c.02,3.6.007,7.2.008,10.806a2.478,2.478,0,0,1-.251,1.459c-.631.223-1.037-.155-1.433-.544a22.706,22.706,0,0,1-1.863-1.88C2890.047,210.912,2889.423,210.96,2888.814,212.026Z" transform="translate(-43.364 -40.594)"/><path d="M2863.652,151.309c-1.294-.254-1.351-1.233-1.241-2.235.1-.887-.205-1.106-1.091-1.1q-19.216.046-38.433,0c-.948,0-1.169.232-1.164,1.171.042,7.728.02,15.457.028,23.185,0,.774.028,1.531-.785,1.969-1.408,0-1.732-.28-1.733-1.661q-.012-12.74-.011-25.48c0-1.162.512-1.684,1.676-1.684q21.191.014,42.383,0c1.18,0,1.678.569,1.641,1.715-.026.8-.032,1.6,0,2.4A1.478,1.478,0,0,1,2863.652,151.309Z" transform="translate(-17.939 -17.917)" fill="#010202"/><path d="M2821,288.507c.888.253.753.993.755,1.641.01,3.7.034,7.4-.017,11.106-.012.875.2,1.114,1.1,1.112q19.247-.048,38.495,0c.877,0,1.209-.2,1.092-1.1a1.42,1.42,0,0,1,1.244-1.735c.945.194,1.259.8,1.277,1.73.068,3.6.087,3.6-3.547,3.6h-39.886c-2.033,0-2.267-.228-2.267-2.217q0-6.248,0-12.5c0-.664-.089-1.383.756-1.671A4.448,4.448,0,0,0,2821,288.507Z" transform="translate(-17.956 -124.805)" fill="#010202"/><path d="M2805.669,191.9c-.5-.341-.436-.869-.436-1.366q0-27.993,0-55.986c0-.5-.066-1.025.436-1.366.023.46.066.921.066,1.382q0,27.977,0,55.954C2805.735,190.982,2805.692,191.442,2805.669,191.9Z" transform="translate(-7.482 -8.737)" fill="#b7defd"/><path d="M2806.944,131.91c.343-.5.87-.437,1.368-.437q24.61,0,49.22,0c.505,0,1.024-.03,1.357.469-4.034.012-8.07.034-12.1.036q-19.1.007-38.207,0C2808.034,131.976,2807.489,131.933,2806.944,131.91Z" transform="translate(-8.763 -7.456)" fill="#b7defd"/><path d="M2858.89,365.387c-.371.546-.944.469-1.483.469q-24.485,0-48.969,0c-.534,0-1.113.108-1.494-.436.334-.023.669-.065,1-.066q25.094,0,50.186,0C2858.387,365.353,2858.639,365.375,2858.89,365.387Z" transform="translate(-8.763 -182.26)" fill="#b7defd"/><path d="M2867.563,143.964h-43v-.126h43.053Z" transform="translate(-21.929 -16.699)" fill="#b7defd"/><path d="M2824.421,354.5h43v.124h-43.046Z" transform="translate(-21.793 -174.147)" fill="#b7defd"/><path d="M2817.374,177.639V151.8h.125v25.884Z" transform="translate(-16.558 -22.653)" fill="#b7defd"/><path d="M2820.57,269.157c.787-.031,1.049.307,1.044,1.122s-.381,1-1.044,1c-.811.04-1.281-.308-1.245-1.157C2819.358,269.33,2819.838,269.067,2820.57,269.157Z" transform="translate(-18.015 -110.351)" fill="#050607"/><path d="M2823.251,287.717a.66.66,0,0,1-1-.028l.5-.267Z" transform="translate(-20.203 -124.015)"/><path d="M3038.112,199.413q0-.378,0-.755c.05-.1.086-.4.2-.2A.732.732,0,0,1,3038.112,199.413Z" transform="translate(-181.538 -57.473)" fill="#0c0c0c"/><ellipse cx="0.074" cy="7.626" rx="0.074" ry="7.626" transform="translate(2851.332 159.409)"/><path d="M3022.3,142.076v-6.395h.125v6.5Z" transform="translate(-169.724 -10.603)"/><path d="M3022.333,352.946v-3.469h.126V352.9Z" transform="translate(-169.746 -170.394)" fill="#010101"/><path d="M2893.042,270.914c-2.224,0-4.449-.015-6.673.007-.95.01-1.768-.219-1.745-1.309.021-1.005.808-1.225,1.708-1.222q6.736.024,13.473,0c.884,0,1.662.188,1.675,1.243s-.742,1.283-1.638,1.28C2897.576,270.908,2895.309,270.914,2893.042,270.914Z" transform="translate(-66.821 -109.79)" fill="#010101"/><path d="M2914.2,301.949a3.4,3.4,0,0,1-2.772-1.544c-.514-.582-.887-.737-1.448-.041s-1.3,1.038-2.047.283-.326-1.428.28-2.067c1.784-1.881,3.077-1.954,4.847-.046.771.832,1.229.833,1.909-.022a12.122,12.122,0,0,1,1.709-1.661,1.1,1.1,0,0,1,1.5.036,1.057,1.057,0,0,1,.314,1.464,13.367,13.367,0,0,1-3.6,3.437A1.97,1.97,0,0,1,2914.2,301.949Z" transform="translate(-83.949 -130.854)" fill="#010101"/><path d="M2867.22,181.217c.219-.717.807-.753,1.406-.754,1.8,0,3.6,0,5.4,0,.912,0,1.627.289,1.59,1.324-.034.959-.742,1.2-1.59,1.2-1.8-.009-3.6,0-5.4,0-.6,0-1.187-.037-1.406-.755Q2867.217,181.72,2867.22,181.217Z" transform="translate(-53.812 -44.07)" fill="#020202"/><path d="M2850.612,181.04q1.34,1,0,2a1.252,1.252,0,0,1-1.179.008l0-.008a1.99,1.99,0,0,1,0-2l0-.008A1.254,1.254,0,0,1,2850.612,181.04Z" transform="translate(-40.32 -44.392)"/><path d="M2848.3,181.49v2Q2846.985,182.491,2848.3,181.49Z" transform="translate(-39.179 -44.841)"/><path d="M2866.569,183.459a.614.614,0,0,1,0,1.007A.682.682,0,0,1,2866.569,183.459Z" transform="translate(-53.161 -46.312)"/><path d="M2851.4,180.672l-1.178-.007C2850.618,180.369,2851.012,180.25,2851.4,180.672Z" transform="translate(-41.11 -44.024)" fill="#131313"/><path d="M2850.224,189.424l1.178-.008C2851.012,189.84,2850.619,189.72,2850.224,189.424Z" transform="translate(-41.11 -50.765)" fill="#131313"/><path d="M2965.687,206.8a6.519,6.519,0,0,0-1.055.392,1.538,1.538,0,0,1-2.419-.6,3.307,3.307,0,0,0-2.874-1.566,1.349,1.349,0,0,1-1.5-1.473,3.559,3.559,0,0,0-1.75-3.037,1.333,1.333,0,0,1-.52-2.023,3.476,3.476,0,0,0-.018-3.5,1.334,1.334,0,0,1,.569-2.014,3.523,3.523,0,0,0,1.727-3.044,1.3,1.3,0,0,1,1.4-1.425,3.682,3.682,0,0,0,3.142-1.811,1.288,1.288,0,0,1,1.925-.53,3.645,3.645,0,0,0,3.62,0,1.288,1.288,0,0,1,1.923.535,3.682,3.682,0,0,0,3.144,1.807,1.294,1.294,0,0,1,1.4,1.429,3.523,3.523,0,0,0,1.73,3.042,1.334,1.334,0,0,1,.563,2.015,3.566,3.566,0,0,0,.037,3.615,1.227,1.227,0,0,1-.476,1.83,3.635,3.635,0,0,0-1.852,3.109,1.345,1.345,0,0,1-1.5,1.474,3.314,3.314,0,0,0-2.874,1.566,1.539,1.539,0,0,1-2.419.6,6.505,6.505,0,0,0-1.055-.392c-.216-.4-.586-.052-.872-.173-.131-.056-.227.139-.067.088C2965.629,206.714,2965.663,206.773,2965.687,206.8Z" transform="translate(-119.646 -48.164)" fill="#de6663"/><path d="M2990.382,279.507c.741.245,1.845.282,2.134.786.383.67.143,1.7.149,2.581.01,1.491,0,2.983,0,4.57-1.141-.548-1.53-1.978-2.785-1.975s-1.643,1.429-2.779,1.976c0-2.305.008-4.511-.007-6.716,0-.459.135-.651.62-.726a11.986,11.986,0,0,0,1.671-.5A3.432,3.432,0,0,0,2990.382,279.507Z" transform="translate(-143.41 -118.099)" fill="#aee351"/><path d="M2995.529,267.767c-.125-.051-.356-.208-.288-.217a5.691,5.691,0,0,1,1.444,0c.069.009-.163.166-.288.217Z" transform="translate(-149.487 -109.128)" fill="#e06b68"/><path d="M2985.258,177.649a1.646,1.646,0,0,1,1.233-.112C2986.17,177.858,2985.841,177.676,2985.258,177.649Z" transform="translate(-142.036 -41.833)" fill="#0b0b0b"/><path d="M3005.933,177.538a1.2,1.2,0,0,1,1.111.028A1.2,1.2,0,0,1,3005.933,177.538Z" transform="translate(-157.488 -41.795)" fill="#090a0b"/><path d="M2995.461,270.533a1.671,1.671,0,0,1,1.243-.014A1.517,1.517,0,0,1,2995.461,270.533Z" transform="translate(-149.661 -111.297)" fill="#0a0606"/><path d="M2997.163,278.967a.638.638,0,0,1-.994,0A.768.768,0,0,1,2997.163,278.967Z" transform="translate(-150.191 -117.559)" fill="#b9f155"/><path d="M2956.994,255.133a1.324,1.324,0,0,1,.225,1.164C2956.93,256,2957.089,255.731,2956.994,255.133Z" transform="translate(-120.911 -99.882)" fill="#0a0a0a"/><path d="M2957.3,199.053a1.022,1.022,0,0,1-.007-.927A.871.871,0,0,1,2957.3,199.053Z" transform="translate(-121.057 -57.275)" fill="#0a0a0a"/><path d="M3023.133,193.476a2.62,2.62,0,0,1,.642.066c.04.312-.235.139-.375.166a.853.853,0,0,1-.323-.069Z" transform="translate(-170.302 -53.799)" fill="#0a0606"/><path d="M2969.989,193.56a.822.822,0,0,1,.864-.011A.733.733,0,0,1,2969.989,193.56Z" transform="translate(-130.623 -53.767)" fill="#0a0606"/><path d="M2993.256,215.074a1.526,1.526,0,0,1-.569,1.083c-1.515,1.516-3.039,3.023-4.541,4.551a1.455,1.455,0,0,1-2.384.01c-.672-.694-1.368-1.366-2.045-2.056-.6-.61-.869-1.293-.161-1.976.647-.625,1.283-.381,1.893.153,1.6,1.4,1.609,1.394,3.134-.129.833-.832,1.658-1.671,2.505-2.487a1.244,1.244,0,0,1,2.168.85Z" transform="translate(-140.447 -68.986)" fill="#010100"/></g></g></svg>