<svg xmlns="http://www.w3.org/2000/svg" xmlns:xlink="http://www.w3.org/1999/xlink" width="61.638" height="63.158" viewBox="0 0 61.638 63.158">
  <defs>
    <filter id="Elipse_6701" x="0" y="1.519" width="61.638" height="61.639" filterUnits="userSpaceOnUse">
      <feOffset dy="3" input="SourceAlpha"/>
      <feGaussianBlur stdDeviation="3" result="blur"/>
      <feFlood flood-opacity="0.059"/>
      <feComposite operator="in" in2="blur"/>
      <feComposite in="SourceGraphic"/>
    </filter>
  </defs>
  <g id="Grupo_841565" data-name="Grupo 841565" transform="translate(-670.519 -1100)">
    <ellipse id="Elipse_6702" data-name="Elipse 6702" cx="29.5" cy="29.5" rx="29.5" ry="29.5" transform="translate(672 1100)" fill="#47b5ab"/>
    <g transform="matrix(1, 0, 0, 1, 670.52, 1100)" filter="url(#Elipse_6701)">
      <ellipse id="Elipse_6701-2" data-name="Elipse 6701" cx="21.819" cy="21.819" rx="21.819" ry="21.819" transform="translate(9 7.52)" fill="#fff"/>
    </g>
    <path id="Trazado_565715" data-name="Trazado 565715" d="M21.911,10.641h1.5a2.119,2.119,0,0,0,1.592-.537,1.968,1.968,0,0,0,.518-1.426,1.74,1.74,0,0,0-.513-1.338A1.987,1.987,0,0,0,23.6,6.861a2.083,2.083,0,0,0-1.357.444A1.421,1.421,0,0,0,21.7,8.463H18.874a3.471,3.471,0,0,1,.6-2,4,4,0,0,1,1.68-1.382,5.606,5.606,0,0,1,2.378-.5,5.316,5.316,0,0,1,3.535,1.079,3.682,3.682,0,0,1,1.279,2.974,2.992,2.992,0,0,1-.6,1.8,3.87,3.87,0,0,1-1.562,1.26,3.533,3.533,0,0,1,1.792,1.289,3.5,3.5,0,0,1,.591,2.031,3.743,3.743,0,0,1-1.382,3.037A5.556,5.556,0,0,1,23.532,19.2a5.268,5.268,0,0,1-3.481-1.123A3.668,3.668,0,0,1,18.7,15.1H21.52a1.635,1.635,0,0,0,.6,1.309,2.505,2.505,0,0,0,3.057-.024,1.837,1.837,0,0,0,.571-1.411q0-2.129-2.344-2.129H21.911Z" transform="translate(678.266 1116.291)" fill="#12263f"/>
  </g>
</svg>
