<svg xmlns="http://www.w3.org/2000/svg" xmlns:xlink="http://www.w3.org/1999/xlink" width="61.638" height="63.157" viewBox="0 0 61.638 63.157">
  <defs>
    <filter id="Elipse_6701" x="0" y="1.519" width="61.638" height="61.639" filterUnits="userSpaceOnUse">
      <feOffset dy="3" input="SourceAlpha"/>
      <feGaussianBlur stdDeviation="3" result="blur"/>
      <feFlood flood-opacity="0.059"/>
      <feComposite operator="in" in2="blur"/>
      <feComposite in="SourceGraphic"/>
    </filter>
  </defs>
  <g id="Grupo_841701" data-name="Grupo 841701" transform="translate(-670.519 -1100)">
    <ellipse id="Elipse_6702" data-name="Elipse 6702" cx="29.5" cy="29.5" rx="29.5" ry="29.5" transform="translate(672 1100)" fill="#47b5ab"/>
    <g transform="matrix(1, 0, 0, 1, 670.52, 1100)" filter="url(#Elipse_6701)">
      <ellipse id="Elipse_6701-2" data-name="Elipse 6701" cx="21.819" cy="21.819" rx="21.819" ry="21.819" transform="translate(9 7.52)" fill="#fff"/>
    </g>
    <path id="Trazado_565713" data-name="Trazado 565713" d="M26.7,4.635V6.959h-.273a4.8,4.8,0,0,0-3.081,1,4.047,4.047,0,0,0-1.4,2.686A3.844,3.844,0,0,1,24.8,9.488a3.622,3.622,0,0,1,2.949,1.328,5.324,5.324,0,0,1,1.094,3.5,5.237,5.237,0,0,1-.6,2.51,4.307,4.307,0,0,1-1.7,1.748,4.937,4.937,0,0,1-2.485.625,4.611,4.611,0,0,1-3.628-1.562,6.065,6.065,0,0,1-1.382-4.17V12.447a9.128,9.128,0,0,1,.874-4.087,6.409,6.409,0,0,1,2.51-2.744,7.354,7.354,0,0,1,3.794-.981Zm-2.754,7.129a2.255,2.255,0,0,0-1.24.356,2.143,2.143,0,0,0-.82.941v.858a3.8,3.8,0,0,0,.557,2.208A1.8,1.8,0,0,0,24,16.92a1.779,1.779,0,0,0,1.47-.716,2.922,2.922,0,0,0,.562-1.857,2.916,2.916,0,0,0-.566-1.871A1.846,1.846,0,0,0,23.942,11.764Z" transform="translate(678.266 1116.291)" fill="#12263f"/>
  </g>
</svg>
